M48
; DRILL file {KiCad 9.0.1} date 2025-04-24T13:25:23+0700
; FORMAT={-:-/ absolute / inch / decimal}
; #@! TF.CreationDate,2025-04-24T13:25:23+07:00
; #@! TF.GenerationSoftware,Kicad,Pcbnew,9.0.1
; #@! TF.FileFunction,MixedPlating,1,2
FMAT,2
INCH
; #@! TA.AperFunction,Plated,PTH,ComponentDrill
T1C0.0394
; #@! TA.AperFunction,Plated,PTH,ComponentDrill
T2C0.0433
%
G90
G05
T1
X6.51Y-3.2866
X6.51Y-3.3866
X6.51Y-3.4866
X6.51Y-3.5866
X6.51Y-3.846
X6.51Y-3.946
X6.51Y-4.046
X6.51Y-4.146
X6.6907Y-3.2866
X6.6907Y-3.3866
X6.6907Y-3.846
X6.6907Y-3.946
X6.8714Y-3.2866
X6.8714Y-3.3866
X6.8714Y-3.846
X6.8714Y-3.946
X7.1309Y-3.2866
X7.1309Y-3.3866
X7.1309Y-3.4866
X7.1309Y-3.5866
X7.1309Y-3.846
X7.1309Y-3.946
X7.1309Y-4.046
X7.1309Y-4.146
X7.3116Y-3.2866
X7.3116Y-3.3866
X7.3116Y-3.846
X7.3116Y-3.946
X7.4923Y-3.2866
X7.4923Y-3.3866
X7.4923Y-3.846
X7.4923Y-3.946
T2
X4.2107Y-2.7055
X4.2107Y-2.8827
X4.2477Y-3.8475
X4.2477Y-4.0247
X4.4666Y-2.7055
X4.4666Y-2.8827
X4.5036Y-3.8475
X4.5036Y-4.0247
X5.2936Y-3.8595
X5.2936Y-4.0367
X5.4031Y-2.7341
X5.4031Y-2.9113
X5.5495Y-3.8595
X5.5495Y-4.0367
X5.659Y-2.7341
X5.659Y-2.9113
M30
