%TF.GenerationSoftware,KiCad,Pcbnew,9.0.1*%
%TF.CreationDate,2025-05-02T17:03:06+07:00*%
%TF.ProjectId,push-button-controller,70757368-2d62-4757-9474-6f6e2d636f6e,rev?*%
%TF.SameCoordinates,Original*%
%TF.FileFunction,Soldermask,Top*%
%TF.FilePolarity,Negative*%
%FSLAX45Y45*%
G04 Gerber Fmt 4.5, Leading zero omitted, Abs format (unit mm)*
G04 Created by KiCad (PCBNEW 9.0.1) date 2025-05-02 17:03:06*
%MOMM*%
%LPD*%
G01*
G04 APERTURE LIST*
G04 Aperture macros list*
%AMRoundRect*
0 Rectangle with rounded corners*
0 $1 Rounding radius*
0 $2 $3 $4 $5 $6 $7 $8 $9 X,Y pos of 4 corners*
0 Add a 4 corners polygon primitive as box body*
4,1,4,$2,$3,$4,$5,$6,$7,$8,$9,$2,$3,0*
0 Add four circle primitives for the rounded corners*
1,1,$1+$1,$2,$3*
1,1,$1+$1,$4,$5*
1,1,$1+$1,$6,$7*
1,1,$1+$1,$8,$9*
0 Add four rect primitives between the rounded corners*
20,1,$1+$1,$2,$3,$4,$5,0*
20,1,$1+$1,$4,$5,$6,$7,0*
20,1,$1+$1,$6,$7,$8,$9,0*
20,1,$1+$1,$8,$9,$2,$3,0*%
%AMFreePoly0*
4,1,23,0.500000,-0.750000,0.000000,-0.750000,0.000000,-0.745722,-0.065263,-0.745722,-0.191342,-0.711940,-0.304381,-0.646677,-0.396677,-0.554381,-0.461940,-0.441342,-0.495722,-0.315263,-0.495722,-0.250000,-0.500000,-0.250000,-0.500000,0.250000,-0.495722,0.250000,-0.495722,0.315263,-0.461940,0.441342,-0.396677,0.554381,-0.304381,0.646677,-0.191342,0.711940,-0.065263,0.745722,0.000000,0.745722,
0.000000,0.750000,0.500000,0.750000,0.500000,-0.750000,0.500000,-0.750000,$1*%
%AMFreePoly1*
4,1,23,0.000000,0.745722,0.065263,0.745722,0.191342,0.711940,0.304381,0.646677,0.396677,0.554381,0.461940,0.441342,0.495722,0.315263,0.495722,0.250000,0.500000,0.250000,0.500000,-0.250000,0.495722,-0.250000,0.495722,-0.315263,0.461940,-0.441342,0.396677,-0.554381,0.304381,-0.646677,0.191342,-0.711940,0.065263,-0.745722,0.000000,-0.745722,0.000000,-0.750000,-0.500000,-0.750000,
-0.500000,0.750000,0.000000,0.750000,0.000000,0.745722,0.000000,0.745722,$1*%
G04 Aperture macros list end*
%ADD10R,1.700000X1.700000*%
%ADD11C,1.700000*%
%ADD12FreePoly0,90.000000*%
%ADD13FreePoly1,90.000000*%
%ADD14RoundRect,0.225000X0.225000X0.250000X-0.225000X0.250000X-0.225000X-0.250000X0.225000X-0.250000X0*%
%ADD15RoundRect,0.200000X-0.200000X-0.275000X0.200000X-0.275000X0.200000X0.275000X-0.200000X0.275000X0*%
%ADD16RoundRect,0.225000X-0.225000X-0.250000X0.225000X-0.250000X0.225000X0.250000X-0.225000X0.250000X0*%
%ADD17RoundRect,0.102000X-0.609600X-0.203200X0.609600X-0.203200X0.609600X0.203200X-0.609600X0.203200X0*%
%ADD18C,2.000000*%
%ADD19RoundRect,0.225000X-0.250000X0.225000X-0.250000X-0.225000X0.250000X-0.225000X0.250000X0.225000X0*%
%ADD20FreePoly0,180.000000*%
%ADD21FreePoly1,180.000000*%
%ADD22FreePoly0,0.000000*%
%ADD23FreePoly1,0.000000*%
%ADD24RoundRect,0.102000X0.609600X0.203200X-0.609600X0.203200X-0.609600X-0.203200X0.609600X-0.203200X0*%
%ADD25RoundRect,0.083000X-0.639000X-0.249000X0.639000X-0.249000X0.639000X0.249000X-0.639000X0.249000X0*%
%ADD26RoundRect,0.200000X0.200000X0.275000X-0.200000X0.275000X-0.200000X-0.275000X0.200000X-0.275000X0*%
G04 APERTURE END LIST*
%TO.C,JP23*%
G36*
X10797690Y-9672080D02*
G01*
X10947690Y-9672080D01*
X10947690Y-9642080D01*
X10797690Y-9642080D01*
X10797690Y-9672080D01*
G37*
%TO.C,JP12*%
G36*
X14322550Y-13165560D02*
G01*
X14472550Y-13165560D01*
X14472550Y-13135560D01*
X14322550Y-13135560D01*
X14322550Y-13165560D01*
G37*
%TO.C,JP5*%
G36*
X10462160Y-13223590D02*
G01*
X10612160Y-13223590D01*
X10612160Y-13193590D01*
X10462160Y-13193590D01*
X10462160Y-13223590D01*
G37*
%TO.C,JP11*%
G36*
X13966800Y-13165560D02*
G01*
X14116800Y-13165560D01*
X14116800Y-13135560D01*
X13966800Y-13135560D01*
X13966800Y-13165560D01*
G37*
%TO.C,JP28*%
G36*
X14608740Y-9705100D02*
G01*
X14758740Y-9705100D01*
X14758740Y-9675100D01*
X14608740Y-9675100D01*
X14608740Y-9705100D01*
G37*
%TO.C,JP16*%
G36*
X15632060Y-13508840D02*
G01*
X15602060Y-13508840D01*
X15602060Y-13358840D01*
X15632060Y-13358840D01*
X15632060Y-13508840D01*
G37*
%TO.C,JP2*%
G36*
X14091800Y-12713380D02*
G01*
X14121800Y-12713380D01*
X14121800Y-12863380D01*
X14091800Y-12863380D01*
X14091800Y-12713380D01*
G37*
%TO.C,JP4*%
G36*
X10587160Y-12718070D02*
G01*
X10617160Y-12718070D01*
X10617160Y-12868070D01*
X10587160Y-12868070D01*
X10587160Y-12718070D01*
G37*
%TO.C,JP7*%
G36*
X11189280Y-13219550D02*
G01*
X11339280Y-13219550D01*
X11339280Y-13189550D01*
X11189280Y-13189550D01*
X11189280Y-13219550D01*
G37*
%TO.C,JP15*%
G36*
X15632060Y-13153610D02*
G01*
X15602060Y-13153610D01*
X15602060Y-13003610D01*
X15632060Y-13003610D01*
X15632060Y-13153610D01*
G37*
%TO.C,JP21*%
G36*
X12187720Y-9963220D02*
G01*
X12157720Y-9963220D01*
X12157720Y-9813220D01*
X12187720Y-9813220D01*
X12187720Y-9963220D01*
G37*
%TO.C,JP22*%
G36*
X10439100Y-9672080D02*
G01*
X10589100Y-9672080D01*
X10589100Y-9642080D01*
X10439100Y-9642080D01*
X10439100Y-9672080D01*
G37*
%TO.C,JP19*%
G36*
X12187720Y-9236780D02*
G01*
X12157720Y-9236780D01*
X12157720Y-9086780D01*
X12187720Y-9086780D01*
X12187720Y-9236780D01*
G37*
%TO.C,JP3*%
G36*
X11478220Y-12803070D02*
G01*
X11448220Y-12803070D01*
X11448220Y-12653070D01*
X11478220Y-12653070D01*
X11478220Y-12803070D01*
G37*
%TO.C,JP1*%
G36*
X15046360Y-12798380D02*
G01*
X15016360Y-12798380D01*
X15016360Y-12648380D01*
X15046360Y-12648380D01*
X15046360Y-12798380D01*
G37*
%TO.C,JP32*%
G36*
X15102600Y-9246420D02*
G01*
X15072600Y-9246420D01*
X15072600Y-9096420D01*
X15102600Y-9096420D01*
X15102600Y-9246420D01*
G37*
%TO.C,JP31*%
G36*
X15807220Y-9957020D02*
G01*
X15777220Y-9957020D01*
X15777220Y-9807020D01*
X15807220Y-9807020D01*
X15807220Y-9957020D01*
G37*
%TO.C,JP20*%
G36*
X12187720Y-9600000D02*
G01*
X12157720Y-9600000D01*
X12157720Y-9450000D01*
X12187720Y-9450000D01*
X12187720Y-9600000D01*
G37*
%TO.C,JP29*%
G36*
X15807220Y-9247020D02*
G01*
X15777220Y-9247020D01*
X15777220Y-9097020D01*
X15807220Y-9097020D01*
X15807220Y-9247020D01*
G37*
%TO.C,JP18*%
G36*
X11511040Y-9236780D02*
G01*
X11481040Y-9236780D01*
X11481040Y-9086780D01*
X11511040Y-9086780D01*
X11511040Y-9236780D01*
G37*
%TO.C,JP10*%
G36*
X12078700Y-13526230D02*
G01*
X12048700Y-13526230D01*
X12048700Y-13376230D01*
X12078700Y-13376230D01*
X12078700Y-13526230D01*
G37*
%TO.C,JP6*%
G36*
X10825720Y-13219550D02*
G01*
X10975720Y-13219550D01*
X10975720Y-13189550D01*
X10825720Y-13189550D01*
X10825720Y-13219550D01*
G37*
%TO.C,JP9*%
G36*
X12078700Y-13164650D02*
G01*
X12048700Y-13164650D01*
X12048700Y-13014650D01*
X12078700Y-13014650D01*
X12078700Y-13164650D01*
G37*
%TO.C,JP14*%
G36*
X15632060Y-12798380D02*
G01*
X15602060Y-12798380D01*
X15602060Y-12648380D01*
X15632060Y-12648380D01*
X15632060Y-12798380D01*
G37*
%TO.C,JP8*%
G36*
X12078700Y-12803070D02*
G01*
X12048700Y-12803070D01*
X12048700Y-12653070D01*
X12078700Y-12653070D01*
X12078700Y-12803070D01*
G37*
%TO.C,JP17*%
G36*
X10564100Y-9155360D02*
G01*
X10594100Y-9155360D01*
X10594100Y-9305360D01*
X10564100Y-9305360D01*
X10564100Y-9155360D01*
G37*
%TO.C,JP24*%
G36*
X11156280Y-9672080D02*
G01*
X11306280Y-9672080D01*
X11306280Y-9642080D01*
X11156280Y-9642080D01*
X11156280Y-9672080D01*
G37*
%TO.C,JP13*%
G36*
X14678300Y-13165560D02*
G01*
X14828300Y-13165560D01*
X14828300Y-13135560D01*
X14678300Y-13135560D01*
X14678300Y-13165560D01*
G37*
%TO.C,JP30*%
G36*
X15807220Y-9602020D02*
G01*
X15777220Y-9602020D01*
X15777220Y-9452020D01*
X15807220Y-9452020D01*
X15807220Y-9602020D01*
G37*
%TD*%
D10*
%TO.C,J10*%
X16229360Y-8735060D03*
D11*
X16229360Y-8481060D03*
%TD*%
D12*
%TO.C,JP23*%
X10872690Y-9722080D03*
D13*
X10872690Y-9592080D03*
%TD*%
D14*
%TO.C,C25*%
X14151640Y-9135860D03*
X13996640Y-9135860D03*
%TD*%
D15*
%TO.C,R9*%
X11413540Y-9367520D03*
X11578540Y-9367520D03*
%TD*%
D10*
%TO.C,J7*%
X16018180Y-11557150D03*
D11*
X16018180Y-11303150D03*
X16018180Y-11049150D03*
X16018180Y-10795150D03*
%TD*%
D12*
%TO.C,JP12*%
X14397550Y-13215560D03*
D13*
X14397550Y-13085560D03*
%TD*%
D16*
%TO.C,C13*%
X12329100Y-12728070D03*
X12484100Y-12728070D03*
%TD*%
D17*
%TO.C,U1*%
X10912040Y-12663070D03*
X10912040Y-12728070D03*
X10912040Y-12793070D03*
X10912040Y-12858070D03*
X11140640Y-12858070D03*
X11140640Y-12793070D03*
X11140640Y-12728070D03*
X11140640Y-12663070D03*
%TD*%
D18*
%TO.C,SW1*%
X14474300Y-11503900D03*
X14474300Y-12153900D03*
X14024300Y-11503900D03*
X14024300Y-12153900D03*
%TD*%
D16*
%TO.C,C31*%
X16074360Y-9527020D03*
X16229360Y-9527020D03*
%TD*%
%TO.C,C29*%
X14461460Y-8894560D03*
X14616460Y-8894560D03*
%TD*%
D12*
%TO.C,JP5*%
X10537160Y-13273590D03*
D13*
X10537160Y-13143590D03*
%TD*%
D16*
%TO.C,C21*%
X12461880Y-9888220D03*
X12616880Y-9888220D03*
%TD*%
D19*
%TO.C,C8*%
X14041800Y-13396880D03*
X14041800Y-13551880D03*
%TD*%
D10*
%TO.C,J8*%
X14024300Y-11049500D03*
D11*
X14024300Y-10795500D03*
%TD*%
D10*
%TO.C,J6*%
X12484100Y-12317470D03*
D11*
X12484100Y-12063470D03*
%TD*%
D16*
%TO.C,C30*%
X16074360Y-9172020D03*
X16229360Y-9172020D03*
%TD*%
D12*
%TO.C,JP11*%
X14041800Y-13215560D03*
D13*
X14041800Y-13085560D03*
%TD*%
D19*
%TO.C,C23*%
X10872690Y-9916100D03*
X10872690Y-10071100D03*
%TD*%
D16*
%TO.C,C11*%
X12329100Y-13451230D03*
X12484100Y-13451230D03*
%TD*%
%TO.C,C18*%
X10905460Y-8910320D03*
X11060460Y-8910320D03*
%TD*%
D12*
%TO.C,JP28*%
X14683740Y-9755100D03*
D13*
X14683740Y-9625100D03*
%TD*%
D17*
%TO.C,U3*%
X10906760Y-9098280D03*
X10906760Y-9161780D03*
X10906760Y-9227820D03*
X10906760Y-9291320D03*
X11150600Y-9291320D03*
X11150600Y-9227820D03*
X11150600Y-9161780D03*
X11150600Y-9098280D03*
%TD*%
D19*
%TO.C,C24*%
X11231280Y-9916100D03*
X11231280Y-10071100D03*
%TD*%
D20*
%TO.C,JP16*%
X15682060Y-13433840D03*
D21*
X15552060Y-13433840D03*
%TD*%
D10*
%TO.C,J11*%
X16229360Y-7988450D03*
D11*
X16229360Y-7734450D03*
X16229360Y-7480450D03*
X16229360Y-7226450D03*
%TD*%
D22*
%TO.C,JP2*%
X14041800Y-12788380D03*
D23*
X14171800Y-12788380D03*
%TD*%
D22*
%TO.C,JP4*%
X10537160Y-12793070D03*
D23*
X10667160Y-12793070D03*
%TD*%
D15*
%TO.C,R12*%
X15005100Y-9374620D03*
X15170100Y-9374620D03*
%TD*%
%TO.C,R8*%
X11413540Y-8948420D03*
X11578540Y-8948420D03*
%TD*%
D16*
%TO.C,C14*%
X12329100Y-13089650D03*
X12484100Y-13089650D03*
%TD*%
D19*
%TO.C,C12*%
X11264280Y-13466370D03*
X11264280Y-13621370D03*
%TD*%
D16*
%TO.C,C10*%
X10912040Y-12469450D03*
X11067040Y-12469450D03*
%TD*%
D15*
%TO.C,R2*%
X14948860Y-12927040D03*
X15113860Y-12927040D03*
%TD*%
D12*
%TO.C,JP7*%
X11264280Y-13269550D03*
D13*
X11264280Y-13139550D03*
%TD*%
D20*
%TO.C,JP15*%
X15682060Y-13078610D03*
D21*
X15552060Y-13078610D03*
%TD*%
D20*
%TO.C,JP21*%
X12237720Y-9888220D03*
D21*
X12107720Y-9888220D03*
%TD*%
D15*
%TO.C,R10*%
X13991640Y-8978380D03*
X14156640Y-8978380D03*
%TD*%
D12*
%TO.C,JP22*%
X10514100Y-9722080D03*
D13*
X10514100Y-9592080D03*
%TD*%
D10*
%TO.C,J4*%
X12484100Y-11560040D03*
D11*
X12484100Y-11306040D03*
X12484100Y-11052040D03*
X12484100Y-10798040D03*
%TD*%
D19*
%TO.C,C7*%
X14753300Y-13396880D03*
X14753300Y-13551880D03*
%TD*%
D20*
%TO.C,JP19*%
X12237720Y-9161780D03*
D21*
X12107720Y-9161780D03*
%TD*%
D16*
%TO.C,C19*%
X12461880Y-9161780D03*
X12616880Y-9161780D03*
%TD*%
D14*
%TO.C,C17*%
X10656600Y-9027160D03*
X10501600Y-9027160D03*
%TD*%
D19*
%TO.C,C16*%
X10900720Y-13466370D03*
X10900720Y-13621370D03*
%TD*%
%TO.C,C15*%
X10537160Y-13466370D03*
X10537160Y-13621370D03*
%TD*%
D20*
%TO.C,JP3*%
X11528220Y-12728070D03*
D21*
X11398220Y-12728070D03*
%TD*%
D24*
%TO.C,U4*%
X14683740Y-9299920D03*
X14683740Y-9234920D03*
X14683740Y-9169920D03*
X14683740Y-9104920D03*
X14455140Y-9104920D03*
X14455140Y-9169920D03*
X14455140Y-9234920D03*
X14455140Y-9299920D03*
%TD*%
D16*
%TO.C,C4*%
X14451460Y-12448540D03*
X14606460Y-12448540D03*
%TD*%
D20*
%TO.C,JP1*%
X15096360Y-12723380D03*
D21*
X14966360Y-12723380D03*
%TD*%
D15*
%TO.C,R4*%
X10519660Y-12433890D03*
X10684660Y-12433890D03*
%TD*%
D20*
%TO.C,JP32*%
X15152600Y-9171420D03*
D21*
X15022600Y-9171420D03*
%TD*%
D20*
%TO.C,JP31*%
X15857220Y-9882020D03*
D21*
X15727220Y-9882020D03*
%TD*%
D18*
%TO.C,SW4*%
X14441640Y-7909800D03*
X14441640Y-8559800D03*
X13991640Y-7909800D03*
X13991640Y-8559800D03*
%TD*%
D25*
%TO.C,U2*%
X14451460Y-12658380D03*
X14451460Y-12723380D03*
X14451460Y-12788380D03*
X14451460Y-12853380D03*
X14688460Y-12853380D03*
X14688460Y-12788380D03*
X14688460Y-12723380D03*
X14688460Y-12658380D03*
%TD*%
D20*
%TO.C,JP20*%
X12237720Y-9525000D03*
D21*
X12107720Y-9525000D03*
%TD*%
D10*
%TO.C,J12*%
X13991640Y-7480450D03*
D11*
X13991640Y-7226450D03*
%TD*%
D20*
%TO.C,JP29*%
X15857220Y-9172020D03*
D21*
X15727220Y-9172020D03*
%TD*%
D16*
%TO.C,C5*%
X15863180Y-13078610D03*
X16018180Y-13078610D03*
%TD*%
D19*
%TO.C,C9*%
X14397550Y-13396880D03*
X14397550Y-13551880D03*
%TD*%
%TO.C,C22*%
X10514100Y-9916100D03*
X10514100Y-10071100D03*
%TD*%
D26*
%TO.C,R11*%
X14156640Y-9303500D03*
X13991640Y-9303500D03*
%TD*%
D16*
%TO.C,C32*%
X16074360Y-9882020D03*
X16229360Y-9882020D03*
%TD*%
%TO.C,C6*%
X15863180Y-13433840D03*
X16018180Y-13433840D03*
%TD*%
D15*
%TO.C,R6*%
X11380720Y-12949510D03*
X11545720Y-12949510D03*
%TD*%
D18*
%TO.C,SW3*%
X10946600Y-7909800D03*
X10946600Y-8559800D03*
X10496600Y-7909800D03*
X10496600Y-8559800D03*
%TD*%
D16*
%TO.C,C20*%
X12461880Y-9525000D03*
X12616880Y-9525000D03*
%TD*%
D14*
%TO.C,C2*%
X10679660Y-12588830D03*
X10524660Y-12588830D03*
%TD*%
D20*
%TO.C,JP18*%
X11561040Y-9161780D03*
D21*
X11431040Y-9161780D03*
%TD*%
D20*
%TO.C,JP10*%
X12128700Y-13451230D03*
D21*
X11998700Y-13451230D03*
%TD*%
D14*
%TO.C,C1*%
X14184300Y-12589220D03*
X14029300Y-12589220D03*
%TD*%
D12*
%TO.C,JP6*%
X10900720Y-13269550D03*
D13*
X10900720Y-13139550D03*
%TD*%
D20*
%TO.C,JP9*%
X12128700Y-13089650D03*
D21*
X11998700Y-13089650D03*
%TD*%
D15*
%TO.C,R5*%
X11380720Y-12527870D03*
X11545720Y-12527870D03*
%TD*%
%TO.C,R7*%
X10496600Y-8851900D03*
X10661600Y-8851900D03*
%TD*%
D20*
%TO.C,JP14*%
X15682060Y-12723380D03*
D21*
X15552060Y-12723380D03*
%TD*%
D10*
%TO.C,J1*%
X12616880Y-7988450D03*
D11*
X12616880Y-7734450D03*
X12616880Y-7480450D03*
X12616880Y-7226450D03*
%TD*%
D10*
%TO.C,J9*%
X16018180Y-12346860D03*
D11*
X16018180Y-12092860D03*
%TD*%
D18*
%TO.C,SW2*%
X10969660Y-11435320D03*
X10969660Y-12085320D03*
X10519660Y-11435320D03*
X10519660Y-12085320D03*
%TD*%
D10*
%TO.C,J2*%
X10496600Y-7480450D03*
D11*
X10496600Y-7226450D03*
%TD*%
D10*
%TO.C,J5*%
X10519660Y-11052040D03*
D11*
X10519660Y-10798040D03*
%TD*%
D20*
%TO.C,JP8*%
X12128700Y-12728070D03*
D21*
X11998700Y-12728070D03*
%TD*%
D22*
%TO.C,JP17*%
X10514100Y-9230360D03*
D23*
X10644100Y-9230360D03*
%TD*%
D15*
%TO.C,R1*%
X14024300Y-12433300D03*
X14189300Y-12433300D03*
%TD*%
D10*
%TO.C,J3*%
X12616880Y-8727940D03*
D11*
X12616880Y-8473940D03*
%TD*%
D12*
%TO.C,JP24*%
X11231280Y-9722080D03*
D13*
X11231280Y-9592080D03*
%TD*%
D16*
%TO.C,C3*%
X15863180Y-12723380D03*
X16018180Y-12723380D03*
%TD*%
D15*
%TO.C,R3*%
X14948860Y-12520640D03*
X15113860Y-12520640D03*
%TD*%
D12*
%TO.C,JP13*%
X14753300Y-13215560D03*
D13*
X14753300Y-13085560D03*
%TD*%
D20*
%TO.C,JP30*%
X15857220Y-9527020D03*
D21*
X15727220Y-9527020D03*
%TD*%
M02*
