%TF.GenerationSoftware,KiCad,Pcbnew,9.0.1*%
%TF.CreationDate,2025-04-24T13:25:23+07:00*%
%TF.ProjectId,push-button-controller,70757368-2d62-4757-9474-6f6e2d636f6e,rev?*%
%TF.SameCoordinates,Original*%
%TF.FileFunction,Copper,L2,Bot*%
%TF.FilePolarity,Positive*%
%FSLAX45Y45*%
G04 Gerber Fmt 4.5, Leading zero omitted, Abs format (unit mm)*
G04 Created by KiCad (PCBNEW 9.0.1) date 2025-04-24 13:25:23*
%MOMM*%
%LPD*%
G01*
G04 APERTURE LIST*
%TA.AperFunction,ComponentPad*%
%ADD10R,1.700000X1.700000*%
%TD*%
%TA.AperFunction,ComponentPad*%
%ADD11C,1.700000*%
%TD*%
%TA.AperFunction,ComponentPad*%
%ADD12C,2.000000*%
%TD*%
G04 APERTURE END LIST*
D10*
%TO.P,J12,1,Pin_1*%
%TO.N,VIN*%
X19030400Y-8347840D03*
D11*
%TO.P,J12,2,Pin_2*%
%TO.N,GND*%
X19030400Y-8601840D03*
%TD*%
D10*
%TO.P,J11,1,Pin_1*%
%TO.N,VPU*%
X18112400Y-8347840D03*
D11*
%TO.P,J11,2,Pin_2*%
%TO.N,/LTC2955/\u002AINT*%
X18112400Y-8601840D03*
%TO.P,J11,3,Pin_3*%
%TO.N,/LTC2955/\u002AKILL*%
X18112400Y-8855840D03*
%TO.P,J11,4,Pin_4*%
%TO.N,GND*%
X18112400Y-9109840D03*
%TD*%
D10*
%TO.P,J10,1,Pin_1*%
%TO.N,/LTC2955/EN{slash}~{EN}*%
X18571400Y-8347840D03*
D11*
%TO.P,J10,2,Pin_2*%
%TO.N,GND*%
X18571400Y-8601840D03*
%TD*%
D10*
%TO.P,J9,1,Pin_1*%
%TO.N,/LTC2950/EN{slash}~{EN}*%
X17453400Y-8347840D03*
D11*
%TO.P,J9,2,Pin_2*%
%TO.N,GND*%
X17453400Y-8601840D03*
%TD*%
D10*
%TO.P,J8,1,Pin_1*%
%TO.N,VIN*%
X16994400Y-8347840D03*
D11*
%TO.P,J8,2,Pin_2*%
%TO.N,GND*%
X16994400Y-8601840D03*
%TD*%
D10*
%TO.P,J7,1,Pin_1*%
%TO.N,VPU*%
X16535400Y-8347840D03*
D11*
%TO.P,J7,2,Pin_2*%
%TO.N,/LTC2950/~{INT}*%
X16535400Y-8601840D03*
%TO.P,J7,3,Pin_3*%
%TO.N,/LTC2950/~{KILL}*%
X16535400Y-8855840D03*
%TO.P,J7,4,Pin_4*%
%TO.N,GND*%
X16535400Y-9109840D03*
%TD*%
D10*
%TO.P,J6,1,Pin_1*%
%TO.N,/LTC2954/EN{slash}~{EN}*%
X19030400Y-9768840D03*
D11*
%TO.P,J6,2,Pin_2*%
%TO.N,GND*%
X19030400Y-10022840D03*
%TD*%
D10*
%TO.P,J5,1,Pin_1*%
%TO.N,VIN*%
X18571400Y-9768840D03*
D11*
%TO.P,J5,2,Pin_2*%
%TO.N,GND*%
X18571400Y-10022840D03*
%TD*%
D10*
%TO.P,J4,1,Pin_1*%
%TO.N,VPU*%
X18112400Y-9768840D03*
D11*
%TO.P,J4,2,Pin_2*%
%TO.N,/LTC2954/\u002AINT*%
X18112400Y-10022840D03*
%TO.P,J4,3,Pin_3*%
%TO.N,/LTC2954/\u002AKILL*%
X18112400Y-10276840D03*
%TO.P,J4,4,Pin_4*%
%TO.N,GND*%
X18112400Y-10530840D03*
%TD*%
D10*
%TO.P,J3,1,Pin_1*%
%TO.N,/LTC2951/EN{slash}~{EN}*%
X17453400Y-9768840D03*
D11*
%TO.P,J3,2,Pin_2*%
%TO.N,GND*%
X17453400Y-10022840D03*
%TD*%
D10*
%TO.P,J2,1,Pin_1*%
%TO.N,VIN*%
X16994400Y-9768840D03*
D11*
%TO.P,J2,2,Pin_2*%
%TO.N,GND*%
X16994400Y-10022840D03*
%TD*%
D10*
%TO.P,J1,1,Pin_1*%
%TO.N,VPU*%
X16535400Y-9768840D03*
D11*
%TO.P,J1,2,Pin_2*%
%TO.N,/LTC2951/~INT*%
X16535400Y-10022840D03*
%TO.P,J1,3,Pin_3*%
%TO.N,/LTC2951/~KILL*%
X16535400Y-10276840D03*
%TO.P,J1,4,Pin_4*%
%TO.N,GND*%
X16535400Y-10530840D03*
%TD*%
D12*
%TO.P,SW1,1,1*%
%TO.N,GND*%
X13445720Y-9803180D03*
X14095720Y-9803180D03*
%TO.P,SW1,2,2*%
%TO.N,Net-(R1-Pad1)*%
X13445720Y-10253180D03*
X14095720Y-10253180D03*
%TD*%
%TO.P,SW4,1,1*%
%TO.N,GND*%
X10695240Y-6872000D03*
X11345240Y-6872000D03*
%TO.P,SW4,2,2*%
%TO.N,Net-(R10-Pad1)*%
X10695240Y-7322000D03*
X11345240Y-7322000D03*
%TD*%
%TO.P,SW3,1,1*%
%TO.N,GND*%
X13723980Y-6944640D03*
X14373980Y-6944640D03*
%TO.P,SW3,2,2*%
%TO.N,Net-(R7-Pad1)*%
X13723980Y-7394640D03*
X14373980Y-7394640D03*
%TD*%
%TO.P,SW2,1,1*%
%TO.N,GND*%
X10789120Y-9772620D03*
X11439120Y-9772620D03*
%TO.P,SW2,2,2*%
%TO.N,Net-(R4-Pad1)*%
X10789120Y-10222620D03*
X11439120Y-10222620D03*
%TD*%
%TA.AperFunction,Conductor*%
%TO.N,GND*%
G36*
X19603854Y-5043119D02*
G01*
X19608429Y-5048399D01*
X19609550Y-5053550D01*
X19609550Y-13879610D01*
X19607582Y-13886314D01*
X19602301Y-13890889D01*
X19597150Y-13892010D01*
X10029410Y-13892010D01*
X10022706Y-13890041D01*
X10018131Y-13884761D01*
X10017010Y-13879610D01*
X10017010Y-10522183D01*
X16425400Y-10522183D01*
X16425400Y-10539497D01*
X16428108Y-10556598D01*
X16433459Y-10573066D01*
X16441320Y-10588493D01*
X16441771Y-10589114D01*
X16441771Y-10589114D01*
X16487104Y-10543781D01*
X16488807Y-10550139D01*
X16495390Y-10561541D01*
X16504699Y-10570850D01*
X16516101Y-10577433D01*
X16522459Y-10579136D01*
X16477126Y-10624469D01*
X16477126Y-10624469D01*
X16477747Y-10624920D01*
X16493174Y-10632781D01*
X16509641Y-10638131D01*
X16526743Y-10640840D01*
X16544057Y-10640840D01*
X16561158Y-10638131D01*
X16577626Y-10632781D01*
X16593052Y-10624920D01*
X16593674Y-10624469D01*
X16548341Y-10579136D01*
X16554699Y-10577433D01*
X16566101Y-10570850D01*
X16575410Y-10561541D01*
X16581992Y-10550139D01*
X16583696Y-10543781D01*
X16629029Y-10589114D01*
X16629480Y-10588493D01*
X16637341Y-10573066D01*
X16642691Y-10556598D01*
X16645400Y-10539497D01*
X16645400Y-10522183D01*
X18002400Y-10522183D01*
X18002400Y-10539497D01*
X18005109Y-10556598D01*
X18010459Y-10573066D01*
X18018320Y-10588493D01*
X18018771Y-10589114D01*
X18018771Y-10589114D01*
X18064104Y-10543781D01*
X18065808Y-10550139D01*
X18072390Y-10561541D01*
X18081699Y-10570850D01*
X18093101Y-10577433D01*
X18099459Y-10579136D01*
X18054126Y-10624469D01*
X18054126Y-10624469D01*
X18054747Y-10624920D01*
X18070174Y-10632781D01*
X18086642Y-10638131D01*
X18103743Y-10640840D01*
X18121057Y-10640840D01*
X18138158Y-10638131D01*
X18154626Y-10632781D01*
X18170053Y-10624920D01*
X18170674Y-10624469D01*
X18170674Y-10624469D01*
X18125341Y-10579136D01*
X18131699Y-10577433D01*
X18143101Y-10570850D01*
X18152410Y-10561541D01*
X18158993Y-10550139D01*
X18160696Y-10543781D01*
X18206029Y-10589114D01*
X18206480Y-10588493D01*
X18214341Y-10573066D01*
X18219691Y-10556598D01*
X18222400Y-10539497D01*
X18222400Y-10522183D01*
X18219691Y-10505082D01*
X18214341Y-10488614D01*
X18206480Y-10473187D01*
X18206029Y-10472566D01*
X18206029Y-10472566D01*
X18160696Y-10517899D01*
X18158993Y-10511541D01*
X18152410Y-10500139D01*
X18143101Y-10490830D01*
X18131699Y-10484248D01*
X18125341Y-10482544D01*
X18170674Y-10437211D01*
X18170053Y-10436760D01*
X18154626Y-10428899D01*
X18138158Y-10423549D01*
X18121057Y-10420840D01*
X18103743Y-10420840D01*
X18086642Y-10423549D01*
X18070174Y-10428899D01*
X18054748Y-10436759D01*
X18054746Y-10436760D01*
X18054126Y-10437211D01*
X18054126Y-10437211D01*
X18099459Y-10482544D01*
X18093101Y-10484248D01*
X18081699Y-10490830D01*
X18072390Y-10500139D01*
X18065808Y-10511541D01*
X18064104Y-10517899D01*
X18018771Y-10472566D01*
X18018771Y-10472566D01*
X18018320Y-10473186D01*
X18018319Y-10473188D01*
X18010459Y-10488614D01*
X18005109Y-10505082D01*
X18002400Y-10522183D01*
X16645400Y-10522183D01*
X16642691Y-10505082D01*
X16637341Y-10488614D01*
X16629480Y-10473187D01*
X16629029Y-10472566D01*
X16629029Y-10472566D01*
X16583696Y-10517899D01*
X16581992Y-10511541D01*
X16575410Y-10500139D01*
X16566101Y-10490830D01*
X16554699Y-10484248D01*
X16548341Y-10482544D01*
X16593674Y-10437211D01*
X16593052Y-10436760D01*
X16577626Y-10428899D01*
X16561158Y-10423549D01*
X16544057Y-10420840D01*
X16526743Y-10420840D01*
X16509641Y-10423549D01*
X16493174Y-10428899D01*
X16477748Y-10436759D01*
X16477746Y-10436760D01*
X16477126Y-10437211D01*
X16477126Y-10437211D01*
X16522459Y-10482544D01*
X16516101Y-10484248D01*
X16504699Y-10490830D01*
X16495390Y-10500139D01*
X16488807Y-10511541D01*
X16487104Y-10517899D01*
X16441771Y-10472566D01*
X16441771Y-10472566D01*
X16441320Y-10473186D01*
X16441319Y-10473188D01*
X16433459Y-10488614D01*
X16428108Y-10505082D01*
X16425400Y-10522183D01*
X10017010Y-10522183D01*
X10017010Y-10212778D01*
X10664070Y-10212778D01*
X10664070Y-10232462D01*
X10667149Y-10251903D01*
X10673232Y-10270623D01*
X10679264Y-10282463D01*
X10682168Y-10288161D01*
X10693737Y-10304085D01*
X10707655Y-10318003D01*
X10723580Y-10329572D01*
X10731866Y-10333794D01*
X10741117Y-10338508D01*
X10741117Y-10338508D01*
X10741118Y-10338508D01*
X10751152Y-10341769D01*
X10759837Y-10344591D01*
X10779278Y-10347670D01*
X10779278Y-10347670D01*
X10798962Y-10347670D01*
X10818403Y-10344591D01*
X10837123Y-10338508D01*
X10854661Y-10329572D01*
X10870585Y-10318003D01*
X10884503Y-10304085D01*
X10896072Y-10288161D01*
X10905008Y-10270623D01*
X10911091Y-10251903D01*
X10911223Y-10251070D01*
X10914170Y-10232462D01*
X10914170Y-10212778D01*
X11314070Y-10212778D01*
X11314070Y-10232462D01*
X11317149Y-10251903D01*
X11323232Y-10270623D01*
X11329264Y-10282463D01*
X11332168Y-10288161D01*
X11343737Y-10304085D01*
X11357655Y-10318003D01*
X11373579Y-10329572D01*
X11381865Y-10333794D01*
X11391117Y-10338508D01*
X11391117Y-10338508D01*
X11391117Y-10338508D01*
X11401152Y-10341769D01*
X11409837Y-10344591D01*
X11429278Y-10347670D01*
X11429278Y-10347670D01*
X11448962Y-10347670D01*
X11468403Y-10344591D01*
X11487122Y-10338508D01*
X11504660Y-10329572D01*
X11520585Y-10318003D01*
X11534503Y-10304085D01*
X11546072Y-10288161D01*
X11555008Y-10270623D01*
X11561091Y-10251903D01*
X11561223Y-10251070D01*
X11562447Y-10243338D01*
X13320670Y-10243338D01*
X13320670Y-10263022D01*
X13323749Y-10282463D01*
X13329832Y-10301183D01*
X13338402Y-10318003D01*
X13338768Y-10318721D01*
X13350337Y-10334645D01*
X13364255Y-10348563D01*
X13380179Y-10360132D01*
X13388465Y-10364354D01*
X13397717Y-10369068D01*
X13397717Y-10369068D01*
X13397717Y-10369068D01*
X13403549Y-10370963D01*
X13416437Y-10375151D01*
X13435878Y-10378230D01*
X13435878Y-10378230D01*
X13455562Y-10378230D01*
X13475003Y-10375151D01*
X13493722Y-10369068D01*
X13511260Y-10360132D01*
X13527185Y-10348563D01*
X13541103Y-10334645D01*
X13552672Y-10318721D01*
X13561608Y-10301183D01*
X13567691Y-10282463D01*
X13570770Y-10263022D01*
X13570770Y-10243338D01*
X13970670Y-10243338D01*
X13970670Y-10263022D01*
X13973749Y-10282463D01*
X13979832Y-10301183D01*
X13988402Y-10318003D01*
X13988768Y-10318721D01*
X14000337Y-10334645D01*
X14014255Y-10348563D01*
X14030179Y-10360132D01*
X14038465Y-10364354D01*
X14047717Y-10369068D01*
X14047717Y-10369068D01*
X14047717Y-10369068D01*
X14053549Y-10370963D01*
X14066437Y-10375151D01*
X14085878Y-10378230D01*
X14085878Y-10378230D01*
X14105562Y-10378230D01*
X14125003Y-10375151D01*
X14143722Y-10369068D01*
X14161260Y-10360132D01*
X14177185Y-10348563D01*
X14191103Y-10334645D01*
X14202672Y-10318721D01*
X14211608Y-10301183D01*
X14217691Y-10282463D01*
X14219953Y-10268179D01*
X16425350Y-10268179D01*
X16425350Y-10285501D01*
X16427834Y-10301183D01*
X16428060Y-10302610D01*
X16433413Y-10319085D01*
X16441277Y-10334519D01*
X16451459Y-10348533D01*
X16463707Y-10360781D01*
X16477721Y-10370963D01*
X16493155Y-10378827D01*
X16509630Y-10384180D01*
X16526739Y-10386890D01*
X16526739Y-10386890D01*
X16544061Y-10386890D01*
X16544061Y-10386890D01*
X16561170Y-10384180D01*
X16577644Y-10378827D01*
X16593079Y-10370963D01*
X16607093Y-10360781D01*
X16619341Y-10348533D01*
X16629523Y-10334519D01*
X16637387Y-10319085D01*
X16642740Y-10302610D01*
X16645450Y-10285501D01*
X16645450Y-10268179D01*
X18002350Y-10268179D01*
X18002350Y-10285501D01*
X18004834Y-10301183D01*
X18005060Y-10302610D01*
X18010413Y-10319085D01*
X18018277Y-10334519D01*
X18028459Y-10348533D01*
X18040707Y-10360781D01*
X18054721Y-10370963D01*
X18070156Y-10378827D01*
X18086630Y-10384180D01*
X18103739Y-10386890D01*
X18103739Y-10386890D01*
X18121061Y-10386890D01*
X18121061Y-10386890D01*
X18138170Y-10384180D01*
X18154645Y-10378827D01*
X18170079Y-10370963D01*
X18184093Y-10360781D01*
X18196341Y-10348533D01*
X18206523Y-10334519D01*
X18214387Y-10319085D01*
X18219740Y-10302610D01*
X18222450Y-10285501D01*
X18222450Y-10268179D01*
X18219740Y-10251070D01*
X18214387Y-10234596D01*
X18206523Y-10219161D01*
X18196341Y-10205147D01*
X18184093Y-10192899D01*
X18170079Y-10182717D01*
X18154645Y-10174853D01*
X18138170Y-10169500D01*
X18138170Y-10169500D01*
X18138170Y-10169500D01*
X18125027Y-10167418D01*
X18121061Y-10166790D01*
X18103739Y-10166790D01*
X18099773Y-10167418D01*
X18086630Y-10169500D01*
X18070155Y-10174853D01*
X18054721Y-10182717D01*
X18047946Y-10187639D01*
X18040707Y-10192899D01*
X18040707Y-10192899D01*
X18040707Y-10192899D01*
X18028459Y-10205147D01*
X18028459Y-10205147D01*
X18028459Y-10205147D01*
X18028437Y-10205178D01*
X18018277Y-10219161D01*
X18010413Y-10234595D01*
X18005060Y-10251070D01*
X18002350Y-10268179D01*
X16645450Y-10268179D01*
X16642740Y-10251070D01*
X16637387Y-10234596D01*
X16629523Y-10219161D01*
X16619341Y-10205147D01*
X16607093Y-10192899D01*
X16593079Y-10182717D01*
X16577644Y-10174853D01*
X16561170Y-10169500D01*
X16561170Y-10169500D01*
X16561170Y-10169500D01*
X16548027Y-10167418D01*
X16544061Y-10166790D01*
X16526739Y-10166790D01*
X16522773Y-10167418D01*
X16509630Y-10169500D01*
X16493155Y-10174853D01*
X16477721Y-10182717D01*
X16470946Y-10187639D01*
X16463707Y-10192899D01*
X16463707Y-10192899D01*
X16463707Y-10192899D01*
X16451459Y-10205147D01*
X16451459Y-10205147D01*
X16451459Y-10205147D01*
X16451437Y-10205178D01*
X16441277Y-10219161D01*
X16433413Y-10234595D01*
X16428060Y-10251070D01*
X16425350Y-10268179D01*
X14219953Y-10268179D01*
X14220336Y-10265763D01*
X14220338Y-10265752D01*
X14220770Y-10263022D01*
X14220770Y-10243338D01*
X14217691Y-10223897D01*
X14211608Y-10205177D01*
X14205576Y-10193337D01*
X14202672Y-10187640D01*
X14191103Y-10171715D01*
X14177185Y-10157797D01*
X14161260Y-10146228D01*
X14143723Y-10137292D01*
X14125003Y-10131209D01*
X14105562Y-10128130D01*
X14105562Y-10128130D01*
X14085878Y-10128130D01*
X14085878Y-10128130D01*
X14066437Y-10131209D01*
X14047717Y-10137292D01*
X14030179Y-10146228D01*
X14021094Y-10152829D01*
X14014255Y-10157797D01*
X14014255Y-10157797D01*
X14014255Y-10157797D01*
X14000337Y-10171715D01*
X14000337Y-10171715D01*
X14000337Y-10171715D01*
X13995368Y-10178554D01*
X13988768Y-10187639D01*
X13979832Y-10205177D01*
X13973749Y-10223897D01*
X13970670Y-10243338D01*
X13570770Y-10243338D01*
X13567691Y-10223897D01*
X13561608Y-10205177D01*
X13555576Y-10193337D01*
X13552672Y-10187640D01*
X13541103Y-10171715D01*
X13527185Y-10157797D01*
X13511260Y-10146228D01*
X13493723Y-10137292D01*
X13475003Y-10131209D01*
X13455562Y-10128130D01*
X13455562Y-10128130D01*
X13435878Y-10128130D01*
X13435878Y-10128130D01*
X13416437Y-10131209D01*
X13397717Y-10137292D01*
X13380179Y-10146228D01*
X13371094Y-10152829D01*
X13364255Y-10157797D01*
X13364255Y-10157797D01*
X13364255Y-10157797D01*
X13350337Y-10171715D01*
X13350337Y-10171715D01*
X13350337Y-10171715D01*
X13345368Y-10178554D01*
X13338768Y-10187639D01*
X13329832Y-10205177D01*
X13323749Y-10223897D01*
X13320670Y-10243338D01*
X11562447Y-10243338D01*
X11562832Y-10240911D01*
X11564170Y-10232462D01*
X11564170Y-10212778D01*
X11561091Y-10193337D01*
X11557640Y-10182717D01*
X11555008Y-10174618D01*
X11555008Y-10174617D01*
X11555008Y-10174617D01*
X11550294Y-10165366D01*
X11546072Y-10157080D01*
X11534503Y-10141155D01*
X11520585Y-10127237D01*
X11504660Y-10115668D01*
X11487123Y-10106732D01*
X11468403Y-10100649D01*
X11448962Y-10097570D01*
X11448962Y-10097570D01*
X11429278Y-10097570D01*
X11429278Y-10097570D01*
X11409837Y-10100649D01*
X11391117Y-10106732D01*
X11373579Y-10115668D01*
X11364494Y-10122269D01*
X11357655Y-10127237D01*
X11357655Y-10127237D01*
X11357655Y-10127237D01*
X11343737Y-10141155D01*
X11343737Y-10141155D01*
X11343737Y-10141155D01*
X11340052Y-10146228D01*
X11332168Y-10157079D01*
X11323232Y-10174617D01*
X11317149Y-10193337D01*
X11314070Y-10212778D01*
X10914170Y-10212778D01*
X10911091Y-10193337D01*
X10907640Y-10182717D01*
X10905008Y-10174618D01*
X10905008Y-10174617D01*
X10905008Y-10174617D01*
X10900294Y-10165366D01*
X10896072Y-10157080D01*
X10884503Y-10141155D01*
X10870585Y-10127237D01*
X10854661Y-10115668D01*
X10837123Y-10106732D01*
X10818403Y-10100649D01*
X10798962Y-10097570D01*
X10798962Y-10097570D01*
X10779278Y-10097570D01*
X10779278Y-10097570D01*
X10759837Y-10100649D01*
X10741117Y-10106732D01*
X10723579Y-10115668D01*
X10714494Y-10122269D01*
X10707655Y-10127237D01*
X10707655Y-10127237D01*
X10707655Y-10127237D01*
X10693737Y-10141155D01*
X10693737Y-10141155D01*
X10693737Y-10141155D01*
X10690052Y-10146228D01*
X10682168Y-10157079D01*
X10673232Y-10174617D01*
X10667149Y-10193337D01*
X10664070Y-10212778D01*
X10017010Y-10212778D01*
X10017010Y-10014179D01*
X16425350Y-10014179D01*
X16425350Y-10031501D01*
X16428060Y-10048610D01*
X16433413Y-10065085D01*
X16441277Y-10080519D01*
X16451459Y-10094533D01*
X16463707Y-10106781D01*
X16477721Y-10116963D01*
X16493155Y-10124827D01*
X16509630Y-10130180D01*
X16526739Y-10132890D01*
X16526739Y-10132890D01*
X16544061Y-10132890D01*
X16544061Y-10132890D01*
X16561170Y-10130180D01*
X16577644Y-10124827D01*
X16593079Y-10116963D01*
X16607093Y-10106781D01*
X16619341Y-10094533D01*
X16629523Y-10080519D01*
X16637387Y-10065085D01*
X16642740Y-10048610D01*
X16645450Y-10031501D01*
X16645450Y-10014183D01*
X16884400Y-10014183D01*
X16884400Y-10031497D01*
X16887109Y-10048598D01*
X16892459Y-10065066D01*
X16900320Y-10080493D01*
X16900771Y-10081114D01*
X16900771Y-10081114D01*
X16946104Y-10035781D01*
X16947808Y-10042139D01*
X16954390Y-10053541D01*
X16963699Y-10062850D01*
X16975101Y-10069433D01*
X16981459Y-10071136D01*
X16936126Y-10116469D01*
X16936126Y-10116469D01*
X16936747Y-10116920D01*
X16952174Y-10124781D01*
X16968642Y-10130131D01*
X16985743Y-10132840D01*
X17003057Y-10132840D01*
X17020158Y-10130131D01*
X17036626Y-10124781D01*
X17052053Y-10116920D01*
X17052674Y-10116469D01*
X17007341Y-10071136D01*
X17013699Y-10069433D01*
X17025101Y-10062850D01*
X17034410Y-10053541D01*
X17040993Y-10042139D01*
X17042696Y-10035781D01*
X17088029Y-10081114D01*
X17088480Y-10080493D01*
X17096341Y-10065066D01*
X17101691Y-10048598D01*
X17104400Y-10031497D01*
X17104400Y-10014183D01*
X17343400Y-10014183D01*
X17343400Y-10031497D01*
X17346109Y-10048598D01*
X17351459Y-10065066D01*
X17359320Y-10080493D01*
X17359771Y-10081114D01*
X17359771Y-10081114D01*
X17405104Y-10035781D01*
X17406808Y-10042139D01*
X17413390Y-10053541D01*
X17422699Y-10062850D01*
X17434101Y-10069433D01*
X17440459Y-10071136D01*
X17395126Y-10116469D01*
X17395126Y-10116469D01*
X17395747Y-10116920D01*
X17411174Y-10124781D01*
X17427642Y-10130131D01*
X17444743Y-10132840D01*
X17462057Y-10132840D01*
X17479158Y-10130131D01*
X17495626Y-10124781D01*
X17511053Y-10116920D01*
X17511674Y-10116469D01*
X17511674Y-10116469D01*
X17466341Y-10071136D01*
X17472699Y-10069433D01*
X17484101Y-10062850D01*
X17493410Y-10053541D01*
X17499993Y-10042139D01*
X17501696Y-10035781D01*
X17547029Y-10081114D01*
X17547480Y-10080493D01*
X17555341Y-10065066D01*
X17560691Y-10048598D01*
X17563400Y-10031497D01*
X17563400Y-10014183D01*
X17563399Y-10014179D01*
X18002350Y-10014179D01*
X18002350Y-10031501D01*
X18005060Y-10048610D01*
X18010413Y-10065085D01*
X18018277Y-10080519D01*
X18028459Y-10094533D01*
X18040707Y-10106781D01*
X18054721Y-10116963D01*
X18070156Y-10124827D01*
X18086630Y-10130180D01*
X18103739Y-10132890D01*
X18103739Y-10132890D01*
X18121061Y-10132890D01*
X18121061Y-10132890D01*
X18138170Y-10130180D01*
X18154645Y-10124827D01*
X18170079Y-10116963D01*
X18184093Y-10106781D01*
X18196341Y-10094533D01*
X18206523Y-10080519D01*
X18214387Y-10065085D01*
X18219740Y-10048610D01*
X18222450Y-10031501D01*
X18222450Y-10014183D01*
X18461400Y-10014183D01*
X18461400Y-10031497D01*
X18464109Y-10048598D01*
X18469459Y-10065066D01*
X18477320Y-10080493D01*
X18477771Y-10081114D01*
X18477771Y-10081114D01*
X18523104Y-10035781D01*
X18524808Y-10042139D01*
X18531390Y-10053541D01*
X18540699Y-10062850D01*
X18552101Y-10069433D01*
X18558459Y-10071136D01*
X18513126Y-10116469D01*
X18513126Y-10116469D01*
X18513747Y-10116920D01*
X18529174Y-10124781D01*
X18545642Y-10130131D01*
X18562743Y-10132840D01*
X18580057Y-10132840D01*
X18597158Y-10130131D01*
X18613626Y-10124781D01*
X18629053Y-10116920D01*
X18629674Y-10116469D01*
X18584341Y-10071136D01*
X18590699Y-10069433D01*
X18602101Y-10062850D01*
X18611410Y-10053541D01*
X18617993Y-10042139D01*
X18619696Y-10035781D01*
X18665029Y-10081114D01*
X18665480Y-10080493D01*
X18673341Y-10065066D01*
X18678691Y-10048598D01*
X18681400Y-10031497D01*
X18681400Y-10014183D01*
X18920400Y-10014183D01*
X18920400Y-10031497D01*
X18923109Y-10048598D01*
X18928459Y-10065066D01*
X18936320Y-10080493D01*
X18936771Y-10081114D01*
X18936771Y-10081114D01*
X18982104Y-10035781D01*
X18983808Y-10042139D01*
X18990390Y-10053541D01*
X18999699Y-10062850D01*
X19011101Y-10069433D01*
X19017459Y-10071136D01*
X18972126Y-10116469D01*
X18972126Y-10116469D01*
X18972747Y-10116920D01*
X18988174Y-10124781D01*
X19004642Y-10130131D01*
X19021743Y-10132840D01*
X19039057Y-10132840D01*
X19056158Y-10130131D01*
X19072626Y-10124781D01*
X19088053Y-10116920D01*
X19088674Y-10116469D01*
X19088674Y-10116469D01*
X19043341Y-10071136D01*
X19049699Y-10069433D01*
X19061101Y-10062850D01*
X19070410Y-10053541D01*
X19076993Y-10042139D01*
X19078696Y-10035781D01*
X19124029Y-10081114D01*
X19124480Y-10080493D01*
X19132341Y-10065066D01*
X19137691Y-10048598D01*
X19140400Y-10031497D01*
X19140400Y-10014183D01*
X19137691Y-9997082D01*
X19132341Y-9980614D01*
X19124480Y-9965187D01*
X19124029Y-9964566D01*
X19124029Y-9964566D01*
X19078696Y-10009899D01*
X19076993Y-10003541D01*
X19070410Y-9992139D01*
X19061101Y-9982830D01*
X19049699Y-9976248D01*
X19043341Y-9974544D01*
X19088674Y-9929211D01*
X19088053Y-9928760D01*
X19072626Y-9920899D01*
X19056158Y-9915549D01*
X19039057Y-9912840D01*
X19021743Y-9912840D01*
X19004642Y-9915549D01*
X18988174Y-9920899D01*
X18972748Y-9928759D01*
X18972746Y-9928760D01*
X18972126Y-9929211D01*
X18972126Y-9929211D01*
X19017459Y-9974544D01*
X19011101Y-9976248D01*
X18999699Y-9982830D01*
X18990390Y-9992139D01*
X18983808Y-10003541D01*
X18982104Y-10009899D01*
X18936771Y-9964566D01*
X18936771Y-9964566D01*
X18936320Y-9965186D01*
X18936319Y-9965188D01*
X18928459Y-9980614D01*
X18923109Y-9997082D01*
X18920400Y-10014183D01*
X18681400Y-10014183D01*
X18678691Y-9997082D01*
X18673341Y-9980614D01*
X18665480Y-9965187D01*
X18665029Y-9964566D01*
X18665029Y-9964566D01*
X18619696Y-10009899D01*
X18617993Y-10003541D01*
X18611410Y-9992139D01*
X18602101Y-9982830D01*
X18590699Y-9976248D01*
X18584341Y-9974544D01*
X18629674Y-9929211D01*
X18629053Y-9928760D01*
X18613626Y-9920899D01*
X18597158Y-9915549D01*
X18580057Y-9912840D01*
X18562743Y-9912840D01*
X18545642Y-9915549D01*
X18529174Y-9920899D01*
X18513748Y-9928759D01*
X18513746Y-9928760D01*
X18513126Y-9929211D01*
X18513126Y-9929211D01*
X18558459Y-9974544D01*
X18552101Y-9976248D01*
X18540699Y-9982830D01*
X18531390Y-9992139D01*
X18524808Y-10003541D01*
X18523104Y-10009899D01*
X18477771Y-9964566D01*
X18477771Y-9964566D01*
X18477320Y-9965186D01*
X18477319Y-9965188D01*
X18469459Y-9980614D01*
X18464109Y-9997082D01*
X18461400Y-10014183D01*
X18222450Y-10014183D01*
X18222450Y-10014179D01*
X18219740Y-9997070D01*
X18214387Y-9980596D01*
X18206523Y-9965161D01*
X18196341Y-9951147D01*
X18184093Y-9938899D01*
X18170079Y-9928717D01*
X18154645Y-9920853D01*
X18138170Y-9915500D01*
X18138170Y-9915500D01*
X18138170Y-9915500D01*
X18125027Y-9913418D01*
X18121061Y-9912790D01*
X18103739Y-9912790D01*
X18099773Y-9913418D01*
X18086630Y-9915500D01*
X18070155Y-9920853D01*
X18054721Y-9928717D01*
X18046726Y-9934526D01*
X18040707Y-9938899D01*
X18040707Y-9938899D01*
X18040707Y-9938899D01*
X18028459Y-9951147D01*
X18028459Y-9951147D01*
X18028459Y-9951147D01*
X18024086Y-9957166D01*
X18018277Y-9965161D01*
X18010413Y-9980595D01*
X18005060Y-9997070D01*
X18004035Y-10003541D01*
X18002350Y-10014179D01*
X17563399Y-10014179D01*
X17560691Y-9997082D01*
X17555341Y-9980614D01*
X17547480Y-9965187D01*
X17547029Y-9964566D01*
X17547029Y-9964566D01*
X17501696Y-10009899D01*
X17499993Y-10003541D01*
X17493410Y-9992139D01*
X17484101Y-9982830D01*
X17472699Y-9976248D01*
X17466341Y-9974544D01*
X17511674Y-9929211D01*
X17511053Y-9928760D01*
X17495626Y-9920899D01*
X17479158Y-9915549D01*
X17462057Y-9912840D01*
X17444743Y-9912840D01*
X17427642Y-9915549D01*
X17411174Y-9920899D01*
X17395748Y-9928759D01*
X17395746Y-9928760D01*
X17395126Y-9929211D01*
X17395126Y-9929211D01*
X17440459Y-9974544D01*
X17434101Y-9976248D01*
X17422699Y-9982830D01*
X17413390Y-9992139D01*
X17406808Y-10003541D01*
X17405104Y-10009899D01*
X17359771Y-9964566D01*
X17359771Y-9964566D01*
X17359320Y-9965186D01*
X17359319Y-9965188D01*
X17351459Y-9980614D01*
X17346109Y-9997082D01*
X17343400Y-10014183D01*
X17104400Y-10014183D01*
X17101691Y-9997082D01*
X17096341Y-9980614D01*
X17088480Y-9965187D01*
X17088029Y-9964566D01*
X17088029Y-9964566D01*
X17042696Y-10009899D01*
X17040993Y-10003541D01*
X17034410Y-9992139D01*
X17025101Y-9982830D01*
X17013699Y-9976248D01*
X17007341Y-9974544D01*
X17052674Y-9929211D01*
X17052053Y-9928760D01*
X17036626Y-9920899D01*
X17020158Y-9915549D01*
X17003057Y-9912840D01*
X16985743Y-9912840D01*
X16968642Y-9915549D01*
X16952174Y-9920899D01*
X16936748Y-9928759D01*
X16936746Y-9928760D01*
X16936126Y-9929211D01*
X16936126Y-9929211D01*
X16981459Y-9974544D01*
X16975101Y-9976248D01*
X16963699Y-9982830D01*
X16954390Y-9992139D01*
X16947808Y-10003541D01*
X16946104Y-10009899D01*
X16900771Y-9964566D01*
X16900771Y-9964566D01*
X16900320Y-9965186D01*
X16900319Y-9965188D01*
X16892459Y-9980614D01*
X16887109Y-9997082D01*
X16884400Y-10014183D01*
X16645450Y-10014183D01*
X16645450Y-10014179D01*
X16642740Y-9997070D01*
X16637387Y-9980596D01*
X16629523Y-9965161D01*
X16619341Y-9951147D01*
X16607093Y-9938899D01*
X16593079Y-9928717D01*
X16577644Y-9920853D01*
X16561170Y-9915500D01*
X16561170Y-9915500D01*
X16561170Y-9915500D01*
X16548027Y-9913418D01*
X16544061Y-9912790D01*
X16526739Y-9912790D01*
X16522773Y-9913418D01*
X16509630Y-9915500D01*
X16493155Y-9920853D01*
X16477721Y-9928717D01*
X16469726Y-9934526D01*
X16463707Y-9938899D01*
X16463707Y-9938899D01*
X16463707Y-9938899D01*
X16451459Y-9951147D01*
X16451459Y-9951147D01*
X16451459Y-9951147D01*
X16447086Y-9957166D01*
X16441277Y-9965161D01*
X16433413Y-9980595D01*
X16428060Y-9997070D01*
X16427035Y-10003541D01*
X16425350Y-10014179D01*
X10017010Y-10014179D01*
X10017010Y-9762782D01*
X10664120Y-9762782D01*
X10664120Y-9782458D01*
X10667198Y-9801891D01*
X10673278Y-9820604D01*
X10682211Y-9838135D01*
X10684752Y-9841633D01*
X10684752Y-9841633D01*
X10736741Y-9789643D01*
X10737868Y-9793849D01*
X10745109Y-9806391D01*
X10755349Y-9816631D01*
X10767891Y-9823872D01*
X10772096Y-9824999D01*
X10720107Y-9876988D01*
X10720107Y-9876988D01*
X10723606Y-9879530D01*
X10741136Y-9888462D01*
X10759849Y-9894542D01*
X10779282Y-9897620D01*
X10798958Y-9897620D01*
X10818391Y-9894542D01*
X10837104Y-9888462D01*
X10854634Y-9879530D01*
X10858133Y-9876988D01*
X10858133Y-9876988D01*
X10806144Y-9824999D01*
X10810349Y-9823872D01*
X10822891Y-9816631D01*
X10833131Y-9806391D01*
X10840372Y-9793849D01*
X10841499Y-9789644D01*
X10893488Y-9841633D01*
X10893488Y-9841633D01*
X10896030Y-9838134D01*
X10904962Y-9820604D01*
X10911042Y-9801891D01*
X10914120Y-9782458D01*
X10914120Y-9762782D01*
X11314120Y-9762782D01*
X11314120Y-9782458D01*
X11317198Y-9801891D01*
X11323278Y-9820604D01*
X11332210Y-9838135D01*
X11334752Y-9841633D01*
X11334752Y-9841633D01*
X11386741Y-9789643D01*
X11387868Y-9793849D01*
X11395109Y-9806391D01*
X11405349Y-9816631D01*
X11417891Y-9823872D01*
X11422096Y-9824999D01*
X11370107Y-9876988D01*
X11370107Y-9876988D01*
X11373606Y-9879530D01*
X11391136Y-9888462D01*
X11409849Y-9894542D01*
X11429282Y-9897620D01*
X11448958Y-9897620D01*
X11468390Y-9894542D01*
X11479203Y-9891029D01*
X11479203Y-9891029D01*
X11487104Y-9888462D01*
X11504634Y-9879530D01*
X11508132Y-9876988D01*
X11508133Y-9876988D01*
X11456143Y-9824999D01*
X11460349Y-9823872D01*
X11472891Y-9816631D01*
X11483131Y-9806391D01*
X11490372Y-9793849D01*
X11491499Y-9789644D01*
X11543488Y-9841633D01*
X11543488Y-9841633D01*
X11546029Y-9838134D01*
X11554962Y-9820604D01*
X11561042Y-9801891D01*
X11562396Y-9793342D01*
X13320720Y-9793342D01*
X13320720Y-9813018D01*
X13323798Y-9832451D01*
X13329878Y-9851164D01*
X13338810Y-9868695D01*
X13341352Y-9872193D01*
X13341352Y-9872193D01*
X13393341Y-9820203D01*
X13394468Y-9824409D01*
X13401709Y-9836951D01*
X13411949Y-9847191D01*
X13424491Y-9854432D01*
X13428696Y-9855559D01*
X13376707Y-9907548D01*
X13376707Y-9907548D01*
X13380206Y-9910090D01*
X13397736Y-9919022D01*
X13416449Y-9925102D01*
X13435882Y-9928180D01*
X13455558Y-9928180D01*
X13474990Y-9925102D01*
X13493703Y-9919022D01*
X13511234Y-9910090D01*
X13514732Y-9907548D01*
X13514733Y-9907548D01*
X13462743Y-9855559D01*
X13466949Y-9854432D01*
X13479491Y-9847191D01*
X13489731Y-9836951D01*
X13496972Y-9824409D01*
X13498099Y-9820203D01*
X13550088Y-9872193D01*
X13550088Y-9872193D01*
X13552629Y-9868694D01*
X13561562Y-9851164D01*
X13567642Y-9832451D01*
X13570720Y-9813018D01*
X13570720Y-9793342D01*
X13970720Y-9793342D01*
X13970720Y-9813018D01*
X13973798Y-9832451D01*
X13979878Y-9851164D01*
X13988810Y-9868695D01*
X13991352Y-9872193D01*
X13991352Y-9872193D01*
X14043341Y-9820203D01*
X14044468Y-9824409D01*
X14051709Y-9836951D01*
X14061949Y-9847191D01*
X14074491Y-9854432D01*
X14078696Y-9855559D01*
X14026707Y-9907548D01*
X14026707Y-9907548D01*
X14030206Y-9910090D01*
X14047736Y-9919022D01*
X14066449Y-9925102D01*
X14085882Y-9928180D01*
X14105558Y-9928180D01*
X14124990Y-9925102D01*
X14143703Y-9919022D01*
X14161234Y-9910090D01*
X14164732Y-9907548D01*
X14164733Y-9907548D01*
X14112743Y-9855559D01*
X14116949Y-9854432D01*
X14129491Y-9847191D01*
X14139731Y-9836951D01*
X14146972Y-9824409D01*
X14148099Y-9820204D01*
X14200088Y-9872193D01*
X14200088Y-9872193D01*
X14202629Y-9868694D01*
X14211562Y-9851164D01*
X14217642Y-9832451D01*
X14220720Y-9813018D01*
X14220720Y-9793342D01*
X14217642Y-9773909D01*
X14211562Y-9755196D01*
X14202630Y-9737666D01*
X14200088Y-9734167D01*
X14200088Y-9734167D01*
X14148099Y-9786156D01*
X14146972Y-9781951D01*
X14139731Y-9769409D01*
X14129491Y-9759169D01*
X14116949Y-9751928D01*
X14112743Y-9750801D01*
X14164732Y-9698812D01*
X14164732Y-9698812D01*
X14161234Y-9696271D01*
X14152484Y-9691812D01*
X14143703Y-9687338D01*
X14125343Y-9681372D01*
X16425350Y-9681372D01*
X16425350Y-9856308D01*
X16426803Y-9863614D01*
X16426803Y-9863614D01*
X16426803Y-9863614D01*
X16432340Y-9871900D01*
X16439954Y-9876988D01*
X16440626Y-9877437D01*
X16440626Y-9877437D01*
X16447932Y-9878890D01*
X16447932Y-9878890D01*
X16447933Y-9878890D01*
X16622868Y-9878890D01*
X16622868Y-9878890D01*
X16630174Y-9877437D01*
X16638460Y-9871900D01*
X16643997Y-9863614D01*
X16645450Y-9856307D01*
X16645450Y-9681373D01*
X16645450Y-9681372D01*
X16884350Y-9681372D01*
X16884350Y-9856308D01*
X16885803Y-9863614D01*
X16885803Y-9863614D01*
X16885803Y-9863614D01*
X16891340Y-9871900D01*
X16898954Y-9876988D01*
X16899626Y-9877437D01*
X16899626Y-9877437D01*
X16906932Y-9878890D01*
X16906932Y-9878890D01*
X16906933Y-9878890D01*
X17081868Y-9878890D01*
X17081868Y-9878890D01*
X17089174Y-9877437D01*
X17097460Y-9871900D01*
X17102997Y-9863614D01*
X17104450Y-9856307D01*
X17104450Y-9681373D01*
X17104450Y-9681372D01*
X17343350Y-9681372D01*
X17343350Y-9856308D01*
X17344803Y-9863614D01*
X17344803Y-9863614D01*
X17344803Y-9863614D01*
X17350340Y-9871900D01*
X17357954Y-9876988D01*
X17358626Y-9877437D01*
X17358626Y-9877437D01*
X17365932Y-9878890D01*
X17365932Y-9878890D01*
X17365933Y-9878890D01*
X17540868Y-9878890D01*
X17540868Y-9878890D01*
X17548174Y-9877437D01*
X17556460Y-9871900D01*
X17561997Y-9863614D01*
X17563450Y-9856307D01*
X17563450Y-9681373D01*
X17563450Y-9681372D01*
X18002350Y-9681372D01*
X18002350Y-9856308D01*
X18003803Y-9863614D01*
X18003803Y-9863614D01*
X18003803Y-9863614D01*
X18009340Y-9871900D01*
X18016954Y-9876988D01*
X18017626Y-9877437D01*
X18017626Y-9877437D01*
X18024932Y-9878890D01*
X18024932Y-9878890D01*
X18024933Y-9878890D01*
X18199868Y-9878890D01*
X18199868Y-9878890D01*
X18207174Y-9877437D01*
X18215460Y-9871900D01*
X18220997Y-9863614D01*
X18222450Y-9856307D01*
X18222450Y-9681373D01*
X18222450Y-9681372D01*
X18461350Y-9681372D01*
X18461350Y-9856308D01*
X18462803Y-9863614D01*
X18462803Y-9863614D01*
X18462803Y-9863614D01*
X18468340Y-9871900D01*
X18475954Y-9876988D01*
X18476626Y-9877437D01*
X18476626Y-9877437D01*
X18483932Y-9878890D01*
X18483932Y-9878890D01*
X18483933Y-9878890D01*
X18658868Y-9878890D01*
X18658868Y-9878890D01*
X18666174Y-9877437D01*
X18674460Y-9871900D01*
X18679997Y-9863614D01*
X18681450Y-9856307D01*
X18681450Y-9681373D01*
X18681450Y-9681372D01*
X18920350Y-9681372D01*
X18920350Y-9856308D01*
X18921803Y-9863614D01*
X18921803Y-9863614D01*
X18921803Y-9863614D01*
X18927340Y-9871900D01*
X18934954Y-9876988D01*
X18935626Y-9877437D01*
X18935626Y-9877437D01*
X18942932Y-9878890D01*
X18942932Y-9878890D01*
X18942933Y-9878890D01*
X19117868Y-9878890D01*
X19117868Y-9878890D01*
X19125174Y-9877437D01*
X19133460Y-9871900D01*
X19138997Y-9863614D01*
X19140450Y-9856307D01*
X19140450Y-9681373D01*
X19140450Y-9681372D01*
X19140450Y-9681372D01*
X19138997Y-9674066D01*
X19138997Y-9674066D01*
X19133460Y-9665780D01*
X19125174Y-9660243D01*
X19125174Y-9660243D01*
X19125174Y-9660243D01*
X19117868Y-9658790D01*
X19117867Y-9658790D01*
X18942933Y-9658790D01*
X18942932Y-9658790D01*
X18935626Y-9660243D01*
X18935626Y-9660243D01*
X18927340Y-9665780D01*
X18921803Y-9674066D01*
X18921803Y-9674066D01*
X18920350Y-9681372D01*
X18920350Y-9681372D01*
X18681450Y-9681372D01*
X18681450Y-9681372D01*
X18679997Y-9674066D01*
X18679997Y-9674066D01*
X18674460Y-9665780D01*
X18666174Y-9660243D01*
X18666174Y-9660243D01*
X18666174Y-9660243D01*
X18658868Y-9658790D01*
X18658867Y-9658790D01*
X18483933Y-9658790D01*
X18483932Y-9658790D01*
X18476626Y-9660243D01*
X18476626Y-9660243D01*
X18468340Y-9665780D01*
X18462803Y-9674066D01*
X18462803Y-9674066D01*
X18461350Y-9681372D01*
X18461350Y-9681372D01*
X18222450Y-9681372D01*
X18222450Y-9681372D01*
X18220997Y-9674066D01*
X18220997Y-9674066D01*
X18215460Y-9665780D01*
X18207174Y-9660243D01*
X18207174Y-9660243D01*
X18207174Y-9660243D01*
X18199868Y-9658790D01*
X18199867Y-9658790D01*
X18024933Y-9658790D01*
X18024932Y-9658790D01*
X18017626Y-9660243D01*
X18017626Y-9660243D01*
X18009340Y-9665780D01*
X18003803Y-9674066D01*
X18003803Y-9674066D01*
X18002350Y-9681372D01*
X18002350Y-9681372D01*
X17563450Y-9681372D01*
X17563450Y-9681372D01*
X17561997Y-9674066D01*
X17561997Y-9674066D01*
X17556460Y-9665780D01*
X17548174Y-9660243D01*
X17548174Y-9660243D01*
X17548174Y-9660243D01*
X17540868Y-9658790D01*
X17540867Y-9658790D01*
X17365933Y-9658790D01*
X17365932Y-9658790D01*
X17358626Y-9660243D01*
X17358626Y-9660243D01*
X17350340Y-9665780D01*
X17344803Y-9674066D01*
X17344803Y-9674066D01*
X17343350Y-9681372D01*
X17343350Y-9681372D01*
X17104450Y-9681372D01*
X17104450Y-9681372D01*
X17102997Y-9674066D01*
X17102997Y-9674066D01*
X17097460Y-9665780D01*
X17089174Y-9660243D01*
X17089174Y-9660243D01*
X17089174Y-9660243D01*
X17081868Y-9658790D01*
X17081867Y-9658790D01*
X16906933Y-9658790D01*
X16906932Y-9658790D01*
X16899626Y-9660243D01*
X16899626Y-9660243D01*
X16891340Y-9665780D01*
X16885803Y-9674066D01*
X16885803Y-9674066D01*
X16884350Y-9681372D01*
X16884350Y-9681372D01*
X16645450Y-9681372D01*
X16645450Y-9681372D01*
X16643997Y-9674066D01*
X16643997Y-9674066D01*
X16638460Y-9665780D01*
X16630174Y-9660243D01*
X16630174Y-9660243D01*
X16630173Y-9660243D01*
X16622868Y-9658790D01*
X16622867Y-9658790D01*
X16447933Y-9658790D01*
X16447932Y-9658790D01*
X16440626Y-9660243D01*
X16440626Y-9660243D01*
X16432340Y-9665780D01*
X16426803Y-9674066D01*
X16426803Y-9674066D01*
X16425350Y-9681372D01*
X16425350Y-9681372D01*
X14125343Y-9681372D01*
X14124990Y-9681258D01*
X14105558Y-9678180D01*
X14085882Y-9678180D01*
X14066449Y-9681258D01*
X14047736Y-9687338D01*
X14030206Y-9696270D01*
X14030206Y-9696270D01*
X14026707Y-9698812D01*
X14026707Y-9698812D01*
X14078696Y-9750801D01*
X14074491Y-9751928D01*
X14061949Y-9759169D01*
X14051709Y-9769409D01*
X14044468Y-9781951D01*
X14043341Y-9786157D01*
X13991352Y-9734167D01*
X13991352Y-9734167D01*
X13988810Y-9737666D01*
X13988810Y-9737666D01*
X13979878Y-9755196D01*
X13973798Y-9773909D01*
X13970720Y-9793342D01*
X13570720Y-9793342D01*
X13567642Y-9773909D01*
X13561562Y-9755196D01*
X13552630Y-9737666D01*
X13550088Y-9734167D01*
X13550088Y-9734167D01*
X13498099Y-9786156D01*
X13496972Y-9781951D01*
X13489731Y-9769409D01*
X13479491Y-9759169D01*
X13466949Y-9751928D01*
X13462743Y-9750801D01*
X13514732Y-9698812D01*
X13514732Y-9698812D01*
X13511234Y-9696271D01*
X13493703Y-9687338D01*
X13474990Y-9681258D01*
X13455558Y-9678180D01*
X13435882Y-9678180D01*
X13416449Y-9681258D01*
X13397736Y-9687338D01*
X13380206Y-9696270D01*
X13380206Y-9696270D01*
X13376707Y-9698812D01*
X13376707Y-9698812D01*
X13428696Y-9750801D01*
X13424491Y-9751928D01*
X13411949Y-9759169D01*
X13401709Y-9769409D01*
X13394468Y-9781951D01*
X13393341Y-9786157D01*
X13341352Y-9734167D01*
X13341352Y-9734167D01*
X13338810Y-9737666D01*
X13338810Y-9737666D01*
X13329878Y-9755196D01*
X13323798Y-9773909D01*
X13320720Y-9793342D01*
X11562396Y-9793342D01*
X11562780Y-9790915D01*
X11564120Y-9782458D01*
X11564120Y-9762782D01*
X11561042Y-9743349D01*
X11554962Y-9724636D01*
X11547080Y-9709167D01*
X11547080Y-9709167D01*
X11546030Y-9707106D01*
X11543488Y-9703607D01*
X11491499Y-9755596D01*
X11490372Y-9751391D01*
X11483131Y-9738849D01*
X11472891Y-9728609D01*
X11460349Y-9721368D01*
X11456143Y-9720241D01*
X11508132Y-9668252D01*
X11508132Y-9668252D01*
X11504634Y-9665711D01*
X11487103Y-9656778D01*
X11468390Y-9650698D01*
X11448958Y-9647620D01*
X11429282Y-9647620D01*
X11409849Y-9650698D01*
X11391136Y-9656778D01*
X11373606Y-9665710D01*
X11373606Y-9665710D01*
X11370107Y-9668252D01*
X11370107Y-9668252D01*
X11422096Y-9720241D01*
X11417891Y-9721368D01*
X11405349Y-9728609D01*
X11395109Y-9738849D01*
X11387868Y-9751391D01*
X11386741Y-9755597D01*
X11334752Y-9703607D01*
X11334752Y-9703607D01*
X11332210Y-9707106D01*
X11332210Y-9707106D01*
X11323278Y-9724636D01*
X11317198Y-9743349D01*
X11314120Y-9762782D01*
X10914120Y-9762782D01*
X10911042Y-9743349D01*
X10904962Y-9724636D01*
X10896030Y-9707106D01*
X10893488Y-9703607D01*
X10893488Y-9703607D01*
X10841499Y-9755596D01*
X10840372Y-9751391D01*
X10833131Y-9738849D01*
X10822891Y-9728609D01*
X10810349Y-9721368D01*
X10806143Y-9720241D01*
X10858133Y-9668252D01*
X10858133Y-9668252D01*
X10854635Y-9665711D01*
X10837104Y-9656778D01*
X10818391Y-9650698D01*
X10798958Y-9647620D01*
X10779282Y-9647620D01*
X10759849Y-9650698D01*
X10741136Y-9656778D01*
X10723606Y-9665710D01*
X10723606Y-9665710D01*
X10720107Y-9668252D01*
X10720107Y-9668252D01*
X10772097Y-9720241D01*
X10767891Y-9721368D01*
X10755349Y-9728609D01*
X10745109Y-9738849D01*
X10737868Y-9751391D01*
X10736741Y-9755597D01*
X10684752Y-9703607D01*
X10684752Y-9703607D01*
X10682210Y-9707106D01*
X10682210Y-9707106D01*
X10673278Y-9724636D01*
X10667198Y-9743349D01*
X10664120Y-9762782D01*
X10017010Y-9762782D01*
X10017010Y-9101183D01*
X16425400Y-9101183D01*
X16425400Y-9118497D01*
X16428108Y-9135598D01*
X16433459Y-9152066D01*
X16441320Y-9167493D01*
X16441771Y-9168114D01*
X16441771Y-9168114D01*
X16487104Y-9122781D01*
X16488807Y-9129139D01*
X16495390Y-9140541D01*
X16504699Y-9149850D01*
X16516101Y-9156433D01*
X16522459Y-9158136D01*
X16477126Y-9203469D01*
X16477126Y-9203469D01*
X16477747Y-9203920D01*
X16493174Y-9211781D01*
X16509641Y-9217131D01*
X16526743Y-9219840D01*
X16544057Y-9219840D01*
X16561158Y-9217131D01*
X16577626Y-9211781D01*
X16593052Y-9203920D01*
X16593674Y-9203469D01*
X16548341Y-9158136D01*
X16554699Y-9156433D01*
X16566101Y-9149850D01*
X16575410Y-9140541D01*
X16581992Y-9129139D01*
X16583696Y-9122781D01*
X16629029Y-9168114D01*
X16629480Y-9167493D01*
X16637341Y-9152066D01*
X16642691Y-9135598D01*
X16645400Y-9118497D01*
X16645400Y-9101183D01*
X18002400Y-9101183D01*
X18002400Y-9118497D01*
X18005109Y-9135598D01*
X18010459Y-9152066D01*
X18018320Y-9167493D01*
X18018771Y-9168114D01*
X18018771Y-9168114D01*
X18064104Y-9122781D01*
X18065808Y-9129139D01*
X18072390Y-9140541D01*
X18081699Y-9149850D01*
X18093101Y-9156433D01*
X18099459Y-9158136D01*
X18054126Y-9203469D01*
X18054126Y-9203469D01*
X18054747Y-9203920D01*
X18070174Y-9211781D01*
X18086642Y-9217131D01*
X18103743Y-9219840D01*
X18121057Y-9219840D01*
X18138158Y-9217131D01*
X18154626Y-9211781D01*
X18170053Y-9203920D01*
X18170674Y-9203469D01*
X18170674Y-9203469D01*
X18125341Y-9158136D01*
X18131699Y-9156433D01*
X18143101Y-9149850D01*
X18152410Y-9140541D01*
X18158993Y-9129139D01*
X18160696Y-9122781D01*
X18206029Y-9168114D01*
X18206480Y-9167493D01*
X18214341Y-9152066D01*
X18219691Y-9135598D01*
X18222400Y-9118497D01*
X18222400Y-9101183D01*
X18219691Y-9084082D01*
X18214341Y-9067614D01*
X18206480Y-9052187D01*
X18206029Y-9051566D01*
X18206029Y-9051566D01*
X18160696Y-9096899D01*
X18158993Y-9090541D01*
X18152410Y-9079139D01*
X18143101Y-9069830D01*
X18131699Y-9063248D01*
X18125341Y-9061544D01*
X18170674Y-9016211D01*
X18170053Y-9015760D01*
X18154626Y-9007899D01*
X18138158Y-9002549D01*
X18121057Y-8999840D01*
X18103743Y-8999840D01*
X18086642Y-9002549D01*
X18070174Y-9007899D01*
X18054748Y-9015759D01*
X18054746Y-9015760D01*
X18054126Y-9016211D01*
X18054126Y-9016211D01*
X18099459Y-9061544D01*
X18093101Y-9063248D01*
X18081699Y-9069830D01*
X18072390Y-9079139D01*
X18065808Y-9090541D01*
X18064104Y-9096899D01*
X18018771Y-9051566D01*
X18018771Y-9051566D01*
X18018320Y-9052186D01*
X18018319Y-9052188D01*
X18010459Y-9067614D01*
X18005109Y-9084082D01*
X18002400Y-9101183D01*
X16645400Y-9101183D01*
X16642691Y-9084082D01*
X16637341Y-9067614D01*
X16629480Y-9052187D01*
X16629029Y-9051566D01*
X16629029Y-9051566D01*
X16583696Y-9096899D01*
X16581992Y-9090541D01*
X16575410Y-9079139D01*
X16566101Y-9069830D01*
X16554699Y-9063248D01*
X16548341Y-9061544D01*
X16593674Y-9016211D01*
X16593052Y-9015760D01*
X16577626Y-9007899D01*
X16561158Y-9002549D01*
X16544057Y-8999840D01*
X16526743Y-8999840D01*
X16509641Y-9002549D01*
X16493174Y-9007899D01*
X16477748Y-9015759D01*
X16477746Y-9015760D01*
X16477126Y-9016211D01*
X16477126Y-9016211D01*
X16522459Y-9061544D01*
X16516101Y-9063248D01*
X16504699Y-9069830D01*
X16495390Y-9079139D01*
X16488807Y-9090541D01*
X16487104Y-9096899D01*
X16441771Y-9051566D01*
X16441771Y-9051566D01*
X16441320Y-9052186D01*
X16441319Y-9052188D01*
X16433459Y-9067614D01*
X16428108Y-9084082D01*
X16425400Y-9101183D01*
X10017010Y-9101183D01*
X10017010Y-8847179D01*
X16425350Y-8847179D01*
X16425350Y-8864501D01*
X16428060Y-8881610D01*
X16433413Y-8898085D01*
X16441277Y-8913519D01*
X16451459Y-8927533D01*
X16463707Y-8939781D01*
X16477721Y-8949963D01*
X16493155Y-8957827D01*
X16509630Y-8963180D01*
X16526739Y-8965890D01*
X16526739Y-8965890D01*
X16544061Y-8965890D01*
X16544061Y-8965890D01*
X16561170Y-8963180D01*
X16577644Y-8957827D01*
X16593079Y-8949963D01*
X16607093Y-8939781D01*
X16619341Y-8927533D01*
X16629523Y-8913519D01*
X16637387Y-8898085D01*
X16642740Y-8881610D01*
X16645450Y-8864501D01*
X16645450Y-8847179D01*
X18002350Y-8847179D01*
X18002350Y-8864501D01*
X18005060Y-8881610D01*
X18010413Y-8898085D01*
X18018277Y-8913519D01*
X18028459Y-8927533D01*
X18040707Y-8939781D01*
X18054721Y-8949963D01*
X18070156Y-8957827D01*
X18086630Y-8963180D01*
X18103739Y-8965890D01*
X18103739Y-8965890D01*
X18121061Y-8965890D01*
X18121061Y-8965890D01*
X18138170Y-8963180D01*
X18154645Y-8957827D01*
X18170079Y-8949963D01*
X18184093Y-8939781D01*
X18196341Y-8927533D01*
X18206523Y-8913519D01*
X18214387Y-8898085D01*
X18219740Y-8881610D01*
X18222450Y-8864501D01*
X18222450Y-8847179D01*
X18219740Y-8830070D01*
X18214387Y-8813596D01*
X18206523Y-8798161D01*
X18196341Y-8784147D01*
X18184093Y-8771899D01*
X18170079Y-8761717D01*
X18154645Y-8753853D01*
X18138170Y-8748500D01*
X18138170Y-8748500D01*
X18138170Y-8748500D01*
X18125027Y-8746418D01*
X18121061Y-8745790D01*
X18103739Y-8745790D01*
X18099773Y-8746418D01*
X18086630Y-8748500D01*
X18070155Y-8753853D01*
X18054721Y-8761717D01*
X18046726Y-8767526D01*
X18040707Y-8771899D01*
X18040707Y-8771899D01*
X18040707Y-8771899D01*
X18028459Y-8784147D01*
X18028459Y-8784147D01*
X18028459Y-8784147D01*
X18024086Y-8790166D01*
X18018277Y-8798161D01*
X18010413Y-8813595D01*
X18005060Y-8830070D01*
X18002350Y-8847179D01*
X16645450Y-8847179D01*
X16642740Y-8830070D01*
X16637387Y-8813596D01*
X16629523Y-8798161D01*
X16619341Y-8784147D01*
X16607093Y-8771899D01*
X16593079Y-8761717D01*
X16577644Y-8753853D01*
X16561170Y-8748500D01*
X16561170Y-8748500D01*
X16561170Y-8748500D01*
X16548027Y-8746418D01*
X16544061Y-8745790D01*
X16526739Y-8745790D01*
X16522773Y-8746418D01*
X16509630Y-8748500D01*
X16493155Y-8753853D01*
X16477721Y-8761717D01*
X16469726Y-8767526D01*
X16463707Y-8771899D01*
X16463707Y-8771899D01*
X16463707Y-8771899D01*
X16451459Y-8784147D01*
X16451459Y-8784147D01*
X16451459Y-8784147D01*
X16447086Y-8790166D01*
X16441277Y-8798161D01*
X16433413Y-8813595D01*
X16428060Y-8830070D01*
X16425350Y-8847179D01*
X10017010Y-8847179D01*
X10017010Y-8593179D01*
X16425350Y-8593179D01*
X16425350Y-8610501D01*
X16428060Y-8627610D01*
X16433413Y-8644085D01*
X16441277Y-8659519D01*
X16451459Y-8673533D01*
X16463707Y-8685781D01*
X16477721Y-8695963D01*
X16493155Y-8703827D01*
X16509630Y-8709180D01*
X16526739Y-8711890D01*
X16526739Y-8711890D01*
X16544061Y-8711890D01*
X16544061Y-8711890D01*
X16561170Y-8709180D01*
X16577644Y-8703827D01*
X16593079Y-8695963D01*
X16607093Y-8685781D01*
X16619341Y-8673533D01*
X16629523Y-8659519D01*
X16637387Y-8644085D01*
X16642740Y-8627610D01*
X16645450Y-8610501D01*
X16645450Y-8593183D01*
X16884400Y-8593183D01*
X16884400Y-8610497D01*
X16887109Y-8627598D01*
X16892459Y-8644066D01*
X16900320Y-8659493D01*
X16900771Y-8660114D01*
X16900771Y-8660114D01*
X16946104Y-8614781D01*
X16947808Y-8621139D01*
X16954390Y-8632541D01*
X16963699Y-8641850D01*
X16975101Y-8648433D01*
X16981459Y-8650136D01*
X16936126Y-8695469D01*
X16936126Y-8695469D01*
X16936747Y-8695920D01*
X16952174Y-8703781D01*
X16968642Y-8709131D01*
X16985743Y-8711840D01*
X17003057Y-8711840D01*
X17020158Y-8709131D01*
X17036626Y-8703781D01*
X17052053Y-8695920D01*
X17052674Y-8695469D01*
X17007341Y-8650136D01*
X17013699Y-8648433D01*
X17025101Y-8641850D01*
X17034410Y-8632541D01*
X17040993Y-8621139D01*
X17042696Y-8614781D01*
X17088029Y-8660114D01*
X17088480Y-8659493D01*
X17096341Y-8644066D01*
X17101691Y-8627598D01*
X17104400Y-8610497D01*
X17104400Y-8593183D01*
X17343400Y-8593183D01*
X17343400Y-8610497D01*
X17346109Y-8627598D01*
X17351459Y-8644066D01*
X17359320Y-8659493D01*
X17359771Y-8660114D01*
X17359771Y-8660114D01*
X17405104Y-8614781D01*
X17406808Y-8621139D01*
X17413390Y-8632541D01*
X17422699Y-8641850D01*
X17434101Y-8648433D01*
X17440459Y-8650136D01*
X17395126Y-8695469D01*
X17395126Y-8695469D01*
X17395747Y-8695920D01*
X17411174Y-8703781D01*
X17427642Y-8709131D01*
X17444743Y-8711840D01*
X17462057Y-8711840D01*
X17479158Y-8709131D01*
X17495626Y-8703781D01*
X17511053Y-8695920D01*
X17511674Y-8695469D01*
X17511674Y-8695469D01*
X17466341Y-8650136D01*
X17472699Y-8648433D01*
X17484101Y-8641850D01*
X17493410Y-8632541D01*
X17499993Y-8621139D01*
X17501696Y-8614781D01*
X17547029Y-8660114D01*
X17547480Y-8659493D01*
X17555341Y-8644066D01*
X17560691Y-8627598D01*
X17563400Y-8610497D01*
X17563400Y-8593183D01*
X17563399Y-8593179D01*
X18002350Y-8593179D01*
X18002350Y-8610501D01*
X18005060Y-8627610D01*
X18010413Y-8644085D01*
X18018277Y-8659519D01*
X18028459Y-8673533D01*
X18040707Y-8685781D01*
X18054721Y-8695963D01*
X18070156Y-8703827D01*
X18086630Y-8709180D01*
X18103739Y-8711890D01*
X18103739Y-8711890D01*
X18121061Y-8711890D01*
X18121061Y-8711890D01*
X18138170Y-8709180D01*
X18154645Y-8703827D01*
X18170079Y-8695963D01*
X18184093Y-8685781D01*
X18196341Y-8673533D01*
X18206523Y-8659519D01*
X18214387Y-8644085D01*
X18219740Y-8627610D01*
X18222450Y-8610501D01*
X18222450Y-8593183D01*
X18461400Y-8593183D01*
X18461400Y-8610497D01*
X18464109Y-8627598D01*
X18469459Y-8644066D01*
X18477320Y-8659493D01*
X18477771Y-8660114D01*
X18477771Y-8660114D01*
X18523104Y-8614781D01*
X18524808Y-8621139D01*
X18531390Y-8632541D01*
X18540699Y-8641850D01*
X18552101Y-8648433D01*
X18558459Y-8650136D01*
X18513126Y-8695469D01*
X18513126Y-8695469D01*
X18513747Y-8695920D01*
X18529174Y-8703781D01*
X18545642Y-8709131D01*
X18562743Y-8711840D01*
X18580057Y-8711840D01*
X18597158Y-8709131D01*
X18613626Y-8703781D01*
X18629053Y-8695920D01*
X18629674Y-8695469D01*
X18584341Y-8650136D01*
X18590699Y-8648433D01*
X18602101Y-8641850D01*
X18611410Y-8632541D01*
X18617993Y-8621139D01*
X18619696Y-8614781D01*
X18665029Y-8660114D01*
X18665480Y-8659493D01*
X18673341Y-8644066D01*
X18678691Y-8627598D01*
X18681400Y-8610497D01*
X18681400Y-8593183D01*
X18920400Y-8593183D01*
X18920400Y-8610497D01*
X18923109Y-8627598D01*
X18928459Y-8644066D01*
X18936320Y-8659493D01*
X18936771Y-8660114D01*
X18936771Y-8660114D01*
X18982104Y-8614781D01*
X18983808Y-8621139D01*
X18990390Y-8632541D01*
X18999699Y-8641850D01*
X19011101Y-8648433D01*
X19017459Y-8650136D01*
X18972126Y-8695469D01*
X18972126Y-8695469D01*
X18972747Y-8695920D01*
X18988174Y-8703781D01*
X19004642Y-8709131D01*
X19021743Y-8711840D01*
X19039057Y-8711840D01*
X19056158Y-8709131D01*
X19072626Y-8703781D01*
X19088053Y-8695920D01*
X19088674Y-8695469D01*
X19088674Y-8695469D01*
X19043341Y-8650136D01*
X19049699Y-8648433D01*
X19061101Y-8641850D01*
X19070410Y-8632541D01*
X19076993Y-8621139D01*
X19078696Y-8614781D01*
X19124029Y-8660114D01*
X19124480Y-8659493D01*
X19132341Y-8644066D01*
X19137691Y-8627598D01*
X19140400Y-8610497D01*
X19140400Y-8593183D01*
X19137691Y-8576082D01*
X19132341Y-8559614D01*
X19124480Y-8544187D01*
X19124029Y-8543566D01*
X19124029Y-8543566D01*
X19078696Y-8588899D01*
X19076993Y-8582541D01*
X19070410Y-8571139D01*
X19061101Y-8561830D01*
X19049699Y-8555248D01*
X19043341Y-8553544D01*
X19088674Y-8508211D01*
X19088053Y-8507760D01*
X19072626Y-8499899D01*
X19056158Y-8494549D01*
X19039057Y-8491840D01*
X19021743Y-8491840D01*
X19004642Y-8494549D01*
X18988174Y-8499899D01*
X18972748Y-8507759D01*
X18972746Y-8507760D01*
X18972126Y-8508211D01*
X18972126Y-8508211D01*
X19017459Y-8553544D01*
X19011101Y-8555248D01*
X18999699Y-8561830D01*
X18990390Y-8571139D01*
X18983808Y-8582541D01*
X18982104Y-8588899D01*
X18936771Y-8543566D01*
X18936771Y-8543566D01*
X18936320Y-8544186D01*
X18936319Y-8544188D01*
X18928459Y-8559614D01*
X18923109Y-8576082D01*
X18920400Y-8593183D01*
X18681400Y-8593183D01*
X18678691Y-8576082D01*
X18673341Y-8559614D01*
X18665480Y-8544187D01*
X18665029Y-8543566D01*
X18665029Y-8543566D01*
X18619696Y-8588899D01*
X18617993Y-8582541D01*
X18611410Y-8571139D01*
X18602101Y-8561830D01*
X18590699Y-8555248D01*
X18584341Y-8553544D01*
X18629674Y-8508211D01*
X18629053Y-8507760D01*
X18613626Y-8499899D01*
X18597158Y-8494549D01*
X18580057Y-8491840D01*
X18562743Y-8491840D01*
X18545642Y-8494549D01*
X18529174Y-8499899D01*
X18513748Y-8507759D01*
X18513746Y-8507760D01*
X18513126Y-8508211D01*
X18513126Y-8508211D01*
X18558459Y-8553544D01*
X18552101Y-8555248D01*
X18540699Y-8561830D01*
X18531390Y-8571139D01*
X18524808Y-8582541D01*
X18523104Y-8588899D01*
X18477771Y-8543566D01*
X18477771Y-8543566D01*
X18477320Y-8544186D01*
X18477319Y-8544188D01*
X18469459Y-8559614D01*
X18464109Y-8576082D01*
X18461400Y-8593183D01*
X18222450Y-8593183D01*
X18222450Y-8593179D01*
X18219740Y-8576070D01*
X18214387Y-8559596D01*
X18206523Y-8544161D01*
X18196341Y-8530147D01*
X18184093Y-8517899D01*
X18170079Y-8507717D01*
X18154645Y-8499853D01*
X18138170Y-8494500D01*
X18138170Y-8494500D01*
X18138170Y-8494500D01*
X18125027Y-8492418D01*
X18121061Y-8491790D01*
X18103739Y-8491790D01*
X18099773Y-8492418D01*
X18086630Y-8494500D01*
X18070155Y-8499853D01*
X18054721Y-8507717D01*
X18046726Y-8513526D01*
X18040707Y-8517899D01*
X18040707Y-8517899D01*
X18040707Y-8517899D01*
X18028459Y-8530147D01*
X18028459Y-8530147D01*
X18028459Y-8530147D01*
X18024086Y-8536166D01*
X18018277Y-8544161D01*
X18010413Y-8559595D01*
X18005060Y-8576070D01*
X18004035Y-8582541D01*
X18002350Y-8593179D01*
X17563399Y-8593179D01*
X17560691Y-8576082D01*
X17555341Y-8559614D01*
X17547480Y-8544187D01*
X17547029Y-8543566D01*
X17547029Y-8543566D01*
X17501696Y-8588899D01*
X17499993Y-8582541D01*
X17493410Y-8571139D01*
X17484101Y-8561830D01*
X17472699Y-8555248D01*
X17466341Y-8553544D01*
X17511674Y-8508211D01*
X17511053Y-8507760D01*
X17495626Y-8499899D01*
X17479158Y-8494549D01*
X17462057Y-8491840D01*
X17444743Y-8491840D01*
X17427642Y-8494549D01*
X17411174Y-8499899D01*
X17395748Y-8507759D01*
X17395746Y-8507760D01*
X17395126Y-8508211D01*
X17395126Y-8508211D01*
X17440459Y-8553544D01*
X17434101Y-8555248D01*
X17422699Y-8561830D01*
X17413390Y-8571139D01*
X17406808Y-8582541D01*
X17405104Y-8588899D01*
X17359771Y-8543566D01*
X17359771Y-8543566D01*
X17359320Y-8544186D01*
X17359319Y-8544188D01*
X17351459Y-8559614D01*
X17346109Y-8576082D01*
X17343400Y-8593183D01*
X17104400Y-8593183D01*
X17101691Y-8576082D01*
X17096341Y-8559614D01*
X17088480Y-8544187D01*
X17088029Y-8543566D01*
X17088029Y-8543566D01*
X17042696Y-8588899D01*
X17040993Y-8582541D01*
X17034410Y-8571139D01*
X17025101Y-8561830D01*
X17013699Y-8555248D01*
X17007341Y-8553544D01*
X17052674Y-8508211D01*
X17052053Y-8507760D01*
X17036626Y-8499899D01*
X17020158Y-8494549D01*
X17003057Y-8491840D01*
X16985743Y-8491840D01*
X16968642Y-8494549D01*
X16952174Y-8499899D01*
X16936748Y-8507759D01*
X16936746Y-8507760D01*
X16936126Y-8508211D01*
X16936126Y-8508211D01*
X16981459Y-8553544D01*
X16975101Y-8555248D01*
X16963699Y-8561830D01*
X16954390Y-8571139D01*
X16947808Y-8582541D01*
X16946104Y-8588899D01*
X16900771Y-8543566D01*
X16900771Y-8543566D01*
X16900320Y-8544186D01*
X16900319Y-8544188D01*
X16892459Y-8559614D01*
X16887109Y-8576082D01*
X16884400Y-8593183D01*
X16645450Y-8593183D01*
X16645450Y-8593179D01*
X16642740Y-8576070D01*
X16637387Y-8559596D01*
X16629523Y-8544161D01*
X16619341Y-8530147D01*
X16607093Y-8517899D01*
X16593079Y-8507717D01*
X16577644Y-8499853D01*
X16561170Y-8494500D01*
X16561170Y-8494500D01*
X16561170Y-8494500D01*
X16548027Y-8492418D01*
X16544061Y-8491790D01*
X16526739Y-8491790D01*
X16522773Y-8492418D01*
X16509630Y-8494500D01*
X16493155Y-8499853D01*
X16477721Y-8507717D01*
X16469726Y-8513526D01*
X16463707Y-8517899D01*
X16463707Y-8517899D01*
X16463707Y-8517899D01*
X16451459Y-8530147D01*
X16451459Y-8530147D01*
X16451459Y-8530147D01*
X16447086Y-8536166D01*
X16441277Y-8544161D01*
X16433413Y-8559595D01*
X16428060Y-8576070D01*
X16427035Y-8582541D01*
X16425350Y-8593179D01*
X10017010Y-8593179D01*
X10017010Y-8260372D01*
X16425350Y-8260372D01*
X16425350Y-8435308D01*
X16426803Y-8442614D01*
X16426803Y-8442614D01*
X16426803Y-8442614D01*
X16432340Y-8450900D01*
X16440626Y-8456437D01*
X16440626Y-8456437D01*
X16447932Y-8457890D01*
X16447932Y-8457890D01*
X16447933Y-8457890D01*
X16622868Y-8457890D01*
X16622868Y-8457890D01*
X16630174Y-8456437D01*
X16638460Y-8450900D01*
X16643997Y-8442614D01*
X16645450Y-8435307D01*
X16645450Y-8260373D01*
X16645450Y-8260372D01*
X16645450Y-8260372D01*
X16884350Y-8260372D01*
X16884350Y-8435308D01*
X16885803Y-8442614D01*
X16885803Y-8442614D01*
X16885803Y-8442614D01*
X16891340Y-8450900D01*
X16899626Y-8456437D01*
X16899626Y-8456437D01*
X16906932Y-8457890D01*
X16906932Y-8457890D01*
X16906933Y-8457890D01*
X17081868Y-8457890D01*
X17081868Y-8457890D01*
X17089174Y-8456437D01*
X17097460Y-8450900D01*
X17102997Y-8442614D01*
X17104450Y-8435307D01*
X17104450Y-8260373D01*
X17104450Y-8260372D01*
X17104450Y-8260372D01*
X17343350Y-8260372D01*
X17343350Y-8435308D01*
X17344803Y-8442614D01*
X17344803Y-8442614D01*
X17344803Y-8442614D01*
X17350340Y-8450900D01*
X17358626Y-8456437D01*
X17358626Y-8456437D01*
X17365932Y-8457890D01*
X17365932Y-8457890D01*
X17365933Y-8457890D01*
X17540868Y-8457890D01*
X17540868Y-8457890D01*
X17548174Y-8456437D01*
X17556460Y-8450900D01*
X17561997Y-8442614D01*
X17563450Y-8435307D01*
X17563450Y-8260373D01*
X17563450Y-8260372D01*
X17563450Y-8260372D01*
X18002350Y-8260372D01*
X18002350Y-8435308D01*
X18003803Y-8442614D01*
X18003803Y-8442614D01*
X18003803Y-8442614D01*
X18009340Y-8450900D01*
X18017626Y-8456437D01*
X18017626Y-8456437D01*
X18024932Y-8457890D01*
X18024932Y-8457890D01*
X18024933Y-8457890D01*
X18199868Y-8457890D01*
X18199868Y-8457890D01*
X18207174Y-8456437D01*
X18215460Y-8450900D01*
X18220997Y-8442614D01*
X18222450Y-8435307D01*
X18222450Y-8260373D01*
X18222450Y-8260372D01*
X18222450Y-8260372D01*
X18461350Y-8260372D01*
X18461350Y-8435308D01*
X18462803Y-8442614D01*
X18462803Y-8442614D01*
X18462803Y-8442614D01*
X18468340Y-8450900D01*
X18476626Y-8456437D01*
X18476626Y-8456437D01*
X18483932Y-8457890D01*
X18483932Y-8457890D01*
X18483933Y-8457890D01*
X18658868Y-8457890D01*
X18658868Y-8457890D01*
X18666174Y-8456437D01*
X18674460Y-8450900D01*
X18679997Y-8442614D01*
X18681450Y-8435307D01*
X18681450Y-8260373D01*
X18681450Y-8260372D01*
X18681450Y-8260372D01*
X18920350Y-8260372D01*
X18920350Y-8435308D01*
X18921803Y-8442614D01*
X18921803Y-8442614D01*
X18921803Y-8442614D01*
X18927340Y-8450900D01*
X18935626Y-8456437D01*
X18935626Y-8456437D01*
X18942932Y-8457890D01*
X18942932Y-8457890D01*
X18942933Y-8457890D01*
X19117868Y-8457890D01*
X19117868Y-8457890D01*
X19125174Y-8456437D01*
X19133460Y-8450900D01*
X19138997Y-8442614D01*
X19140450Y-8435307D01*
X19140450Y-8260373D01*
X19140450Y-8260372D01*
X19140450Y-8260372D01*
X19138997Y-8253066D01*
X19138997Y-8253066D01*
X19133460Y-8244780D01*
X19125174Y-8239243D01*
X19125174Y-8239243D01*
X19125174Y-8239243D01*
X19117868Y-8237790D01*
X19117867Y-8237790D01*
X18942933Y-8237790D01*
X18942932Y-8237790D01*
X18935626Y-8239243D01*
X18935626Y-8239243D01*
X18927340Y-8244780D01*
X18921803Y-8253066D01*
X18921803Y-8253066D01*
X18920350Y-8260372D01*
X18681450Y-8260372D01*
X18679997Y-8253066D01*
X18679997Y-8253066D01*
X18674460Y-8244780D01*
X18666174Y-8239243D01*
X18666174Y-8239243D01*
X18666174Y-8239243D01*
X18658868Y-8237790D01*
X18658867Y-8237790D01*
X18483933Y-8237790D01*
X18483932Y-8237790D01*
X18476626Y-8239243D01*
X18476626Y-8239243D01*
X18468340Y-8244780D01*
X18462803Y-8253066D01*
X18462803Y-8253066D01*
X18461350Y-8260372D01*
X18222450Y-8260372D01*
X18220997Y-8253066D01*
X18220997Y-8253066D01*
X18215460Y-8244780D01*
X18207174Y-8239243D01*
X18207174Y-8239243D01*
X18207174Y-8239243D01*
X18199868Y-8237790D01*
X18199867Y-8237790D01*
X18024933Y-8237790D01*
X18024932Y-8237790D01*
X18017626Y-8239243D01*
X18017626Y-8239243D01*
X18009340Y-8244780D01*
X18003803Y-8253066D01*
X18003803Y-8253066D01*
X18002350Y-8260372D01*
X17563450Y-8260372D01*
X17561997Y-8253066D01*
X17561997Y-8253066D01*
X17556460Y-8244780D01*
X17548174Y-8239243D01*
X17548174Y-8239243D01*
X17548174Y-8239243D01*
X17540868Y-8237790D01*
X17540867Y-8237790D01*
X17365933Y-8237790D01*
X17365932Y-8237790D01*
X17358626Y-8239243D01*
X17358626Y-8239243D01*
X17350340Y-8244780D01*
X17344803Y-8253066D01*
X17344803Y-8253066D01*
X17343350Y-8260372D01*
X17104450Y-8260372D01*
X17102997Y-8253066D01*
X17102997Y-8253066D01*
X17097460Y-8244780D01*
X17089174Y-8239243D01*
X17089174Y-8239243D01*
X17089174Y-8239243D01*
X17081868Y-8237790D01*
X17081867Y-8237790D01*
X16906933Y-8237790D01*
X16906932Y-8237790D01*
X16899626Y-8239243D01*
X16899626Y-8239243D01*
X16891340Y-8244780D01*
X16885803Y-8253066D01*
X16885803Y-8253066D01*
X16884350Y-8260372D01*
X16645450Y-8260372D01*
X16643997Y-8253066D01*
X16643997Y-8253066D01*
X16638460Y-8244780D01*
X16630174Y-8239243D01*
X16630174Y-8239243D01*
X16630173Y-8239243D01*
X16622868Y-8237790D01*
X16622867Y-8237790D01*
X16447933Y-8237790D01*
X16447932Y-8237790D01*
X16440626Y-8239243D01*
X16440626Y-8239243D01*
X16432340Y-8244780D01*
X16426803Y-8253066D01*
X16426803Y-8253066D01*
X16425350Y-8260372D01*
X10017010Y-8260372D01*
X10017010Y-7312158D01*
X10570190Y-7312158D01*
X10570190Y-7331842D01*
X10573269Y-7351283D01*
X10579352Y-7370003D01*
X10586890Y-7384798D01*
X10588288Y-7387540D01*
X10599857Y-7403465D01*
X10613775Y-7417383D01*
X10629700Y-7428952D01*
X10637986Y-7433174D01*
X10647237Y-7437888D01*
X10647237Y-7437888D01*
X10647238Y-7437888D01*
X10657272Y-7441149D01*
X10665957Y-7443971D01*
X10685398Y-7447050D01*
X10685398Y-7447050D01*
X10705082Y-7447050D01*
X10724523Y-7443971D01*
X10728610Y-7442643D01*
X10743243Y-7437888D01*
X10760781Y-7428952D01*
X10776705Y-7417383D01*
X10790623Y-7403465D01*
X10802192Y-7387540D01*
X10811128Y-7370002D01*
X10817211Y-7351283D01*
X10817947Y-7346637D01*
X10820290Y-7331842D01*
X10820290Y-7312158D01*
X11220190Y-7312158D01*
X11220190Y-7331842D01*
X11223269Y-7351283D01*
X11229352Y-7370003D01*
X11236890Y-7384798D01*
X11238288Y-7387540D01*
X11249857Y-7403465D01*
X11263775Y-7417383D01*
X11279699Y-7428952D01*
X11287985Y-7433174D01*
X11297237Y-7437888D01*
X11297237Y-7437888D01*
X11297237Y-7437888D01*
X11307272Y-7441149D01*
X11315957Y-7443971D01*
X11335398Y-7447050D01*
X11335398Y-7447050D01*
X11355082Y-7447050D01*
X11374523Y-7443971D01*
X11378610Y-7442643D01*
X11393242Y-7437888D01*
X11410780Y-7428952D01*
X11426705Y-7417383D01*
X11440623Y-7403465D01*
X11452192Y-7387540D01*
X11453590Y-7384798D01*
X13598930Y-7384798D01*
X13598930Y-7404482D01*
X13602009Y-7423923D01*
X13608092Y-7442643D01*
X13617028Y-7460180D01*
X13628597Y-7476105D01*
X13642515Y-7490023D01*
X13658439Y-7501592D01*
X13666725Y-7505814D01*
X13675977Y-7510528D01*
X13675977Y-7510528D01*
X13675977Y-7510528D01*
X13686012Y-7513789D01*
X13694697Y-7516611D01*
X13714138Y-7519690D01*
X13714138Y-7519690D01*
X13733822Y-7519690D01*
X13753263Y-7516611D01*
X13771982Y-7510528D01*
X13789520Y-7501592D01*
X13805445Y-7490023D01*
X13819363Y-7476105D01*
X13830932Y-7460180D01*
X13839868Y-7442642D01*
X13845951Y-7423923D01*
X13846987Y-7417383D01*
X13849030Y-7404482D01*
X13849030Y-7384798D01*
X14248930Y-7384798D01*
X14248930Y-7404482D01*
X14252009Y-7423923D01*
X14258092Y-7442643D01*
X14267028Y-7460180D01*
X14278597Y-7476105D01*
X14292515Y-7490023D01*
X14308439Y-7501592D01*
X14316725Y-7505814D01*
X14325977Y-7510528D01*
X14325977Y-7510528D01*
X14325977Y-7510528D01*
X14336012Y-7513789D01*
X14344697Y-7516611D01*
X14364138Y-7519690D01*
X14364138Y-7519690D01*
X14383822Y-7519690D01*
X14403263Y-7516611D01*
X14421982Y-7510528D01*
X14439520Y-7501592D01*
X14455445Y-7490023D01*
X14469363Y-7476105D01*
X14480932Y-7460180D01*
X14489868Y-7442642D01*
X14495951Y-7423923D01*
X14496987Y-7417383D01*
X14499030Y-7404482D01*
X14499030Y-7384798D01*
X14495951Y-7365357D01*
X14489868Y-7346637D01*
X14485154Y-7337385D01*
X14480932Y-7329099D01*
X14469363Y-7313175D01*
X14455445Y-7299257D01*
X14439520Y-7287688D01*
X14421983Y-7278752D01*
X14403263Y-7272669D01*
X14383822Y-7269590D01*
X14383822Y-7269590D01*
X14364138Y-7269590D01*
X14364138Y-7269590D01*
X14344697Y-7272669D01*
X14325977Y-7278752D01*
X14308439Y-7287688D01*
X14301517Y-7292717D01*
X14292515Y-7299257D01*
X14292515Y-7299257D01*
X14292515Y-7299257D01*
X14278597Y-7313175D01*
X14278597Y-7313175D01*
X14278597Y-7313175D01*
X14273628Y-7320014D01*
X14267028Y-7329099D01*
X14258092Y-7346637D01*
X14252009Y-7365357D01*
X14248930Y-7384798D01*
X13849030Y-7384798D01*
X13845951Y-7365357D01*
X13839868Y-7346637D01*
X13835154Y-7337385D01*
X13830932Y-7329099D01*
X13819363Y-7313175D01*
X13805445Y-7299257D01*
X13789520Y-7287688D01*
X13771983Y-7278752D01*
X13753263Y-7272669D01*
X13733822Y-7269590D01*
X13733822Y-7269590D01*
X13714138Y-7269590D01*
X13714138Y-7269590D01*
X13694697Y-7272669D01*
X13675977Y-7278752D01*
X13658439Y-7287688D01*
X13651517Y-7292717D01*
X13642515Y-7299257D01*
X13642515Y-7299257D01*
X13642515Y-7299257D01*
X13628597Y-7313175D01*
X13628597Y-7313175D01*
X13628597Y-7313175D01*
X13623628Y-7320014D01*
X13617028Y-7329099D01*
X13608092Y-7346637D01*
X13602009Y-7365357D01*
X13598930Y-7384798D01*
X11453590Y-7384798D01*
X11461128Y-7370002D01*
X11467211Y-7351283D01*
X11467947Y-7346637D01*
X11470290Y-7331842D01*
X11470290Y-7312158D01*
X11467211Y-7292717D01*
X11461128Y-7273997D01*
X11452192Y-7256459D01*
X11440623Y-7240535D01*
X11426705Y-7226617D01*
X11410780Y-7215048D01*
X11393243Y-7206112D01*
X11374523Y-7200029D01*
X11355082Y-7196950D01*
X11355082Y-7196950D01*
X11335398Y-7196950D01*
X11335398Y-7196950D01*
X11315957Y-7200029D01*
X11297237Y-7206112D01*
X11279699Y-7215048D01*
X11270614Y-7221648D01*
X11263775Y-7226617D01*
X11263775Y-7226617D01*
X11263775Y-7226617D01*
X11249857Y-7240535D01*
X11249857Y-7240535D01*
X11249857Y-7240535D01*
X11244888Y-7247374D01*
X11238288Y-7256459D01*
X11229352Y-7273997D01*
X11223269Y-7292717D01*
X11220190Y-7312158D01*
X10820290Y-7312158D01*
X10817211Y-7292717D01*
X10811128Y-7273997D01*
X10802192Y-7256459D01*
X10790623Y-7240535D01*
X10776705Y-7226617D01*
X10760781Y-7215048D01*
X10743243Y-7206112D01*
X10724523Y-7200029D01*
X10705082Y-7196950D01*
X10705082Y-7196950D01*
X10685398Y-7196950D01*
X10685398Y-7196950D01*
X10665957Y-7200029D01*
X10647237Y-7206112D01*
X10629699Y-7215048D01*
X10620614Y-7221648D01*
X10613775Y-7226617D01*
X10613775Y-7226617D01*
X10613775Y-7226617D01*
X10599857Y-7240535D01*
X10599857Y-7240535D01*
X10599857Y-7240535D01*
X10594889Y-7247374D01*
X10588288Y-7256459D01*
X10579352Y-7273997D01*
X10573269Y-7292717D01*
X10570190Y-7312158D01*
X10017010Y-7312158D01*
X10017010Y-6862162D01*
X10570240Y-6862162D01*
X10570240Y-6881838D01*
X10573318Y-6901270D01*
X10579398Y-6919983D01*
X10588331Y-6937514D01*
X10590872Y-6941012D01*
X10590872Y-6941012D01*
X10642861Y-6889023D01*
X10643988Y-6893229D01*
X10651229Y-6905771D01*
X10661469Y-6916011D01*
X10674011Y-6923252D01*
X10678216Y-6924379D01*
X10626227Y-6976368D01*
X10626227Y-6976368D01*
X10629726Y-6978910D01*
X10647256Y-6987842D01*
X10665969Y-6993922D01*
X10685402Y-6997000D01*
X10705078Y-6997000D01*
X10724511Y-6993922D01*
X10743224Y-6987842D01*
X10760754Y-6978909D01*
X10764253Y-6976368D01*
X10764253Y-6976368D01*
X10712264Y-6924379D01*
X10716469Y-6923252D01*
X10729011Y-6916011D01*
X10739251Y-6905771D01*
X10746492Y-6893229D01*
X10747619Y-6889023D01*
X10799608Y-6941013D01*
X10799608Y-6941012D01*
X10802150Y-6937514D01*
X10811082Y-6919983D01*
X10817162Y-6901270D01*
X10820240Y-6881838D01*
X10820240Y-6862162D01*
X11220240Y-6862162D01*
X11220240Y-6881838D01*
X11223318Y-6901270D01*
X11229398Y-6919983D01*
X11238330Y-6937514D01*
X11240872Y-6941012D01*
X11240872Y-6941012D01*
X11292861Y-6889023D01*
X11293988Y-6893229D01*
X11301229Y-6905771D01*
X11311469Y-6916011D01*
X11324011Y-6923252D01*
X11328216Y-6924379D01*
X11276227Y-6976368D01*
X11276227Y-6976368D01*
X11279726Y-6978910D01*
X11297256Y-6987842D01*
X11315969Y-6993922D01*
X11335402Y-6997000D01*
X11355078Y-6997000D01*
X11374510Y-6993922D01*
X11393223Y-6987842D01*
X11410754Y-6978909D01*
X11414252Y-6976368D01*
X11414253Y-6976368D01*
X11362263Y-6924379D01*
X11366469Y-6923252D01*
X11379011Y-6916011D01*
X11389251Y-6905771D01*
X11396492Y-6893229D01*
X11397619Y-6889023D01*
X11449608Y-6941013D01*
X11449608Y-6941012D01*
X11452149Y-6937514D01*
X11453532Y-6934802D01*
X13598980Y-6934802D01*
X13598980Y-6954478D01*
X13602058Y-6973910D01*
X13608138Y-6992623D01*
X13617070Y-7010154D01*
X13619612Y-7013652D01*
X13619612Y-7013652D01*
X13671601Y-6961663D01*
X13672728Y-6965869D01*
X13679969Y-6978411D01*
X13690209Y-6988651D01*
X13702751Y-6995892D01*
X13706956Y-6997019D01*
X13654967Y-7049008D01*
X13654967Y-7049008D01*
X13658466Y-7051550D01*
X13675996Y-7060482D01*
X13694709Y-7066562D01*
X13714142Y-7069640D01*
X13733818Y-7069640D01*
X13753250Y-7066562D01*
X13771963Y-7060482D01*
X13789494Y-7051549D01*
X13792992Y-7049008D01*
X13792993Y-7049008D01*
X13741003Y-6997019D01*
X13745209Y-6995892D01*
X13757751Y-6988651D01*
X13767991Y-6978411D01*
X13775232Y-6965869D01*
X13776359Y-6961663D01*
X13828348Y-7013653D01*
X13828348Y-7013652D01*
X13830889Y-7010154D01*
X13839822Y-6992623D01*
X13845902Y-6973910D01*
X13848980Y-6954478D01*
X13848980Y-6934802D01*
X14248980Y-6934802D01*
X14248980Y-6954478D01*
X14252058Y-6973910D01*
X14258138Y-6992623D01*
X14267070Y-7010154D01*
X14269612Y-7013652D01*
X14269612Y-7013652D01*
X14321601Y-6961663D01*
X14322728Y-6965869D01*
X14329969Y-6978411D01*
X14340209Y-6988651D01*
X14352751Y-6995892D01*
X14356956Y-6997019D01*
X14304967Y-7049008D01*
X14304967Y-7049008D01*
X14308466Y-7051550D01*
X14325996Y-7060482D01*
X14344709Y-7066562D01*
X14364142Y-7069640D01*
X14383818Y-7069640D01*
X14403250Y-7066562D01*
X14421963Y-7060482D01*
X14439494Y-7051549D01*
X14442992Y-7049008D01*
X14442993Y-7049008D01*
X14391003Y-6997019D01*
X14395209Y-6995892D01*
X14407751Y-6988651D01*
X14417991Y-6978411D01*
X14425232Y-6965869D01*
X14426359Y-6961663D01*
X14478348Y-7013653D01*
X14478348Y-7013652D01*
X14480889Y-7010154D01*
X14489822Y-6992623D01*
X14495902Y-6973910D01*
X14498980Y-6954478D01*
X14498980Y-6934802D01*
X14495902Y-6915369D01*
X14489822Y-6896656D01*
X14480890Y-6879126D01*
X14478348Y-6875627D01*
X14478348Y-6875627D01*
X14426359Y-6927616D01*
X14425232Y-6923411D01*
X14417991Y-6910869D01*
X14407751Y-6900629D01*
X14395209Y-6893388D01*
X14391003Y-6892261D01*
X14442992Y-6840272D01*
X14442992Y-6840272D01*
X14439494Y-6837730D01*
X14421963Y-6828798D01*
X14403250Y-6822718D01*
X14383818Y-6819640D01*
X14364142Y-6819640D01*
X14344709Y-6822718D01*
X14325996Y-6828798D01*
X14308466Y-6837730D01*
X14308466Y-6837730D01*
X14304967Y-6840272D01*
X14304967Y-6840272D01*
X14356956Y-6892261D01*
X14352751Y-6893388D01*
X14340209Y-6900629D01*
X14329969Y-6910869D01*
X14322728Y-6923411D01*
X14321601Y-6927616D01*
X14269612Y-6875627D01*
X14269612Y-6875627D01*
X14267070Y-6879126D01*
X14267070Y-6879126D01*
X14258138Y-6896656D01*
X14252058Y-6915369D01*
X14248980Y-6934802D01*
X13848980Y-6934802D01*
X13845902Y-6915369D01*
X13839822Y-6896656D01*
X13830890Y-6879126D01*
X13828348Y-6875627D01*
X13828348Y-6875627D01*
X13776359Y-6927616D01*
X13775232Y-6923411D01*
X13767991Y-6910869D01*
X13757751Y-6900629D01*
X13745209Y-6893388D01*
X13741003Y-6892261D01*
X13792992Y-6840272D01*
X13792992Y-6840272D01*
X13789494Y-6837730D01*
X13771963Y-6828798D01*
X13753250Y-6822718D01*
X13733818Y-6819640D01*
X13714142Y-6819640D01*
X13694709Y-6822718D01*
X13675996Y-6828798D01*
X13658466Y-6837730D01*
X13658466Y-6837730D01*
X13654967Y-6840272D01*
X13654967Y-6840272D01*
X13706956Y-6892261D01*
X13702751Y-6893388D01*
X13690209Y-6900629D01*
X13679969Y-6910869D01*
X13672728Y-6923411D01*
X13671601Y-6927616D01*
X13619612Y-6875627D01*
X13619612Y-6875627D01*
X13617070Y-6879126D01*
X13617070Y-6879126D01*
X13608138Y-6896656D01*
X13602058Y-6915369D01*
X13598980Y-6934802D01*
X11453532Y-6934802D01*
X11456648Y-6928686D01*
X11461082Y-6919983D01*
X11467162Y-6901270D01*
X11470240Y-6881838D01*
X11470240Y-6862162D01*
X11467829Y-6846938D01*
X11467162Y-6842729D01*
X11461082Y-6824016D01*
X11452150Y-6806486D01*
X11449608Y-6802987D01*
X11449608Y-6802987D01*
X11397619Y-6854976D01*
X11396492Y-6850771D01*
X11389251Y-6838229D01*
X11379011Y-6827989D01*
X11366469Y-6820748D01*
X11362263Y-6819621D01*
X11414252Y-6767632D01*
X11414252Y-6767632D01*
X11410754Y-6765090D01*
X11393223Y-6756158D01*
X11374510Y-6750078D01*
X11355078Y-6747000D01*
X11335402Y-6747000D01*
X11315969Y-6750078D01*
X11297256Y-6756158D01*
X11279726Y-6765090D01*
X11279726Y-6765090D01*
X11276227Y-6767632D01*
X11276227Y-6767632D01*
X11328216Y-6819621D01*
X11324011Y-6820748D01*
X11311469Y-6827989D01*
X11301229Y-6838229D01*
X11293988Y-6850771D01*
X11292861Y-6854976D01*
X11240872Y-6802987D01*
X11240872Y-6802987D01*
X11238330Y-6806486D01*
X11238330Y-6806486D01*
X11229398Y-6824016D01*
X11223318Y-6842729D01*
X11220240Y-6862162D01*
X10820240Y-6862162D01*
X10817162Y-6842729D01*
X10811082Y-6824016D01*
X10802150Y-6806486D01*
X10799608Y-6802987D01*
X10799608Y-6802987D01*
X10747619Y-6854976D01*
X10746492Y-6850771D01*
X10739251Y-6838229D01*
X10729011Y-6827989D01*
X10716469Y-6820748D01*
X10712263Y-6819621D01*
X10764253Y-6767632D01*
X10764253Y-6767632D01*
X10760755Y-6765090D01*
X10743224Y-6756158D01*
X10724511Y-6750078D01*
X10705078Y-6747000D01*
X10685402Y-6747000D01*
X10665969Y-6750078D01*
X10647256Y-6756158D01*
X10629726Y-6765090D01*
X10629726Y-6765090D01*
X10626227Y-6767632D01*
X10626227Y-6767632D01*
X10678217Y-6819621D01*
X10674011Y-6820748D01*
X10661469Y-6827989D01*
X10651229Y-6838229D01*
X10643988Y-6850771D01*
X10642861Y-6854976D01*
X10590872Y-6802987D01*
X10590872Y-6802987D01*
X10588330Y-6806486D01*
X10588330Y-6806486D01*
X10579398Y-6824016D01*
X10573318Y-6842729D01*
X10570240Y-6862162D01*
X10017010Y-6862162D01*
X10017010Y-5053550D01*
X10018979Y-5046846D01*
X10024259Y-5042271D01*
X10029410Y-5041150D01*
X19597150Y-5041150D01*
X19603854Y-5043119D01*
G37*
%TD.AperFunction*%
%TD*%
M02*
