%TF.GenerationSoftware,KiCad,Pcbnew,9.0.1*%
%TF.CreationDate,2025-04-24T13:25:23+07:00*%
%TF.ProjectId,push-button-controller,70757368-2d62-4757-9474-6f6e2d636f6e,rev?*%
%TF.SameCoordinates,Original*%
%TF.FileFunction,Paste,Top*%
%TF.FilePolarity,Positive*%
%FSLAX45Y45*%
G04 Gerber Fmt 4.5, Leading zero omitted, Abs format (unit mm)*
G04 Created by KiCad (PCBNEW 9.0.1) date 2025-04-24 13:25:23*
%MOMM*%
%LPD*%
G01*
G04 APERTURE LIST*
G04 Aperture macros list*
%AMRoundRect*
0 Rectangle with rounded corners*
0 $1 Rounding radius*
0 $2 $3 $4 $5 $6 $7 $8 $9 X,Y pos of 4 corners*
0 Add a 4 corners polygon primitive as box body*
4,1,4,$2,$3,$4,$5,$6,$7,$8,$9,$2,$3,0*
0 Add four circle primitives for the rounded corners*
1,1,$1+$1,$2,$3*
1,1,$1+$1,$4,$5*
1,1,$1+$1,$6,$7*
1,1,$1+$1,$8,$9*
0 Add four rect primitives between the rounded corners*
20,1,$1+$1,$2,$3,$4,$5,0*
20,1,$1+$1,$4,$5,$6,$7,0*
20,1,$1+$1,$6,$7,$8,$9,0*
20,1,$1+$1,$8,$9,$2,$3,0*%
G04 Aperture macros list end*
%ADD10RoundRect,0.225000X0.225000X0.250000X-0.225000X0.250000X-0.225000X-0.250000X0.225000X-0.250000X0*%
%ADD11RoundRect,0.200000X-0.200000X-0.275000X0.200000X-0.275000X0.200000X0.275000X-0.200000X0.275000X0*%
%ADD12RoundRect,0.225000X-0.225000X-0.250000X0.225000X-0.250000X0.225000X0.250000X-0.225000X0.250000X0*%
%ADD13R,1.219200X0.406400*%
%ADD14RoundRect,0.225000X-0.250000X0.225000X-0.250000X-0.225000X0.250000X-0.225000X0.250000X0.225000X0*%
%ADD15RoundRect,0.057500X-0.562500X-0.172500X0.562500X-0.172500X0.562500X0.172500X-0.562500X0.172500X0*%
%ADD16RoundRect,0.200000X0.200000X0.275000X-0.200000X0.275000X-0.200000X-0.275000X0.200000X-0.275000X0*%
G04 APERTURE END LIST*
D10*
%TO.C,C25*%
X10851240Y-7809260D03*
X10696240Y-7809260D03*
%TD*%
D11*
%TO.C,R9*%
X14637760Y-8175720D03*
X14802760Y-8175720D03*
%TD*%
D12*
%TO.C,C13*%
X12652980Y-10887220D03*
X12807980Y-10887220D03*
%TD*%
D13*
%TO.C,U1*%
X11235920Y-10822220D03*
X11235920Y-10887220D03*
X11235920Y-10952220D03*
X11235920Y-11017220D03*
X11464520Y-11017220D03*
X11464520Y-10952220D03*
X11464520Y-10887220D03*
X11464520Y-10822220D03*
%TD*%
D12*
%TO.C,C31*%
X12773960Y-8200420D03*
X12928960Y-8200420D03*
%TD*%
%TO.C,C29*%
X11161060Y-7567960D03*
X11316060Y-7567960D03*
%TD*%
%TO.C,C21*%
X15686100Y-8696420D03*
X15841100Y-8696420D03*
%TD*%
D14*
%TO.C,C8*%
X13463220Y-11557200D03*
X13463220Y-11712200D03*
%TD*%
D12*
%TO.C,C30*%
X12773960Y-7845420D03*
X12928960Y-7845420D03*
%TD*%
D14*
%TO.C,C23*%
X14096910Y-8724300D03*
X14096910Y-8879300D03*
%TD*%
D12*
%TO.C,C11*%
X12652980Y-11610380D03*
X12807980Y-11610380D03*
%TD*%
%TO.C,C18*%
X14129680Y-7718520D03*
X14284680Y-7718520D03*
%TD*%
D13*
%TO.C,U3*%
X14130980Y-7906480D03*
X14130980Y-7969980D03*
X14130980Y-8036020D03*
X14130980Y-8099520D03*
X14374820Y-8099520D03*
X14374820Y-8036020D03*
X14374820Y-7969980D03*
X14374820Y-7906480D03*
%TD*%
D14*
%TO.C,C24*%
X14455500Y-8724300D03*
X14455500Y-8879300D03*
%TD*%
D11*
%TO.C,R12*%
X11704700Y-8048020D03*
X11869700Y-8048020D03*
%TD*%
%TO.C,R8*%
X14637760Y-7756620D03*
X14802760Y-7756620D03*
%TD*%
D12*
%TO.C,C14*%
X12652980Y-11248800D03*
X12807980Y-11248800D03*
%TD*%
D14*
%TO.C,C12*%
X11588160Y-11625520D03*
X11588160Y-11780520D03*
%TD*%
D12*
%TO.C,C10*%
X11235920Y-10628600D03*
X11390920Y-10628600D03*
%TD*%
D11*
%TO.C,R2*%
X14370280Y-11087360D03*
X14535280Y-11087360D03*
%TD*%
%TO.C,R10*%
X10691240Y-7651780D03*
X10856240Y-7651780D03*
%TD*%
D14*
%TO.C,C7*%
X14174720Y-11557200D03*
X14174720Y-11712200D03*
%TD*%
D12*
%TO.C,C19*%
X15686100Y-7969980D03*
X15841100Y-7969980D03*
%TD*%
D10*
%TO.C,C17*%
X13880820Y-7835360D03*
X13725820Y-7835360D03*
%TD*%
D14*
%TO.C,C16*%
X11224600Y-11625520D03*
X11224600Y-11780520D03*
%TD*%
%TO.C,C15*%
X10861040Y-11625520D03*
X10861040Y-11780520D03*
%TD*%
D13*
%TO.C,U4*%
X11383340Y-7973320D03*
X11383340Y-7908320D03*
X11383340Y-7843320D03*
X11383340Y-7778320D03*
X11154740Y-7778320D03*
X11154740Y-7843320D03*
X11154740Y-7908320D03*
X11154740Y-7973320D03*
%TD*%
D12*
%TO.C,C4*%
X13872880Y-10663180D03*
X14027880Y-10663180D03*
%TD*%
D11*
%TO.C,R4*%
X10843540Y-10593040D03*
X11008540Y-10593040D03*
%TD*%
D15*
%TO.C,U2*%
X13872880Y-10818700D03*
X13872880Y-10883700D03*
X13872880Y-10948700D03*
X13872880Y-11013700D03*
X14109880Y-11013700D03*
X14109880Y-10948700D03*
X14109880Y-10883700D03*
X14109880Y-10818700D03*
%TD*%
D12*
%TO.C,C5*%
X15284600Y-11238930D03*
X15439600Y-11238930D03*
%TD*%
D14*
%TO.C,C9*%
X13818970Y-11557200D03*
X13818970Y-11712200D03*
%TD*%
%TO.C,C22*%
X13738320Y-8724300D03*
X13738320Y-8879300D03*
%TD*%
D16*
%TO.C,R11*%
X10856240Y-7976900D03*
X10691240Y-7976900D03*
%TD*%
D12*
%TO.C,C32*%
X12773960Y-8555420D03*
X12928960Y-8555420D03*
%TD*%
%TO.C,C6*%
X15284600Y-11594160D03*
X15439600Y-11594160D03*
%TD*%
D11*
%TO.C,R6*%
X11704600Y-11108660D03*
X11869600Y-11108660D03*
%TD*%
D12*
%TO.C,C20*%
X15686100Y-8333200D03*
X15841100Y-8333200D03*
%TD*%
D10*
%TO.C,C2*%
X11003540Y-10747980D03*
X10848540Y-10747980D03*
%TD*%
%TO.C,C1*%
X13605720Y-10749540D03*
X13450720Y-10749540D03*
%TD*%
D11*
%TO.C,R5*%
X11704600Y-10687020D03*
X11869600Y-10687020D03*
%TD*%
%TO.C,R7*%
X13720820Y-7660100D03*
X13885820Y-7660100D03*
%TD*%
%TO.C,R1*%
X13445720Y-10620000D03*
X13610720Y-10620000D03*
%TD*%
D12*
%TO.C,C3*%
X15284600Y-10883700D03*
X15439600Y-10883700D03*
%TD*%
D11*
%TO.C,R3*%
X14370280Y-10680960D03*
X14535280Y-10680960D03*
%TD*%
M02*
