%TF.GenerationSoftware,KiCad,Pcbnew,9.0.1*%
%TF.CreationDate,2025-04-24T13:25:23+07:00*%
%TF.ProjectId,push-button-controller,70757368-2d62-4757-9474-6f6e2d636f6e,rev?*%
%TF.SameCoordinates,Original*%
%TF.FileFunction,Legend,Top*%
%TF.FilePolarity,Positive*%
%FSLAX45Y45*%
G04 Gerber Fmt 4.5, Leading zero omitted, Abs format (unit mm)*
G04 Created by KiCad (PCBNEW 9.0.1) date 2025-04-24 13:25:23*
%MOMM*%
%LPD*%
G01*
G04 APERTURE LIST*
%ADD10C,0.150000*%
%ADD11C,0.120000*%
%ADD12C,0.152400*%
%ADD13C,0.127000*%
%ADD14C,0.200000*%
G04 APERTURE END LIST*
D10*
X18949448Y-8055322D02*
X18949448Y-8126750D01*
X18949448Y-8126750D02*
X18944686Y-8141036D01*
X18944686Y-8141036D02*
X18935162Y-8150560D01*
X18935162Y-8150560D02*
X18920876Y-8155322D01*
X18920876Y-8155322D02*
X18911352Y-8155322D01*
X19049448Y-8155322D02*
X18992305Y-8155322D01*
X19020876Y-8155322D02*
X19020876Y-8055322D01*
X19020876Y-8055322D02*
X19011352Y-8069608D01*
X19011352Y-8069608D02*
X19001829Y-8079131D01*
X19001829Y-8079131D02*
X18992305Y-8083893D01*
X19087543Y-8064846D02*
X19092305Y-8060084D01*
X19092305Y-8060084D02*
X19101829Y-8055322D01*
X19101829Y-8055322D02*
X19125638Y-8055322D01*
X19125638Y-8055322D02*
X19135162Y-8060084D01*
X19135162Y-8060084D02*
X19139924Y-8064846D01*
X19139924Y-8064846D02*
X19144686Y-8074369D01*
X19144686Y-8074369D02*
X19144686Y-8083893D01*
X19144686Y-8083893D02*
X19139924Y-8098179D01*
X19139924Y-8098179D02*
X19082781Y-8155322D01*
X19082781Y-8155322D02*
X19144686Y-8155322D01*
X18031448Y-8055322D02*
X18031448Y-8126750D01*
X18031448Y-8126750D02*
X18026686Y-8141036D01*
X18026686Y-8141036D02*
X18017162Y-8150560D01*
X18017162Y-8150560D02*
X18002876Y-8155322D01*
X18002876Y-8155322D02*
X17993352Y-8155322D01*
X18131448Y-8155322D02*
X18074305Y-8155322D01*
X18102876Y-8155322D02*
X18102876Y-8055322D01*
X18102876Y-8055322D02*
X18093352Y-8069608D01*
X18093352Y-8069608D02*
X18083829Y-8079131D01*
X18083829Y-8079131D02*
X18074305Y-8083893D01*
X18226686Y-8155322D02*
X18169543Y-8155322D01*
X18198114Y-8155322D02*
X18198114Y-8055322D01*
X18198114Y-8055322D02*
X18188591Y-8069608D01*
X18188591Y-8069608D02*
X18179067Y-8079131D01*
X18179067Y-8079131D02*
X18169543Y-8083893D01*
X18490448Y-8055322D02*
X18490448Y-8126750D01*
X18490448Y-8126750D02*
X18485686Y-8141036D01*
X18485686Y-8141036D02*
X18476162Y-8150560D01*
X18476162Y-8150560D02*
X18461876Y-8155322D01*
X18461876Y-8155322D02*
X18452352Y-8155322D01*
X18590448Y-8155322D02*
X18533305Y-8155322D01*
X18561876Y-8155322D02*
X18561876Y-8055322D01*
X18561876Y-8055322D02*
X18552352Y-8069608D01*
X18552352Y-8069608D02*
X18542829Y-8079131D01*
X18542829Y-8079131D02*
X18533305Y-8083893D01*
X18652352Y-8055322D02*
X18661876Y-8055322D01*
X18661876Y-8055322D02*
X18671400Y-8060084D01*
X18671400Y-8060084D02*
X18676162Y-8064846D01*
X18676162Y-8064846D02*
X18680924Y-8074369D01*
X18680924Y-8074369D02*
X18685686Y-8093417D01*
X18685686Y-8093417D02*
X18685686Y-8117227D01*
X18685686Y-8117227D02*
X18680924Y-8136274D01*
X18680924Y-8136274D02*
X18676162Y-8145798D01*
X18676162Y-8145798D02*
X18671400Y-8150560D01*
X18671400Y-8150560D02*
X18661876Y-8155322D01*
X18661876Y-8155322D02*
X18652352Y-8155322D01*
X18652352Y-8155322D02*
X18642829Y-8150560D01*
X18642829Y-8150560D02*
X18638067Y-8145798D01*
X18638067Y-8145798D02*
X18633305Y-8136274D01*
X18633305Y-8136274D02*
X18628543Y-8117227D01*
X18628543Y-8117227D02*
X18628543Y-8093417D01*
X18628543Y-8093417D02*
X18633305Y-8074369D01*
X18633305Y-8074369D02*
X18638067Y-8064846D01*
X18638067Y-8064846D02*
X18642829Y-8060084D01*
X18642829Y-8060084D02*
X18652352Y-8055322D01*
X17420067Y-8055322D02*
X17420067Y-8126750D01*
X17420067Y-8126750D02*
X17415305Y-8141036D01*
X17415305Y-8141036D02*
X17405781Y-8150560D01*
X17405781Y-8150560D02*
X17391495Y-8155322D01*
X17391495Y-8155322D02*
X17381971Y-8155322D01*
X17472448Y-8155322D02*
X17491495Y-8155322D01*
X17491495Y-8155322D02*
X17501019Y-8150560D01*
X17501019Y-8150560D02*
X17505781Y-8145798D01*
X17505781Y-8145798D02*
X17515305Y-8131512D01*
X17515305Y-8131512D02*
X17520067Y-8112465D01*
X17520067Y-8112465D02*
X17520067Y-8074369D01*
X17520067Y-8074369D02*
X17515305Y-8064846D01*
X17515305Y-8064846D02*
X17510543Y-8060084D01*
X17510543Y-8060084D02*
X17501019Y-8055322D01*
X17501019Y-8055322D02*
X17481971Y-8055322D01*
X17481971Y-8055322D02*
X17472448Y-8060084D01*
X17472448Y-8060084D02*
X17467686Y-8064846D01*
X17467686Y-8064846D02*
X17462924Y-8074369D01*
X17462924Y-8074369D02*
X17462924Y-8098179D01*
X17462924Y-8098179D02*
X17467686Y-8107703D01*
X17467686Y-8107703D02*
X17472448Y-8112465D01*
X17472448Y-8112465D02*
X17481971Y-8117227D01*
X17481971Y-8117227D02*
X17501019Y-8117227D01*
X17501019Y-8117227D02*
X17510543Y-8112465D01*
X17510543Y-8112465D02*
X17515305Y-8107703D01*
X17515305Y-8107703D02*
X17520067Y-8098179D01*
X16961067Y-8055322D02*
X16961067Y-8126750D01*
X16961067Y-8126750D02*
X16956305Y-8141036D01*
X16956305Y-8141036D02*
X16946781Y-8150560D01*
X16946781Y-8150560D02*
X16932495Y-8155322D01*
X16932495Y-8155322D02*
X16922971Y-8155322D01*
X17022971Y-8098179D02*
X17013448Y-8093417D01*
X17013448Y-8093417D02*
X17008686Y-8088655D01*
X17008686Y-8088655D02*
X17003924Y-8079131D01*
X17003924Y-8079131D02*
X17003924Y-8074369D01*
X17003924Y-8074369D02*
X17008686Y-8064846D01*
X17008686Y-8064846D02*
X17013448Y-8060084D01*
X17013448Y-8060084D02*
X17022971Y-8055322D01*
X17022971Y-8055322D02*
X17042019Y-8055322D01*
X17042019Y-8055322D02*
X17051543Y-8060084D01*
X17051543Y-8060084D02*
X17056305Y-8064846D01*
X17056305Y-8064846D02*
X17061067Y-8074369D01*
X17061067Y-8074369D02*
X17061067Y-8079131D01*
X17061067Y-8079131D02*
X17056305Y-8088655D01*
X17056305Y-8088655D02*
X17051543Y-8093417D01*
X17051543Y-8093417D02*
X17042019Y-8098179D01*
X17042019Y-8098179D02*
X17022971Y-8098179D01*
X17022971Y-8098179D02*
X17013448Y-8102941D01*
X17013448Y-8102941D02*
X17008686Y-8107703D01*
X17008686Y-8107703D02*
X17003924Y-8117227D01*
X17003924Y-8117227D02*
X17003924Y-8136274D01*
X17003924Y-8136274D02*
X17008686Y-8145798D01*
X17008686Y-8145798D02*
X17013448Y-8150560D01*
X17013448Y-8150560D02*
X17022971Y-8155322D01*
X17022971Y-8155322D02*
X17042019Y-8155322D01*
X17042019Y-8155322D02*
X17051543Y-8150560D01*
X17051543Y-8150560D02*
X17056305Y-8145798D01*
X17056305Y-8145798D02*
X17061067Y-8136274D01*
X17061067Y-8136274D02*
X17061067Y-8117227D01*
X17061067Y-8117227D02*
X17056305Y-8107703D01*
X17056305Y-8107703D02*
X17051543Y-8102941D01*
X17051543Y-8102941D02*
X17042019Y-8098179D01*
X16502067Y-8055322D02*
X16502067Y-8126750D01*
X16502067Y-8126750D02*
X16497305Y-8141036D01*
X16497305Y-8141036D02*
X16487781Y-8150560D01*
X16487781Y-8150560D02*
X16473495Y-8155322D01*
X16473495Y-8155322D02*
X16463971Y-8155322D01*
X16540162Y-8055322D02*
X16606828Y-8055322D01*
X16606828Y-8055322D02*
X16563971Y-8155322D01*
X18997067Y-9476322D02*
X18997067Y-9547750D01*
X18997067Y-9547750D02*
X18992305Y-9562036D01*
X18992305Y-9562036D02*
X18982781Y-9571560D01*
X18982781Y-9571560D02*
X18968495Y-9576322D01*
X18968495Y-9576322D02*
X18958971Y-9576322D01*
X19087543Y-9476322D02*
X19068495Y-9476322D01*
X19068495Y-9476322D02*
X19058971Y-9481084D01*
X19058971Y-9481084D02*
X19054210Y-9485846D01*
X19054210Y-9485846D02*
X19044686Y-9500131D01*
X19044686Y-9500131D02*
X19039924Y-9519179D01*
X19039924Y-9519179D02*
X19039924Y-9557274D01*
X19039924Y-9557274D02*
X19044686Y-9566798D01*
X19044686Y-9566798D02*
X19049448Y-9571560D01*
X19049448Y-9571560D02*
X19058971Y-9576322D01*
X19058971Y-9576322D02*
X19078019Y-9576322D01*
X19078019Y-9576322D02*
X19087543Y-9571560D01*
X19087543Y-9571560D02*
X19092305Y-9566798D01*
X19092305Y-9566798D02*
X19097067Y-9557274D01*
X19097067Y-9557274D02*
X19097067Y-9533465D01*
X19097067Y-9533465D02*
X19092305Y-9523941D01*
X19092305Y-9523941D02*
X19087543Y-9519179D01*
X19087543Y-9519179D02*
X19078019Y-9514417D01*
X19078019Y-9514417D02*
X19058971Y-9514417D01*
X19058971Y-9514417D02*
X19049448Y-9519179D01*
X19049448Y-9519179D02*
X19044686Y-9523941D01*
X19044686Y-9523941D02*
X19039924Y-9533465D01*
X18538067Y-9476322D02*
X18538067Y-9547750D01*
X18538067Y-9547750D02*
X18533305Y-9562036D01*
X18533305Y-9562036D02*
X18523781Y-9571560D01*
X18523781Y-9571560D02*
X18509495Y-9576322D01*
X18509495Y-9576322D02*
X18499971Y-9576322D01*
X18633305Y-9476322D02*
X18585686Y-9476322D01*
X18585686Y-9476322D02*
X18580924Y-9523941D01*
X18580924Y-9523941D02*
X18585686Y-9519179D01*
X18585686Y-9519179D02*
X18595210Y-9514417D01*
X18595210Y-9514417D02*
X18619019Y-9514417D01*
X18619019Y-9514417D02*
X18628543Y-9519179D01*
X18628543Y-9519179D02*
X18633305Y-9523941D01*
X18633305Y-9523941D02*
X18638067Y-9533465D01*
X18638067Y-9533465D02*
X18638067Y-9557274D01*
X18638067Y-9557274D02*
X18633305Y-9566798D01*
X18633305Y-9566798D02*
X18628543Y-9571560D01*
X18628543Y-9571560D02*
X18619019Y-9576322D01*
X18619019Y-9576322D02*
X18595210Y-9576322D01*
X18595210Y-9576322D02*
X18585686Y-9571560D01*
X18585686Y-9571560D02*
X18580924Y-9566798D01*
X18079067Y-9476322D02*
X18079067Y-9547750D01*
X18079067Y-9547750D02*
X18074305Y-9562036D01*
X18074305Y-9562036D02*
X18064781Y-9571560D01*
X18064781Y-9571560D02*
X18050495Y-9576322D01*
X18050495Y-9576322D02*
X18040971Y-9576322D01*
X18169543Y-9509655D02*
X18169543Y-9576322D01*
X18145733Y-9471560D02*
X18121924Y-9542989D01*
X18121924Y-9542989D02*
X18183829Y-9542989D01*
X17420067Y-9476322D02*
X17420067Y-9547750D01*
X17420067Y-9547750D02*
X17415305Y-9562036D01*
X17415305Y-9562036D02*
X17405781Y-9571560D01*
X17405781Y-9571560D02*
X17391495Y-9576322D01*
X17391495Y-9576322D02*
X17381971Y-9576322D01*
X17458162Y-9476322D02*
X17520067Y-9476322D01*
X17520067Y-9476322D02*
X17486733Y-9514417D01*
X17486733Y-9514417D02*
X17501019Y-9514417D01*
X17501019Y-9514417D02*
X17510543Y-9519179D01*
X17510543Y-9519179D02*
X17515305Y-9523941D01*
X17515305Y-9523941D02*
X17520067Y-9533465D01*
X17520067Y-9533465D02*
X17520067Y-9557274D01*
X17520067Y-9557274D02*
X17515305Y-9566798D01*
X17515305Y-9566798D02*
X17510543Y-9571560D01*
X17510543Y-9571560D02*
X17501019Y-9576322D01*
X17501019Y-9576322D02*
X17472448Y-9576322D01*
X17472448Y-9576322D02*
X17462924Y-9571560D01*
X17462924Y-9571560D02*
X17458162Y-9566798D01*
X16961067Y-9476322D02*
X16961067Y-9547750D01*
X16961067Y-9547750D02*
X16956305Y-9562036D01*
X16956305Y-9562036D02*
X16946781Y-9571560D01*
X16946781Y-9571560D02*
X16932495Y-9576322D01*
X16932495Y-9576322D02*
X16922971Y-9576322D01*
X17003924Y-9485846D02*
X17008686Y-9481084D01*
X17008686Y-9481084D02*
X17018210Y-9476322D01*
X17018210Y-9476322D02*
X17042019Y-9476322D01*
X17042019Y-9476322D02*
X17051543Y-9481084D01*
X17051543Y-9481084D02*
X17056305Y-9485846D01*
X17056305Y-9485846D02*
X17061067Y-9495370D01*
X17061067Y-9495370D02*
X17061067Y-9504893D01*
X17061067Y-9504893D02*
X17056305Y-9519179D01*
X17056305Y-9519179D02*
X16999162Y-9576322D01*
X16999162Y-9576322D02*
X17061067Y-9576322D01*
X16502067Y-9476322D02*
X16502067Y-9547750D01*
X16502067Y-9547750D02*
X16497305Y-9562036D01*
X16497305Y-9562036D02*
X16487781Y-9571560D01*
X16487781Y-9571560D02*
X16473495Y-9576322D01*
X16473495Y-9576322D02*
X16463971Y-9576322D01*
X16602067Y-9576322D02*
X16544924Y-9576322D01*
X16573495Y-9576322D02*
X16573495Y-9476322D01*
X16573495Y-9476322D02*
X16563971Y-9490608D01*
X16563971Y-9490608D02*
X16554448Y-9500131D01*
X16554448Y-9500131D02*
X16544924Y-9504893D01*
X13862392Y-8596232D02*
X13933820Y-8596232D01*
X13933820Y-8596232D02*
X13948106Y-8600994D01*
X13948106Y-8600994D02*
X13957630Y-8610518D01*
X13957630Y-8610518D02*
X13962392Y-8624804D01*
X13962392Y-8624804D02*
X13962392Y-8634328D01*
X13962392Y-8548613D02*
X13862392Y-8548613D01*
X13862392Y-8548613D02*
X13862392Y-8510518D01*
X13862392Y-8510518D02*
X13867154Y-8500994D01*
X13867154Y-8500994D02*
X13871916Y-8496232D01*
X13871916Y-8496232D02*
X13881439Y-8491470D01*
X13881439Y-8491470D02*
X13895725Y-8491470D01*
X13895725Y-8491470D02*
X13905249Y-8496232D01*
X13905249Y-8496232D02*
X13910011Y-8500994D01*
X13910011Y-8500994D02*
X13914773Y-8510518D01*
X13914773Y-8510518D02*
X13914773Y-8548613D01*
X13871916Y-8453375D02*
X13867154Y-8448613D01*
X13867154Y-8448613D02*
X13862392Y-8439089D01*
X13862392Y-8439089D02*
X13862392Y-8415280D01*
X13862392Y-8415280D02*
X13867154Y-8405756D01*
X13867154Y-8405756D02*
X13871916Y-8400994D01*
X13871916Y-8400994D02*
X13881439Y-8396232D01*
X13881439Y-8396232D02*
X13890963Y-8396232D01*
X13890963Y-8396232D02*
X13905249Y-8400994D01*
X13905249Y-8400994D02*
X13962392Y-8458137D01*
X13962392Y-8458137D02*
X13962392Y-8396232D01*
X13862392Y-8362899D02*
X13862392Y-8300994D01*
X13862392Y-8300994D02*
X13900487Y-8334327D01*
X13900487Y-8334327D02*
X13900487Y-8320042D01*
X13900487Y-8320042D02*
X13905249Y-8310518D01*
X13905249Y-8310518D02*
X13910011Y-8305756D01*
X13910011Y-8305756D02*
X13919535Y-8300994D01*
X13919535Y-8300994D02*
X13943344Y-8300994D01*
X13943344Y-8300994D02*
X13952868Y-8305756D01*
X13952868Y-8305756D02*
X13957630Y-8310518D01*
X13957630Y-8310518D02*
X13962392Y-8320042D01*
X13962392Y-8320042D02*
X13962392Y-8348613D01*
X13962392Y-8348613D02*
X13957630Y-8358137D01*
X13957630Y-8358137D02*
X13952868Y-8362899D01*
X10412274Y-7846718D02*
X10407512Y-7851480D01*
X10407512Y-7851480D02*
X10393227Y-7856242D01*
X10393227Y-7856242D02*
X10383703Y-7856242D01*
X10383703Y-7856242D02*
X10369417Y-7851480D01*
X10369417Y-7851480D02*
X10359893Y-7841956D01*
X10359893Y-7841956D02*
X10355131Y-7832432D01*
X10355131Y-7832432D02*
X10350370Y-7813385D01*
X10350370Y-7813385D02*
X10350370Y-7799099D01*
X10350370Y-7799099D02*
X10355131Y-7780051D01*
X10355131Y-7780051D02*
X10359893Y-7770528D01*
X10359893Y-7770528D02*
X10369417Y-7761004D01*
X10369417Y-7761004D02*
X10383703Y-7756242D01*
X10383703Y-7756242D02*
X10393227Y-7756242D01*
X10393227Y-7756242D02*
X10407512Y-7761004D01*
X10407512Y-7761004D02*
X10412274Y-7765766D01*
X10450370Y-7765766D02*
X10455131Y-7761004D01*
X10455131Y-7761004D02*
X10464655Y-7756242D01*
X10464655Y-7756242D02*
X10488465Y-7756242D01*
X10488465Y-7756242D02*
X10497989Y-7761004D01*
X10497989Y-7761004D02*
X10502750Y-7765766D01*
X10502750Y-7765766D02*
X10507512Y-7775289D01*
X10507512Y-7775289D02*
X10507512Y-7784813D01*
X10507512Y-7784813D02*
X10502750Y-7799099D01*
X10502750Y-7799099D02*
X10445608Y-7856242D01*
X10445608Y-7856242D02*
X10507512Y-7856242D01*
X10597989Y-7756242D02*
X10550370Y-7756242D01*
X10550370Y-7756242D02*
X10545608Y-7803861D01*
X10545608Y-7803861D02*
X10550370Y-7799099D01*
X10550370Y-7799099D02*
X10559893Y-7794337D01*
X10559893Y-7794337D02*
X10583703Y-7794337D01*
X10583703Y-7794337D02*
X10593227Y-7799099D01*
X10593227Y-7799099D02*
X10597989Y-7803861D01*
X10597989Y-7803861D02*
X10602750Y-7813385D01*
X10602750Y-7813385D02*
X10602750Y-7837194D01*
X10602750Y-7837194D02*
X10597989Y-7846718D01*
X10597989Y-7846718D02*
X10593227Y-7851480D01*
X10593227Y-7851480D02*
X10583703Y-7856242D01*
X10583703Y-7856242D02*
X10559893Y-7856242D01*
X10559893Y-7856242D02*
X10550370Y-7851480D01*
X10550370Y-7851480D02*
X10545608Y-7846718D01*
X14955053Y-8218662D02*
X14921720Y-8171043D01*
X14897910Y-8218662D02*
X14897910Y-8118662D01*
X14897910Y-8118662D02*
X14936006Y-8118662D01*
X14936006Y-8118662D02*
X14945529Y-8123424D01*
X14945529Y-8123424D02*
X14950291Y-8128186D01*
X14950291Y-8128186D02*
X14955053Y-8137709D01*
X14955053Y-8137709D02*
X14955053Y-8151995D01*
X14955053Y-8151995D02*
X14950291Y-8161519D01*
X14950291Y-8161519D02*
X14945529Y-8166281D01*
X14945529Y-8166281D02*
X14936006Y-8171043D01*
X14936006Y-8171043D02*
X14897910Y-8171043D01*
X15002672Y-8218662D02*
X15021720Y-8218662D01*
X15021720Y-8218662D02*
X15031244Y-8213900D01*
X15031244Y-8213900D02*
X15036006Y-8209138D01*
X15036006Y-8209138D02*
X15045529Y-8194852D01*
X15045529Y-8194852D02*
X15050291Y-8175805D01*
X15050291Y-8175805D02*
X15050291Y-8137709D01*
X15050291Y-8137709D02*
X15045529Y-8128186D01*
X15045529Y-8128186D02*
X15040768Y-8123424D01*
X15040768Y-8123424D02*
X15031244Y-8118662D01*
X15031244Y-8118662D02*
X15012196Y-8118662D01*
X15012196Y-8118662D02*
X15002672Y-8123424D01*
X15002672Y-8123424D02*
X14997910Y-8128186D01*
X14997910Y-8128186D02*
X14993149Y-8137709D01*
X14993149Y-8137709D02*
X14993149Y-8161519D01*
X14993149Y-8161519D02*
X14997910Y-8171043D01*
X14997910Y-8171043D02*
X15002672Y-8175805D01*
X15002672Y-8175805D02*
X15012196Y-8180567D01*
X15012196Y-8180567D02*
X15031244Y-8180567D01*
X15031244Y-8180567D02*
X15040768Y-8175805D01*
X15040768Y-8175805D02*
X15045529Y-8171043D01*
X15045529Y-8171043D02*
X15050291Y-8161519D01*
X13584452Y-11441832D02*
X13655880Y-11441832D01*
X13655880Y-11441832D02*
X13670166Y-11446594D01*
X13670166Y-11446594D02*
X13679690Y-11456118D01*
X13679690Y-11456118D02*
X13684452Y-11470404D01*
X13684452Y-11470404D02*
X13684452Y-11479927D01*
X13684452Y-11394213D02*
X13584452Y-11394213D01*
X13584452Y-11394213D02*
X13584452Y-11356118D01*
X13584452Y-11356118D02*
X13589214Y-11346594D01*
X13589214Y-11346594D02*
X13593976Y-11341832D01*
X13593976Y-11341832D02*
X13603499Y-11337070D01*
X13603499Y-11337070D02*
X13617785Y-11337070D01*
X13617785Y-11337070D02*
X13627309Y-11341832D01*
X13627309Y-11341832D02*
X13632071Y-11346594D01*
X13632071Y-11346594D02*
X13636833Y-11356118D01*
X13636833Y-11356118D02*
X13636833Y-11394213D01*
X13684452Y-11241832D02*
X13684452Y-11298975D01*
X13684452Y-11270404D02*
X13584452Y-11270404D01*
X13584452Y-11270404D02*
X13598738Y-11279927D01*
X13598738Y-11279927D02*
X13608261Y-11289451D01*
X13608261Y-11289451D02*
X13613023Y-11298975D01*
X13593976Y-11203737D02*
X13589214Y-11198975D01*
X13589214Y-11198975D02*
X13584452Y-11189451D01*
X13584452Y-11189451D02*
X13584452Y-11165642D01*
X13584452Y-11165642D02*
X13589214Y-11156118D01*
X13589214Y-11156118D02*
X13593976Y-11151356D01*
X13593976Y-11151356D02*
X13603499Y-11146594D01*
X13603499Y-11146594D02*
X13613023Y-11146594D01*
X13613023Y-11146594D02*
X13627309Y-11151356D01*
X13627309Y-11151356D02*
X13684452Y-11208499D01*
X13684452Y-11208499D02*
X13684452Y-11146594D01*
X12666194Y-10780178D02*
X12661432Y-10784940D01*
X12661432Y-10784940D02*
X12647147Y-10789702D01*
X12647147Y-10789702D02*
X12637623Y-10789702D01*
X12637623Y-10789702D02*
X12623337Y-10784940D01*
X12623337Y-10784940D02*
X12613813Y-10775416D01*
X12613813Y-10775416D02*
X12609051Y-10765892D01*
X12609051Y-10765892D02*
X12604289Y-10746845D01*
X12604289Y-10746845D02*
X12604289Y-10732559D01*
X12604289Y-10732559D02*
X12609051Y-10713511D01*
X12609051Y-10713511D02*
X12613813Y-10703988D01*
X12613813Y-10703988D02*
X12623337Y-10694464D01*
X12623337Y-10694464D02*
X12637623Y-10689702D01*
X12637623Y-10689702D02*
X12647147Y-10689702D01*
X12647147Y-10689702D02*
X12661432Y-10694464D01*
X12661432Y-10694464D02*
X12666194Y-10699226D01*
X12761432Y-10789702D02*
X12704289Y-10789702D01*
X12732861Y-10789702D02*
X12732861Y-10689702D01*
X12732861Y-10689702D02*
X12723337Y-10703988D01*
X12723337Y-10703988D02*
X12713813Y-10713511D01*
X12713813Y-10713511D02*
X12704289Y-10718273D01*
X12794766Y-10689702D02*
X12856670Y-10689702D01*
X12856670Y-10689702D02*
X12823337Y-10727797D01*
X12823337Y-10727797D02*
X12837623Y-10727797D01*
X12837623Y-10727797D02*
X12847147Y-10732559D01*
X12847147Y-10732559D02*
X12851908Y-10737321D01*
X12851908Y-10737321D02*
X12856670Y-10746845D01*
X12856670Y-10746845D02*
X12856670Y-10770654D01*
X12856670Y-10770654D02*
X12851908Y-10780178D01*
X12851908Y-10780178D02*
X12847147Y-10784940D01*
X12847147Y-10784940D02*
X12837623Y-10789702D01*
X12837623Y-10789702D02*
X12809051Y-10789702D01*
X12809051Y-10789702D02*
X12799528Y-10784940D01*
X12799528Y-10784940D02*
X12794766Y-10780178D01*
X11484849Y-10635042D02*
X11484849Y-10715994D01*
X11484849Y-10715994D02*
X11489611Y-10725518D01*
X11489611Y-10725518D02*
X11494373Y-10730280D01*
X11494373Y-10730280D02*
X11503897Y-10735042D01*
X11503897Y-10735042D02*
X11522945Y-10735042D01*
X11522945Y-10735042D02*
X11532468Y-10730280D01*
X11532468Y-10730280D02*
X11537230Y-10725518D01*
X11537230Y-10725518D02*
X11541992Y-10715994D01*
X11541992Y-10715994D02*
X11541992Y-10635042D01*
X11641992Y-10735042D02*
X11584849Y-10735042D01*
X11613421Y-10735042D02*
X11613421Y-10635042D01*
X11613421Y-10635042D02*
X11603897Y-10649328D01*
X11603897Y-10649328D02*
X11594373Y-10658851D01*
X11594373Y-10658851D02*
X11584849Y-10663613D01*
X13637387Y-9643900D02*
X13651672Y-9648662D01*
X13651672Y-9648662D02*
X13675482Y-9648662D01*
X13675482Y-9648662D02*
X13685006Y-9643900D01*
X13685006Y-9643900D02*
X13689768Y-9639138D01*
X13689768Y-9639138D02*
X13694529Y-9629614D01*
X13694529Y-9629614D02*
X13694529Y-9620090D01*
X13694529Y-9620090D02*
X13689768Y-9610567D01*
X13689768Y-9610567D02*
X13685006Y-9605805D01*
X13685006Y-9605805D02*
X13675482Y-9601043D01*
X13675482Y-9601043D02*
X13656434Y-9596281D01*
X13656434Y-9596281D02*
X13646910Y-9591519D01*
X13646910Y-9591519D02*
X13642149Y-9586757D01*
X13642149Y-9586757D02*
X13637387Y-9577233D01*
X13637387Y-9577233D02*
X13637387Y-9567710D01*
X13637387Y-9567710D02*
X13642149Y-9558186D01*
X13642149Y-9558186D02*
X13646910Y-9553424D01*
X13646910Y-9553424D02*
X13656434Y-9548662D01*
X13656434Y-9548662D02*
X13680244Y-9548662D01*
X13680244Y-9548662D02*
X13694529Y-9553424D01*
X13727863Y-9548662D02*
X13751672Y-9648662D01*
X13751672Y-9648662D02*
X13770720Y-9577233D01*
X13770720Y-9577233D02*
X13789768Y-9648662D01*
X13789768Y-9648662D02*
X13813577Y-9548662D01*
X13904053Y-9648662D02*
X13846910Y-9648662D01*
X13875482Y-9648662D02*
X13875482Y-9548662D01*
X13875482Y-9548662D02*
X13865958Y-9562948D01*
X13865958Y-9562948D02*
X13856434Y-9572471D01*
X13856434Y-9572471D02*
X13846910Y-9577233D01*
X12787174Y-8093378D02*
X12782412Y-8098140D01*
X12782412Y-8098140D02*
X12768127Y-8102902D01*
X12768127Y-8102902D02*
X12758603Y-8102902D01*
X12758603Y-8102902D02*
X12744317Y-8098140D01*
X12744317Y-8098140D02*
X12734793Y-8088616D01*
X12734793Y-8088616D02*
X12730031Y-8079092D01*
X12730031Y-8079092D02*
X12725269Y-8060045D01*
X12725269Y-8060045D02*
X12725269Y-8045759D01*
X12725269Y-8045759D02*
X12730031Y-8026711D01*
X12730031Y-8026711D02*
X12734793Y-8017188D01*
X12734793Y-8017188D02*
X12744317Y-8007664D01*
X12744317Y-8007664D02*
X12758603Y-8002902D01*
X12758603Y-8002902D02*
X12768127Y-8002902D01*
X12768127Y-8002902D02*
X12782412Y-8007664D01*
X12782412Y-8007664D02*
X12787174Y-8012426D01*
X12820508Y-8002902D02*
X12882412Y-8002902D01*
X12882412Y-8002902D02*
X12849079Y-8040997D01*
X12849079Y-8040997D02*
X12863365Y-8040997D01*
X12863365Y-8040997D02*
X12872888Y-8045759D01*
X12872888Y-8045759D02*
X12877650Y-8050521D01*
X12877650Y-8050521D02*
X12882412Y-8060045D01*
X12882412Y-8060045D02*
X12882412Y-8083854D01*
X12882412Y-8083854D02*
X12877650Y-8093378D01*
X12877650Y-8093378D02*
X12872888Y-8098140D01*
X12872888Y-8098140D02*
X12863365Y-8102902D01*
X12863365Y-8102902D02*
X12834793Y-8102902D01*
X12834793Y-8102902D02*
X12825269Y-8098140D01*
X12825269Y-8098140D02*
X12820508Y-8093378D01*
X12977650Y-8102902D02*
X12920508Y-8102902D01*
X12949079Y-8102902D02*
X12949079Y-8002902D01*
X12949079Y-8002902D02*
X12939555Y-8017188D01*
X12939555Y-8017188D02*
X12930031Y-8026711D01*
X12930031Y-8026711D02*
X12920508Y-8031473D01*
X11471454Y-7602418D02*
X11466692Y-7607180D01*
X11466692Y-7607180D02*
X11452407Y-7611942D01*
X11452407Y-7611942D02*
X11442883Y-7611942D01*
X11442883Y-7611942D02*
X11428597Y-7607180D01*
X11428597Y-7607180D02*
X11419073Y-7597656D01*
X11419073Y-7597656D02*
X11414311Y-7588132D01*
X11414311Y-7588132D02*
X11409549Y-7569085D01*
X11409549Y-7569085D02*
X11409549Y-7554799D01*
X11409549Y-7554799D02*
X11414311Y-7535751D01*
X11414311Y-7535751D02*
X11419073Y-7526228D01*
X11419073Y-7526228D02*
X11428597Y-7516704D01*
X11428597Y-7516704D02*
X11442883Y-7511942D01*
X11442883Y-7511942D02*
X11452407Y-7511942D01*
X11452407Y-7511942D02*
X11466692Y-7516704D01*
X11466692Y-7516704D02*
X11471454Y-7521466D01*
X11509549Y-7521466D02*
X11514311Y-7516704D01*
X11514311Y-7516704D02*
X11523835Y-7511942D01*
X11523835Y-7511942D02*
X11547645Y-7511942D01*
X11547645Y-7511942D02*
X11557168Y-7516704D01*
X11557168Y-7516704D02*
X11561930Y-7521466D01*
X11561930Y-7521466D02*
X11566692Y-7530989D01*
X11566692Y-7530989D02*
X11566692Y-7540513D01*
X11566692Y-7540513D02*
X11561930Y-7554799D01*
X11561930Y-7554799D02*
X11504788Y-7611942D01*
X11504788Y-7611942D02*
X11566692Y-7611942D01*
X11614311Y-7611942D02*
X11633359Y-7611942D01*
X11633359Y-7611942D02*
X11642883Y-7607180D01*
X11642883Y-7607180D02*
X11647645Y-7602418D01*
X11647645Y-7602418D02*
X11657168Y-7588132D01*
X11657168Y-7588132D02*
X11661930Y-7569085D01*
X11661930Y-7569085D02*
X11661930Y-7530989D01*
X11661930Y-7530989D02*
X11657168Y-7521466D01*
X11657168Y-7521466D02*
X11652407Y-7516704D01*
X11652407Y-7516704D02*
X11642883Y-7511942D01*
X11642883Y-7511942D02*
X11623835Y-7511942D01*
X11623835Y-7511942D02*
X11614311Y-7516704D01*
X11614311Y-7516704D02*
X11609549Y-7521466D01*
X11609549Y-7521466D02*
X11604788Y-7530989D01*
X11604788Y-7530989D02*
X11604788Y-7554799D01*
X11604788Y-7554799D02*
X11609549Y-7564323D01*
X11609549Y-7564323D02*
X11614311Y-7569085D01*
X11614311Y-7569085D02*
X11623835Y-7573847D01*
X11623835Y-7573847D02*
X11642883Y-7573847D01*
X11642883Y-7573847D02*
X11652407Y-7569085D01*
X11652407Y-7569085D02*
X11657168Y-7564323D01*
X11657168Y-7564323D02*
X11661930Y-7554799D01*
X10626522Y-11451073D02*
X10697950Y-11451073D01*
X10697950Y-11451073D02*
X10712236Y-11455835D01*
X10712236Y-11455835D02*
X10721760Y-11465359D01*
X10721760Y-11465359D02*
X10726522Y-11479645D01*
X10726522Y-11479645D02*
X10726522Y-11489168D01*
X10726522Y-11403454D02*
X10626522Y-11403454D01*
X10626522Y-11403454D02*
X10626522Y-11365359D01*
X10626522Y-11365359D02*
X10631284Y-11355835D01*
X10631284Y-11355835D02*
X10636046Y-11351073D01*
X10636046Y-11351073D02*
X10645570Y-11346311D01*
X10645570Y-11346311D02*
X10659855Y-11346311D01*
X10659855Y-11346311D02*
X10669379Y-11351073D01*
X10669379Y-11351073D02*
X10674141Y-11355835D01*
X10674141Y-11355835D02*
X10678903Y-11365359D01*
X10678903Y-11365359D02*
X10678903Y-11403454D01*
X10626522Y-11255835D02*
X10626522Y-11303454D01*
X10626522Y-11303454D02*
X10674141Y-11308216D01*
X10674141Y-11308216D02*
X10669379Y-11303454D01*
X10669379Y-11303454D02*
X10664617Y-11293930D01*
X10664617Y-11293930D02*
X10664617Y-11270121D01*
X10664617Y-11270121D02*
X10669379Y-11260597D01*
X10669379Y-11260597D02*
X10674141Y-11255835D01*
X10674141Y-11255835D02*
X10683665Y-11251073D01*
X10683665Y-11251073D02*
X10707474Y-11251073D01*
X10707474Y-11251073D02*
X10716998Y-11255835D01*
X10716998Y-11255835D02*
X10721760Y-11260597D01*
X10721760Y-11260597D02*
X10726522Y-11270121D01*
X10726522Y-11270121D02*
X10726522Y-11293930D01*
X10726522Y-11293930D02*
X10721760Y-11303454D01*
X10721760Y-11303454D02*
X10716998Y-11308216D01*
X15699314Y-8589378D02*
X15694552Y-8594140D01*
X15694552Y-8594140D02*
X15680267Y-8598902D01*
X15680267Y-8598902D02*
X15670743Y-8598902D01*
X15670743Y-8598902D02*
X15656457Y-8594140D01*
X15656457Y-8594140D02*
X15646933Y-8584616D01*
X15646933Y-8584616D02*
X15642171Y-8575092D01*
X15642171Y-8575092D02*
X15637409Y-8556045D01*
X15637409Y-8556045D02*
X15637409Y-8541759D01*
X15637409Y-8541759D02*
X15642171Y-8522711D01*
X15642171Y-8522711D02*
X15646933Y-8513188D01*
X15646933Y-8513188D02*
X15656457Y-8503664D01*
X15656457Y-8503664D02*
X15670743Y-8498902D01*
X15670743Y-8498902D02*
X15680267Y-8498902D01*
X15680267Y-8498902D02*
X15694552Y-8503664D01*
X15694552Y-8503664D02*
X15699314Y-8508426D01*
X15737409Y-8508426D02*
X15742171Y-8503664D01*
X15742171Y-8503664D02*
X15751695Y-8498902D01*
X15751695Y-8498902D02*
X15775505Y-8498902D01*
X15775505Y-8498902D02*
X15785028Y-8503664D01*
X15785028Y-8503664D02*
X15789790Y-8508426D01*
X15789790Y-8508426D02*
X15794552Y-8517950D01*
X15794552Y-8517950D02*
X15794552Y-8527473D01*
X15794552Y-8527473D02*
X15789790Y-8541759D01*
X15789790Y-8541759D02*
X15732648Y-8598902D01*
X15732648Y-8598902D02*
X15794552Y-8598902D01*
X15889790Y-8598902D02*
X15832648Y-8598902D01*
X15861219Y-8598902D02*
X15861219Y-8498902D01*
X15861219Y-8498902D02*
X15851695Y-8513188D01*
X15851695Y-8513188D02*
X15842171Y-8522711D01*
X15842171Y-8522711D02*
X15832648Y-8527473D01*
X13642178Y-11651367D02*
X13646940Y-11656128D01*
X13646940Y-11656128D02*
X13651702Y-11670414D01*
X13651702Y-11670414D02*
X13651702Y-11679938D01*
X13651702Y-11679938D02*
X13646940Y-11694224D01*
X13646940Y-11694224D02*
X13637416Y-11703747D01*
X13637416Y-11703747D02*
X13627892Y-11708509D01*
X13627892Y-11708509D02*
X13608845Y-11713271D01*
X13608845Y-11713271D02*
X13594559Y-11713271D01*
X13594559Y-11713271D02*
X13575511Y-11708509D01*
X13575511Y-11708509D02*
X13565988Y-11703747D01*
X13565988Y-11703747D02*
X13556464Y-11694224D01*
X13556464Y-11694224D02*
X13551702Y-11679938D01*
X13551702Y-11679938D02*
X13551702Y-11670414D01*
X13551702Y-11670414D02*
X13556464Y-11656128D01*
X13556464Y-11656128D02*
X13561226Y-11651367D01*
X13594559Y-11594224D02*
X13589797Y-11603747D01*
X13589797Y-11603747D02*
X13585035Y-11608509D01*
X13585035Y-11608509D02*
X13575511Y-11613271D01*
X13575511Y-11613271D02*
X13570749Y-11613271D01*
X13570749Y-11613271D02*
X13561226Y-11608509D01*
X13561226Y-11608509D02*
X13556464Y-11603747D01*
X13556464Y-11603747D02*
X13551702Y-11594224D01*
X13551702Y-11594224D02*
X13551702Y-11575176D01*
X13551702Y-11575176D02*
X13556464Y-11565652D01*
X13556464Y-11565652D02*
X13561226Y-11560890D01*
X13561226Y-11560890D02*
X13570749Y-11556128D01*
X13570749Y-11556128D02*
X13575511Y-11556128D01*
X13575511Y-11556128D02*
X13585035Y-11560890D01*
X13585035Y-11560890D02*
X13589797Y-11565652D01*
X13589797Y-11565652D02*
X13594559Y-11575176D01*
X13594559Y-11575176D02*
X13594559Y-11594224D01*
X13594559Y-11594224D02*
X13599321Y-11603747D01*
X13599321Y-11603747D02*
X13604083Y-11608509D01*
X13604083Y-11608509D02*
X13613607Y-11613271D01*
X13613607Y-11613271D02*
X13632654Y-11613271D01*
X13632654Y-11613271D02*
X13642178Y-11608509D01*
X13642178Y-11608509D02*
X13646940Y-11603747D01*
X13646940Y-11603747D02*
X13651702Y-11594224D01*
X13651702Y-11594224D02*
X13651702Y-11575176D01*
X13651702Y-11575176D02*
X13646940Y-11565652D01*
X13646940Y-11565652D02*
X13642178Y-11560890D01*
X13642178Y-11560890D02*
X13632654Y-11556128D01*
X13632654Y-11556128D02*
X13613607Y-11556128D01*
X13613607Y-11556128D02*
X13604083Y-11560890D01*
X13604083Y-11560890D02*
X13599321Y-11565652D01*
X13599321Y-11565652D02*
X13594559Y-11575176D01*
X12787174Y-7738378D02*
X12782412Y-7743140D01*
X12782412Y-7743140D02*
X12768127Y-7747902D01*
X12768127Y-7747902D02*
X12758603Y-7747902D01*
X12758603Y-7747902D02*
X12744317Y-7743140D01*
X12744317Y-7743140D02*
X12734793Y-7733616D01*
X12734793Y-7733616D02*
X12730031Y-7724092D01*
X12730031Y-7724092D02*
X12725269Y-7705045D01*
X12725269Y-7705045D02*
X12725269Y-7690759D01*
X12725269Y-7690759D02*
X12730031Y-7671711D01*
X12730031Y-7671711D02*
X12734793Y-7662188D01*
X12734793Y-7662188D02*
X12744317Y-7652664D01*
X12744317Y-7652664D02*
X12758603Y-7647902D01*
X12758603Y-7647902D02*
X12768127Y-7647902D01*
X12768127Y-7647902D02*
X12782412Y-7652664D01*
X12782412Y-7652664D02*
X12787174Y-7657426D01*
X12820508Y-7647902D02*
X12882412Y-7647902D01*
X12882412Y-7647902D02*
X12849079Y-7685997D01*
X12849079Y-7685997D02*
X12863365Y-7685997D01*
X12863365Y-7685997D02*
X12872888Y-7690759D01*
X12872888Y-7690759D02*
X12877650Y-7695521D01*
X12877650Y-7695521D02*
X12882412Y-7705045D01*
X12882412Y-7705045D02*
X12882412Y-7728854D01*
X12882412Y-7728854D02*
X12877650Y-7738378D01*
X12877650Y-7738378D02*
X12872888Y-7743140D01*
X12872888Y-7743140D02*
X12863365Y-7747902D01*
X12863365Y-7747902D02*
X12834793Y-7747902D01*
X12834793Y-7747902D02*
X12825269Y-7743140D01*
X12825269Y-7743140D02*
X12820508Y-7738378D01*
X12944317Y-7647902D02*
X12953841Y-7647902D01*
X12953841Y-7647902D02*
X12963365Y-7652664D01*
X12963365Y-7652664D02*
X12968127Y-7657426D01*
X12968127Y-7657426D02*
X12972888Y-7666949D01*
X12972888Y-7666949D02*
X12977650Y-7685997D01*
X12977650Y-7685997D02*
X12977650Y-7709807D01*
X12977650Y-7709807D02*
X12972888Y-7728854D01*
X12972888Y-7728854D02*
X12968127Y-7738378D01*
X12968127Y-7738378D02*
X12963365Y-7743140D01*
X12963365Y-7743140D02*
X12953841Y-7747902D01*
X12953841Y-7747902D02*
X12944317Y-7747902D01*
X12944317Y-7747902D02*
X12934793Y-7743140D01*
X12934793Y-7743140D02*
X12930031Y-7738378D01*
X12930031Y-7738378D02*
X12925269Y-7728854D01*
X12925269Y-7728854D02*
X12920508Y-7709807D01*
X12920508Y-7709807D02*
X12920508Y-7685997D01*
X12920508Y-7685997D02*
X12925269Y-7666949D01*
X12925269Y-7666949D02*
X12930031Y-7657426D01*
X12930031Y-7657426D02*
X12934793Y-7652664D01*
X12934793Y-7652664D02*
X12944317Y-7647902D01*
X13228702Y-11441832D02*
X13300130Y-11441832D01*
X13300130Y-11441832D02*
X13314416Y-11446594D01*
X13314416Y-11446594D02*
X13323940Y-11456118D01*
X13323940Y-11456118D02*
X13328702Y-11470404D01*
X13328702Y-11470404D02*
X13328702Y-11479927D01*
X13328702Y-11394213D02*
X13228702Y-11394213D01*
X13228702Y-11394213D02*
X13228702Y-11356118D01*
X13228702Y-11356118D02*
X13233464Y-11346594D01*
X13233464Y-11346594D02*
X13238226Y-11341832D01*
X13238226Y-11341832D02*
X13247749Y-11337070D01*
X13247749Y-11337070D02*
X13262035Y-11337070D01*
X13262035Y-11337070D02*
X13271559Y-11341832D01*
X13271559Y-11341832D02*
X13276321Y-11346594D01*
X13276321Y-11346594D02*
X13281083Y-11356118D01*
X13281083Y-11356118D02*
X13281083Y-11394213D01*
X13328702Y-11241832D02*
X13328702Y-11298975D01*
X13328702Y-11270404D02*
X13228702Y-11270404D01*
X13228702Y-11270404D02*
X13242988Y-11279927D01*
X13242988Y-11279927D02*
X13252511Y-11289451D01*
X13252511Y-11289451D02*
X13257273Y-11298975D01*
X13328702Y-11146594D02*
X13328702Y-11203737D01*
X13328702Y-11175166D02*
X13228702Y-11175166D01*
X13228702Y-11175166D02*
X13242988Y-11184689D01*
X13242988Y-11184689D02*
X13252511Y-11194213D01*
X13252511Y-11194213D02*
X13257273Y-11203737D01*
X14275868Y-8866086D02*
X14280630Y-8870848D01*
X14280630Y-8870848D02*
X14285392Y-8885133D01*
X14285392Y-8885133D02*
X14285392Y-8894657D01*
X14285392Y-8894657D02*
X14280630Y-8908943D01*
X14280630Y-8908943D02*
X14271106Y-8918467D01*
X14271106Y-8918467D02*
X14261582Y-8923229D01*
X14261582Y-8923229D02*
X14242535Y-8927990D01*
X14242535Y-8927990D02*
X14228249Y-8927990D01*
X14228249Y-8927990D02*
X14209201Y-8923229D01*
X14209201Y-8923229D02*
X14199678Y-8918467D01*
X14199678Y-8918467D02*
X14190154Y-8908943D01*
X14190154Y-8908943D02*
X14185392Y-8894657D01*
X14185392Y-8894657D02*
X14185392Y-8885133D01*
X14185392Y-8885133D02*
X14190154Y-8870848D01*
X14190154Y-8870848D02*
X14194916Y-8866086D01*
X14194916Y-8827990D02*
X14190154Y-8823229D01*
X14190154Y-8823229D02*
X14185392Y-8813705D01*
X14185392Y-8813705D02*
X14185392Y-8789895D01*
X14185392Y-8789895D02*
X14190154Y-8780371D01*
X14190154Y-8780371D02*
X14194916Y-8775610D01*
X14194916Y-8775610D02*
X14204439Y-8770848D01*
X14204439Y-8770848D02*
X14213963Y-8770848D01*
X14213963Y-8770848D02*
X14228249Y-8775610D01*
X14228249Y-8775610D02*
X14285392Y-8832752D01*
X14285392Y-8832752D02*
X14285392Y-8770848D01*
X14185392Y-8737514D02*
X14185392Y-8675610D01*
X14185392Y-8675610D02*
X14223487Y-8708943D01*
X14223487Y-8708943D02*
X14223487Y-8694657D01*
X14223487Y-8694657D02*
X14228249Y-8685133D01*
X14228249Y-8685133D02*
X14233011Y-8680371D01*
X14233011Y-8680371D02*
X14242535Y-8675610D01*
X14242535Y-8675610D02*
X14266344Y-8675610D01*
X14266344Y-8675610D02*
X14275868Y-8680371D01*
X14275868Y-8680371D02*
X14280630Y-8685133D01*
X14280630Y-8685133D02*
X14285392Y-8694657D01*
X14285392Y-8694657D02*
X14285392Y-8723229D01*
X14285392Y-8723229D02*
X14280630Y-8732752D01*
X14280630Y-8732752D02*
X14275868Y-8737514D01*
X12666194Y-11503338D02*
X12661432Y-11508100D01*
X12661432Y-11508100D02*
X12647147Y-11512862D01*
X12647147Y-11512862D02*
X12637623Y-11512862D01*
X12637623Y-11512862D02*
X12623337Y-11508100D01*
X12623337Y-11508100D02*
X12613813Y-11498576D01*
X12613813Y-11498576D02*
X12609051Y-11489052D01*
X12609051Y-11489052D02*
X12604289Y-11470005D01*
X12604289Y-11470005D02*
X12604289Y-11455719D01*
X12604289Y-11455719D02*
X12609051Y-11436671D01*
X12609051Y-11436671D02*
X12613813Y-11427148D01*
X12613813Y-11427148D02*
X12623337Y-11417624D01*
X12623337Y-11417624D02*
X12637623Y-11412862D01*
X12637623Y-11412862D02*
X12647147Y-11412862D01*
X12647147Y-11412862D02*
X12661432Y-11417624D01*
X12661432Y-11417624D02*
X12666194Y-11422386D01*
X12761432Y-11512862D02*
X12704289Y-11512862D01*
X12732861Y-11512862D02*
X12732861Y-11412862D01*
X12732861Y-11412862D02*
X12723337Y-11427148D01*
X12723337Y-11427148D02*
X12713813Y-11436671D01*
X12713813Y-11436671D02*
X12704289Y-11441433D01*
X12856670Y-11512862D02*
X12799528Y-11512862D01*
X12828099Y-11512862D02*
X12828099Y-11412862D01*
X12828099Y-11412862D02*
X12818575Y-11427148D01*
X12818575Y-11427148D02*
X12809051Y-11436671D01*
X12809051Y-11436671D02*
X12799528Y-11441433D01*
X14142894Y-7611478D02*
X14138132Y-7616240D01*
X14138132Y-7616240D02*
X14123847Y-7621002D01*
X14123847Y-7621002D02*
X14114323Y-7621002D01*
X14114323Y-7621002D02*
X14100037Y-7616240D01*
X14100037Y-7616240D02*
X14090513Y-7606716D01*
X14090513Y-7606716D02*
X14085751Y-7597192D01*
X14085751Y-7597192D02*
X14080989Y-7578145D01*
X14080989Y-7578145D02*
X14080989Y-7563859D01*
X14080989Y-7563859D02*
X14085751Y-7544811D01*
X14085751Y-7544811D02*
X14090513Y-7535288D01*
X14090513Y-7535288D02*
X14100037Y-7525764D01*
X14100037Y-7525764D02*
X14114323Y-7521002D01*
X14114323Y-7521002D02*
X14123847Y-7521002D01*
X14123847Y-7521002D02*
X14138132Y-7525764D01*
X14138132Y-7525764D02*
X14142894Y-7530526D01*
X14238132Y-7621002D02*
X14180989Y-7621002D01*
X14209561Y-7621002D02*
X14209561Y-7521002D01*
X14209561Y-7521002D02*
X14200037Y-7535288D01*
X14200037Y-7535288D02*
X14190513Y-7544811D01*
X14190513Y-7544811D02*
X14180989Y-7549573D01*
X14295275Y-7563859D02*
X14285751Y-7559097D01*
X14285751Y-7559097D02*
X14280989Y-7554335D01*
X14280989Y-7554335D02*
X14276228Y-7544811D01*
X14276228Y-7544811D02*
X14276228Y-7540049D01*
X14276228Y-7540049D02*
X14280989Y-7530526D01*
X14280989Y-7530526D02*
X14285751Y-7525764D01*
X14285751Y-7525764D02*
X14295275Y-7521002D01*
X14295275Y-7521002D02*
X14314323Y-7521002D01*
X14314323Y-7521002D02*
X14323847Y-7525764D01*
X14323847Y-7525764D02*
X14328608Y-7530526D01*
X14328608Y-7530526D02*
X14333370Y-7540049D01*
X14333370Y-7540049D02*
X14333370Y-7544811D01*
X14333370Y-7544811D02*
X14328608Y-7554335D01*
X14328608Y-7554335D02*
X14323847Y-7559097D01*
X14323847Y-7559097D02*
X14314323Y-7563859D01*
X14314323Y-7563859D02*
X14295275Y-7563859D01*
X14295275Y-7563859D02*
X14285751Y-7568621D01*
X14285751Y-7568621D02*
X14280989Y-7573383D01*
X14280989Y-7573383D02*
X14276228Y-7582907D01*
X14276228Y-7582907D02*
X14276228Y-7601954D01*
X14276228Y-7601954D02*
X14280989Y-7611478D01*
X14280989Y-7611478D02*
X14285751Y-7616240D01*
X14285751Y-7616240D02*
X14295275Y-7621002D01*
X14295275Y-7621002D02*
X14314323Y-7621002D01*
X14314323Y-7621002D02*
X14323847Y-7616240D01*
X14323847Y-7616240D02*
X14328608Y-7611478D01*
X14328608Y-7611478D02*
X14333370Y-7601954D01*
X14333370Y-7601954D02*
X14333370Y-7582907D01*
X14333370Y-7582907D02*
X14328608Y-7573383D01*
X14328608Y-7573383D02*
X14323847Y-7568621D01*
X14323847Y-7568621D02*
X14314323Y-7563859D01*
X10818542Y-8590452D02*
X10889970Y-8590452D01*
X10889970Y-8590452D02*
X10904256Y-8595214D01*
X10904256Y-8595214D02*
X10913780Y-8604738D01*
X10913780Y-8604738D02*
X10918542Y-8619024D01*
X10918542Y-8619024D02*
X10918542Y-8628548D01*
X10918542Y-8542833D02*
X10818542Y-8542833D01*
X10818542Y-8542833D02*
X10818542Y-8504738D01*
X10818542Y-8504738D02*
X10823304Y-8495214D01*
X10823304Y-8495214D02*
X10828066Y-8490452D01*
X10828066Y-8490452D02*
X10837590Y-8485690D01*
X10837590Y-8485690D02*
X10851875Y-8485690D01*
X10851875Y-8485690D02*
X10861399Y-8490452D01*
X10861399Y-8490452D02*
X10866161Y-8495214D01*
X10866161Y-8495214D02*
X10870923Y-8504738D01*
X10870923Y-8504738D02*
X10870923Y-8542833D01*
X10828066Y-8447595D02*
X10823304Y-8442833D01*
X10823304Y-8442833D02*
X10818542Y-8433309D01*
X10818542Y-8433309D02*
X10818542Y-8409500D01*
X10818542Y-8409500D02*
X10823304Y-8399976D01*
X10823304Y-8399976D02*
X10828066Y-8395214D01*
X10828066Y-8395214D02*
X10837590Y-8390452D01*
X10837590Y-8390452D02*
X10847113Y-8390452D01*
X10847113Y-8390452D02*
X10861399Y-8395214D01*
X10861399Y-8395214D02*
X10918542Y-8452357D01*
X10918542Y-8452357D02*
X10918542Y-8390452D01*
X10861399Y-8333309D02*
X10856637Y-8342833D01*
X10856637Y-8342833D02*
X10851875Y-8347595D01*
X10851875Y-8347595D02*
X10842351Y-8352357D01*
X10842351Y-8352357D02*
X10837590Y-8352357D01*
X10837590Y-8352357D02*
X10828066Y-8347595D01*
X10828066Y-8347595D02*
X10823304Y-8342833D01*
X10823304Y-8342833D02*
X10818542Y-8333309D01*
X10818542Y-8333309D02*
X10818542Y-8314262D01*
X10818542Y-8314262D02*
X10823304Y-8304738D01*
X10823304Y-8304738D02*
X10828066Y-8299976D01*
X10828066Y-8299976D02*
X10837590Y-8295214D01*
X10837590Y-8295214D02*
X10842351Y-8295214D01*
X10842351Y-8295214D02*
X10851875Y-8299976D01*
X10851875Y-8299976D02*
X10856637Y-8304738D01*
X10856637Y-8304738D02*
X10861399Y-8314262D01*
X10861399Y-8314262D02*
X10861399Y-8333309D01*
X10861399Y-8333309D02*
X10866161Y-8342833D01*
X10866161Y-8342833D02*
X10870923Y-8347595D01*
X10870923Y-8347595D02*
X10880447Y-8352357D01*
X10880447Y-8352357D02*
X10899494Y-8352357D01*
X10899494Y-8352357D02*
X10909018Y-8347595D01*
X10909018Y-8347595D02*
X10913780Y-8342833D01*
X10913780Y-8342833D02*
X10918542Y-8333309D01*
X10918542Y-8333309D02*
X10918542Y-8314262D01*
X10918542Y-8314262D02*
X10913780Y-8304738D01*
X10913780Y-8304738D02*
X10909018Y-8299976D01*
X10909018Y-8299976D02*
X10899494Y-8295214D01*
X10899494Y-8295214D02*
X10880447Y-8295214D01*
X10880447Y-8295214D02*
X10870923Y-8299976D01*
X10870923Y-8299976D02*
X10866161Y-8304738D01*
X10866161Y-8304738D02*
X10861399Y-8314262D01*
X14379909Y-7735122D02*
X14379909Y-7816074D01*
X14379909Y-7816074D02*
X14384671Y-7825598D01*
X14384671Y-7825598D02*
X14389433Y-7830360D01*
X14389433Y-7830360D02*
X14398957Y-7835122D01*
X14398957Y-7835122D02*
X14418005Y-7835122D01*
X14418005Y-7835122D02*
X14427528Y-7830360D01*
X14427528Y-7830360D02*
X14432290Y-7825598D01*
X14432290Y-7825598D02*
X14437052Y-7816074D01*
X14437052Y-7816074D02*
X14437052Y-7735122D01*
X14475148Y-7735122D02*
X14537052Y-7735122D01*
X14537052Y-7735122D02*
X14503719Y-7773217D01*
X14503719Y-7773217D02*
X14518005Y-7773217D01*
X14518005Y-7773217D02*
X14527528Y-7777979D01*
X14527528Y-7777979D02*
X14532290Y-7782741D01*
X14532290Y-7782741D02*
X14537052Y-7792265D01*
X14537052Y-7792265D02*
X14537052Y-7816074D01*
X14537052Y-7816074D02*
X14532290Y-7825598D01*
X14532290Y-7825598D02*
X14527528Y-7830360D01*
X14527528Y-7830360D02*
X14518005Y-7835122D01*
X14518005Y-7835122D02*
X14489433Y-7835122D01*
X14489433Y-7835122D02*
X14479909Y-7830360D01*
X14479909Y-7830360D02*
X14475148Y-7825598D01*
X14634458Y-8866086D02*
X14639220Y-8870848D01*
X14639220Y-8870848D02*
X14643982Y-8885133D01*
X14643982Y-8885133D02*
X14643982Y-8894657D01*
X14643982Y-8894657D02*
X14639220Y-8908943D01*
X14639220Y-8908943D02*
X14629696Y-8918467D01*
X14629696Y-8918467D02*
X14620172Y-8923229D01*
X14620172Y-8923229D02*
X14601125Y-8927990D01*
X14601125Y-8927990D02*
X14586839Y-8927990D01*
X14586839Y-8927990D02*
X14567791Y-8923229D01*
X14567791Y-8923229D02*
X14558268Y-8918467D01*
X14558268Y-8918467D02*
X14548744Y-8908943D01*
X14548744Y-8908943D02*
X14543982Y-8894657D01*
X14543982Y-8894657D02*
X14543982Y-8885133D01*
X14543982Y-8885133D02*
X14548744Y-8870848D01*
X14548744Y-8870848D02*
X14553506Y-8866086D01*
X14553506Y-8827990D02*
X14548744Y-8823229D01*
X14548744Y-8823229D02*
X14543982Y-8813705D01*
X14543982Y-8813705D02*
X14543982Y-8789895D01*
X14543982Y-8789895D02*
X14548744Y-8780371D01*
X14548744Y-8780371D02*
X14553506Y-8775610D01*
X14553506Y-8775610D02*
X14563029Y-8770848D01*
X14563029Y-8770848D02*
X14572553Y-8770848D01*
X14572553Y-8770848D02*
X14586839Y-8775610D01*
X14586839Y-8775610D02*
X14643982Y-8832752D01*
X14643982Y-8832752D02*
X14643982Y-8770848D01*
X14577315Y-8685133D02*
X14643982Y-8685133D01*
X14539220Y-8708943D02*
X14610648Y-8732752D01*
X14610648Y-8732752D02*
X14610648Y-8670848D01*
X14907528Y-11719642D02*
X14907528Y-11791070D01*
X14907528Y-11791070D02*
X14902766Y-11805356D01*
X14902766Y-11805356D02*
X14893242Y-11814880D01*
X14893242Y-11814880D02*
X14878956Y-11819642D01*
X14878956Y-11819642D02*
X14869432Y-11819642D01*
X14955147Y-11819642D02*
X14955147Y-11719642D01*
X14955147Y-11719642D02*
X14993242Y-11719642D01*
X14993242Y-11719642D02*
X15002766Y-11724404D01*
X15002766Y-11724404D02*
X15007528Y-11729166D01*
X15007528Y-11729166D02*
X15012289Y-11738689D01*
X15012289Y-11738689D02*
X15012289Y-11752975D01*
X15012289Y-11752975D02*
X15007528Y-11762499D01*
X15007528Y-11762499D02*
X15002766Y-11767261D01*
X15002766Y-11767261D02*
X14993242Y-11772023D01*
X14993242Y-11772023D02*
X14955147Y-11772023D01*
X15107528Y-11819642D02*
X15050385Y-11819642D01*
X15078956Y-11819642D02*
X15078956Y-11719642D01*
X15078956Y-11719642D02*
X15069432Y-11733928D01*
X15069432Y-11733928D02*
X15059909Y-11743451D01*
X15059909Y-11743451D02*
X15050385Y-11748213D01*
X15193242Y-11719642D02*
X15174194Y-11719642D01*
X15174194Y-11719642D02*
X15164670Y-11724404D01*
X15164670Y-11724404D02*
X15159909Y-11729166D01*
X15159909Y-11729166D02*
X15150385Y-11743451D01*
X15150385Y-11743451D02*
X15145623Y-11762499D01*
X15145623Y-11762499D02*
X15145623Y-11800594D01*
X15145623Y-11800594D02*
X15150385Y-11810118D01*
X15150385Y-11810118D02*
X15155147Y-11814880D01*
X15155147Y-11814880D02*
X15164670Y-11819642D01*
X15164670Y-11819642D02*
X15183718Y-11819642D01*
X15183718Y-11819642D02*
X15193242Y-11814880D01*
X15193242Y-11814880D02*
X15198004Y-11810118D01*
X15198004Y-11810118D02*
X15202766Y-11800594D01*
X15202766Y-11800594D02*
X15202766Y-11776785D01*
X15202766Y-11776785D02*
X15198004Y-11767261D01*
X15198004Y-11767261D02*
X15193242Y-11762499D01*
X15193242Y-11762499D02*
X15183718Y-11757737D01*
X15183718Y-11757737D02*
X15164670Y-11757737D01*
X15164670Y-11757737D02*
X15155147Y-11762499D01*
X15155147Y-11762499D02*
X15150385Y-11767261D01*
X15150385Y-11767261D02*
X15145623Y-11776785D01*
X13156827Y-10894182D02*
X13156827Y-10965610D01*
X13156827Y-10965610D02*
X13152065Y-10979896D01*
X13152065Y-10979896D02*
X13142541Y-10989420D01*
X13142541Y-10989420D02*
X13128255Y-10994182D01*
X13128255Y-10994182D02*
X13118731Y-10994182D01*
X13204446Y-10994182D02*
X13204446Y-10894182D01*
X13204446Y-10894182D02*
X13242541Y-10894182D01*
X13242541Y-10894182D02*
X13252065Y-10898944D01*
X13252065Y-10898944D02*
X13256827Y-10903706D01*
X13256827Y-10903706D02*
X13261588Y-10913230D01*
X13261588Y-10913230D02*
X13261588Y-10927515D01*
X13261588Y-10927515D02*
X13256827Y-10937039D01*
X13256827Y-10937039D02*
X13252065Y-10941801D01*
X13252065Y-10941801D02*
X13242541Y-10946563D01*
X13242541Y-10946563D02*
X13204446Y-10946563D01*
X13299684Y-10903706D02*
X13304446Y-10898944D01*
X13304446Y-10898944D02*
X13313969Y-10894182D01*
X13313969Y-10894182D02*
X13337779Y-10894182D01*
X13337779Y-10894182D02*
X13347303Y-10898944D01*
X13347303Y-10898944D02*
X13352065Y-10903706D01*
X13352065Y-10903706D02*
X13356827Y-10913230D01*
X13356827Y-10913230D02*
X13356827Y-10922753D01*
X13356827Y-10922753D02*
X13352065Y-10937039D01*
X13352065Y-10937039D02*
X13294922Y-10994182D01*
X13294922Y-10994182D02*
X13356827Y-10994182D01*
X10550607Y-10897702D02*
X10550607Y-10969130D01*
X10550607Y-10969130D02*
X10545845Y-10983416D01*
X10545845Y-10983416D02*
X10536321Y-10992940D01*
X10536321Y-10992940D02*
X10522035Y-10997702D01*
X10522035Y-10997702D02*
X10512511Y-10997702D01*
X10598226Y-10997702D02*
X10598226Y-10897702D01*
X10598226Y-10897702D02*
X10636321Y-10897702D01*
X10636321Y-10897702D02*
X10645845Y-10902464D01*
X10645845Y-10902464D02*
X10650607Y-10907226D01*
X10650607Y-10907226D02*
X10655369Y-10916750D01*
X10655369Y-10916750D02*
X10655369Y-10931035D01*
X10655369Y-10931035D02*
X10650607Y-10940559D01*
X10650607Y-10940559D02*
X10645845Y-10945321D01*
X10645845Y-10945321D02*
X10636321Y-10950083D01*
X10636321Y-10950083D02*
X10598226Y-10950083D01*
X10741083Y-10931035D02*
X10741083Y-10997702D01*
X10717273Y-10892940D02*
X10693464Y-10964369D01*
X10693464Y-10964369D02*
X10755369Y-10964369D01*
X12009934Y-8096042D02*
X11976601Y-8048423D01*
X11952791Y-8096042D02*
X11952791Y-7996042D01*
X11952791Y-7996042D02*
X11990887Y-7996042D01*
X11990887Y-7996042D02*
X12000410Y-8000804D01*
X12000410Y-8000804D02*
X12005172Y-8005566D01*
X12005172Y-8005566D02*
X12009934Y-8015089D01*
X12009934Y-8015089D02*
X12009934Y-8029375D01*
X12009934Y-8029375D02*
X12005172Y-8038899D01*
X12005172Y-8038899D02*
X12000410Y-8043661D01*
X12000410Y-8043661D02*
X11990887Y-8048423D01*
X11990887Y-8048423D02*
X11952791Y-8048423D01*
X12105172Y-8096042D02*
X12048029Y-8096042D01*
X12076601Y-8096042D02*
X12076601Y-7996042D01*
X12076601Y-7996042D02*
X12067077Y-8010328D01*
X12067077Y-8010328D02*
X12057553Y-8019851D01*
X12057553Y-8019851D02*
X12048029Y-8024613D01*
X12143268Y-8005566D02*
X12148029Y-8000804D01*
X12148029Y-8000804D02*
X12157553Y-7996042D01*
X12157553Y-7996042D02*
X12181363Y-7996042D01*
X12181363Y-7996042D02*
X12190887Y-8000804D01*
X12190887Y-8000804D02*
X12195648Y-8005566D01*
X12195648Y-8005566D02*
X12200410Y-8015089D01*
X12200410Y-8015089D02*
X12200410Y-8024613D01*
X12200410Y-8024613D02*
X12195648Y-8038899D01*
X12195648Y-8038899D02*
X12138506Y-8096042D01*
X12138506Y-8096042D02*
X12200410Y-8096042D01*
X14952513Y-7804642D02*
X14919180Y-7757023D01*
X14895370Y-7804642D02*
X14895370Y-7704642D01*
X14895370Y-7704642D02*
X14933466Y-7704642D01*
X14933466Y-7704642D02*
X14942989Y-7709404D01*
X14942989Y-7709404D02*
X14947751Y-7714166D01*
X14947751Y-7714166D02*
X14952513Y-7723689D01*
X14952513Y-7723689D02*
X14952513Y-7737975D01*
X14952513Y-7737975D02*
X14947751Y-7747499D01*
X14947751Y-7747499D02*
X14942989Y-7752261D01*
X14942989Y-7752261D02*
X14933466Y-7757023D01*
X14933466Y-7757023D02*
X14895370Y-7757023D01*
X15009656Y-7747499D02*
X15000132Y-7742737D01*
X15000132Y-7742737D02*
X14995370Y-7737975D01*
X14995370Y-7737975D02*
X14990609Y-7728451D01*
X14990609Y-7728451D02*
X14990609Y-7723689D01*
X14990609Y-7723689D02*
X14995370Y-7714166D01*
X14995370Y-7714166D02*
X15000132Y-7709404D01*
X15000132Y-7709404D02*
X15009656Y-7704642D01*
X15009656Y-7704642D02*
X15028704Y-7704642D01*
X15028704Y-7704642D02*
X15038228Y-7709404D01*
X15038228Y-7709404D02*
X15042989Y-7714166D01*
X15042989Y-7714166D02*
X15047751Y-7723689D01*
X15047751Y-7723689D02*
X15047751Y-7728451D01*
X15047751Y-7728451D02*
X15042989Y-7737975D01*
X15042989Y-7737975D02*
X15038228Y-7742737D01*
X15038228Y-7742737D02*
X15028704Y-7747499D01*
X15028704Y-7747499D02*
X15009656Y-7747499D01*
X15009656Y-7747499D02*
X15000132Y-7752261D01*
X15000132Y-7752261D02*
X14995370Y-7757023D01*
X14995370Y-7757023D02*
X14990609Y-7766547D01*
X14990609Y-7766547D02*
X14990609Y-7785594D01*
X14990609Y-7785594D02*
X14995370Y-7795118D01*
X14995370Y-7795118D02*
X15000132Y-7799880D01*
X15000132Y-7799880D02*
X15009656Y-7804642D01*
X15009656Y-7804642D02*
X15028704Y-7804642D01*
X15028704Y-7804642D02*
X15038228Y-7799880D01*
X15038228Y-7799880D02*
X15042989Y-7795118D01*
X15042989Y-7795118D02*
X15047751Y-7785594D01*
X15047751Y-7785594D02*
X15047751Y-7766547D01*
X15047751Y-7766547D02*
X15042989Y-7757023D01*
X15042989Y-7757023D02*
X15038228Y-7752261D01*
X15038228Y-7752261D02*
X15028704Y-7747499D01*
X12666194Y-11141758D02*
X12661432Y-11146520D01*
X12661432Y-11146520D02*
X12647147Y-11151282D01*
X12647147Y-11151282D02*
X12637623Y-11151282D01*
X12637623Y-11151282D02*
X12623337Y-11146520D01*
X12623337Y-11146520D02*
X12613813Y-11136996D01*
X12613813Y-11136996D02*
X12609051Y-11127472D01*
X12609051Y-11127472D02*
X12604289Y-11108425D01*
X12604289Y-11108425D02*
X12604289Y-11094139D01*
X12604289Y-11094139D02*
X12609051Y-11075091D01*
X12609051Y-11075091D02*
X12613813Y-11065568D01*
X12613813Y-11065568D02*
X12623337Y-11056044D01*
X12623337Y-11056044D02*
X12637623Y-11051282D01*
X12637623Y-11051282D02*
X12647147Y-11051282D01*
X12647147Y-11051282D02*
X12661432Y-11056044D01*
X12661432Y-11056044D02*
X12666194Y-11060806D01*
X12761432Y-11151282D02*
X12704289Y-11151282D01*
X12732861Y-11151282D02*
X12732861Y-11051282D01*
X12732861Y-11051282D02*
X12723337Y-11065568D01*
X12723337Y-11065568D02*
X12713813Y-11075091D01*
X12713813Y-11075091D02*
X12704289Y-11079853D01*
X12847147Y-11084615D02*
X12847147Y-11151282D01*
X12823337Y-11046520D02*
X12799528Y-11117949D01*
X12799528Y-11117949D02*
X12861432Y-11117949D01*
X11767118Y-11767306D02*
X11771880Y-11772068D01*
X11771880Y-11772068D02*
X11776642Y-11786353D01*
X11776642Y-11786353D02*
X11776642Y-11795877D01*
X11776642Y-11795877D02*
X11771880Y-11810163D01*
X11771880Y-11810163D02*
X11762356Y-11819687D01*
X11762356Y-11819687D02*
X11752832Y-11824448D01*
X11752832Y-11824448D02*
X11733785Y-11829210D01*
X11733785Y-11829210D02*
X11719499Y-11829210D01*
X11719499Y-11829210D02*
X11700451Y-11824448D01*
X11700451Y-11824448D02*
X11690928Y-11819687D01*
X11690928Y-11819687D02*
X11681404Y-11810163D01*
X11681404Y-11810163D02*
X11676642Y-11795877D01*
X11676642Y-11795877D02*
X11676642Y-11786353D01*
X11676642Y-11786353D02*
X11681404Y-11772068D01*
X11681404Y-11772068D02*
X11686166Y-11767306D01*
X11776642Y-11672068D02*
X11776642Y-11729210D01*
X11776642Y-11700639D02*
X11676642Y-11700639D01*
X11676642Y-11700639D02*
X11690928Y-11710163D01*
X11690928Y-11710163D02*
X11700451Y-11719687D01*
X11700451Y-11719687D02*
X11705213Y-11729210D01*
X11686166Y-11633972D02*
X11681404Y-11629210D01*
X11681404Y-11629210D02*
X11676642Y-11619687D01*
X11676642Y-11619687D02*
X11676642Y-11595877D01*
X11676642Y-11595877D02*
X11681404Y-11586353D01*
X11681404Y-11586353D02*
X11686166Y-11581591D01*
X11686166Y-11581591D02*
X11695689Y-11576829D01*
X11695689Y-11576829D02*
X11705213Y-11576829D01*
X11705213Y-11576829D02*
X11719499Y-11581591D01*
X11719499Y-11581591D02*
X11776642Y-11638734D01*
X11776642Y-11638734D02*
X11776642Y-11576829D01*
X11249134Y-10521558D02*
X11244372Y-10526320D01*
X11244372Y-10526320D02*
X11230087Y-10531082D01*
X11230087Y-10531082D02*
X11220563Y-10531082D01*
X11220563Y-10531082D02*
X11206277Y-10526320D01*
X11206277Y-10526320D02*
X11196753Y-10516796D01*
X11196753Y-10516796D02*
X11191991Y-10507272D01*
X11191991Y-10507272D02*
X11187229Y-10488225D01*
X11187229Y-10488225D02*
X11187229Y-10473939D01*
X11187229Y-10473939D02*
X11191991Y-10454891D01*
X11191991Y-10454891D02*
X11196753Y-10445368D01*
X11196753Y-10445368D02*
X11206277Y-10435844D01*
X11206277Y-10435844D02*
X11220563Y-10431082D01*
X11220563Y-10431082D02*
X11230087Y-10431082D01*
X11230087Y-10431082D02*
X11244372Y-10435844D01*
X11244372Y-10435844D02*
X11249134Y-10440606D01*
X11344372Y-10531082D02*
X11287229Y-10531082D01*
X11315801Y-10531082D02*
X11315801Y-10431082D01*
X11315801Y-10431082D02*
X11306277Y-10445368D01*
X11306277Y-10445368D02*
X11296753Y-10454891D01*
X11296753Y-10454891D02*
X11287229Y-10459653D01*
X11406277Y-10431082D02*
X11415801Y-10431082D01*
X11415801Y-10431082D02*
X11425325Y-10435844D01*
X11425325Y-10435844D02*
X11430087Y-10440606D01*
X11430087Y-10440606D02*
X11434848Y-10450130D01*
X11434848Y-10450130D02*
X11439610Y-10469177D01*
X11439610Y-10469177D02*
X11439610Y-10492987D01*
X11439610Y-10492987D02*
X11434848Y-10512034D01*
X11434848Y-10512034D02*
X11430087Y-10521558D01*
X11430087Y-10521558D02*
X11425325Y-10526320D01*
X11425325Y-10526320D02*
X11415801Y-10531082D01*
X11415801Y-10531082D02*
X11406277Y-10531082D01*
X11406277Y-10531082D02*
X11396753Y-10526320D01*
X11396753Y-10526320D02*
X11391991Y-10521558D01*
X11391991Y-10521558D02*
X11387229Y-10512034D01*
X11387229Y-10512034D02*
X11382468Y-10492987D01*
X11382468Y-10492987D02*
X11382468Y-10469177D01*
X11382468Y-10469177D02*
X11387229Y-10450130D01*
X11387229Y-10450130D02*
X11391991Y-10440606D01*
X11391991Y-10440606D02*
X11396753Y-10435844D01*
X11396753Y-10435844D02*
X11406277Y-10431082D01*
X14672333Y-11132842D02*
X14639000Y-11085223D01*
X14615190Y-11132842D02*
X14615190Y-11032842D01*
X14615190Y-11032842D02*
X14653286Y-11032842D01*
X14653286Y-11032842D02*
X14662809Y-11037604D01*
X14662809Y-11037604D02*
X14667571Y-11042366D01*
X14667571Y-11042366D02*
X14672333Y-11051890D01*
X14672333Y-11051890D02*
X14672333Y-11066175D01*
X14672333Y-11066175D02*
X14667571Y-11075699D01*
X14667571Y-11075699D02*
X14662809Y-11080461D01*
X14662809Y-11080461D02*
X14653286Y-11085223D01*
X14653286Y-11085223D02*
X14615190Y-11085223D01*
X14710429Y-11042366D02*
X14715190Y-11037604D01*
X14715190Y-11037604D02*
X14724714Y-11032842D01*
X14724714Y-11032842D02*
X14748524Y-11032842D01*
X14748524Y-11032842D02*
X14758048Y-11037604D01*
X14758048Y-11037604D02*
X14762809Y-11042366D01*
X14762809Y-11042366D02*
X14767571Y-11051890D01*
X14767571Y-11051890D02*
X14767571Y-11061413D01*
X14767571Y-11061413D02*
X14762809Y-11075699D01*
X14762809Y-11075699D02*
X14705667Y-11132842D01*
X14705667Y-11132842D02*
X14767571Y-11132842D01*
X11353642Y-11447033D02*
X11425070Y-11447033D01*
X11425070Y-11447033D02*
X11439356Y-11451795D01*
X11439356Y-11451795D02*
X11448880Y-11461319D01*
X11448880Y-11461319D02*
X11453642Y-11475605D01*
X11453642Y-11475605D02*
X11453642Y-11485128D01*
X11453642Y-11399414D02*
X11353642Y-11399414D01*
X11353642Y-11399414D02*
X11353642Y-11361319D01*
X11353642Y-11361319D02*
X11358404Y-11351795D01*
X11358404Y-11351795D02*
X11363166Y-11347033D01*
X11363166Y-11347033D02*
X11372689Y-11342271D01*
X11372689Y-11342271D02*
X11386975Y-11342271D01*
X11386975Y-11342271D02*
X11396499Y-11347033D01*
X11396499Y-11347033D02*
X11401261Y-11351795D01*
X11401261Y-11351795D02*
X11406023Y-11361319D01*
X11406023Y-11361319D02*
X11406023Y-11399414D01*
X11353642Y-11308938D02*
X11353642Y-11242271D01*
X11353642Y-11242271D02*
X11453642Y-11285128D01*
X14907528Y-11364412D02*
X14907528Y-11435840D01*
X14907528Y-11435840D02*
X14902766Y-11450126D01*
X14902766Y-11450126D02*
X14893242Y-11459650D01*
X14893242Y-11459650D02*
X14878956Y-11464412D01*
X14878956Y-11464412D02*
X14869432Y-11464412D01*
X14955147Y-11464412D02*
X14955147Y-11364412D01*
X14955147Y-11364412D02*
X14993242Y-11364412D01*
X14993242Y-11364412D02*
X15002766Y-11369174D01*
X15002766Y-11369174D02*
X15007528Y-11373936D01*
X15007528Y-11373936D02*
X15012289Y-11383459D01*
X15012289Y-11383459D02*
X15012289Y-11397745D01*
X15012289Y-11397745D02*
X15007528Y-11407269D01*
X15007528Y-11407269D02*
X15002766Y-11412031D01*
X15002766Y-11412031D02*
X14993242Y-11416793D01*
X14993242Y-11416793D02*
X14955147Y-11416793D01*
X15107528Y-11464412D02*
X15050385Y-11464412D01*
X15078956Y-11464412D02*
X15078956Y-11364412D01*
X15078956Y-11364412D02*
X15069432Y-11378698D01*
X15069432Y-11378698D02*
X15059909Y-11388221D01*
X15059909Y-11388221D02*
X15050385Y-11392983D01*
X15198004Y-11364412D02*
X15150385Y-11364412D01*
X15150385Y-11364412D02*
X15145623Y-11412031D01*
X15145623Y-11412031D02*
X15150385Y-11407269D01*
X15150385Y-11407269D02*
X15159909Y-11402507D01*
X15159909Y-11402507D02*
X15183718Y-11402507D01*
X15183718Y-11402507D02*
X15193242Y-11407269D01*
X15193242Y-11407269D02*
X15198004Y-11412031D01*
X15198004Y-11412031D02*
X15202766Y-11421555D01*
X15202766Y-11421555D02*
X15202766Y-11445364D01*
X15202766Y-11445364D02*
X15198004Y-11454888D01*
X15198004Y-11454888D02*
X15193242Y-11459650D01*
X15193242Y-11459650D02*
X15183718Y-11464412D01*
X15183718Y-11464412D02*
X15159909Y-11464412D01*
X15159909Y-11464412D02*
X15150385Y-11459650D01*
X15150385Y-11459650D02*
X15145623Y-11454888D01*
X15265988Y-8821902D02*
X15265988Y-8893330D01*
X15265988Y-8893330D02*
X15261226Y-8907616D01*
X15261226Y-8907616D02*
X15251702Y-8917140D01*
X15251702Y-8917140D02*
X15237416Y-8921902D01*
X15237416Y-8921902D02*
X15227892Y-8921902D01*
X15313607Y-8921902D02*
X15313607Y-8821902D01*
X15313607Y-8821902D02*
X15351702Y-8821902D01*
X15351702Y-8821902D02*
X15361226Y-8826664D01*
X15361226Y-8826664D02*
X15365988Y-8831426D01*
X15365988Y-8831426D02*
X15370749Y-8840950D01*
X15370749Y-8840950D02*
X15370749Y-8855235D01*
X15370749Y-8855235D02*
X15365988Y-8864759D01*
X15365988Y-8864759D02*
X15361226Y-8869521D01*
X15361226Y-8869521D02*
X15351702Y-8874283D01*
X15351702Y-8874283D02*
X15313607Y-8874283D01*
X15408845Y-8831426D02*
X15413607Y-8826664D01*
X15413607Y-8826664D02*
X15423130Y-8821902D01*
X15423130Y-8821902D02*
X15446940Y-8821902D01*
X15446940Y-8821902D02*
X15456464Y-8826664D01*
X15456464Y-8826664D02*
X15461226Y-8831426D01*
X15461226Y-8831426D02*
X15465988Y-8840950D01*
X15465988Y-8840950D02*
X15465988Y-8850473D01*
X15465988Y-8850473D02*
X15461226Y-8864759D01*
X15461226Y-8864759D02*
X15404083Y-8921902D01*
X15404083Y-8921902D02*
X15465988Y-8921902D01*
X15561226Y-8921902D02*
X15504083Y-8921902D01*
X15532654Y-8921902D02*
X15532654Y-8821902D01*
X15532654Y-8821902D02*
X15523130Y-8836188D01*
X15523130Y-8836188D02*
X15513607Y-8845711D01*
X15513607Y-8845711D02*
X15504083Y-8850473D01*
X10412274Y-7697262D02*
X10378941Y-7649643D01*
X10355131Y-7697262D02*
X10355131Y-7597262D01*
X10355131Y-7597262D02*
X10393227Y-7597262D01*
X10393227Y-7597262D02*
X10402750Y-7602024D01*
X10402750Y-7602024D02*
X10407512Y-7606786D01*
X10407512Y-7606786D02*
X10412274Y-7616309D01*
X10412274Y-7616309D02*
X10412274Y-7630595D01*
X10412274Y-7630595D02*
X10407512Y-7640119D01*
X10407512Y-7640119D02*
X10402750Y-7644881D01*
X10402750Y-7644881D02*
X10393227Y-7649643D01*
X10393227Y-7649643D02*
X10355131Y-7649643D01*
X10507512Y-7697262D02*
X10450370Y-7697262D01*
X10478941Y-7697262D02*
X10478941Y-7597262D01*
X10478941Y-7597262D02*
X10469417Y-7611548D01*
X10469417Y-7611548D02*
X10459893Y-7621071D01*
X10459893Y-7621071D02*
X10450370Y-7625833D01*
X10569417Y-7597262D02*
X10578941Y-7597262D01*
X10578941Y-7597262D02*
X10588465Y-7602024D01*
X10588465Y-7602024D02*
X10593227Y-7606786D01*
X10593227Y-7606786D02*
X10597989Y-7616309D01*
X10597989Y-7616309D02*
X10602750Y-7635357D01*
X10602750Y-7635357D02*
X10602750Y-7659167D01*
X10602750Y-7659167D02*
X10597989Y-7678214D01*
X10597989Y-7678214D02*
X10593227Y-7687738D01*
X10593227Y-7687738D02*
X10588465Y-7692500D01*
X10588465Y-7692500D02*
X10578941Y-7697262D01*
X10578941Y-7697262D02*
X10569417Y-7697262D01*
X10569417Y-7697262D02*
X10559893Y-7692500D01*
X10559893Y-7692500D02*
X10555131Y-7687738D01*
X10555131Y-7687738D02*
X10550370Y-7678214D01*
X10550370Y-7678214D02*
X10545608Y-7659167D01*
X10545608Y-7659167D02*
X10545608Y-7635357D01*
X10545608Y-7635357D02*
X10550370Y-7616309D01*
X10550370Y-7616309D02*
X10555131Y-7606786D01*
X10555131Y-7606786D02*
X10559893Y-7602024D01*
X10559893Y-7602024D02*
X10569417Y-7597262D01*
X13503802Y-8596232D02*
X13575230Y-8596232D01*
X13575230Y-8596232D02*
X13589516Y-8600994D01*
X13589516Y-8600994D02*
X13599040Y-8610518D01*
X13599040Y-8610518D02*
X13603802Y-8624804D01*
X13603802Y-8624804D02*
X13603802Y-8634328D01*
X13603802Y-8548613D02*
X13503802Y-8548613D01*
X13503802Y-8548613D02*
X13503802Y-8510518D01*
X13503802Y-8510518D02*
X13508564Y-8500994D01*
X13508564Y-8500994D02*
X13513326Y-8496232D01*
X13513326Y-8496232D02*
X13522849Y-8491470D01*
X13522849Y-8491470D02*
X13537135Y-8491470D01*
X13537135Y-8491470D02*
X13546659Y-8496232D01*
X13546659Y-8496232D02*
X13551421Y-8500994D01*
X13551421Y-8500994D02*
X13556183Y-8510518D01*
X13556183Y-8510518D02*
X13556183Y-8548613D01*
X13513326Y-8453375D02*
X13508564Y-8448613D01*
X13508564Y-8448613D02*
X13503802Y-8439089D01*
X13503802Y-8439089D02*
X13503802Y-8415280D01*
X13503802Y-8415280D02*
X13508564Y-8405756D01*
X13508564Y-8405756D02*
X13513326Y-8400994D01*
X13513326Y-8400994D02*
X13522849Y-8396232D01*
X13522849Y-8396232D02*
X13532373Y-8396232D01*
X13532373Y-8396232D02*
X13546659Y-8400994D01*
X13546659Y-8400994D02*
X13603802Y-8458137D01*
X13603802Y-8458137D02*
X13603802Y-8396232D01*
X13513326Y-8358137D02*
X13508564Y-8353375D01*
X13508564Y-8353375D02*
X13503802Y-8343851D01*
X13503802Y-8343851D02*
X13503802Y-8320042D01*
X13503802Y-8320042D02*
X13508564Y-8310518D01*
X13508564Y-8310518D02*
X13513326Y-8305756D01*
X13513326Y-8305756D02*
X13522849Y-8300994D01*
X13522849Y-8300994D02*
X13532373Y-8300994D01*
X13532373Y-8300994D02*
X13546659Y-8305756D01*
X13546659Y-8305756D02*
X13603802Y-8362899D01*
X13603802Y-8362899D02*
X13603802Y-8300994D01*
X14353678Y-11651367D02*
X14358440Y-11656128D01*
X14358440Y-11656128D02*
X14363202Y-11670414D01*
X14363202Y-11670414D02*
X14363202Y-11679938D01*
X14363202Y-11679938D02*
X14358440Y-11694224D01*
X14358440Y-11694224D02*
X14348916Y-11703747D01*
X14348916Y-11703747D02*
X14339392Y-11708509D01*
X14339392Y-11708509D02*
X14320345Y-11713271D01*
X14320345Y-11713271D02*
X14306059Y-11713271D01*
X14306059Y-11713271D02*
X14287011Y-11708509D01*
X14287011Y-11708509D02*
X14277488Y-11703747D01*
X14277488Y-11703747D02*
X14267964Y-11694224D01*
X14267964Y-11694224D02*
X14263202Y-11679938D01*
X14263202Y-11679938D02*
X14263202Y-11670414D01*
X14263202Y-11670414D02*
X14267964Y-11656128D01*
X14267964Y-11656128D02*
X14272726Y-11651367D01*
X14263202Y-11618033D02*
X14263202Y-11551367D01*
X14263202Y-11551367D02*
X14363202Y-11594224D01*
X15265988Y-8095462D02*
X15265988Y-8166890D01*
X15265988Y-8166890D02*
X15261226Y-8181176D01*
X15261226Y-8181176D02*
X15251702Y-8190700D01*
X15251702Y-8190700D02*
X15237416Y-8195462D01*
X15237416Y-8195462D02*
X15227892Y-8195462D01*
X15313607Y-8195462D02*
X15313607Y-8095462D01*
X15313607Y-8095462D02*
X15351702Y-8095462D01*
X15351702Y-8095462D02*
X15361226Y-8100224D01*
X15361226Y-8100224D02*
X15365988Y-8104986D01*
X15365988Y-8104986D02*
X15370749Y-8114509D01*
X15370749Y-8114509D02*
X15370749Y-8128795D01*
X15370749Y-8128795D02*
X15365988Y-8138319D01*
X15365988Y-8138319D02*
X15361226Y-8143081D01*
X15361226Y-8143081D02*
X15351702Y-8147843D01*
X15351702Y-8147843D02*
X15313607Y-8147843D01*
X15465988Y-8195462D02*
X15408845Y-8195462D01*
X15437416Y-8195462D02*
X15437416Y-8095462D01*
X15437416Y-8095462D02*
X15427892Y-8109748D01*
X15427892Y-8109748D02*
X15418369Y-8119271D01*
X15418369Y-8119271D02*
X15408845Y-8124033D01*
X15513607Y-8195462D02*
X15532654Y-8195462D01*
X15532654Y-8195462D02*
X15542178Y-8190700D01*
X15542178Y-8190700D02*
X15546940Y-8185938D01*
X15546940Y-8185938D02*
X15556464Y-8171652D01*
X15556464Y-8171652D02*
X15561226Y-8152605D01*
X15561226Y-8152605D02*
X15561226Y-8114509D01*
X15561226Y-8114509D02*
X15556464Y-8104986D01*
X15556464Y-8104986D02*
X15551702Y-8100224D01*
X15551702Y-8100224D02*
X15542178Y-8095462D01*
X15542178Y-8095462D02*
X15523130Y-8095462D01*
X15523130Y-8095462D02*
X15513607Y-8100224D01*
X15513607Y-8100224D02*
X15508845Y-8104986D01*
X15508845Y-8104986D02*
X15504083Y-8114509D01*
X15504083Y-8114509D02*
X15504083Y-8138319D01*
X15504083Y-8138319D02*
X15508845Y-8147843D01*
X15508845Y-8147843D02*
X15513607Y-8152605D01*
X15513607Y-8152605D02*
X15523130Y-8157367D01*
X15523130Y-8157367D02*
X15542178Y-8157367D01*
X15542178Y-8157367D02*
X15551702Y-8152605D01*
X15551702Y-8152605D02*
X15556464Y-8147843D01*
X15556464Y-8147843D02*
X15561226Y-8138319D01*
X15699314Y-7862938D02*
X15694552Y-7867700D01*
X15694552Y-7867700D02*
X15680267Y-7872462D01*
X15680267Y-7872462D02*
X15670743Y-7872462D01*
X15670743Y-7872462D02*
X15656457Y-7867700D01*
X15656457Y-7867700D02*
X15646933Y-7858176D01*
X15646933Y-7858176D02*
X15642171Y-7848652D01*
X15642171Y-7848652D02*
X15637409Y-7829605D01*
X15637409Y-7829605D02*
X15637409Y-7815319D01*
X15637409Y-7815319D02*
X15642171Y-7796271D01*
X15642171Y-7796271D02*
X15646933Y-7786748D01*
X15646933Y-7786748D02*
X15656457Y-7777224D01*
X15656457Y-7777224D02*
X15670743Y-7772462D01*
X15670743Y-7772462D02*
X15680267Y-7772462D01*
X15680267Y-7772462D02*
X15694552Y-7777224D01*
X15694552Y-7777224D02*
X15699314Y-7781986D01*
X15794552Y-7872462D02*
X15737409Y-7872462D01*
X15765981Y-7872462D02*
X15765981Y-7772462D01*
X15765981Y-7772462D02*
X15756457Y-7786748D01*
X15756457Y-7786748D02*
X15746933Y-7796271D01*
X15746933Y-7796271D02*
X15737409Y-7801033D01*
X15842171Y-7872462D02*
X15861219Y-7872462D01*
X15861219Y-7872462D02*
X15870743Y-7867700D01*
X15870743Y-7867700D02*
X15875505Y-7862938D01*
X15875505Y-7862938D02*
X15885028Y-7848652D01*
X15885028Y-7848652D02*
X15889790Y-7829605D01*
X15889790Y-7829605D02*
X15889790Y-7791509D01*
X15889790Y-7791509D02*
X15885028Y-7781986D01*
X15885028Y-7781986D02*
X15880267Y-7777224D01*
X15880267Y-7777224D02*
X15870743Y-7772462D01*
X15870743Y-7772462D02*
X15851695Y-7772462D01*
X15851695Y-7772462D02*
X15842171Y-7777224D01*
X15842171Y-7777224D02*
X15837409Y-7781986D01*
X15837409Y-7781986D02*
X15832648Y-7791509D01*
X15832648Y-7791509D02*
X15832648Y-7815319D01*
X15832648Y-7815319D02*
X15837409Y-7824843D01*
X15837409Y-7824843D02*
X15842171Y-7829605D01*
X15842171Y-7829605D02*
X15851695Y-7834367D01*
X15851695Y-7834367D02*
X15870743Y-7834367D01*
X15870743Y-7834367D02*
X15880267Y-7829605D01*
X15880267Y-7829605D02*
X15885028Y-7824843D01*
X15885028Y-7824843D02*
X15889790Y-7815319D01*
X13457094Y-7871318D02*
X13452332Y-7876080D01*
X13452332Y-7876080D02*
X13438047Y-7880842D01*
X13438047Y-7880842D02*
X13428523Y-7880842D01*
X13428523Y-7880842D02*
X13414237Y-7876080D01*
X13414237Y-7876080D02*
X13404713Y-7866556D01*
X13404713Y-7866556D02*
X13399951Y-7857032D01*
X13399951Y-7857032D02*
X13395189Y-7837985D01*
X13395189Y-7837985D02*
X13395189Y-7823699D01*
X13395189Y-7823699D02*
X13399951Y-7804651D01*
X13399951Y-7804651D02*
X13404713Y-7795128D01*
X13404713Y-7795128D02*
X13414237Y-7785604D01*
X13414237Y-7785604D02*
X13428523Y-7780842D01*
X13428523Y-7780842D02*
X13438047Y-7780842D01*
X13438047Y-7780842D02*
X13452332Y-7785604D01*
X13452332Y-7785604D02*
X13457094Y-7790366D01*
X13552332Y-7880842D02*
X13495189Y-7880842D01*
X13523761Y-7880842D02*
X13523761Y-7780842D01*
X13523761Y-7780842D02*
X13514237Y-7795128D01*
X13514237Y-7795128D02*
X13504713Y-7804651D01*
X13504713Y-7804651D02*
X13495189Y-7809413D01*
X13585666Y-7780842D02*
X13652332Y-7780842D01*
X13652332Y-7780842D02*
X13609475Y-7880842D01*
X11403558Y-11767306D02*
X11408320Y-11772068D01*
X11408320Y-11772068D02*
X11413082Y-11786353D01*
X11413082Y-11786353D02*
X11413082Y-11795877D01*
X11413082Y-11795877D02*
X11408320Y-11810163D01*
X11408320Y-11810163D02*
X11398796Y-11819687D01*
X11398796Y-11819687D02*
X11389272Y-11824448D01*
X11389272Y-11824448D02*
X11370225Y-11829210D01*
X11370225Y-11829210D02*
X11355939Y-11829210D01*
X11355939Y-11829210D02*
X11336891Y-11824448D01*
X11336891Y-11824448D02*
X11327368Y-11819687D01*
X11327368Y-11819687D02*
X11317844Y-11810163D01*
X11317844Y-11810163D02*
X11313082Y-11795877D01*
X11313082Y-11795877D02*
X11313082Y-11786353D01*
X11313082Y-11786353D02*
X11317844Y-11772068D01*
X11317844Y-11772068D02*
X11322606Y-11767306D01*
X11413082Y-11672068D02*
X11413082Y-11729210D01*
X11413082Y-11700639D02*
X11313082Y-11700639D01*
X11313082Y-11700639D02*
X11327368Y-11710163D01*
X11327368Y-11710163D02*
X11336891Y-11719687D01*
X11336891Y-11719687D02*
X11341653Y-11729210D01*
X11313082Y-11586353D02*
X11313082Y-11605401D01*
X11313082Y-11605401D02*
X11317844Y-11614925D01*
X11317844Y-11614925D02*
X11322606Y-11619687D01*
X11322606Y-11619687D02*
X11336891Y-11629210D01*
X11336891Y-11629210D02*
X11355939Y-11633972D01*
X11355939Y-11633972D02*
X11394034Y-11633972D01*
X11394034Y-11633972D02*
X11403558Y-11629210D01*
X11403558Y-11629210D02*
X11408320Y-11624448D01*
X11408320Y-11624448D02*
X11413082Y-11614925D01*
X11413082Y-11614925D02*
X11413082Y-11595877D01*
X11413082Y-11595877D02*
X11408320Y-11586353D01*
X11408320Y-11586353D02*
X11403558Y-11581591D01*
X11403558Y-11581591D02*
X11394034Y-11576829D01*
X11394034Y-11576829D02*
X11370225Y-11576829D01*
X11370225Y-11576829D02*
X11360701Y-11581591D01*
X11360701Y-11581591D02*
X11355939Y-11586353D01*
X11355939Y-11586353D02*
X11351177Y-11595877D01*
X11351177Y-11595877D02*
X11351177Y-11614925D01*
X11351177Y-11614925D02*
X11355939Y-11624448D01*
X11355939Y-11624448D02*
X11360701Y-11629210D01*
X11360701Y-11629210D02*
X11370225Y-11633972D01*
X11039998Y-11767306D02*
X11044760Y-11772068D01*
X11044760Y-11772068D02*
X11049522Y-11786353D01*
X11049522Y-11786353D02*
X11049522Y-11795877D01*
X11049522Y-11795877D02*
X11044760Y-11810163D01*
X11044760Y-11810163D02*
X11035236Y-11819687D01*
X11035236Y-11819687D02*
X11025712Y-11824448D01*
X11025712Y-11824448D02*
X11006665Y-11829210D01*
X11006665Y-11829210D02*
X10992379Y-11829210D01*
X10992379Y-11829210D02*
X10973331Y-11824448D01*
X10973331Y-11824448D02*
X10963808Y-11819687D01*
X10963808Y-11819687D02*
X10954284Y-11810163D01*
X10954284Y-11810163D02*
X10949522Y-11795877D01*
X10949522Y-11795877D02*
X10949522Y-11786353D01*
X10949522Y-11786353D02*
X10954284Y-11772068D01*
X10954284Y-11772068D02*
X10959046Y-11767306D01*
X11049522Y-11672068D02*
X11049522Y-11729210D01*
X11049522Y-11700639D02*
X10949522Y-11700639D01*
X10949522Y-11700639D02*
X10963808Y-11710163D01*
X10963808Y-11710163D02*
X10973331Y-11719687D01*
X10973331Y-11719687D02*
X10978093Y-11729210D01*
X10949522Y-11581591D02*
X10949522Y-11629210D01*
X10949522Y-11629210D02*
X10997141Y-11633972D01*
X10997141Y-11633972D02*
X10992379Y-11629210D01*
X10992379Y-11629210D02*
X10987617Y-11619687D01*
X10987617Y-11619687D02*
X10987617Y-11595877D01*
X10987617Y-11595877D02*
X10992379Y-11586353D01*
X10992379Y-11586353D02*
X10997141Y-11581591D01*
X10997141Y-11581591D02*
X11006665Y-11576829D01*
X11006665Y-11576829D02*
X11030474Y-11576829D01*
X11030474Y-11576829D02*
X11039998Y-11581591D01*
X11039998Y-11581591D02*
X11044760Y-11586353D01*
X11044760Y-11586353D02*
X11049522Y-11595877D01*
X11049522Y-11595877D02*
X11049522Y-11619687D01*
X11049522Y-11619687D02*
X11044760Y-11629210D01*
X11044760Y-11629210D02*
X11039998Y-11633972D01*
X11998407Y-10832702D02*
X11998407Y-10904130D01*
X11998407Y-10904130D02*
X11993645Y-10918416D01*
X11993645Y-10918416D02*
X11984121Y-10927940D01*
X11984121Y-10927940D02*
X11969835Y-10932702D01*
X11969835Y-10932702D02*
X11960311Y-10932702D01*
X12046026Y-10932702D02*
X12046026Y-10832702D01*
X12046026Y-10832702D02*
X12084121Y-10832702D01*
X12084121Y-10832702D02*
X12093645Y-10837464D01*
X12093645Y-10837464D02*
X12098407Y-10842226D01*
X12098407Y-10842226D02*
X12103168Y-10851750D01*
X12103168Y-10851750D02*
X12103168Y-10866035D01*
X12103168Y-10866035D02*
X12098407Y-10875559D01*
X12098407Y-10875559D02*
X12093645Y-10880321D01*
X12093645Y-10880321D02*
X12084121Y-10885083D01*
X12084121Y-10885083D02*
X12046026Y-10885083D01*
X12136502Y-10832702D02*
X12198407Y-10832702D01*
X12198407Y-10832702D02*
X12165073Y-10870797D01*
X12165073Y-10870797D02*
X12179359Y-10870797D01*
X12179359Y-10870797D02*
X12188883Y-10875559D01*
X12188883Y-10875559D02*
X12193645Y-10880321D01*
X12193645Y-10880321D02*
X12198407Y-10889845D01*
X12198407Y-10889845D02*
X12198407Y-10913654D01*
X12198407Y-10913654D02*
X12193645Y-10923178D01*
X12193645Y-10923178D02*
X12188883Y-10927940D01*
X12188883Y-10927940D02*
X12179359Y-10932702D01*
X12179359Y-10932702D02*
X12150788Y-10932702D01*
X12150788Y-10932702D02*
X12141264Y-10927940D01*
X12141264Y-10927940D02*
X12136502Y-10923178D01*
X11209047Y-8073506D02*
X11209047Y-8137249D01*
X11209047Y-8137249D02*
X11212797Y-8144748D01*
X11212797Y-8144748D02*
X11216546Y-8148497D01*
X11216546Y-8148497D02*
X11224046Y-8152247D01*
X11224046Y-8152247D02*
X11239044Y-8152247D01*
X11239044Y-8152247D02*
X11246543Y-8148497D01*
X11246543Y-8148497D02*
X11250292Y-8144748D01*
X11250292Y-8144748D02*
X11254042Y-8137249D01*
X11254042Y-8137249D02*
X11254042Y-8073506D01*
X11325283Y-8099753D02*
X11325283Y-8152247D01*
X11306535Y-8069757D02*
X11287788Y-8126000D01*
X11287788Y-8126000D02*
X11336531Y-8126000D01*
X11467160Y-7945762D02*
X11467160Y-7969571D01*
X11443350Y-7960048D02*
X11467160Y-7969571D01*
X11467160Y-7969571D02*
X11490969Y-7960048D01*
X11452874Y-7988619D02*
X11467160Y-7969571D01*
X11467160Y-7969571D02*
X11481446Y-7988619D01*
X13933713Y-10556138D02*
X13928951Y-10560900D01*
X13928951Y-10560900D02*
X13914666Y-10565662D01*
X13914666Y-10565662D02*
X13905142Y-10565662D01*
X13905142Y-10565662D02*
X13890856Y-10560900D01*
X13890856Y-10560900D02*
X13881332Y-10551376D01*
X13881332Y-10551376D02*
X13876570Y-10541852D01*
X13876570Y-10541852D02*
X13871809Y-10522805D01*
X13871809Y-10522805D02*
X13871809Y-10508519D01*
X13871809Y-10508519D02*
X13876570Y-10489471D01*
X13876570Y-10489471D02*
X13881332Y-10479948D01*
X13881332Y-10479948D02*
X13890856Y-10470424D01*
X13890856Y-10470424D02*
X13905142Y-10465662D01*
X13905142Y-10465662D02*
X13914666Y-10465662D01*
X13914666Y-10465662D02*
X13928951Y-10470424D01*
X13928951Y-10470424D02*
X13933713Y-10475186D01*
X14019428Y-10498995D02*
X14019428Y-10565662D01*
X13995618Y-10460900D02*
X13971809Y-10532329D01*
X13971809Y-10532329D02*
X14033713Y-10532329D01*
X14659007Y-10831722D02*
X14659007Y-10903150D01*
X14659007Y-10903150D02*
X14654245Y-10917436D01*
X14654245Y-10917436D02*
X14644721Y-10926960D01*
X14644721Y-10926960D02*
X14630435Y-10931722D01*
X14630435Y-10931722D02*
X14620911Y-10931722D01*
X14706626Y-10931722D02*
X14706626Y-10831722D01*
X14706626Y-10831722D02*
X14744721Y-10831722D01*
X14744721Y-10831722D02*
X14754245Y-10836484D01*
X14754245Y-10836484D02*
X14759007Y-10841246D01*
X14759007Y-10841246D02*
X14763768Y-10850770D01*
X14763768Y-10850770D02*
X14763768Y-10865055D01*
X14763768Y-10865055D02*
X14759007Y-10874579D01*
X14759007Y-10874579D02*
X14754245Y-10879341D01*
X14754245Y-10879341D02*
X14744721Y-10884103D01*
X14744721Y-10884103D02*
X14706626Y-10884103D01*
X14859007Y-10931722D02*
X14801864Y-10931722D01*
X14830435Y-10931722D02*
X14830435Y-10831722D01*
X14830435Y-10831722D02*
X14820911Y-10846008D01*
X14820911Y-10846008D02*
X14811388Y-10855531D01*
X14811388Y-10855531D02*
X14801864Y-10860293D01*
X10662993Y-10638522D02*
X10629660Y-10590903D01*
X10605851Y-10638522D02*
X10605851Y-10538522D01*
X10605851Y-10538522D02*
X10643946Y-10538522D01*
X10643946Y-10538522D02*
X10653470Y-10543284D01*
X10653470Y-10543284D02*
X10658231Y-10548046D01*
X10658231Y-10548046D02*
X10662993Y-10557570D01*
X10662993Y-10557570D02*
X10662993Y-10571855D01*
X10662993Y-10571855D02*
X10658231Y-10581379D01*
X10658231Y-10581379D02*
X10653470Y-10586141D01*
X10653470Y-10586141D02*
X10643946Y-10590903D01*
X10643946Y-10590903D02*
X10605851Y-10590903D01*
X10748708Y-10571855D02*
X10748708Y-10638522D01*
X10724898Y-10533760D02*
X10701089Y-10605189D01*
X10701089Y-10605189D02*
X10762993Y-10605189D01*
X11988988Y-7792842D02*
X11988988Y-7864270D01*
X11988988Y-7864270D02*
X11984226Y-7878556D01*
X11984226Y-7878556D02*
X11974702Y-7888080D01*
X11974702Y-7888080D02*
X11960416Y-7892842D01*
X11960416Y-7892842D02*
X11950892Y-7892842D01*
X12036607Y-7892842D02*
X12036607Y-7792842D01*
X12036607Y-7792842D02*
X12074702Y-7792842D01*
X12074702Y-7792842D02*
X12084226Y-7797604D01*
X12084226Y-7797604D02*
X12088988Y-7802366D01*
X12088988Y-7802366D02*
X12093749Y-7811889D01*
X12093749Y-7811889D02*
X12093749Y-7826175D01*
X12093749Y-7826175D02*
X12088988Y-7835699D01*
X12088988Y-7835699D02*
X12084226Y-7840461D01*
X12084226Y-7840461D02*
X12074702Y-7845223D01*
X12074702Y-7845223D02*
X12036607Y-7845223D01*
X12127083Y-7792842D02*
X12188988Y-7792842D01*
X12188988Y-7792842D02*
X12155654Y-7830937D01*
X12155654Y-7830937D02*
X12169940Y-7830937D01*
X12169940Y-7830937D02*
X12179464Y-7835699D01*
X12179464Y-7835699D02*
X12184226Y-7840461D01*
X12184226Y-7840461D02*
X12188988Y-7849985D01*
X12188988Y-7849985D02*
X12188988Y-7873794D01*
X12188988Y-7873794D02*
X12184226Y-7883318D01*
X12184226Y-7883318D02*
X12179464Y-7888080D01*
X12179464Y-7888080D02*
X12169940Y-7892842D01*
X12169940Y-7892842D02*
X12141369Y-7892842D01*
X12141369Y-7892842D02*
X12131845Y-7888080D01*
X12131845Y-7888080D02*
X12127083Y-7883318D01*
X12227083Y-7802366D02*
X12231845Y-7797604D01*
X12231845Y-7797604D02*
X12241369Y-7792842D01*
X12241369Y-7792842D02*
X12265178Y-7792842D01*
X12265178Y-7792842D02*
X12274702Y-7797604D01*
X12274702Y-7797604D02*
X12279464Y-7802366D01*
X12279464Y-7802366D02*
X12284226Y-7811889D01*
X12284226Y-7811889D02*
X12284226Y-7821413D01*
X12284226Y-7821413D02*
X12279464Y-7835699D01*
X12279464Y-7835699D02*
X12222321Y-7892842D01*
X12222321Y-7892842D02*
X12284226Y-7892842D01*
X12360868Y-8680902D02*
X12360868Y-8752330D01*
X12360868Y-8752330D02*
X12356106Y-8766616D01*
X12356106Y-8766616D02*
X12346582Y-8776140D01*
X12346582Y-8776140D02*
X12332296Y-8780902D01*
X12332296Y-8780902D02*
X12322772Y-8780902D01*
X12408487Y-8780902D02*
X12408487Y-8680902D01*
X12408487Y-8680902D02*
X12446582Y-8680902D01*
X12446582Y-8680902D02*
X12456106Y-8685664D01*
X12456106Y-8685664D02*
X12460868Y-8690426D01*
X12460868Y-8690426D02*
X12465629Y-8699950D01*
X12465629Y-8699950D02*
X12465629Y-8714235D01*
X12465629Y-8714235D02*
X12460868Y-8723759D01*
X12460868Y-8723759D02*
X12456106Y-8728521D01*
X12456106Y-8728521D02*
X12446582Y-8733283D01*
X12446582Y-8733283D02*
X12408487Y-8733283D01*
X12498963Y-8680902D02*
X12560868Y-8680902D01*
X12560868Y-8680902D02*
X12527534Y-8718997D01*
X12527534Y-8718997D02*
X12541820Y-8718997D01*
X12541820Y-8718997D02*
X12551344Y-8723759D01*
X12551344Y-8723759D02*
X12556106Y-8728521D01*
X12556106Y-8728521D02*
X12560868Y-8738045D01*
X12560868Y-8738045D02*
X12560868Y-8761854D01*
X12560868Y-8761854D02*
X12556106Y-8771378D01*
X12556106Y-8771378D02*
X12551344Y-8776140D01*
X12551344Y-8776140D02*
X12541820Y-8780902D01*
X12541820Y-8780902D02*
X12513249Y-8780902D01*
X12513249Y-8780902D02*
X12503725Y-8776140D01*
X12503725Y-8776140D02*
X12498963Y-8771378D01*
X12656106Y-8780902D02*
X12598963Y-8780902D01*
X12627534Y-8780902D02*
X12627534Y-8680902D01*
X12627534Y-8680902D02*
X12618010Y-8695188D01*
X12618010Y-8695188D02*
X12608487Y-8704711D01*
X12608487Y-8704711D02*
X12598963Y-8709473D01*
X10886907Y-6712720D02*
X10901192Y-6717482D01*
X10901192Y-6717482D02*
X10925002Y-6717482D01*
X10925002Y-6717482D02*
X10934526Y-6712720D01*
X10934526Y-6712720D02*
X10939288Y-6707958D01*
X10939288Y-6707958D02*
X10944050Y-6698434D01*
X10944050Y-6698434D02*
X10944050Y-6688910D01*
X10944050Y-6688910D02*
X10939288Y-6679387D01*
X10939288Y-6679387D02*
X10934526Y-6674625D01*
X10934526Y-6674625D02*
X10925002Y-6669863D01*
X10925002Y-6669863D02*
X10905954Y-6665101D01*
X10905954Y-6665101D02*
X10896431Y-6660339D01*
X10896431Y-6660339D02*
X10891669Y-6655577D01*
X10891669Y-6655577D02*
X10886907Y-6646053D01*
X10886907Y-6646053D02*
X10886907Y-6636529D01*
X10886907Y-6636529D02*
X10891669Y-6627006D01*
X10891669Y-6627006D02*
X10896431Y-6622244D01*
X10896431Y-6622244D02*
X10905954Y-6617482D01*
X10905954Y-6617482D02*
X10929764Y-6617482D01*
X10929764Y-6617482D02*
X10944050Y-6622244D01*
X10977383Y-6617482D02*
X11001192Y-6717482D01*
X11001192Y-6717482D02*
X11020240Y-6646053D01*
X11020240Y-6646053D02*
X11039288Y-6717482D01*
X11039288Y-6717482D02*
X11063097Y-6617482D01*
X11144050Y-6650815D02*
X11144050Y-6717482D01*
X11120240Y-6612720D02*
X11096431Y-6684148D01*
X11096431Y-6684148D02*
X11158335Y-6684148D01*
X14125129Y-10616282D02*
X14125129Y-10697234D01*
X14125129Y-10697234D02*
X14129891Y-10706758D01*
X14129891Y-10706758D02*
X14134653Y-10711520D01*
X14134653Y-10711520D02*
X14144177Y-10716282D01*
X14144177Y-10716282D02*
X14163225Y-10716282D01*
X14163225Y-10716282D02*
X14172748Y-10711520D01*
X14172748Y-10711520D02*
X14177510Y-10706758D01*
X14177510Y-10706758D02*
X14182272Y-10697234D01*
X14182272Y-10697234D02*
X14182272Y-10616282D01*
X14225129Y-10625806D02*
X14229891Y-10621044D01*
X14229891Y-10621044D02*
X14239415Y-10616282D01*
X14239415Y-10616282D02*
X14263225Y-10616282D01*
X14263225Y-10616282D02*
X14272748Y-10621044D01*
X14272748Y-10621044D02*
X14277510Y-10625806D01*
X14277510Y-10625806D02*
X14282272Y-10635330D01*
X14282272Y-10635330D02*
X14282272Y-10644853D01*
X14282272Y-10644853D02*
X14277510Y-10659139D01*
X14277510Y-10659139D02*
X14220368Y-10716282D01*
X14220368Y-10716282D02*
X14282272Y-10716282D01*
X15265988Y-8458682D02*
X15265988Y-8530110D01*
X15265988Y-8530110D02*
X15261226Y-8544396D01*
X15261226Y-8544396D02*
X15251702Y-8553920D01*
X15251702Y-8553920D02*
X15237416Y-8558682D01*
X15237416Y-8558682D02*
X15227892Y-8558682D01*
X15313607Y-8558682D02*
X15313607Y-8458682D01*
X15313607Y-8458682D02*
X15351702Y-8458682D01*
X15351702Y-8458682D02*
X15361226Y-8463444D01*
X15361226Y-8463444D02*
X15365988Y-8468206D01*
X15365988Y-8468206D02*
X15370749Y-8477730D01*
X15370749Y-8477730D02*
X15370749Y-8492015D01*
X15370749Y-8492015D02*
X15365988Y-8501539D01*
X15365988Y-8501539D02*
X15361226Y-8506301D01*
X15361226Y-8506301D02*
X15351702Y-8511063D01*
X15351702Y-8511063D02*
X15313607Y-8511063D01*
X15408845Y-8468206D02*
X15413607Y-8463444D01*
X15413607Y-8463444D02*
X15423130Y-8458682D01*
X15423130Y-8458682D02*
X15446940Y-8458682D01*
X15446940Y-8458682D02*
X15456464Y-8463444D01*
X15456464Y-8463444D02*
X15461226Y-8468206D01*
X15461226Y-8468206D02*
X15465988Y-8477730D01*
X15465988Y-8477730D02*
X15465988Y-8487253D01*
X15465988Y-8487253D02*
X15461226Y-8501539D01*
X15461226Y-8501539D02*
X15404083Y-8558682D01*
X15404083Y-8558682D02*
X15465988Y-8558682D01*
X15527892Y-8458682D02*
X15537416Y-8458682D01*
X15537416Y-8458682D02*
X15546940Y-8463444D01*
X15546940Y-8463444D02*
X15551702Y-8468206D01*
X15551702Y-8468206D02*
X15556464Y-8477730D01*
X15556464Y-8477730D02*
X15561226Y-8496777D01*
X15561226Y-8496777D02*
X15561226Y-8520587D01*
X15561226Y-8520587D02*
X15556464Y-8539634D01*
X15556464Y-8539634D02*
X15551702Y-8549158D01*
X15551702Y-8549158D02*
X15546940Y-8553920D01*
X15546940Y-8553920D02*
X15537416Y-8558682D01*
X15537416Y-8558682D02*
X15527892Y-8558682D01*
X15527892Y-8558682D02*
X15518369Y-8553920D01*
X15518369Y-8553920D02*
X15513607Y-8549158D01*
X15513607Y-8549158D02*
X15508845Y-8539634D01*
X15508845Y-8539634D02*
X15504083Y-8520587D01*
X15504083Y-8520587D02*
X15504083Y-8496777D01*
X15504083Y-8496777D02*
X15508845Y-8477730D01*
X15508845Y-8477730D02*
X15513607Y-8468206D01*
X15513607Y-8468206D02*
X15518369Y-8463444D01*
X15518369Y-8463444D02*
X15527892Y-8458682D01*
X12360868Y-7970902D02*
X12360868Y-8042330D01*
X12360868Y-8042330D02*
X12356106Y-8056616D01*
X12356106Y-8056616D02*
X12346582Y-8066140D01*
X12346582Y-8066140D02*
X12332296Y-8070902D01*
X12332296Y-8070902D02*
X12322772Y-8070902D01*
X12408487Y-8070902D02*
X12408487Y-7970902D01*
X12408487Y-7970902D02*
X12446582Y-7970902D01*
X12446582Y-7970902D02*
X12456106Y-7975664D01*
X12456106Y-7975664D02*
X12460868Y-7980426D01*
X12460868Y-7980426D02*
X12465629Y-7989949D01*
X12465629Y-7989949D02*
X12465629Y-8004235D01*
X12465629Y-8004235D02*
X12460868Y-8013759D01*
X12460868Y-8013759D02*
X12456106Y-8018521D01*
X12456106Y-8018521D02*
X12446582Y-8023283D01*
X12446582Y-8023283D02*
X12408487Y-8023283D01*
X12503725Y-7980426D02*
X12508487Y-7975664D01*
X12508487Y-7975664D02*
X12518010Y-7970902D01*
X12518010Y-7970902D02*
X12541820Y-7970902D01*
X12541820Y-7970902D02*
X12551344Y-7975664D01*
X12551344Y-7975664D02*
X12556106Y-7980426D01*
X12556106Y-7980426D02*
X12560868Y-7989949D01*
X12560868Y-7989949D02*
X12560868Y-7999473D01*
X12560868Y-7999473D02*
X12556106Y-8013759D01*
X12556106Y-8013759D02*
X12498963Y-8070902D01*
X12498963Y-8070902D02*
X12560868Y-8070902D01*
X12608487Y-8070902D02*
X12627534Y-8070902D01*
X12627534Y-8070902D02*
X12637058Y-8066140D01*
X12637058Y-8066140D02*
X12641820Y-8061378D01*
X12641820Y-8061378D02*
X12651344Y-8047092D01*
X12651344Y-8047092D02*
X12656106Y-8028045D01*
X12656106Y-8028045D02*
X12656106Y-7989949D01*
X12656106Y-7989949D02*
X12651344Y-7980426D01*
X12651344Y-7980426D02*
X12646582Y-7975664D01*
X12646582Y-7975664D02*
X12637058Y-7970902D01*
X12637058Y-7970902D02*
X12618010Y-7970902D01*
X12618010Y-7970902D02*
X12608487Y-7975664D01*
X12608487Y-7975664D02*
X12603725Y-7980426D01*
X12603725Y-7980426D02*
X12598963Y-7989949D01*
X12598963Y-7989949D02*
X12598963Y-8013759D01*
X12598963Y-8013759D02*
X12603725Y-8023283D01*
X12603725Y-8023283D02*
X12608487Y-8028045D01*
X12608487Y-8028045D02*
X12618010Y-8032807D01*
X12618010Y-8032807D02*
X12637058Y-8032807D01*
X12637058Y-8032807D02*
X12646582Y-8028045D01*
X12646582Y-8028045D02*
X12651344Y-8023283D01*
X12651344Y-8023283D02*
X12656106Y-8013759D01*
X15345433Y-11131888D02*
X15340671Y-11136650D01*
X15340671Y-11136650D02*
X15326386Y-11141412D01*
X15326386Y-11141412D02*
X15316862Y-11141412D01*
X15316862Y-11141412D02*
X15302576Y-11136650D01*
X15302576Y-11136650D02*
X15293052Y-11127126D01*
X15293052Y-11127126D02*
X15288290Y-11117602D01*
X15288290Y-11117602D02*
X15283529Y-11098555D01*
X15283529Y-11098555D02*
X15283529Y-11084269D01*
X15283529Y-11084269D02*
X15288290Y-11065221D01*
X15288290Y-11065221D02*
X15293052Y-11055698D01*
X15293052Y-11055698D02*
X15302576Y-11046174D01*
X15302576Y-11046174D02*
X15316862Y-11041412D01*
X15316862Y-11041412D02*
X15326386Y-11041412D01*
X15326386Y-11041412D02*
X15340671Y-11046174D01*
X15340671Y-11046174D02*
X15345433Y-11050936D01*
X15435909Y-11041412D02*
X15388290Y-11041412D01*
X15388290Y-11041412D02*
X15383529Y-11089031D01*
X15383529Y-11089031D02*
X15388290Y-11084269D01*
X15388290Y-11084269D02*
X15397814Y-11079507D01*
X15397814Y-11079507D02*
X15421624Y-11079507D01*
X15421624Y-11079507D02*
X15431148Y-11084269D01*
X15431148Y-11084269D02*
X15435909Y-11089031D01*
X15435909Y-11089031D02*
X15440671Y-11098555D01*
X15440671Y-11098555D02*
X15440671Y-11122364D01*
X15440671Y-11122364D02*
X15435909Y-11131888D01*
X15435909Y-11131888D02*
X15431148Y-11136650D01*
X15431148Y-11136650D02*
X15421624Y-11141412D01*
X15421624Y-11141412D02*
X15397814Y-11141412D01*
X15397814Y-11141412D02*
X15388290Y-11136650D01*
X15388290Y-11136650D02*
X15383529Y-11131888D01*
X13997928Y-11651367D02*
X14002690Y-11656128D01*
X14002690Y-11656128D02*
X14007452Y-11670414D01*
X14007452Y-11670414D02*
X14007452Y-11679938D01*
X14007452Y-11679938D02*
X14002690Y-11694224D01*
X14002690Y-11694224D02*
X13993166Y-11703747D01*
X13993166Y-11703747D02*
X13983642Y-11708509D01*
X13983642Y-11708509D02*
X13964595Y-11713271D01*
X13964595Y-11713271D02*
X13950309Y-11713271D01*
X13950309Y-11713271D02*
X13931261Y-11708509D01*
X13931261Y-11708509D02*
X13921738Y-11703747D01*
X13921738Y-11703747D02*
X13912214Y-11694224D01*
X13912214Y-11694224D02*
X13907452Y-11679938D01*
X13907452Y-11679938D02*
X13907452Y-11670414D01*
X13907452Y-11670414D02*
X13912214Y-11656128D01*
X13912214Y-11656128D02*
X13916976Y-11651367D01*
X14007452Y-11603747D02*
X14007452Y-11584700D01*
X14007452Y-11584700D02*
X14002690Y-11575176D01*
X14002690Y-11575176D02*
X13997928Y-11570414D01*
X13997928Y-11570414D02*
X13983642Y-11560890D01*
X13983642Y-11560890D02*
X13964595Y-11556128D01*
X13964595Y-11556128D02*
X13926499Y-11556128D01*
X13926499Y-11556128D02*
X13916976Y-11560890D01*
X13916976Y-11560890D02*
X13912214Y-11565652D01*
X13912214Y-11565652D02*
X13907452Y-11575176D01*
X13907452Y-11575176D02*
X13907452Y-11594224D01*
X13907452Y-11594224D02*
X13912214Y-11603747D01*
X13912214Y-11603747D02*
X13916976Y-11608509D01*
X13916976Y-11608509D02*
X13926499Y-11613271D01*
X13926499Y-11613271D02*
X13950309Y-11613271D01*
X13950309Y-11613271D02*
X13959833Y-11608509D01*
X13959833Y-11608509D02*
X13964595Y-11603747D01*
X13964595Y-11603747D02*
X13969357Y-11594224D01*
X13969357Y-11594224D02*
X13969357Y-11575176D01*
X13969357Y-11575176D02*
X13964595Y-11565652D01*
X13964595Y-11565652D02*
X13959833Y-11560890D01*
X13959833Y-11560890D02*
X13950309Y-11556128D01*
X13917278Y-8866086D02*
X13922040Y-8870848D01*
X13922040Y-8870848D02*
X13926802Y-8885133D01*
X13926802Y-8885133D02*
X13926802Y-8894657D01*
X13926802Y-8894657D02*
X13922040Y-8908943D01*
X13922040Y-8908943D02*
X13912516Y-8918467D01*
X13912516Y-8918467D02*
X13902992Y-8923229D01*
X13902992Y-8923229D02*
X13883945Y-8927990D01*
X13883945Y-8927990D02*
X13869659Y-8927990D01*
X13869659Y-8927990D02*
X13850611Y-8923229D01*
X13850611Y-8923229D02*
X13841088Y-8918467D01*
X13841088Y-8918467D02*
X13831564Y-8908943D01*
X13831564Y-8908943D02*
X13826802Y-8894657D01*
X13826802Y-8894657D02*
X13826802Y-8885133D01*
X13826802Y-8885133D02*
X13831564Y-8870848D01*
X13831564Y-8870848D02*
X13836326Y-8866086D01*
X13836326Y-8827990D02*
X13831564Y-8823229D01*
X13831564Y-8823229D02*
X13826802Y-8813705D01*
X13826802Y-8813705D02*
X13826802Y-8789895D01*
X13826802Y-8789895D02*
X13831564Y-8780371D01*
X13831564Y-8780371D02*
X13836326Y-8775610D01*
X13836326Y-8775610D02*
X13845849Y-8770848D01*
X13845849Y-8770848D02*
X13855373Y-8770848D01*
X13855373Y-8770848D02*
X13869659Y-8775610D01*
X13869659Y-8775610D02*
X13926802Y-8832752D01*
X13926802Y-8832752D02*
X13926802Y-8770848D01*
X13836326Y-8732752D02*
X13831564Y-8727990D01*
X13831564Y-8727990D02*
X13826802Y-8718467D01*
X13826802Y-8718467D02*
X13826802Y-8694657D01*
X13826802Y-8694657D02*
X13831564Y-8685133D01*
X13831564Y-8685133D02*
X13836326Y-8680371D01*
X13836326Y-8680371D02*
X13845849Y-8675610D01*
X13845849Y-8675610D02*
X13855373Y-8675610D01*
X13855373Y-8675610D02*
X13869659Y-8680371D01*
X13869659Y-8680371D02*
X13926802Y-8737514D01*
X13926802Y-8737514D02*
X13926802Y-8675610D01*
X10412274Y-8023882D02*
X10378941Y-7976263D01*
X10355131Y-8023882D02*
X10355131Y-7923882D01*
X10355131Y-7923882D02*
X10393227Y-7923882D01*
X10393227Y-7923882D02*
X10402750Y-7928644D01*
X10402750Y-7928644D02*
X10407512Y-7933406D01*
X10407512Y-7933406D02*
X10412274Y-7942929D01*
X10412274Y-7942929D02*
X10412274Y-7957215D01*
X10412274Y-7957215D02*
X10407512Y-7966739D01*
X10407512Y-7966739D02*
X10402750Y-7971501D01*
X10402750Y-7971501D02*
X10393227Y-7976263D01*
X10393227Y-7976263D02*
X10355131Y-7976263D01*
X10507512Y-8023882D02*
X10450370Y-8023882D01*
X10478941Y-8023882D02*
X10478941Y-7923882D01*
X10478941Y-7923882D02*
X10469417Y-7938168D01*
X10469417Y-7938168D02*
X10459893Y-7947691D01*
X10459893Y-7947691D02*
X10450370Y-7952453D01*
X10602750Y-8023882D02*
X10545608Y-8023882D01*
X10574179Y-8023882D02*
X10574179Y-7923882D01*
X10574179Y-7923882D02*
X10564655Y-7938168D01*
X10564655Y-7938168D02*
X10555131Y-7947691D01*
X10555131Y-7947691D02*
X10545608Y-7952453D01*
X12787174Y-8448378D02*
X12782412Y-8453140D01*
X12782412Y-8453140D02*
X12768127Y-8457902D01*
X12768127Y-8457902D02*
X12758603Y-8457902D01*
X12758603Y-8457902D02*
X12744317Y-8453140D01*
X12744317Y-8453140D02*
X12734793Y-8443616D01*
X12734793Y-8443616D02*
X12730031Y-8434092D01*
X12730031Y-8434092D02*
X12725269Y-8415045D01*
X12725269Y-8415045D02*
X12725269Y-8400759D01*
X12725269Y-8400759D02*
X12730031Y-8381711D01*
X12730031Y-8381711D02*
X12734793Y-8372188D01*
X12734793Y-8372188D02*
X12744317Y-8362664D01*
X12744317Y-8362664D02*
X12758603Y-8357902D01*
X12758603Y-8357902D02*
X12768127Y-8357902D01*
X12768127Y-8357902D02*
X12782412Y-8362664D01*
X12782412Y-8362664D02*
X12787174Y-8367426D01*
X12820508Y-8357902D02*
X12882412Y-8357902D01*
X12882412Y-8357902D02*
X12849079Y-8395997D01*
X12849079Y-8395997D02*
X12863365Y-8395997D01*
X12863365Y-8395997D02*
X12872888Y-8400759D01*
X12872888Y-8400759D02*
X12877650Y-8405521D01*
X12877650Y-8405521D02*
X12882412Y-8415045D01*
X12882412Y-8415045D02*
X12882412Y-8438854D01*
X12882412Y-8438854D02*
X12877650Y-8448378D01*
X12877650Y-8448378D02*
X12872888Y-8453140D01*
X12872888Y-8453140D02*
X12863365Y-8457902D01*
X12863365Y-8457902D02*
X12834793Y-8457902D01*
X12834793Y-8457902D02*
X12825269Y-8453140D01*
X12825269Y-8453140D02*
X12820508Y-8448378D01*
X12920508Y-8367426D02*
X12925269Y-8362664D01*
X12925269Y-8362664D02*
X12934793Y-8357902D01*
X12934793Y-8357902D02*
X12958603Y-8357902D01*
X12958603Y-8357902D02*
X12968127Y-8362664D01*
X12968127Y-8362664D02*
X12972888Y-8367426D01*
X12972888Y-8367426D02*
X12977650Y-8376949D01*
X12977650Y-8376949D02*
X12977650Y-8386473D01*
X12977650Y-8386473D02*
X12972888Y-8400759D01*
X12972888Y-8400759D02*
X12915746Y-8457902D01*
X12915746Y-8457902D02*
X12977650Y-8457902D01*
X15345433Y-11487118D02*
X15340671Y-11491880D01*
X15340671Y-11491880D02*
X15326386Y-11496642D01*
X15326386Y-11496642D02*
X15316862Y-11496642D01*
X15316862Y-11496642D02*
X15302576Y-11491880D01*
X15302576Y-11491880D02*
X15293052Y-11482356D01*
X15293052Y-11482356D02*
X15288290Y-11472832D01*
X15288290Y-11472832D02*
X15283529Y-11453785D01*
X15283529Y-11453785D02*
X15283529Y-11439499D01*
X15283529Y-11439499D02*
X15288290Y-11420451D01*
X15288290Y-11420451D02*
X15293052Y-11410928D01*
X15293052Y-11410928D02*
X15302576Y-11401404D01*
X15302576Y-11401404D02*
X15316862Y-11396642D01*
X15316862Y-11396642D02*
X15326386Y-11396642D01*
X15326386Y-11396642D02*
X15340671Y-11401404D01*
X15340671Y-11401404D02*
X15345433Y-11406166D01*
X15431148Y-11396642D02*
X15412100Y-11396642D01*
X15412100Y-11396642D02*
X15402576Y-11401404D01*
X15402576Y-11401404D02*
X15397814Y-11406166D01*
X15397814Y-11406166D02*
X15388290Y-11420451D01*
X15388290Y-11420451D02*
X15383529Y-11439499D01*
X15383529Y-11439499D02*
X15383529Y-11477594D01*
X15383529Y-11477594D02*
X15388290Y-11487118D01*
X15388290Y-11487118D02*
X15393052Y-11491880D01*
X15393052Y-11491880D02*
X15402576Y-11496642D01*
X15402576Y-11496642D02*
X15421624Y-11496642D01*
X15421624Y-11496642D02*
X15431148Y-11491880D01*
X15431148Y-11491880D02*
X15435909Y-11487118D01*
X15435909Y-11487118D02*
X15440671Y-11477594D01*
X15440671Y-11477594D02*
X15440671Y-11453785D01*
X15440671Y-11453785D02*
X15435909Y-11444261D01*
X15435909Y-11444261D02*
X15431148Y-11439499D01*
X15431148Y-11439499D02*
X15421624Y-11434737D01*
X15421624Y-11434737D02*
X15402576Y-11434737D01*
X15402576Y-11434737D02*
X15393052Y-11439499D01*
X15393052Y-11439499D02*
X15388290Y-11444261D01*
X15388290Y-11444261D02*
X15383529Y-11453785D01*
X12011733Y-11156682D02*
X11978400Y-11109063D01*
X11954590Y-11156682D02*
X11954590Y-11056682D01*
X11954590Y-11056682D02*
X11992686Y-11056682D01*
X11992686Y-11056682D02*
X12002209Y-11061444D01*
X12002209Y-11061444D02*
X12006971Y-11066206D01*
X12006971Y-11066206D02*
X12011733Y-11075730D01*
X12011733Y-11075730D02*
X12011733Y-11090015D01*
X12011733Y-11090015D02*
X12006971Y-11099539D01*
X12006971Y-11099539D02*
X12002209Y-11104301D01*
X12002209Y-11104301D02*
X11992686Y-11109063D01*
X11992686Y-11109063D02*
X11954590Y-11109063D01*
X12097448Y-11056682D02*
X12078400Y-11056682D01*
X12078400Y-11056682D02*
X12068876Y-11061444D01*
X12068876Y-11061444D02*
X12064114Y-11066206D01*
X12064114Y-11066206D02*
X12054590Y-11080491D01*
X12054590Y-11080491D02*
X12049829Y-11099539D01*
X12049829Y-11099539D02*
X12049829Y-11137634D01*
X12049829Y-11137634D02*
X12054590Y-11147158D01*
X12054590Y-11147158D02*
X12059352Y-11151920D01*
X12059352Y-11151920D02*
X12068876Y-11156682D01*
X12068876Y-11156682D02*
X12087924Y-11156682D01*
X12087924Y-11156682D02*
X12097448Y-11151920D01*
X12097448Y-11151920D02*
X12102209Y-11147158D01*
X12102209Y-11147158D02*
X12106971Y-11137634D01*
X12106971Y-11137634D02*
X12106971Y-11113825D01*
X12106971Y-11113825D02*
X12102209Y-11104301D01*
X12102209Y-11104301D02*
X12097448Y-11099539D01*
X12097448Y-11099539D02*
X12087924Y-11094777D01*
X12087924Y-11094777D02*
X12068876Y-11094777D01*
X12068876Y-11094777D02*
X12059352Y-11099539D01*
X12059352Y-11099539D02*
X12054590Y-11104301D01*
X12054590Y-11104301D02*
X12049829Y-11113825D01*
X13915647Y-6785360D02*
X13929932Y-6790122D01*
X13929932Y-6790122D02*
X13953742Y-6790122D01*
X13953742Y-6790122D02*
X13963266Y-6785360D01*
X13963266Y-6785360D02*
X13968028Y-6780598D01*
X13968028Y-6780598D02*
X13972789Y-6771074D01*
X13972789Y-6771074D02*
X13972789Y-6761550D01*
X13972789Y-6761550D02*
X13968028Y-6752027D01*
X13968028Y-6752027D02*
X13963266Y-6747265D01*
X13963266Y-6747265D02*
X13953742Y-6742503D01*
X13953742Y-6742503D02*
X13934694Y-6737741D01*
X13934694Y-6737741D02*
X13925170Y-6732979D01*
X13925170Y-6732979D02*
X13920409Y-6728217D01*
X13920409Y-6728217D02*
X13915647Y-6718693D01*
X13915647Y-6718693D02*
X13915647Y-6709169D01*
X13915647Y-6709169D02*
X13920409Y-6699646D01*
X13920409Y-6699646D02*
X13925170Y-6694884D01*
X13925170Y-6694884D02*
X13934694Y-6690122D01*
X13934694Y-6690122D02*
X13958504Y-6690122D01*
X13958504Y-6690122D02*
X13972789Y-6694884D01*
X14006123Y-6690122D02*
X14029932Y-6790122D01*
X14029932Y-6790122D02*
X14048980Y-6718693D01*
X14048980Y-6718693D02*
X14068028Y-6790122D01*
X14068028Y-6790122D02*
X14091837Y-6690122D01*
X14120409Y-6690122D02*
X14182313Y-6690122D01*
X14182313Y-6690122D02*
X14148980Y-6728217D01*
X14148980Y-6728217D02*
X14163266Y-6728217D01*
X14163266Y-6728217D02*
X14172789Y-6732979D01*
X14172789Y-6732979D02*
X14177551Y-6737741D01*
X14177551Y-6737741D02*
X14182313Y-6747265D01*
X14182313Y-6747265D02*
X14182313Y-6771074D01*
X14182313Y-6771074D02*
X14177551Y-6780598D01*
X14177551Y-6780598D02*
X14172789Y-6785360D01*
X14172789Y-6785360D02*
X14163266Y-6790122D01*
X14163266Y-6790122D02*
X14134694Y-6790122D01*
X14134694Y-6790122D02*
X14125170Y-6785360D01*
X14125170Y-6785360D02*
X14120409Y-6780598D01*
X15699314Y-8226158D02*
X15694552Y-8230920D01*
X15694552Y-8230920D02*
X15680267Y-8235682D01*
X15680267Y-8235682D02*
X15670743Y-8235682D01*
X15670743Y-8235682D02*
X15656457Y-8230920D01*
X15656457Y-8230920D02*
X15646933Y-8221396D01*
X15646933Y-8221396D02*
X15642171Y-8211872D01*
X15642171Y-8211872D02*
X15637409Y-8192825D01*
X15637409Y-8192825D02*
X15637409Y-8178539D01*
X15637409Y-8178539D02*
X15642171Y-8159491D01*
X15642171Y-8159491D02*
X15646933Y-8149968D01*
X15646933Y-8149968D02*
X15656457Y-8140444D01*
X15656457Y-8140444D02*
X15670743Y-8135682D01*
X15670743Y-8135682D02*
X15680267Y-8135682D01*
X15680267Y-8135682D02*
X15694552Y-8140444D01*
X15694552Y-8140444D02*
X15699314Y-8145206D01*
X15737409Y-8145206D02*
X15742171Y-8140444D01*
X15742171Y-8140444D02*
X15751695Y-8135682D01*
X15751695Y-8135682D02*
X15775505Y-8135682D01*
X15775505Y-8135682D02*
X15785028Y-8140444D01*
X15785028Y-8140444D02*
X15789790Y-8145206D01*
X15789790Y-8145206D02*
X15794552Y-8154729D01*
X15794552Y-8154729D02*
X15794552Y-8164253D01*
X15794552Y-8164253D02*
X15789790Y-8178539D01*
X15789790Y-8178539D02*
X15732648Y-8235682D01*
X15732648Y-8235682D02*
X15794552Y-8235682D01*
X15856457Y-8135682D02*
X15865981Y-8135682D01*
X15865981Y-8135682D02*
X15875505Y-8140444D01*
X15875505Y-8140444D02*
X15880267Y-8145206D01*
X15880267Y-8145206D02*
X15885028Y-8154729D01*
X15885028Y-8154729D02*
X15889790Y-8173777D01*
X15889790Y-8173777D02*
X15889790Y-8197587D01*
X15889790Y-8197587D02*
X15885028Y-8216634D01*
X15885028Y-8216634D02*
X15880267Y-8226158D01*
X15880267Y-8226158D02*
X15875505Y-8230920D01*
X15875505Y-8230920D02*
X15865981Y-8235682D01*
X15865981Y-8235682D02*
X15856457Y-8235682D01*
X15856457Y-8235682D02*
X15846933Y-8230920D01*
X15846933Y-8230920D02*
X15842171Y-8226158D01*
X15842171Y-8226158D02*
X15837409Y-8216634D01*
X15837409Y-8216634D02*
X15832648Y-8197587D01*
X15832648Y-8197587D02*
X15832648Y-8173777D01*
X15832648Y-8173777D02*
X15837409Y-8154729D01*
X15837409Y-8154729D02*
X15842171Y-8145206D01*
X15842171Y-8145206D02*
X15846933Y-8140444D01*
X15846933Y-8140444D02*
X15856457Y-8135682D01*
X10665533Y-10783938D02*
X10660771Y-10788700D01*
X10660771Y-10788700D02*
X10646486Y-10793462D01*
X10646486Y-10793462D02*
X10636962Y-10793462D01*
X10636962Y-10793462D02*
X10622676Y-10788700D01*
X10622676Y-10788700D02*
X10613152Y-10779176D01*
X10613152Y-10779176D02*
X10608391Y-10769652D01*
X10608391Y-10769652D02*
X10603629Y-10750605D01*
X10603629Y-10750605D02*
X10603629Y-10736319D01*
X10603629Y-10736319D02*
X10608391Y-10717271D01*
X10608391Y-10717271D02*
X10613152Y-10707748D01*
X10613152Y-10707748D02*
X10622676Y-10698224D01*
X10622676Y-10698224D02*
X10636962Y-10693462D01*
X10636962Y-10693462D02*
X10646486Y-10693462D01*
X10646486Y-10693462D02*
X10660771Y-10698224D01*
X10660771Y-10698224D02*
X10665533Y-10702986D01*
X10703629Y-10702986D02*
X10708391Y-10698224D01*
X10708391Y-10698224D02*
X10717914Y-10693462D01*
X10717914Y-10693462D02*
X10741724Y-10693462D01*
X10741724Y-10693462D02*
X10751248Y-10698224D01*
X10751248Y-10698224D02*
X10756010Y-10702986D01*
X10756010Y-10702986D02*
X10760771Y-10712510D01*
X10760771Y-10712510D02*
X10760771Y-10722033D01*
X10760771Y-10722033D02*
X10756010Y-10736319D01*
X10756010Y-10736319D02*
X10698867Y-10793462D01*
X10698867Y-10793462D02*
X10760771Y-10793462D01*
X14922048Y-7915462D02*
X14922048Y-7986890D01*
X14922048Y-7986890D02*
X14917286Y-8001176D01*
X14917286Y-8001176D02*
X14907762Y-8010700D01*
X14907762Y-8010700D02*
X14893476Y-8015462D01*
X14893476Y-8015462D02*
X14883952Y-8015462D01*
X14969667Y-8015462D02*
X14969667Y-7915462D01*
X14969667Y-7915462D02*
X15007762Y-7915462D01*
X15007762Y-7915462D02*
X15017286Y-7920224D01*
X15017286Y-7920224D02*
X15022048Y-7924986D01*
X15022048Y-7924986D02*
X15026809Y-7934509D01*
X15026809Y-7934509D02*
X15026809Y-7948795D01*
X15026809Y-7948795D02*
X15022048Y-7958319D01*
X15022048Y-7958319D02*
X15017286Y-7963081D01*
X15017286Y-7963081D02*
X15007762Y-7967843D01*
X15007762Y-7967843D02*
X14969667Y-7967843D01*
X15122048Y-8015462D02*
X15064905Y-8015462D01*
X15093476Y-8015462D02*
X15093476Y-7915462D01*
X15093476Y-7915462D02*
X15083952Y-7929748D01*
X15083952Y-7929748D02*
X15074429Y-7939271D01*
X15074429Y-7939271D02*
X15064905Y-7944033D01*
X15179190Y-7958319D02*
X15169667Y-7953557D01*
X15169667Y-7953557D02*
X15164905Y-7948795D01*
X15164905Y-7948795D02*
X15160143Y-7939271D01*
X15160143Y-7939271D02*
X15160143Y-7934509D01*
X15160143Y-7934509D02*
X15164905Y-7924986D01*
X15164905Y-7924986D02*
X15169667Y-7920224D01*
X15169667Y-7920224D02*
X15179190Y-7915462D01*
X15179190Y-7915462D02*
X15198238Y-7915462D01*
X15198238Y-7915462D02*
X15207762Y-7920224D01*
X15207762Y-7920224D02*
X15212524Y-7924986D01*
X15212524Y-7924986D02*
X15217286Y-7934509D01*
X15217286Y-7934509D02*
X15217286Y-7939271D01*
X15217286Y-7939271D02*
X15212524Y-7948795D01*
X15212524Y-7948795D02*
X15207762Y-7953557D01*
X15207762Y-7953557D02*
X15198238Y-7958319D01*
X15198238Y-7958319D02*
X15179190Y-7958319D01*
X15179190Y-7958319D02*
X15169667Y-7963081D01*
X15169667Y-7963081D02*
X15164905Y-7967843D01*
X15164905Y-7967843D02*
X15160143Y-7977367D01*
X15160143Y-7977367D02*
X15160143Y-7996414D01*
X15160143Y-7996414D02*
X15164905Y-8005938D01*
X15164905Y-8005938D02*
X15169667Y-8010700D01*
X15169667Y-8010700D02*
X15179190Y-8015462D01*
X15179190Y-8015462D02*
X15198238Y-8015462D01*
X15198238Y-8015462D02*
X15207762Y-8010700D01*
X15207762Y-8010700D02*
X15212524Y-8005938D01*
X15212524Y-8005938D02*
X15217286Y-7996414D01*
X15217286Y-7996414D02*
X15217286Y-7977367D01*
X15217286Y-7977367D02*
X15212524Y-7967843D01*
X15212524Y-7967843D02*
X15207762Y-7963081D01*
X15207762Y-7963081D02*
X15198238Y-7958319D01*
X12256628Y-11735862D02*
X12256628Y-11807290D01*
X12256628Y-11807290D02*
X12251866Y-11821576D01*
X12251866Y-11821576D02*
X12242342Y-11831100D01*
X12242342Y-11831100D02*
X12228056Y-11835862D01*
X12228056Y-11835862D02*
X12218532Y-11835862D01*
X12304247Y-11835862D02*
X12304247Y-11735862D01*
X12304247Y-11735862D02*
X12342342Y-11735862D01*
X12342342Y-11735862D02*
X12351866Y-11740624D01*
X12351866Y-11740624D02*
X12356628Y-11745386D01*
X12356628Y-11745386D02*
X12361389Y-11754909D01*
X12361389Y-11754909D02*
X12361389Y-11769195D01*
X12361389Y-11769195D02*
X12356628Y-11778719D01*
X12356628Y-11778719D02*
X12351866Y-11783481D01*
X12351866Y-11783481D02*
X12342342Y-11788243D01*
X12342342Y-11788243D02*
X12304247Y-11788243D01*
X12456628Y-11835862D02*
X12399485Y-11835862D01*
X12428056Y-11835862D02*
X12428056Y-11735862D01*
X12428056Y-11735862D02*
X12418532Y-11750148D01*
X12418532Y-11750148D02*
X12409009Y-11759671D01*
X12409009Y-11759671D02*
X12399485Y-11764433D01*
X12518532Y-11735862D02*
X12528056Y-11735862D01*
X12528056Y-11735862D02*
X12537580Y-11740624D01*
X12537580Y-11740624D02*
X12542342Y-11745386D01*
X12542342Y-11745386D02*
X12547104Y-11754909D01*
X12547104Y-11754909D02*
X12551866Y-11773957D01*
X12551866Y-11773957D02*
X12551866Y-11797767D01*
X12551866Y-11797767D02*
X12547104Y-11816814D01*
X12547104Y-11816814D02*
X12542342Y-11826338D01*
X12542342Y-11826338D02*
X12537580Y-11831100D01*
X12537580Y-11831100D02*
X12528056Y-11835862D01*
X12528056Y-11835862D02*
X12518532Y-11835862D01*
X12518532Y-11835862D02*
X12509009Y-11831100D01*
X12509009Y-11831100D02*
X12504247Y-11826338D01*
X12504247Y-11826338D02*
X12499485Y-11816814D01*
X12499485Y-11816814D02*
X12494723Y-11797767D01*
X12494723Y-11797767D02*
X12494723Y-11773957D01*
X12494723Y-11773957D02*
X12499485Y-11754909D01*
X12499485Y-11754909D02*
X12504247Y-11745386D01*
X12504247Y-11745386D02*
X12509009Y-11740624D01*
X12509009Y-11740624D02*
X12518532Y-11735862D01*
X13293113Y-10785498D02*
X13288351Y-10790260D01*
X13288351Y-10790260D02*
X13274066Y-10795022D01*
X13274066Y-10795022D02*
X13264542Y-10795022D01*
X13264542Y-10795022D02*
X13250256Y-10790260D01*
X13250256Y-10790260D02*
X13240732Y-10780736D01*
X13240732Y-10780736D02*
X13235970Y-10771212D01*
X13235970Y-10771212D02*
X13231209Y-10752165D01*
X13231209Y-10752165D02*
X13231209Y-10737879D01*
X13231209Y-10737879D02*
X13235970Y-10718831D01*
X13235970Y-10718831D02*
X13240732Y-10709308D01*
X13240732Y-10709308D02*
X13250256Y-10699784D01*
X13250256Y-10699784D02*
X13264542Y-10695022D01*
X13264542Y-10695022D02*
X13274066Y-10695022D01*
X13274066Y-10695022D02*
X13288351Y-10699784D01*
X13288351Y-10699784D02*
X13293113Y-10704546D01*
X13388351Y-10795022D02*
X13331209Y-10795022D01*
X13359780Y-10795022D02*
X13359780Y-10695022D01*
X13359780Y-10695022D02*
X13350256Y-10709308D01*
X13350256Y-10709308D02*
X13340732Y-10718831D01*
X13340732Y-10718831D02*
X13331209Y-10723593D01*
X10990082Y-11447033D02*
X11061510Y-11447033D01*
X11061510Y-11447033D02*
X11075796Y-11451795D01*
X11075796Y-11451795D02*
X11085320Y-11461319D01*
X11085320Y-11461319D02*
X11090082Y-11475605D01*
X11090082Y-11475605D02*
X11090082Y-11485128D01*
X11090082Y-11399414D02*
X10990082Y-11399414D01*
X10990082Y-11399414D02*
X10990082Y-11361319D01*
X10990082Y-11361319D02*
X10994844Y-11351795D01*
X10994844Y-11351795D02*
X10999606Y-11347033D01*
X10999606Y-11347033D02*
X11009130Y-11342271D01*
X11009130Y-11342271D02*
X11023415Y-11342271D01*
X11023415Y-11342271D02*
X11032939Y-11347033D01*
X11032939Y-11347033D02*
X11037701Y-11351795D01*
X11037701Y-11351795D02*
X11042463Y-11361319D01*
X11042463Y-11361319D02*
X11042463Y-11399414D01*
X10990082Y-11256557D02*
X10990082Y-11275605D01*
X10990082Y-11275605D02*
X10994844Y-11285128D01*
X10994844Y-11285128D02*
X10999606Y-11289890D01*
X10999606Y-11289890D02*
X11013891Y-11299414D01*
X11013891Y-11299414D02*
X11032939Y-11304176D01*
X11032939Y-11304176D02*
X11071034Y-11304176D01*
X11071034Y-11304176D02*
X11080558Y-11299414D01*
X11080558Y-11299414D02*
X11085320Y-11294652D01*
X11085320Y-11294652D02*
X11090082Y-11285128D01*
X11090082Y-11285128D02*
X11090082Y-11266081D01*
X11090082Y-11266081D02*
X11085320Y-11256557D01*
X11085320Y-11256557D02*
X11080558Y-11251795D01*
X11080558Y-11251795D02*
X11071034Y-11247033D01*
X11071034Y-11247033D02*
X11047225Y-11247033D01*
X11047225Y-11247033D02*
X11037701Y-11251795D01*
X11037701Y-11251795D02*
X11032939Y-11256557D01*
X11032939Y-11256557D02*
X11028177Y-11266081D01*
X11028177Y-11266081D02*
X11028177Y-11285128D01*
X11028177Y-11285128D02*
X11032939Y-11294652D01*
X11032939Y-11294652D02*
X11037701Y-11299414D01*
X11037701Y-11299414D02*
X11047225Y-11304176D01*
X12304247Y-11374282D02*
X12304247Y-11445710D01*
X12304247Y-11445710D02*
X12299485Y-11459996D01*
X12299485Y-11459996D02*
X12289961Y-11469520D01*
X12289961Y-11469520D02*
X12275675Y-11474282D01*
X12275675Y-11474282D02*
X12266151Y-11474282D01*
X12351866Y-11474282D02*
X12351866Y-11374282D01*
X12351866Y-11374282D02*
X12389961Y-11374282D01*
X12389961Y-11374282D02*
X12399485Y-11379044D01*
X12399485Y-11379044D02*
X12404247Y-11383806D01*
X12404247Y-11383806D02*
X12409008Y-11393329D01*
X12409008Y-11393329D02*
X12409008Y-11407615D01*
X12409008Y-11407615D02*
X12404247Y-11417139D01*
X12404247Y-11417139D02*
X12399485Y-11421901D01*
X12399485Y-11421901D02*
X12389961Y-11426663D01*
X12389961Y-11426663D02*
X12351866Y-11426663D01*
X12456628Y-11474282D02*
X12475675Y-11474282D01*
X12475675Y-11474282D02*
X12485199Y-11469520D01*
X12485199Y-11469520D02*
X12489961Y-11464758D01*
X12489961Y-11464758D02*
X12499485Y-11450472D01*
X12499485Y-11450472D02*
X12504247Y-11431425D01*
X12504247Y-11431425D02*
X12504247Y-11393329D01*
X12504247Y-11393329D02*
X12499485Y-11383806D01*
X12499485Y-11383806D02*
X12494723Y-11379044D01*
X12494723Y-11379044D02*
X12485199Y-11374282D01*
X12485199Y-11374282D02*
X12466151Y-11374282D01*
X12466151Y-11374282D02*
X12456628Y-11379044D01*
X12456628Y-11379044D02*
X12451866Y-11383806D01*
X12451866Y-11383806D02*
X12447104Y-11393329D01*
X12447104Y-11393329D02*
X12447104Y-11417139D01*
X12447104Y-11417139D02*
X12451866Y-11426663D01*
X12451866Y-11426663D02*
X12456628Y-11431425D01*
X12456628Y-11431425D02*
X12466151Y-11436187D01*
X12466151Y-11436187D02*
X12485199Y-11436187D01*
X12485199Y-11436187D02*
X12494723Y-11431425D01*
X12494723Y-11431425D02*
X12499485Y-11426663D01*
X12499485Y-11426663D02*
X12504247Y-11417139D01*
X12011733Y-10732502D02*
X11978400Y-10684883D01*
X11954590Y-10732502D02*
X11954590Y-10632502D01*
X11954590Y-10632502D02*
X11992686Y-10632502D01*
X11992686Y-10632502D02*
X12002209Y-10637264D01*
X12002209Y-10637264D02*
X12006971Y-10642026D01*
X12006971Y-10642026D02*
X12011733Y-10651550D01*
X12011733Y-10651550D02*
X12011733Y-10665835D01*
X12011733Y-10665835D02*
X12006971Y-10675359D01*
X12006971Y-10675359D02*
X12002209Y-10680121D01*
X12002209Y-10680121D02*
X11992686Y-10684883D01*
X11992686Y-10684883D02*
X11954590Y-10684883D01*
X12102209Y-10632502D02*
X12054590Y-10632502D01*
X12054590Y-10632502D02*
X12049829Y-10680121D01*
X12049829Y-10680121D02*
X12054590Y-10675359D01*
X12054590Y-10675359D02*
X12064114Y-10670597D01*
X12064114Y-10670597D02*
X12087924Y-10670597D01*
X12087924Y-10670597D02*
X12097448Y-10675359D01*
X12097448Y-10675359D02*
X12102209Y-10680121D01*
X12102209Y-10680121D02*
X12106971Y-10689645D01*
X12106971Y-10689645D02*
X12106971Y-10713454D01*
X12106971Y-10713454D02*
X12102209Y-10722978D01*
X12102209Y-10722978D02*
X12097448Y-10727740D01*
X12097448Y-10727740D02*
X12087924Y-10732502D01*
X12087924Y-10732502D02*
X12064114Y-10732502D01*
X12064114Y-10732502D02*
X12054590Y-10727740D01*
X12054590Y-10727740D02*
X12049829Y-10722978D01*
X13540273Y-7705582D02*
X13506940Y-7657963D01*
X13483130Y-7705582D02*
X13483130Y-7605582D01*
X13483130Y-7605582D02*
X13521226Y-7605582D01*
X13521226Y-7605582D02*
X13530749Y-7610344D01*
X13530749Y-7610344D02*
X13535511Y-7615106D01*
X13535511Y-7615106D02*
X13540273Y-7624629D01*
X13540273Y-7624629D02*
X13540273Y-7638915D01*
X13540273Y-7638915D02*
X13535511Y-7648439D01*
X13535511Y-7648439D02*
X13530749Y-7653201D01*
X13530749Y-7653201D02*
X13521226Y-7657963D01*
X13521226Y-7657963D02*
X13483130Y-7657963D01*
X13573607Y-7605582D02*
X13640273Y-7605582D01*
X13640273Y-7605582D02*
X13597416Y-7705582D01*
X14907528Y-11009182D02*
X14907528Y-11080610D01*
X14907528Y-11080610D02*
X14902766Y-11094896D01*
X14902766Y-11094896D02*
X14893242Y-11104420D01*
X14893242Y-11104420D02*
X14878956Y-11109182D01*
X14878956Y-11109182D02*
X14869432Y-11109182D01*
X14955147Y-11109182D02*
X14955147Y-11009182D01*
X14955147Y-11009182D02*
X14993242Y-11009182D01*
X14993242Y-11009182D02*
X15002766Y-11013944D01*
X15002766Y-11013944D02*
X15007528Y-11018706D01*
X15007528Y-11018706D02*
X15012289Y-11028230D01*
X15012289Y-11028230D02*
X15012289Y-11042515D01*
X15012289Y-11042515D02*
X15007528Y-11052039D01*
X15007528Y-11052039D02*
X15002766Y-11056801D01*
X15002766Y-11056801D02*
X14993242Y-11061563D01*
X14993242Y-11061563D02*
X14955147Y-11061563D01*
X15107528Y-11109182D02*
X15050385Y-11109182D01*
X15078956Y-11109182D02*
X15078956Y-11009182D01*
X15078956Y-11009182D02*
X15069432Y-11023468D01*
X15069432Y-11023468D02*
X15059909Y-11032991D01*
X15059909Y-11032991D02*
X15050385Y-11037753D01*
X15193242Y-11042515D02*
X15193242Y-11109182D01*
X15169432Y-11004420D02*
X15145623Y-11075849D01*
X15145623Y-11075849D02*
X15207528Y-11075849D01*
X10980787Y-9613340D02*
X10995072Y-9618102D01*
X10995072Y-9618102D02*
X11018882Y-9618102D01*
X11018882Y-9618102D02*
X11028406Y-9613340D01*
X11028406Y-9613340D02*
X11033168Y-9608578D01*
X11033168Y-9608578D02*
X11037930Y-9599054D01*
X11037930Y-9599054D02*
X11037930Y-9589530D01*
X11037930Y-9589530D02*
X11033168Y-9580007D01*
X11033168Y-9580007D02*
X11028406Y-9575245D01*
X11028406Y-9575245D02*
X11018882Y-9570483D01*
X11018882Y-9570483D02*
X10999834Y-9565721D01*
X10999834Y-9565721D02*
X10990311Y-9560959D01*
X10990311Y-9560959D02*
X10985549Y-9556197D01*
X10985549Y-9556197D02*
X10980787Y-9546673D01*
X10980787Y-9546673D02*
X10980787Y-9537150D01*
X10980787Y-9537150D02*
X10985549Y-9527626D01*
X10985549Y-9527626D02*
X10990311Y-9522864D01*
X10990311Y-9522864D02*
X10999834Y-9518102D01*
X10999834Y-9518102D02*
X11023644Y-9518102D01*
X11023644Y-9518102D02*
X11037930Y-9522864D01*
X11071263Y-9518102D02*
X11095072Y-9618102D01*
X11095072Y-9618102D02*
X11114120Y-9546673D01*
X11114120Y-9546673D02*
X11133168Y-9618102D01*
X11133168Y-9618102D02*
X11156977Y-9518102D01*
X11190310Y-9527626D02*
X11195072Y-9522864D01*
X11195072Y-9522864D02*
X11204596Y-9518102D01*
X11204596Y-9518102D02*
X11228406Y-9518102D01*
X11228406Y-9518102D02*
X11237929Y-9522864D01*
X11237929Y-9522864D02*
X11242691Y-9527626D01*
X11242691Y-9527626D02*
X11247453Y-9537150D01*
X11247453Y-9537150D02*
X11247453Y-9546673D01*
X11247453Y-9546673D02*
X11242691Y-9560959D01*
X11242691Y-9560959D02*
X11185549Y-9618102D01*
X11185549Y-9618102D02*
X11247453Y-9618102D01*
X12304247Y-11012702D02*
X12304247Y-11084130D01*
X12304247Y-11084130D02*
X12299485Y-11098416D01*
X12299485Y-11098416D02*
X12289961Y-11107940D01*
X12289961Y-11107940D02*
X12275675Y-11112702D01*
X12275675Y-11112702D02*
X12266151Y-11112702D01*
X12351866Y-11112702D02*
X12351866Y-11012702D01*
X12351866Y-11012702D02*
X12389961Y-11012702D01*
X12389961Y-11012702D02*
X12399485Y-11017464D01*
X12399485Y-11017464D02*
X12404247Y-11022226D01*
X12404247Y-11022226D02*
X12409008Y-11031750D01*
X12409008Y-11031750D02*
X12409008Y-11046035D01*
X12409008Y-11046035D02*
X12404247Y-11055559D01*
X12404247Y-11055559D02*
X12399485Y-11060321D01*
X12399485Y-11060321D02*
X12389961Y-11065083D01*
X12389961Y-11065083D02*
X12351866Y-11065083D01*
X12466151Y-11055559D02*
X12456628Y-11050797D01*
X12456628Y-11050797D02*
X12451866Y-11046035D01*
X12451866Y-11046035D02*
X12447104Y-11036511D01*
X12447104Y-11036511D02*
X12447104Y-11031750D01*
X12447104Y-11031750D02*
X12451866Y-11022226D01*
X12451866Y-11022226D02*
X12456628Y-11017464D01*
X12456628Y-11017464D02*
X12466151Y-11012702D01*
X12466151Y-11012702D02*
X12485199Y-11012702D01*
X12485199Y-11012702D02*
X12494723Y-11017464D01*
X12494723Y-11017464D02*
X12499485Y-11022226D01*
X12499485Y-11022226D02*
X12504247Y-11031750D01*
X12504247Y-11031750D02*
X12504247Y-11036511D01*
X12504247Y-11036511D02*
X12499485Y-11046035D01*
X12499485Y-11046035D02*
X12494723Y-11050797D01*
X12494723Y-11050797D02*
X12485199Y-11055559D01*
X12485199Y-11055559D02*
X12466151Y-11055559D01*
X12466151Y-11055559D02*
X12456628Y-11060321D01*
X12456628Y-11060321D02*
X12451866Y-11065083D01*
X12451866Y-11065083D02*
X12447104Y-11074607D01*
X12447104Y-11074607D02*
X12447104Y-11093654D01*
X12447104Y-11093654D02*
X12451866Y-11103178D01*
X12451866Y-11103178D02*
X12456628Y-11107940D01*
X12456628Y-11107940D02*
X12466151Y-11112702D01*
X12466151Y-11112702D02*
X12485199Y-11112702D01*
X12485199Y-11112702D02*
X12494723Y-11107940D01*
X12494723Y-11107940D02*
X12499485Y-11103178D01*
X12499485Y-11103178D02*
X12504247Y-11093654D01*
X12504247Y-11093654D02*
X12504247Y-11074607D01*
X12504247Y-11074607D02*
X12499485Y-11065083D01*
X12499485Y-11065083D02*
X12494723Y-11060321D01*
X12494723Y-11060321D02*
X12485199Y-11055559D01*
X13329468Y-7984042D02*
X13329468Y-8055470D01*
X13329468Y-8055470D02*
X13324706Y-8069756D01*
X13324706Y-8069756D02*
X13315182Y-8079280D01*
X13315182Y-8079280D02*
X13300896Y-8084042D01*
X13300896Y-8084042D02*
X13291372Y-8084042D01*
X13377087Y-8084042D02*
X13377087Y-7984042D01*
X13377087Y-7984042D02*
X13415182Y-7984042D01*
X13415182Y-7984042D02*
X13424706Y-7988804D01*
X13424706Y-7988804D02*
X13429468Y-7993566D01*
X13429468Y-7993566D02*
X13434229Y-8003089D01*
X13434229Y-8003089D02*
X13434229Y-8017375D01*
X13434229Y-8017375D02*
X13429468Y-8026899D01*
X13429468Y-8026899D02*
X13424706Y-8031661D01*
X13424706Y-8031661D02*
X13415182Y-8036423D01*
X13415182Y-8036423D02*
X13377087Y-8036423D01*
X13529468Y-8084042D02*
X13472325Y-8084042D01*
X13500896Y-8084042D02*
X13500896Y-7984042D01*
X13500896Y-7984042D02*
X13491372Y-7998328D01*
X13491372Y-7998328D02*
X13481849Y-8007851D01*
X13481849Y-8007851D02*
X13472325Y-8012613D01*
X13562801Y-7984042D02*
X13629468Y-7984042D01*
X13629468Y-7984042D02*
X13586610Y-8084042D01*
X13300733Y-10665482D02*
X13267400Y-10617863D01*
X13243590Y-10665482D02*
X13243590Y-10565482D01*
X13243590Y-10565482D02*
X13281686Y-10565482D01*
X13281686Y-10565482D02*
X13291209Y-10570244D01*
X13291209Y-10570244D02*
X13295971Y-10575006D01*
X13295971Y-10575006D02*
X13300733Y-10584530D01*
X13300733Y-10584530D02*
X13300733Y-10598815D01*
X13300733Y-10598815D02*
X13295971Y-10608339D01*
X13295971Y-10608339D02*
X13291209Y-10613101D01*
X13291209Y-10613101D02*
X13281686Y-10617863D01*
X13281686Y-10617863D02*
X13243590Y-10617863D01*
X13395971Y-10665482D02*
X13338829Y-10665482D01*
X13367400Y-10665482D02*
X13367400Y-10565482D01*
X13367400Y-10565482D02*
X13357876Y-10579768D01*
X13357876Y-10579768D02*
X13348352Y-10589291D01*
X13348352Y-10589291D02*
X13338829Y-10594053D01*
X14220982Y-8596232D02*
X14292410Y-8596232D01*
X14292410Y-8596232D02*
X14306696Y-8600994D01*
X14306696Y-8600994D02*
X14316220Y-8610518D01*
X14316220Y-8610518D02*
X14320982Y-8624804D01*
X14320982Y-8624804D02*
X14320982Y-8634328D01*
X14320982Y-8548613D02*
X14220982Y-8548613D01*
X14220982Y-8548613D02*
X14220982Y-8510518D01*
X14220982Y-8510518D02*
X14225744Y-8500994D01*
X14225744Y-8500994D02*
X14230506Y-8496232D01*
X14230506Y-8496232D02*
X14240029Y-8491470D01*
X14240029Y-8491470D02*
X14254315Y-8491470D01*
X14254315Y-8491470D02*
X14263839Y-8496232D01*
X14263839Y-8496232D02*
X14268601Y-8500994D01*
X14268601Y-8500994D02*
X14273363Y-8510518D01*
X14273363Y-8510518D02*
X14273363Y-8548613D01*
X14230506Y-8453375D02*
X14225744Y-8448613D01*
X14225744Y-8448613D02*
X14220982Y-8439089D01*
X14220982Y-8439089D02*
X14220982Y-8415280D01*
X14220982Y-8415280D02*
X14225744Y-8405756D01*
X14225744Y-8405756D02*
X14230506Y-8400994D01*
X14230506Y-8400994D02*
X14240029Y-8396232D01*
X14240029Y-8396232D02*
X14249553Y-8396232D01*
X14249553Y-8396232D02*
X14263839Y-8400994D01*
X14263839Y-8400994D02*
X14320982Y-8458137D01*
X14320982Y-8458137D02*
X14320982Y-8396232D01*
X14254315Y-8310518D02*
X14320982Y-8310518D01*
X14216220Y-8334327D02*
X14287648Y-8358137D01*
X14287648Y-8358137D02*
X14287648Y-8296232D01*
X15345433Y-10776658D02*
X15340671Y-10781420D01*
X15340671Y-10781420D02*
X15326386Y-10786182D01*
X15326386Y-10786182D02*
X15316862Y-10786182D01*
X15316862Y-10786182D02*
X15302576Y-10781420D01*
X15302576Y-10781420D02*
X15293052Y-10771896D01*
X15293052Y-10771896D02*
X15288290Y-10762372D01*
X15288290Y-10762372D02*
X15283529Y-10743325D01*
X15283529Y-10743325D02*
X15283529Y-10729039D01*
X15283529Y-10729039D02*
X15288290Y-10709991D01*
X15288290Y-10709991D02*
X15293052Y-10700468D01*
X15293052Y-10700468D02*
X15302576Y-10690944D01*
X15302576Y-10690944D02*
X15316862Y-10686182D01*
X15316862Y-10686182D02*
X15326386Y-10686182D01*
X15326386Y-10686182D02*
X15340671Y-10690944D01*
X15340671Y-10690944D02*
X15345433Y-10695706D01*
X15378767Y-10686182D02*
X15440671Y-10686182D01*
X15440671Y-10686182D02*
X15407338Y-10724277D01*
X15407338Y-10724277D02*
X15421624Y-10724277D01*
X15421624Y-10724277D02*
X15431148Y-10729039D01*
X15431148Y-10729039D02*
X15435909Y-10733801D01*
X15435909Y-10733801D02*
X15440671Y-10743325D01*
X15440671Y-10743325D02*
X15440671Y-10767134D01*
X15440671Y-10767134D02*
X15435909Y-10776658D01*
X15435909Y-10776658D02*
X15431148Y-10781420D01*
X15431148Y-10781420D02*
X15421624Y-10786182D01*
X15421624Y-10786182D02*
X15393052Y-10786182D01*
X15393052Y-10786182D02*
X15383529Y-10781420D01*
X15383529Y-10781420D02*
X15378767Y-10776658D01*
X14672333Y-10726442D02*
X14639000Y-10678823D01*
X14615190Y-10726442D02*
X14615190Y-10626442D01*
X14615190Y-10626442D02*
X14653286Y-10626442D01*
X14653286Y-10626442D02*
X14662809Y-10631204D01*
X14662809Y-10631204D02*
X14667571Y-10635966D01*
X14667571Y-10635966D02*
X14672333Y-10645490D01*
X14672333Y-10645490D02*
X14672333Y-10659775D01*
X14672333Y-10659775D02*
X14667571Y-10669299D01*
X14667571Y-10669299D02*
X14662809Y-10674061D01*
X14662809Y-10674061D02*
X14653286Y-10678823D01*
X14653286Y-10678823D02*
X14615190Y-10678823D01*
X14705667Y-10626442D02*
X14767571Y-10626442D01*
X14767571Y-10626442D02*
X14734238Y-10664537D01*
X14734238Y-10664537D02*
X14748524Y-10664537D01*
X14748524Y-10664537D02*
X14758048Y-10669299D01*
X14758048Y-10669299D02*
X14762809Y-10674061D01*
X14762809Y-10674061D02*
X14767571Y-10683585D01*
X14767571Y-10683585D02*
X14767571Y-10707394D01*
X14767571Y-10707394D02*
X14762809Y-10716918D01*
X14762809Y-10716918D02*
X14758048Y-10721680D01*
X14758048Y-10721680D02*
X14748524Y-10726442D01*
X14748524Y-10726442D02*
X14719952Y-10726442D01*
X14719952Y-10726442D02*
X14710429Y-10721680D01*
X14710429Y-10721680D02*
X14705667Y-10716918D01*
X13940202Y-11441832D02*
X14011630Y-11441832D01*
X14011630Y-11441832D02*
X14025916Y-11446594D01*
X14025916Y-11446594D02*
X14035440Y-11456118D01*
X14035440Y-11456118D02*
X14040202Y-11470404D01*
X14040202Y-11470404D02*
X14040202Y-11479927D01*
X14040202Y-11394213D02*
X13940202Y-11394213D01*
X13940202Y-11394213D02*
X13940202Y-11356118D01*
X13940202Y-11356118D02*
X13944964Y-11346594D01*
X13944964Y-11346594D02*
X13949726Y-11341832D01*
X13949726Y-11341832D02*
X13959249Y-11337070D01*
X13959249Y-11337070D02*
X13973535Y-11337070D01*
X13973535Y-11337070D02*
X13983059Y-11341832D01*
X13983059Y-11341832D02*
X13987821Y-11346594D01*
X13987821Y-11346594D02*
X13992583Y-11356118D01*
X13992583Y-11356118D02*
X13992583Y-11394213D01*
X14040202Y-11241832D02*
X14040202Y-11298975D01*
X14040202Y-11270404D02*
X13940202Y-11270404D01*
X13940202Y-11270404D02*
X13954488Y-11279927D01*
X13954488Y-11279927D02*
X13964011Y-11289451D01*
X13964011Y-11289451D02*
X13968773Y-11298975D01*
X13940202Y-11208499D02*
X13940202Y-11146594D01*
X13940202Y-11146594D02*
X13978297Y-11179928D01*
X13978297Y-11179928D02*
X13978297Y-11165642D01*
X13978297Y-11165642D02*
X13983059Y-11156118D01*
X13983059Y-11156118D02*
X13987821Y-11151356D01*
X13987821Y-11151356D02*
X13997345Y-11146594D01*
X13997345Y-11146594D02*
X14021154Y-11146594D01*
X14021154Y-11146594D02*
X14030678Y-11151356D01*
X14030678Y-11151356D02*
X14035440Y-11156118D01*
X14035440Y-11156118D02*
X14040202Y-11165642D01*
X14040202Y-11165642D02*
X14040202Y-11194213D01*
X14040202Y-11194213D02*
X14035440Y-11203737D01*
X14035440Y-11203737D02*
X14030678Y-11208499D01*
X12360868Y-8325902D02*
X12360868Y-8397330D01*
X12360868Y-8397330D02*
X12356106Y-8411616D01*
X12356106Y-8411616D02*
X12346582Y-8421140D01*
X12346582Y-8421140D02*
X12332296Y-8425902D01*
X12332296Y-8425902D02*
X12322772Y-8425902D01*
X12408487Y-8425902D02*
X12408487Y-8325902D01*
X12408487Y-8325902D02*
X12446582Y-8325902D01*
X12446582Y-8325902D02*
X12456106Y-8330664D01*
X12456106Y-8330664D02*
X12460868Y-8335426D01*
X12460868Y-8335426D02*
X12465629Y-8344949D01*
X12465629Y-8344949D02*
X12465629Y-8359235D01*
X12465629Y-8359235D02*
X12460868Y-8368759D01*
X12460868Y-8368759D02*
X12456106Y-8373521D01*
X12456106Y-8373521D02*
X12446582Y-8378283D01*
X12446582Y-8378283D02*
X12408487Y-8378283D01*
X12498963Y-8325902D02*
X12560868Y-8325902D01*
X12560868Y-8325902D02*
X12527534Y-8363997D01*
X12527534Y-8363997D02*
X12541820Y-8363997D01*
X12541820Y-8363997D02*
X12551344Y-8368759D01*
X12551344Y-8368759D02*
X12556106Y-8373521D01*
X12556106Y-8373521D02*
X12560868Y-8383045D01*
X12560868Y-8383045D02*
X12560868Y-8406854D01*
X12560868Y-8406854D02*
X12556106Y-8416378D01*
X12556106Y-8416378D02*
X12551344Y-8421140D01*
X12551344Y-8421140D02*
X12541820Y-8425902D01*
X12541820Y-8425902D02*
X12513249Y-8425902D01*
X12513249Y-8425902D02*
X12503725Y-8421140D01*
X12503725Y-8421140D02*
X12498963Y-8416378D01*
X12622772Y-8325902D02*
X12632296Y-8325902D01*
X12632296Y-8325902D02*
X12641820Y-8330664D01*
X12641820Y-8330664D02*
X12646582Y-8335426D01*
X12646582Y-8335426D02*
X12651344Y-8344949D01*
X12651344Y-8344949D02*
X12656106Y-8363997D01*
X12656106Y-8363997D02*
X12656106Y-8387807D01*
X12656106Y-8387807D02*
X12651344Y-8406854D01*
X12651344Y-8406854D02*
X12646582Y-8416378D01*
X12646582Y-8416378D02*
X12641820Y-8421140D01*
X12641820Y-8421140D02*
X12632296Y-8425902D01*
X12632296Y-8425902D02*
X12622772Y-8425902D01*
X12622772Y-8425902D02*
X12613249Y-8421140D01*
X12613249Y-8421140D02*
X12608487Y-8416378D01*
X12608487Y-8416378D02*
X12603725Y-8406854D01*
X12603725Y-8406854D02*
X12598963Y-8387807D01*
X12598963Y-8387807D02*
X12598963Y-8363997D01*
X12598963Y-8363997D02*
X12603725Y-8344949D01*
X12603725Y-8344949D02*
X12608487Y-8335426D01*
X12608487Y-8335426D02*
X12613249Y-8330664D01*
X12613249Y-8330664D02*
X12622772Y-8325902D01*
D11*
%TO.C,J12*%
X18892400Y-8209840D02*
X19030400Y-8209840D01*
X18892400Y-8347840D02*
X18892400Y-8209840D01*
X18892400Y-8474840D02*
X18892400Y-8739840D01*
X18892400Y-8474840D02*
X19168400Y-8474840D01*
X18892400Y-8739840D02*
X19168400Y-8739840D01*
X19168400Y-8474840D02*
X19168400Y-8739840D01*
%TO.C,J11*%
X17974400Y-8209840D02*
X18112400Y-8209840D01*
X17974400Y-8347840D02*
X17974400Y-8209840D01*
X17974400Y-8474840D02*
X17974400Y-9247840D01*
X17974400Y-8474840D02*
X18250400Y-8474840D01*
X17974400Y-9247840D02*
X18250400Y-9247840D01*
X18250400Y-8474840D02*
X18250400Y-9247840D01*
%TO.C,J10*%
X18433400Y-8209840D02*
X18571400Y-8209840D01*
X18433400Y-8347840D02*
X18433400Y-8209840D01*
X18433400Y-8474840D02*
X18433400Y-8739840D01*
X18433400Y-8474840D02*
X18709400Y-8474840D01*
X18433400Y-8739840D02*
X18709400Y-8739840D01*
X18709400Y-8474840D02*
X18709400Y-8739840D01*
%TO.C,J9*%
X17315400Y-8209840D02*
X17453400Y-8209840D01*
X17315400Y-8347840D02*
X17315400Y-8209840D01*
X17315400Y-8474840D02*
X17315400Y-8739840D01*
X17315400Y-8474840D02*
X17591400Y-8474840D01*
X17315400Y-8739840D02*
X17591400Y-8739840D01*
X17591400Y-8474840D02*
X17591400Y-8739840D01*
%TO.C,J8*%
X16856400Y-8209840D02*
X16994400Y-8209840D01*
X16856400Y-8347840D02*
X16856400Y-8209840D01*
X16856400Y-8474840D02*
X16856400Y-8739840D01*
X16856400Y-8474840D02*
X17132400Y-8474840D01*
X16856400Y-8739840D02*
X17132400Y-8739840D01*
X17132400Y-8474840D02*
X17132400Y-8739840D01*
%TO.C,J7*%
X16397400Y-8209840D02*
X16535400Y-8209840D01*
X16397400Y-8347840D02*
X16397400Y-8209840D01*
X16397400Y-8474840D02*
X16397400Y-9247840D01*
X16397400Y-8474840D02*
X16673400Y-8474840D01*
X16397400Y-9247840D02*
X16673400Y-9247840D01*
X16673400Y-8474840D02*
X16673400Y-9247840D01*
%TO.C,J6*%
X18892400Y-9630840D02*
X19030400Y-9630840D01*
X18892400Y-9768840D02*
X18892400Y-9630840D01*
X18892400Y-9895840D02*
X18892400Y-10160840D01*
X18892400Y-9895840D02*
X19168400Y-9895840D01*
X18892400Y-10160840D02*
X19168400Y-10160840D01*
X19168400Y-9895840D02*
X19168400Y-10160840D01*
%TO.C,J5*%
X18433400Y-9630840D02*
X18571400Y-9630840D01*
X18433400Y-9768840D02*
X18433400Y-9630840D01*
X18433400Y-9895840D02*
X18433400Y-10160840D01*
X18433400Y-9895840D02*
X18709400Y-9895840D01*
X18433400Y-10160840D02*
X18709400Y-10160840D01*
X18709400Y-9895840D02*
X18709400Y-10160840D01*
%TO.C,J4*%
X17974400Y-9630840D02*
X18112400Y-9630840D01*
X17974400Y-9768840D02*
X17974400Y-9630840D01*
X17974400Y-9895840D02*
X17974400Y-10668840D01*
X17974400Y-9895840D02*
X18250400Y-9895840D01*
X17974400Y-10668840D02*
X18250400Y-10668840D01*
X18250400Y-9895840D02*
X18250400Y-10668840D01*
%TO.C,J3*%
X17315400Y-9630840D02*
X17453400Y-9630840D01*
X17315400Y-9768840D02*
X17315400Y-9630840D01*
X17315400Y-9895840D02*
X17315400Y-10160840D01*
X17315400Y-9895840D02*
X17591400Y-9895840D01*
X17315400Y-10160840D02*
X17591400Y-10160840D01*
X17591400Y-9895840D02*
X17591400Y-10160840D01*
%TO.C,J2*%
X16856400Y-9630840D02*
X16994400Y-9630840D01*
X16856400Y-9768840D02*
X16856400Y-9630840D01*
X16856400Y-9895840D02*
X16856400Y-10160840D01*
X16856400Y-9895840D02*
X17132400Y-9895840D01*
X16856400Y-10160840D02*
X17132400Y-10160840D01*
X17132400Y-9895840D02*
X17132400Y-10160840D01*
%TO.C,J1*%
X16397400Y-9630840D02*
X16535400Y-9630840D01*
X16397400Y-9768840D02*
X16397400Y-9630840D01*
X16397400Y-9895840D02*
X16397400Y-10668840D01*
X16397400Y-9895840D02*
X16673400Y-9895840D01*
X16397400Y-10668840D02*
X16673400Y-10668840D01*
X16673400Y-9895840D02*
X16673400Y-10668840D01*
%TO.C,JP23*%
X13996910Y-8535280D02*
X13996910Y-8395280D01*
X14066910Y-8325280D02*
X14126910Y-8325280D01*
X14126910Y-8605280D02*
X14066910Y-8605280D01*
X14196910Y-8395280D02*
X14196910Y-8535280D01*
X13996910Y-8395280D02*
G75*
G02*
X14066910Y-8325280I70000J0D01*
G01*
X14066910Y-8605280D02*
G75*
G02*
X13996910Y-8535280I0J70000D01*
G01*
X14126910Y-8325280D02*
G75*
G02*
X14196910Y-8395280I0J-70000D01*
G01*
X14196910Y-8535280D02*
G75*
G02*
X14126910Y-8605280I-70000J0D01*
G01*
%TO.C,C25*%
X10787798Y-7758260D02*
X10759682Y-7758260D01*
X10787798Y-7860260D02*
X10759682Y-7860260D01*
%TO.C,R9*%
X14696534Y-8123470D02*
X14743986Y-8123470D01*
X14696534Y-8227970D02*
X14743986Y-8227970D01*
%TO.C,JP12*%
X13718970Y-11380880D02*
X13718970Y-11240880D01*
X13788970Y-11170880D02*
X13848970Y-11170880D01*
X13848970Y-11450880D02*
X13788970Y-11450880D01*
X13918970Y-11240880D02*
X13918970Y-11380880D01*
X13718970Y-11240880D02*
G75*
G02*
X13788970Y-11170880I70000J0D01*
G01*
X13788970Y-11450880D02*
G75*
G02*
X13718970Y-11380880I0J70000D01*
G01*
X13848970Y-11170880D02*
G75*
G02*
X13918970Y-11240880I0J-70000D01*
G01*
X13918970Y-11380880D02*
G75*
G02*
X13848970Y-11450880I-70000J0D01*
G01*
%TO.C,C13*%
X12716422Y-10836220D02*
X12744538Y-10836220D01*
X12716422Y-10938220D02*
X12744538Y-10938220D01*
D12*
%TO.C,U1*%
X11248620Y-11077200D02*
X11451820Y-11077200D01*
X11451820Y-10762240D02*
X11248620Y-10762240D01*
D11*
%TO.C,SW1*%
X13420720Y-9953180D02*
X13420720Y-10103180D01*
X13545720Y-10353180D02*
X13995720Y-10353180D01*
X13995720Y-9703180D02*
X13545720Y-9703180D01*
X14120720Y-10103180D02*
X14120720Y-9953180D01*
%TO.C,C31*%
X12837402Y-8149420D02*
X12865518Y-8149420D01*
X12837402Y-8251420D02*
X12865518Y-8251420D01*
%TO.C,C29*%
X11224502Y-7516960D02*
X11252618Y-7516960D01*
X11224502Y-7618960D02*
X11252618Y-7618960D01*
%TO.C,JP5*%
X10761040Y-11437740D02*
X10761040Y-11297740D01*
X10831040Y-11227740D02*
X10891040Y-11227740D01*
X10891040Y-11507740D02*
X10831040Y-11507740D01*
X10961040Y-11297740D02*
X10961040Y-11437740D01*
X10761040Y-11297740D02*
G75*
G02*
X10831040Y-11227740I70000J0D01*
G01*
X10831040Y-11507740D02*
G75*
G02*
X10761040Y-11437740I0J70000D01*
G01*
X10891040Y-11227740D02*
G75*
G02*
X10961040Y-11297740I0J-70000D01*
G01*
X10961040Y-11437740D02*
G75*
G02*
X10891040Y-11507740I-70000J0D01*
G01*
%TO.C,C21*%
X15749542Y-8645420D02*
X15777658Y-8645420D01*
X15749542Y-8747420D02*
X15777658Y-8747420D01*
%TO.C,C8*%
X13412220Y-11620642D02*
X13412220Y-11648758D01*
X13514220Y-11620642D02*
X13514220Y-11648758D01*
%TO.C,C30*%
X12837402Y-7794420D02*
X12865518Y-7794420D01*
X12837402Y-7896420D02*
X12865518Y-7896420D01*
%TO.C,JP11*%
X13363220Y-11380880D02*
X13363220Y-11240880D01*
X13433220Y-11170880D02*
X13493220Y-11170880D01*
X13493220Y-11450880D02*
X13433220Y-11450880D01*
X13563220Y-11240880D02*
X13563220Y-11380880D01*
X13363220Y-11240880D02*
G75*
G02*
X13433220Y-11170880I70000J0D01*
G01*
X13433220Y-11450880D02*
G75*
G02*
X13363220Y-11380880I0J70000D01*
G01*
X13493220Y-11170880D02*
G75*
G02*
X13563220Y-11240880I0J-70000D01*
G01*
X13563220Y-11380880D02*
G75*
G02*
X13493220Y-11450880I-70000J0D01*
G01*
%TO.C,C23*%
X14045910Y-8787742D02*
X14045910Y-8815858D01*
X14147910Y-8787742D02*
X14147910Y-8815858D01*
%TO.C,C11*%
X12716422Y-11559380D02*
X12744538Y-11559380D01*
X12716422Y-11661380D02*
X12744538Y-11661380D01*
%TO.C,C18*%
X14193122Y-7667520D02*
X14221238Y-7667520D01*
X14193122Y-7769520D02*
X14221238Y-7769520D01*
%TO.C,JP28*%
X10593060Y-8529500D02*
X10593060Y-8389500D01*
X10663060Y-8319500D02*
X10723060Y-8319500D01*
X10723060Y-8599500D02*
X10663060Y-8599500D01*
X10793060Y-8389500D02*
X10793060Y-8529500D01*
X10593060Y-8389500D02*
G75*
G02*
X10663060Y-8319500I70000J0D01*
G01*
X10663060Y-8599500D02*
G75*
G02*
X10593060Y-8529500I0J70000D01*
G01*
X10723060Y-8319500D02*
G75*
G02*
X10793060Y-8389500I0J-70000D01*
G01*
X10793060Y-8529500D02*
G75*
G02*
X10723060Y-8599500I-70000J0D01*
G01*
D12*
%TO.C,U3*%
X14209720Y-8147780D02*
X14296080Y-8147780D01*
X14222420Y-7858220D02*
X14209720Y-7858220D01*
X14283380Y-7858220D02*
X14222420Y-7858220D01*
X14296080Y-7858220D02*
X14283380Y-7858220D01*
X14283380Y-7858220D02*
G75*
G02*
X14222420Y-7858220I-30480J0D01*
G01*
D11*
%TO.C,C24*%
X14404500Y-8787742D02*
X14404500Y-8815858D01*
X14506500Y-8787742D02*
X14506500Y-8815858D01*
%TO.C,JP16*%
X14898480Y-11624160D02*
X14898480Y-11564160D01*
X14968480Y-11494160D02*
X15108480Y-11494160D01*
X15108480Y-11694160D02*
X14968480Y-11694160D01*
X15178480Y-11564160D02*
X15178480Y-11624160D01*
X14898480Y-11564160D02*
G75*
G02*
X14968480Y-11494160I70000J0D01*
G01*
X14968480Y-11694160D02*
G75*
G02*
X14898480Y-11624160I0J70000D01*
G01*
X15108480Y-11494160D02*
G75*
G02*
X15178480Y-11564160I0J-70000D01*
G01*
X15178480Y-11624160D02*
G75*
G02*
X15108480Y-11694160I-70000J0D01*
G01*
%TO.C,JP2*%
X13388220Y-10978700D02*
X13388220Y-10918700D01*
X13458220Y-10848700D02*
X13598220Y-10848700D01*
X13598220Y-11048700D02*
X13458220Y-11048700D01*
X13668220Y-10918700D02*
X13668220Y-10978700D01*
X13388220Y-10918700D02*
G75*
G02*
X13458220Y-10848700I70000J0D01*
G01*
X13458220Y-11048700D02*
G75*
G02*
X13388220Y-10978700I0J70000D01*
G01*
X13598220Y-10848700D02*
G75*
G02*
X13668220Y-10918700I0J-70000D01*
G01*
X13668220Y-10978700D02*
G75*
G02*
X13598220Y-11048700I-70000J0D01*
G01*
%TO.C,JP4*%
X10786040Y-10982220D02*
X10786040Y-10922220D01*
X10856040Y-10852220D02*
X10996040Y-10852220D01*
X10996040Y-11052220D02*
X10856040Y-11052220D01*
X11066040Y-10922220D02*
X11066040Y-10982220D01*
X10786040Y-10922220D02*
G75*
G02*
X10856040Y-10852220I70000J0D01*
G01*
X10856040Y-11052220D02*
G75*
G02*
X10786040Y-10982220I0J70000D01*
G01*
X10996040Y-10852220D02*
G75*
G02*
X11066040Y-10922220I0J-70000D01*
G01*
X11066040Y-10982220D02*
G75*
G02*
X10996040Y-11052220I-70000J0D01*
G01*
%TO.C,R12*%
X11763474Y-7995770D02*
X11810926Y-7995770D01*
X11763474Y-8100270D02*
X11810926Y-8100270D01*
%TO.C,R8*%
X14696534Y-7704370D02*
X14743986Y-7704370D01*
X14696534Y-7808870D02*
X14743986Y-7808870D01*
%TO.C,C14*%
X12716422Y-11197800D02*
X12744538Y-11197800D01*
X12716422Y-11299800D02*
X12744538Y-11299800D01*
%TO.C,C12*%
X11537160Y-11688962D02*
X11537160Y-11717078D01*
X11639160Y-11688962D02*
X11639160Y-11717078D01*
%TO.C,C10*%
X11299362Y-10577600D02*
X11327478Y-10577600D01*
X11299362Y-10679600D02*
X11327478Y-10679600D01*
%TO.C,R2*%
X14429054Y-11035110D02*
X14476506Y-11035110D01*
X14429054Y-11139610D02*
X14476506Y-11139610D01*
%TO.C,JP7*%
X11488160Y-11433700D02*
X11488160Y-11293700D01*
X11558160Y-11223700D02*
X11618160Y-11223700D01*
X11618160Y-11503700D02*
X11558160Y-11503700D01*
X11688160Y-11293700D02*
X11688160Y-11433700D01*
X11488160Y-11293700D02*
G75*
G02*
X11558160Y-11223700I70000J0D01*
G01*
X11558160Y-11503700D02*
G75*
G02*
X11488160Y-11433700I0J70000D01*
G01*
X11618160Y-11223700D02*
G75*
G02*
X11688160Y-11293700I0J-70000D01*
G01*
X11688160Y-11433700D02*
G75*
G02*
X11618160Y-11503700I-70000J0D01*
G01*
%TO.C,JP15*%
X14898480Y-11268930D02*
X14898480Y-11208930D01*
X14968480Y-11138930D02*
X15108480Y-11138930D01*
X15108480Y-11338930D02*
X14968480Y-11338930D01*
X15178480Y-11208930D02*
X15178480Y-11268930D01*
X14898480Y-11208930D02*
G75*
G02*
X14968480Y-11138930I70000J0D01*
G01*
X14968480Y-11338930D02*
G75*
G02*
X14898480Y-11268930I0J70000D01*
G01*
X15108480Y-11138930D02*
G75*
G02*
X15178480Y-11208930I0J-70000D01*
G01*
X15178480Y-11268930D02*
G75*
G02*
X15108480Y-11338930I-70000J0D01*
G01*
%TO.C,JP21*%
X15256940Y-8726420D02*
X15256940Y-8666420D01*
X15326940Y-8596420D02*
X15466940Y-8596420D01*
X15466940Y-8796420D02*
X15326940Y-8796420D01*
X15536940Y-8666420D02*
X15536940Y-8726420D01*
X15256940Y-8666420D02*
G75*
G02*
X15326940Y-8596420I70000J0D01*
G01*
X15326940Y-8796420D02*
G75*
G02*
X15256940Y-8726420I0J70000D01*
G01*
X15466940Y-8596420D02*
G75*
G02*
X15536940Y-8666420I0J-70000D01*
G01*
X15536940Y-8726420D02*
G75*
G02*
X15466940Y-8796420I-70000J0D01*
G01*
%TO.C,R10*%
X10750014Y-7599530D02*
X10797466Y-7599530D01*
X10750014Y-7704030D02*
X10797466Y-7704030D01*
%TO.C,JP22*%
X13638320Y-8535280D02*
X13638320Y-8395280D01*
X13708320Y-8325280D02*
X13768320Y-8325280D01*
X13768320Y-8605280D02*
X13708320Y-8605280D01*
X13838320Y-8395280D02*
X13838320Y-8535280D01*
X13638320Y-8395280D02*
G75*
G02*
X13708320Y-8325280I70000J0D01*
G01*
X13708320Y-8605280D02*
G75*
G02*
X13638320Y-8535280I0J70000D01*
G01*
X13768320Y-8325280D02*
G75*
G02*
X13838320Y-8395280I0J-70000D01*
G01*
X13838320Y-8535280D02*
G75*
G02*
X13768320Y-8605280I-70000J0D01*
G01*
%TO.C,C7*%
X14123720Y-11620642D02*
X14123720Y-11648758D01*
X14225720Y-11620642D02*
X14225720Y-11648758D01*
%TO.C,JP19*%
X15256940Y-7999980D02*
X15256940Y-7939980D01*
X15326940Y-7869980D02*
X15466940Y-7869980D01*
X15466940Y-8069980D02*
X15326940Y-8069980D01*
X15536940Y-7939980D02*
X15536940Y-7999980D01*
X15256940Y-7939980D02*
G75*
G02*
X15326940Y-7869980I70000J0D01*
G01*
X15326940Y-8069980D02*
G75*
G02*
X15256940Y-7999980I0J70000D01*
G01*
X15466940Y-7869980D02*
G75*
G02*
X15536940Y-7939980I0J-70000D01*
G01*
X15536940Y-7999980D02*
G75*
G02*
X15466940Y-8069980I-70000J0D01*
G01*
%TO.C,C19*%
X15749542Y-7918980D02*
X15777658Y-7918980D01*
X15749542Y-8020980D02*
X15777658Y-8020980D01*
%TO.C,C17*%
X13817378Y-7784360D02*
X13789262Y-7784360D01*
X13817378Y-7886360D02*
X13789262Y-7886360D01*
%TO.C,C16*%
X11173600Y-11688962D02*
X11173600Y-11717078D01*
X11275600Y-11688962D02*
X11275600Y-11717078D01*
%TO.C,C15*%
X10810040Y-11688962D02*
X10810040Y-11717078D01*
X10912040Y-11688962D02*
X10912040Y-11717078D01*
%TO.C,JP3*%
X11647100Y-10917220D02*
X11647100Y-10857220D01*
X11717100Y-10787220D02*
X11857100Y-10787220D01*
X11857100Y-10987220D02*
X11717100Y-10987220D01*
X11927100Y-10857220D02*
X11927100Y-10917220D01*
X11647100Y-10857220D02*
G75*
G02*
X11717100Y-10787220I70000J0D01*
G01*
X11717100Y-10987220D02*
G75*
G02*
X11647100Y-10917220I0J70000D01*
G01*
X11857100Y-10787220D02*
G75*
G02*
X11927100Y-10857220I0J-70000D01*
G01*
X11927100Y-10917220D02*
G75*
G02*
X11857100Y-10987220I-70000J0D01*
G01*
D12*
%TO.C,U4*%
X11167440Y-8033300D02*
X11370640Y-8033300D01*
X11370640Y-7718340D02*
X11167440Y-7718340D01*
D11*
%TO.C,C4*%
X13936322Y-10612180D02*
X13964438Y-10612180D01*
X13936322Y-10714180D02*
X13964438Y-10714180D01*
%TO.C,JP1*%
X14312780Y-10913700D02*
X14312780Y-10853700D01*
X14382780Y-10783700D02*
X14522780Y-10783700D01*
X14522780Y-10983700D02*
X14382780Y-10983700D01*
X14592780Y-10853700D02*
X14592780Y-10913700D01*
X14312780Y-10853700D02*
G75*
G02*
X14382780Y-10783700I70000J0D01*
G01*
X14382780Y-10983700D02*
G75*
G02*
X14312780Y-10913700I0J70000D01*
G01*
X14522780Y-10783700D02*
G75*
G02*
X14592780Y-10853700I0J-70000D01*
G01*
X14592780Y-10913700D02*
G75*
G02*
X14522780Y-10983700I-70000J0D01*
G01*
%TO.C,R4*%
X10902314Y-10540790D02*
X10949766Y-10540790D01*
X10902314Y-10645290D02*
X10949766Y-10645290D01*
%TO.C,JP32*%
X11647200Y-7874820D02*
X11647200Y-7814820D01*
X11717200Y-7744820D02*
X11857200Y-7744820D01*
X11857200Y-7944820D02*
X11717200Y-7944820D01*
X11927200Y-7814820D02*
X11927200Y-7874820D01*
X11647200Y-7814820D02*
G75*
G02*
X11717200Y-7744820I70000J0D01*
G01*
X11717200Y-7944820D02*
G75*
G02*
X11647200Y-7874820I0J70000D01*
G01*
X11857200Y-7744820D02*
G75*
G02*
X11927200Y-7814820I0J-70000D01*
G01*
X11927200Y-7874820D02*
G75*
G02*
X11857200Y-7944820I-70000J0D01*
G01*
%TO.C,JP31*%
X12351820Y-8585420D02*
X12351820Y-8525420D01*
X12421820Y-8455420D02*
X12561820Y-8455420D01*
X12561820Y-8655420D02*
X12421820Y-8655420D01*
X12631820Y-8525420D02*
X12631820Y-8585420D01*
X12351820Y-8525420D02*
G75*
G02*
X12421820Y-8455420I70000J0D01*
G01*
X12421820Y-8655420D02*
G75*
G02*
X12351820Y-8585420I0J70000D01*
G01*
X12561820Y-8455420D02*
G75*
G02*
X12631820Y-8525420I0J-70000D01*
G01*
X12631820Y-8585420D02*
G75*
G02*
X12561820Y-8655420I-70000J0D01*
G01*
%TO.C,SW4*%
X10670240Y-7022000D02*
X10670240Y-7172000D01*
X10795240Y-7422000D02*
X11245240Y-7422000D01*
X11245240Y-6772000D02*
X10795240Y-6772000D01*
X11370240Y-7172000D02*
X11370240Y-7022000D01*
D13*
%TO.C,U2*%
X13966880Y-10771200D02*
X14015880Y-10771200D01*
X14015880Y-11061200D02*
X13966880Y-11061200D01*
D14*
X13751380Y-10818700D02*
G75*
G02*
X13731380Y-10818700I-10000J0D01*
G01*
X13731380Y-10818700D02*
G75*
G02*
X13751380Y-10818700I10000J0D01*
G01*
D11*
%TO.C,JP20*%
X15256940Y-8363200D02*
X15256940Y-8303200D01*
X15326940Y-8233200D02*
X15466940Y-8233200D01*
X15466940Y-8433200D02*
X15326940Y-8433200D01*
X15536940Y-8303200D02*
X15536940Y-8363200D01*
X15256940Y-8303200D02*
G75*
G02*
X15326940Y-8233200I70000J0D01*
G01*
X15326940Y-8433200D02*
G75*
G02*
X15256940Y-8363200I0J70000D01*
G01*
X15466940Y-8233200D02*
G75*
G02*
X15536940Y-8303200I0J-70000D01*
G01*
X15536940Y-8363200D02*
G75*
G02*
X15466940Y-8433200I-70000J0D01*
G01*
%TO.C,JP29*%
X12351820Y-7875420D02*
X12351820Y-7815420D01*
X12421820Y-7745420D02*
X12561820Y-7745420D01*
X12561820Y-7945420D02*
X12421820Y-7945420D01*
X12631820Y-7815420D02*
X12631820Y-7875420D01*
X12351820Y-7815420D02*
G75*
G02*
X12421820Y-7745420I70000J0D01*
G01*
X12421820Y-7945420D02*
G75*
G02*
X12351820Y-7875420I0J70000D01*
G01*
X12561820Y-7745420D02*
G75*
G02*
X12631820Y-7815420I0J-70000D01*
G01*
X12631820Y-7875420D02*
G75*
G02*
X12561820Y-7945420I-70000J0D01*
G01*
%TO.C,C5*%
X15348042Y-11187930D02*
X15376158Y-11187930D01*
X15348042Y-11289930D02*
X15376158Y-11289930D01*
%TO.C,C9*%
X13767970Y-11620642D02*
X13767970Y-11648758D01*
X13869970Y-11620642D02*
X13869970Y-11648758D01*
%TO.C,C22*%
X13687320Y-8787742D02*
X13687320Y-8815858D01*
X13789320Y-8787742D02*
X13789320Y-8815858D01*
%TO.C,R11*%
X10797466Y-7924650D02*
X10750014Y-7924650D01*
X10797466Y-8029150D02*
X10750014Y-8029150D01*
%TO.C,C32*%
X12837402Y-8504420D02*
X12865518Y-8504420D01*
X12837402Y-8606420D02*
X12865518Y-8606420D01*
%TO.C,C6*%
X15348042Y-11543160D02*
X15376158Y-11543160D01*
X15348042Y-11645160D02*
X15376158Y-11645160D01*
%TO.C,R6*%
X11763374Y-11056410D02*
X11810826Y-11056410D01*
X11763374Y-11160910D02*
X11810826Y-11160910D01*
%TO.C,SW3*%
X13698980Y-7094640D02*
X13698980Y-7244640D01*
X13823980Y-7494640D02*
X14273980Y-7494640D01*
X14273980Y-6844640D02*
X13823980Y-6844640D01*
X14398980Y-7244640D02*
X14398980Y-7094640D01*
%TO.C,C20*%
X15749542Y-8282200D02*
X15777658Y-8282200D01*
X15749542Y-8384200D02*
X15777658Y-8384200D01*
%TO.C,C2*%
X10940098Y-10696980D02*
X10911982Y-10696980D01*
X10940098Y-10798980D02*
X10911982Y-10798980D01*
%TO.C,JP18*%
X14580260Y-7999980D02*
X14580260Y-7939980D01*
X14650260Y-7869980D02*
X14790260Y-7869980D01*
X14790260Y-8069980D02*
X14650260Y-8069980D01*
X14860260Y-7939980D02*
X14860260Y-7999980D01*
X14580260Y-7939980D02*
G75*
G02*
X14650260Y-7869980I70000J0D01*
G01*
X14650260Y-8069980D02*
G75*
G02*
X14580260Y-7999980I0J70000D01*
G01*
X14790260Y-7869980D02*
G75*
G02*
X14860260Y-7939980I0J-70000D01*
G01*
X14860260Y-7999980D02*
G75*
G02*
X14790260Y-8069980I-70000J0D01*
G01*
%TO.C,JP10*%
X12247580Y-11640380D02*
X12247580Y-11580380D01*
X12317580Y-11510380D02*
X12457580Y-11510380D01*
X12457580Y-11710380D02*
X12317580Y-11710380D01*
X12527580Y-11580380D02*
X12527580Y-11640380D01*
X12247580Y-11580380D02*
G75*
G02*
X12317580Y-11510380I70000J0D01*
G01*
X12317580Y-11710380D02*
G75*
G02*
X12247580Y-11640380I0J70000D01*
G01*
X12457580Y-11510380D02*
G75*
G02*
X12527580Y-11580380I0J-70000D01*
G01*
X12527580Y-11640380D02*
G75*
G02*
X12457580Y-11710380I-70000J0D01*
G01*
%TO.C,C1*%
X13542278Y-10698540D02*
X13514162Y-10698540D01*
X13542278Y-10800540D02*
X13514162Y-10800540D01*
%TO.C,JP6*%
X11124600Y-11433700D02*
X11124600Y-11293700D01*
X11194600Y-11223700D02*
X11254600Y-11223700D01*
X11254600Y-11503700D02*
X11194600Y-11503700D01*
X11324600Y-11293700D02*
X11324600Y-11433700D01*
X11124600Y-11293700D02*
G75*
G02*
X11194600Y-11223700I70000J0D01*
G01*
X11194600Y-11503700D02*
G75*
G02*
X11124600Y-11433700I0J70000D01*
G01*
X11254600Y-11223700D02*
G75*
G02*
X11324600Y-11293700I0J-70000D01*
G01*
X11324600Y-11433700D02*
G75*
G02*
X11254600Y-11503700I-70000J0D01*
G01*
%TO.C,JP9*%
X12247580Y-11278800D02*
X12247580Y-11218800D01*
X12317580Y-11148800D02*
X12457580Y-11148800D01*
X12457580Y-11348800D02*
X12317580Y-11348800D01*
X12527580Y-11218800D02*
X12527580Y-11278800D01*
X12247580Y-11218800D02*
G75*
G02*
X12317580Y-11148800I70000J0D01*
G01*
X12317580Y-11348800D02*
G75*
G02*
X12247580Y-11278800I0J70000D01*
G01*
X12457580Y-11148800D02*
G75*
G02*
X12527580Y-11218800I0J-70000D01*
G01*
X12527580Y-11278800D02*
G75*
G02*
X12457580Y-11348800I-70000J0D01*
G01*
%TO.C,R5*%
X11763374Y-10634770D02*
X11810826Y-10634770D01*
X11763374Y-10739270D02*
X11810826Y-10739270D01*
%TO.C,R7*%
X13779594Y-7607850D02*
X13827046Y-7607850D01*
X13779594Y-7712350D02*
X13827046Y-7712350D01*
%TO.C,JP14*%
X14898480Y-10913700D02*
X14898480Y-10853700D01*
X14968480Y-10783700D02*
X15108480Y-10783700D01*
X15108480Y-10983700D02*
X14968480Y-10983700D01*
X15178480Y-10853700D02*
X15178480Y-10913700D01*
X14898480Y-10853700D02*
G75*
G02*
X14968480Y-10783700I70000J0D01*
G01*
X14968480Y-10983700D02*
G75*
G02*
X14898480Y-10913700I0J70000D01*
G01*
X15108480Y-10783700D02*
G75*
G02*
X15178480Y-10853700I0J-70000D01*
G01*
X15178480Y-10913700D02*
G75*
G02*
X15108480Y-10983700I-70000J0D01*
G01*
%TO.C,SW2*%
X10764120Y-9922620D02*
X10764120Y-10072620D01*
X10889120Y-10322620D02*
X11339120Y-10322620D01*
X11339120Y-9672620D02*
X10889120Y-9672620D01*
X11464120Y-10072620D02*
X11464120Y-9922620D01*
%TO.C,JP8*%
X12247580Y-10917220D02*
X12247580Y-10857220D01*
X12317580Y-10787220D02*
X12457580Y-10787220D01*
X12457580Y-10987220D02*
X12317580Y-10987220D01*
X12527580Y-10857220D02*
X12527580Y-10917220D01*
X12247580Y-10857220D02*
G75*
G02*
X12317580Y-10787220I70000J0D01*
G01*
X12317580Y-10987220D02*
G75*
G02*
X12247580Y-10917220I0J70000D01*
G01*
X12457580Y-10787220D02*
G75*
G02*
X12527580Y-10857220I0J-70000D01*
G01*
X12527580Y-10917220D02*
G75*
G02*
X12457580Y-10987220I-70000J0D01*
G01*
%TO.C,JP17*%
X13663320Y-8068560D02*
X13663320Y-8008560D01*
X13733320Y-7938560D02*
X13873320Y-7938560D01*
X13873320Y-8138560D02*
X13733320Y-8138560D01*
X13943320Y-8008560D02*
X13943320Y-8068560D01*
X13663320Y-8008560D02*
G75*
G02*
X13733320Y-7938560I70000J0D01*
G01*
X13733320Y-8138560D02*
G75*
G02*
X13663320Y-8068560I0J70000D01*
G01*
X13873320Y-7938560D02*
G75*
G02*
X13943320Y-8008560I0J-70000D01*
G01*
X13943320Y-8068560D02*
G75*
G02*
X13873320Y-8138560I-70000J0D01*
G01*
%TO.C,R1*%
X13504494Y-10567750D02*
X13551946Y-10567750D01*
X13504494Y-10672250D02*
X13551946Y-10672250D01*
%TO.C,JP24*%
X14355500Y-8535280D02*
X14355500Y-8395280D01*
X14425500Y-8325280D02*
X14485500Y-8325280D01*
X14485500Y-8605280D02*
X14425500Y-8605280D01*
X14555500Y-8395280D02*
X14555500Y-8535280D01*
X14355500Y-8395280D02*
G75*
G02*
X14425500Y-8325280I70000J0D01*
G01*
X14425500Y-8605280D02*
G75*
G02*
X14355500Y-8535280I0J70000D01*
G01*
X14485500Y-8325280D02*
G75*
G02*
X14555500Y-8395280I0J-70000D01*
G01*
X14555500Y-8535280D02*
G75*
G02*
X14485500Y-8605280I-70000J0D01*
G01*
%TO.C,C3*%
X15348042Y-10832700D02*
X15376158Y-10832700D01*
X15348042Y-10934700D02*
X15376158Y-10934700D01*
%TO.C,R3*%
X14429054Y-10628710D02*
X14476506Y-10628710D01*
X14429054Y-10733210D02*
X14476506Y-10733210D01*
%TO.C,JP13*%
X14074720Y-11380880D02*
X14074720Y-11240880D01*
X14144720Y-11170880D02*
X14204720Y-11170880D01*
X14204720Y-11450880D02*
X14144720Y-11450880D01*
X14274720Y-11240880D02*
X14274720Y-11380880D01*
X14074720Y-11240880D02*
G75*
G02*
X14144720Y-11170880I70000J0D01*
G01*
X14144720Y-11450880D02*
G75*
G02*
X14074720Y-11380880I0J70000D01*
G01*
X14204720Y-11170880D02*
G75*
G02*
X14274720Y-11240880I0J-70000D01*
G01*
X14274720Y-11380880D02*
G75*
G02*
X14204720Y-11450880I-70000J0D01*
G01*
%TO.C,JP30*%
X12351820Y-8230420D02*
X12351820Y-8170420D01*
X12421820Y-8100420D02*
X12561820Y-8100420D01*
X12561820Y-8300420D02*
X12421820Y-8300420D01*
X12631820Y-8170420D02*
X12631820Y-8230420D01*
X12351820Y-8170420D02*
G75*
G02*
X12421820Y-8100420I70000J0D01*
G01*
X12421820Y-8300420D02*
G75*
G02*
X12351820Y-8230420I0J70000D01*
G01*
X12561820Y-8100420D02*
G75*
G02*
X12631820Y-8170420I0J-70000D01*
G01*
X12631820Y-8230420D02*
G75*
G02*
X12561820Y-8300420I-70000J0D01*
G01*
%TD*%
M02*
