%TF.GenerationSoftware,KiCad,Pcbnew,9.0.1*%
%TF.CreationDate,2025-04-24T13:25:23+07:00*%
%TF.ProjectId,push-button-controller,70757368-2d62-4757-9474-6f6e2d636f6e,rev?*%
%TF.SameCoordinates,Original*%
%TF.FileFunction,Soldermask,Top*%
%TF.FilePolarity,Negative*%
%FSLAX45Y45*%
G04 Gerber Fmt 4.5, Leading zero omitted, Abs format (unit mm)*
G04 Created by KiCad (PCBNEW 9.0.1) date 2025-04-24 13:25:23*
%MOMM*%
%LPD*%
G01*
G04 APERTURE LIST*
G04 Aperture macros list*
%AMRoundRect*
0 Rectangle with rounded corners*
0 $1 Rounding radius*
0 $2 $3 $4 $5 $6 $7 $8 $9 X,Y pos of 4 corners*
0 Add a 4 corners polygon primitive as box body*
4,1,4,$2,$3,$4,$5,$6,$7,$8,$9,$2,$3,0*
0 Add four circle primitives for the rounded corners*
1,1,$1+$1,$2,$3*
1,1,$1+$1,$4,$5*
1,1,$1+$1,$6,$7*
1,1,$1+$1,$8,$9*
0 Add four rect primitives between the rounded corners*
20,1,$1+$1,$2,$3,$4,$5,0*
20,1,$1+$1,$4,$5,$6,$7,0*
20,1,$1+$1,$6,$7,$8,$9,0*
20,1,$1+$1,$8,$9,$2,$3,0*%
%AMFreePoly0*
4,1,23,0.500000,-0.750000,0.000000,-0.750000,0.000000,-0.745722,-0.065263,-0.745722,-0.191342,-0.711940,-0.304381,-0.646677,-0.396677,-0.554381,-0.461940,-0.441342,-0.495722,-0.315263,-0.495722,-0.250000,-0.500000,-0.250000,-0.500000,0.250000,-0.495722,0.250000,-0.495722,0.315263,-0.461940,0.441342,-0.396677,0.554381,-0.304381,0.646677,-0.191342,0.711940,-0.065263,0.745722,0.000000,0.745722,
0.000000,0.750000,0.500000,0.750000,0.500000,-0.750000,0.500000,-0.750000,$1*%
%AMFreePoly1*
4,1,23,0.000000,0.745722,0.065263,0.745722,0.191342,0.711940,0.304381,0.646677,0.396677,0.554381,0.461940,0.441342,0.495722,0.315263,0.495722,0.250000,0.500000,0.250000,0.500000,-0.250000,0.495722,-0.250000,0.495722,-0.315263,0.461940,-0.441342,0.396677,-0.554381,0.304381,-0.646677,0.191342,-0.711940,0.065263,-0.745722,0.000000,-0.745722,0.000000,-0.750000,-0.500000,-0.750000,
-0.500000,0.750000,0.000000,0.750000,0.000000,0.745722,0.000000,0.745722,$1*%
G04 Aperture macros list end*
%ADD10R,1.700000X1.700000*%
%ADD11C,1.700000*%
%ADD12FreePoly0,90.000000*%
%ADD13FreePoly1,90.000000*%
%ADD14RoundRect,0.225000X0.225000X0.250000X-0.225000X0.250000X-0.225000X-0.250000X0.225000X-0.250000X0*%
%ADD15RoundRect,0.200000X-0.200000X-0.275000X0.200000X-0.275000X0.200000X0.275000X-0.200000X0.275000X0*%
%ADD16RoundRect,0.225000X-0.225000X-0.250000X0.225000X-0.250000X0.225000X0.250000X-0.225000X0.250000X0*%
%ADD17RoundRect,0.102000X-0.609600X-0.203200X0.609600X-0.203200X0.609600X0.203200X-0.609600X0.203200X0*%
%ADD18C,2.000000*%
%ADD19RoundRect,0.225000X-0.250000X0.225000X-0.250000X-0.225000X0.250000X-0.225000X0.250000X0.225000X0*%
%ADD20FreePoly0,270.000000*%
%ADD21FreePoly1,270.000000*%
%ADD22FreePoly0,180.000000*%
%ADD23FreePoly1,180.000000*%
%ADD24FreePoly0,0.000000*%
%ADD25FreePoly1,0.000000*%
%ADD26RoundRect,0.102000X0.609600X0.203200X-0.609600X0.203200X-0.609600X-0.203200X0.609600X-0.203200X0*%
%ADD27RoundRect,0.083000X-0.639000X-0.249000X0.639000X-0.249000X0.639000X0.249000X-0.639000X0.249000X0*%
%ADD28RoundRect,0.200000X0.200000X0.275000X-0.200000X0.275000X-0.200000X-0.275000X0.200000X-0.275000X0*%
G04 APERTURE END LIST*
%TO.C,JP23*%
G36*
X14021910Y-8480280D02*
G01*
X14171910Y-8480280D01*
X14171910Y-8450280D01*
X14021910Y-8450280D01*
X14021910Y-8480280D01*
G37*
%TO.C,JP12*%
G36*
X13743970Y-11325880D02*
G01*
X13893970Y-11325880D01*
X13893970Y-11295880D01*
X13743970Y-11295880D01*
X13743970Y-11325880D01*
G37*
%TO.C,JP5*%
G36*
X10786040Y-11382740D02*
G01*
X10936040Y-11382740D01*
X10936040Y-11352740D01*
X10786040Y-11352740D01*
X10786040Y-11382740D01*
G37*
%TO.C,JP11*%
G36*
X13388220Y-11325880D02*
G01*
X13538220Y-11325880D01*
X13538220Y-11295880D01*
X13388220Y-11295880D01*
X13388220Y-11325880D01*
G37*
%TO.C,JP28*%
G36*
X10768060Y-8444500D02*
G01*
X10618060Y-8444500D01*
X10618060Y-8474500D01*
X10768060Y-8474500D01*
X10768060Y-8444500D01*
G37*
%TO.C,JP16*%
G36*
X15053480Y-11669160D02*
G01*
X15023480Y-11669160D01*
X15023480Y-11519160D01*
X15053480Y-11519160D01*
X15053480Y-11669160D01*
G37*
%TO.C,JP2*%
G36*
X13513220Y-10873700D02*
G01*
X13543220Y-10873700D01*
X13543220Y-11023700D01*
X13513220Y-11023700D01*
X13513220Y-10873700D01*
G37*
%TO.C,JP4*%
G36*
X10911040Y-10877220D02*
G01*
X10941040Y-10877220D01*
X10941040Y-11027220D01*
X10911040Y-11027220D01*
X10911040Y-10877220D01*
G37*
%TO.C,JP7*%
G36*
X11513160Y-11378700D02*
G01*
X11663160Y-11378700D01*
X11663160Y-11348700D01*
X11513160Y-11348700D01*
X11513160Y-11378700D01*
G37*
%TO.C,JP15*%
G36*
X15053480Y-11313930D02*
G01*
X15023480Y-11313930D01*
X15023480Y-11163930D01*
X15053480Y-11163930D01*
X15053480Y-11313930D01*
G37*
%TO.C,JP21*%
G36*
X15411940Y-8771420D02*
G01*
X15381940Y-8771420D01*
X15381940Y-8621420D01*
X15411940Y-8621420D01*
X15411940Y-8771420D01*
G37*
%TO.C,JP22*%
G36*
X13663320Y-8480280D02*
G01*
X13813320Y-8480280D01*
X13813320Y-8450280D01*
X13663320Y-8450280D01*
X13663320Y-8480280D01*
G37*
%TO.C,JP19*%
G36*
X15411940Y-8044980D02*
G01*
X15381940Y-8044980D01*
X15381940Y-7894980D01*
X15411940Y-7894980D01*
X15411940Y-8044980D01*
G37*
%TO.C,JP3*%
G36*
X11802100Y-10962220D02*
G01*
X11772100Y-10962220D01*
X11772100Y-10812220D01*
X11802100Y-10812220D01*
X11802100Y-10962220D01*
G37*
%TO.C,JP1*%
G36*
X14467780Y-10958700D02*
G01*
X14437780Y-10958700D01*
X14437780Y-10808700D01*
X14467780Y-10808700D01*
X14467780Y-10958700D01*
G37*
%TO.C,JP32*%
G36*
X11802200Y-7919820D02*
G01*
X11772200Y-7919820D01*
X11772200Y-7769820D01*
X11802200Y-7769820D01*
X11802200Y-7919820D01*
G37*
%TO.C,JP31*%
G36*
X12506820Y-8630420D02*
G01*
X12476820Y-8630420D01*
X12476820Y-8480420D01*
X12506820Y-8480420D01*
X12506820Y-8630420D01*
G37*
%TO.C,JP20*%
G36*
X15411940Y-8408200D02*
G01*
X15381940Y-8408200D01*
X15381940Y-8258200D01*
X15411940Y-8258200D01*
X15411940Y-8408200D01*
G37*
%TO.C,JP29*%
G36*
X12506820Y-7920420D02*
G01*
X12476820Y-7920420D01*
X12476820Y-7770420D01*
X12506820Y-7770420D01*
X12506820Y-7920420D01*
G37*
%TO.C,JP18*%
G36*
X14735260Y-8044980D02*
G01*
X14705260Y-8044980D01*
X14705260Y-7894980D01*
X14735260Y-7894980D01*
X14735260Y-8044980D01*
G37*
%TO.C,JP10*%
G36*
X12402580Y-11685380D02*
G01*
X12372580Y-11685380D01*
X12372580Y-11535380D01*
X12402580Y-11535380D01*
X12402580Y-11685380D01*
G37*
%TO.C,JP6*%
G36*
X11149600Y-11378700D02*
G01*
X11299600Y-11378700D01*
X11299600Y-11348700D01*
X11149600Y-11348700D01*
X11149600Y-11378700D01*
G37*
%TO.C,JP9*%
G36*
X12402580Y-11323800D02*
G01*
X12372580Y-11323800D01*
X12372580Y-11173800D01*
X12402580Y-11173800D01*
X12402580Y-11323800D01*
G37*
%TO.C,JP14*%
G36*
X15053480Y-10958700D02*
G01*
X15023480Y-10958700D01*
X15023480Y-10808700D01*
X15053480Y-10808700D01*
X15053480Y-10958700D01*
G37*
%TO.C,JP8*%
G36*
X12402580Y-10962220D02*
G01*
X12372580Y-10962220D01*
X12372580Y-10812220D01*
X12402580Y-10812220D01*
X12402580Y-10962220D01*
G37*
%TO.C,JP17*%
G36*
X13788320Y-7963560D02*
G01*
X13818320Y-7963560D01*
X13818320Y-8113560D01*
X13788320Y-8113560D01*
X13788320Y-7963560D01*
G37*
%TO.C,JP24*%
G36*
X14380500Y-8480280D02*
G01*
X14530500Y-8480280D01*
X14530500Y-8450280D01*
X14380500Y-8450280D01*
X14380500Y-8480280D01*
G37*
%TO.C,JP13*%
G36*
X14099720Y-11325880D02*
G01*
X14249720Y-11325880D01*
X14249720Y-11295880D01*
X14099720Y-11295880D01*
X14099720Y-11325880D01*
G37*
%TO.C,JP30*%
G36*
X12506820Y-8275420D02*
G01*
X12476820Y-8275420D01*
X12476820Y-8125420D01*
X12506820Y-8125420D01*
X12506820Y-8275420D01*
G37*
%TD*%
D10*
%TO.C,J12*%
X19030400Y-8347840D03*
D11*
X19030400Y-8601840D03*
%TD*%
D10*
%TO.C,J11*%
X18112400Y-8347840D03*
D11*
X18112400Y-8601840D03*
X18112400Y-8855840D03*
X18112400Y-9109840D03*
%TD*%
D10*
%TO.C,J10*%
X18571400Y-8347840D03*
D11*
X18571400Y-8601840D03*
%TD*%
D10*
%TO.C,J9*%
X17453400Y-8347840D03*
D11*
X17453400Y-8601840D03*
%TD*%
D10*
%TO.C,J8*%
X16994400Y-8347840D03*
D11*
X16994400Y-8601840D03*
%TD*%
D10*
%TO.C,J7*%
X16535400Y-8347840D03*
D11*
X16535400Y-8601840D03*
X16535400Y-8855840D03*
X16535400Y-9109840D03*
%TD*%
D10*
%TO.C,J6*%
X19030400Y-9768840D03*
D11*
X19030400Y-10022840D03*
%TD*%
D10*
%TO.C,J5*%
X18571400Y-9768840D03*
D11*
X18571400Y-10022840D03*
%TD*%
D10*
%TO.C,J4*%
X18112400Y-9768840D03*
D11*
X18112400Y-10022840D03*
X18112400Y-10276840D03*
X18112400Y-10530840D03*
%TD*%
D10*
%TO.C,J3*%
X17453400Y-9768840D03*
D11*
X17453400Y-10022840D03*
%TD*%
D10*
%TO.C,J2*%
X16994400Y-9768840D03*
D11*
X16994400Y-10022840D03*
%TD*%
D10*
%TO.C,J1*%
X16535400Y-9768840D03*
D11*
X16535400Y-10022840D03*
X16535400Y-10276840D03*
X16535400Y-10530840D03*
%TD*%
D12*
%TO.C,JP23*%
X14096910Y-8530280D03*
D13*
X14096910Y-8400280D03*
%TD*%
D14*
%TO.C,C25*%
X10851240Y-7809260D03*
X10696240Y-7809260D03*
%TD*%
D15*
%TO.C,R9*%
X14637760Y-8175720D03*
X14802760Y-8175720D03*
%TD*%
D12*
%TO.C,JP12*%
X13818970Y-11375880D03*
D13*
X13818970Y-11245880D03*
%TD*%
D16*
%TO.C,C13*%
X12652980Y-10887220D03*
X12807980Y-10887220D03*
%TD*%
D17*
%TO.C,U1*%
X11235920Y-10822220D03*
X11235920Y-10887220D03*
X11235920Y-10952220D03*
X11235920Y-11017220D03*
X11464520Y-11017220D03*
X11464520Y-10952220D03*
X11464520Y-10887220D03*
X11464520Y-10822220D03*
%TD*%
D18*
%TO.C,SW1*%
X13445720Y-9803180D03*
X14095720Y-9803180D03*
X13445720Y-10253180D03*
X14095720Y-10253180D03*
%TD*%
D16*
%TO.C,C31*%
X12773960Y-8200420D03*
X12928960Y-8200420D03*
%TD*%
%TO.C,C29*%
X11161060Y-7567960D03*
X11316060Y-7567960D03*
%TD*%
D12*
%TO.C,JP5*%
X10861040Y-11432740D03*
D13*
X10861040Y-11302740D03*
%TD*%
D16*
%TO.C,C21*%
X15686100Y-8696420D03*
X15841100Y-8696420D03*
%TD*%
D19*
%TO.C,C8*%
X13463220Y-11557200D03*
X13463220Y-11712200D03*
%TD*%
D16*
%TO.C,C30*%
X12773960Y-7845420D03*
X12928960Y-7845420D03*
%TD*%
D12*
%TO.C,JP11*%
X13463220Y-11375880D03*
D13*
X13463220Y-11245880D03*
%TD*%
D19*
%TO.C,C23*%
X14096910Y-8724300D03*
X14096910Y-8879300D03*
%TD*%
D16*
%TO.C,C11*%
X12652980Y-11610380D03*
X12807980Y-11610380D03*
%TD*%
%TO.C,C18*%
X14129680Y-7718520D03*
X14284680Y-7718520D03*
%TD*%
D20*
%TO.C,JP28*%
X10693060Y-8394500D03*
D21*
X10693060Y-8524500D03*
%TD*%
D17*
%TO.C,U3*%
X14130980Y-7906480D03*
X14130980Y-7969980D03*
X14130980Y-8036020D03*
X14130980Y-8099520D03*
X14374820Y-8099520D03*
X14374820Y-8036020D03*
X14374820Y-7969980D03*
X14374820Y-7906480D03*
%TD*%
D19*
%TO.C,C24*%
X14455500Y-8724300D03*
X14455500Y-8879300D03*
%TD*%
D22*
%TO.C,JP16*%
X15103480Y-11594160D03*
D23*
X14973480Y-11594160D03*
%TD*%
D24*
%TO.C,JP2*%
X13463220Y-10948700D03*
D25*
X13593220Y-10948700D03*
%TD*%
D24*
%TO.C,JP4*%
X10861040Y-10952220D03*
D25*
X10991040Y-10952220D03*
%TD*%
D15*
%TO.C,R12*%
X11704700Y-8048020D03*
X11869700Y-8048020D03*
%TD*%
%TO.C,R8*%
X14637760Y-7756620D03*
X14802760Y-7756620D03*
%TD*%
D16*
%TO.C,C14*%
X12652980Y-11248800D03*
X12807980Y-11248800D03*
%TD*%
D19*
%TO.C,C12*%
X11588160Y-11625520D03*
X11588160Y-11780520D03*
%TD*%
D16*
%TO.C,C10*%
X11235920Y-10628600D03*
X11390920Y-10628600D03*
%TD*%
D15*
%TO.C,R2*%
X14370280Y-11087360D03*
X14535280Y-11087360D03*
%TD*%
D12*
%TO.C,JP7*%
X11588160Y-11428700D03*
D13*
X11588160Y-11298700D03*
%TD*%
D22*
%TO.C,JP15*%
X15103480Y-11238930D03*
D23*
X14973480Y-11238930D03*
%TD*%
D22*
%TO.C,JP21*%
X15461940Y-8696420D03*
D23*
X15331940Y-8696420D03*
%TD*%
D15*
%TO.C,R10*%
X10691240Y-7651780D03*
X10856240Y-7651780D03*
%TD*%
D12*
%TO.C,JP22*%
X13738320Y-8530280D03*
D13*
X13738320Y-8400280D03*
%TD*%
D19*
%TO.C,C7*%
X14174720Y-11557200D03*
X14174720Y-11712200D03*
%TD*%
D22*
%TO.C,JP19*%
X15461940Y-7969980D03*
D23*
X15331940Y-7969980D03*
%TD*%
D16*
%TO.C,C19*%
X15686100Y-7969980D03*
X15841100Y-7969980D03*
%TD*%
D14*
%TO.C,C17*%
X13880820Y-7835360D03*
X13725820Y-7835360D03*
%TD*%
D19*
%TO.C,C16*%
X11224600Y-11625520D03*
X11224600Y-11780520D03*
%TD*%
%TO.C,C15*%
X10861040Y-11625520D03*
X10861040Y-11780520D03*
%TD*%
D22*
%TO.C,JP3*%
X11852100Y-10887220D03*
D23*
X11722100Y-10887220D03*
%TD*%
D26*
%TO.C,U4*%
X11383340Y-7973320D03*
X11383340Y-7908320D03*
X11383340Y-7843320D03*
X11383340Y-7778320D03*
X11154740Y-7778320D03*
X11154740Y-7843320D03*
X11154740Y-7908320D03*
X11154740Y-7973320D03*
%TD*%
D16*
%TO.C,C4*%
X13872880Y-10663180D03*
X14027880Y-10663180D03*
%TD*%
D22*
%TO.C,JP1*%
X14517780Y-10883700D03*
D23*
X14387780Y-10883700D03*
%TD*%
D15*
%TO.C,R4*%
X10843540Y-10593040D03*
X11008540Y-10593040D03*
%TD*%
D22*
%TO.C,JP32*%
X11852200Y-7844820D03*
D23*
X11722200Y-7844820D03*
%TD*%
D22*
%TO.C,JP31*%
X12556820Y-8555420D03*
D23*
X12426820Y-8555420D03*
%TD*%
D18*
%TO.C,SW4*%
X10695240Y-6872000D03*
X11345240Y-6872000D03*
X10695240Y-7322000D03*
X11345240Y-7322000D03*
%TD*%
D27*
%TO.C,U2*%
X13872880Y-10818700D03*
X13872880Y-10883700D03*
X13872880Y-10948700D03*
X13872880Y-11013700D03*
X14109880Y-11013700D03*
X14109880Y-10948700D03*
X14109880Y-10883700D03*
X14109880Y-10818700D03*
%TD*%
D22*
%TO.C,JP20*%
X15461940Y-8333200D03*
D23*
X15331940Y-8333200D03*
%TD*%
D22*
%TO.C,JP29*%
X12556820Y-7845420D03*
D23*
X12426820Y-7845420D03*
%TD*%
D16*
%TO.C,C5*%
X15284600Y-11238930D03*
X15439600Y-11238930D03*
%TD*%
D19*
%TO.C,C9*%
X13818970Y-11557200D03*
X13818970Y-11712200D03*
%TD*%
%TO.C,C22*%
X13738320Y-8724300D03*
X13738320Y-8879300D03*
%TD*%
D28*
%TO.C,R11*%
X10856240Y-7976900D03*
X10691240Y-7976900D03*
%TD*%
D16*
%TO.C,C32*%
X12773960Y-8555420D03*
X12928960Y-8555420D03*
%TD*%
%TO.C,C6*%
X15284600Y-11594160D03*
X15439600Y-11594160D03*
%TD*%
D15*
%TO.C,R6*%
X11704600Y-11108660D03*
X11869600Y-11108660D03*
%TD*%
D18*
%TO.C,SW3*%
X13723980Y-6944640D03*
X14373980Y-6944640D03*
X13723980Y-7394640D03*
X14373980Y-7394640D03*
%TD*%
D16*
%TO.C,C20*%
X15686100Y-8333200D03*
X15841100Y-8333200D03*
%TD*%
D14*
%TO.C,C2*%
X11003540Y-10747980D03*
X10848540Y-10747980D03*
%TD*%
D22*
%TO.C,JP18*%
X14785260Y-7969980D03*
D23*
X14655260Y-7969980D03*
%TD*%
D22*
%TO.C,JP10*%
X12452580Y-11610380D03*
D23*
X12322580Y-11610380D03*
%TD*%
D14*
%TO.C,C1*%
X13605720Y-10749540D03*
X13450720Y-10749540D03*
%TD*%
D12*
%TO.C,JP6*%
X11224600Y-11428700D03*
D13*
X11224600Y-11298700D03*
%TD*%
D22*
%TO.C,JP9*%
X12452580Y-11248800D03*
D23*
X12322580Y-11248800D03*
%TD*%
D15*
%TO.C,R5*%
X11704600Y-10687020D03*
X11869600Y-10687020D03*
%TD*%
%TO.C,R7*%
X13720820Y-7660100D03*
X13885820Y-7660100D03*
%TD*%
D22*
%TO.C,JP14*%
X15103480Y-10883700D03*
D23*
X14973480Y-10883700D03*
%TD*%
D18*
%TO.C,SW2*%
X10789120Y-9772620D03*
X11439120Y-9772620D03*
X10789120Y-10222620D03*
X11439120Y-10222620D03*
%TD*%
D22*
%TO.C,JP8*%
X12452580Y-10887220D03*
D23*
X12322580Y-10887220D03*
%TD*%
D24*
%TO.C,JP17*%
X13738320Y-8038560D03*
D25*
X13868320Y-8038560D03*
%TD*%
D15*
%TO.C,R1*%
X13445720Y-10620000D03*
X13610720Y-10620000D03*
%TD*%
D12*
%TO.C,JP24*%
X14455500Y-8530280D03*
D13*
X14455500Y-8400280D03*
%TD*%
D16*
%TO.C,C3*%
X15284600Y-10883700D03*
X15439600Y-10883700D03*
%TD*%
D15*
%TO.C,R3*%
X14370280Y-10680960D03*
X14535280Y-10680960D03*
%TD*%
D12*
%TO.C,JP13*%
X14174720Y-11375880D03*
D13*
X14174720Y-11245880D03*
%TD*%
D22*
%TO.C,JP30*%
X12556820Y-8200420D03*
D23*
X12426820Y-8200420D03*
%TD*%
M02*
