%TF.GenerationSoftware,KiCad,Pcbnew,9.0.1*%
%TF.CreationDate,2025-05-02T17:03:06+07:00*%
%TF.ProjectId,push-button-controller,70757368-2d62-4757-9474-6f6e2d636f6e,rev?*%
%TF.SameCoordinates,Original*%
%TF.FileFunction,Legend,Top*%
%TF.FilePolarity,Positive*%
%FSLAX45Y45*%
G04 Gerber Fmt 4.5, Leading zero omitted, Abs format (unit mm)*
G04 Created by KiCad (PCBNEW 9.0.1) date 2025-05-02 17:03:06*
%MOMM*%
%LPD*%
G01*
G04 APERTURE LIST*
%ADD10C,0.200000*%
%ADD11C,0.300000*%
%ADD12C,0.250000*%
%ADD13C,0.150000*%
%ADD14C,0.120000*%
%ADD15C,0.152400*%
%ADD16C,0.127000*%
G04 APERTURE END LIST*
D10*
X15770044Y-9314790D02*
X15731949Y-9314790D01*
X15731949Y-9314790D02*
X15728140Y-9352885D01*
X15728140Y-9352885D02*
X15731949Y-9349075D01*
X15731949Y-9349075D02*
X15739568Y-9345266D01*
X15739568Y-9345266D02*
X15758616Y-9345266D01*
X15758616Y-9345266D02*
X15766235Y-9349075D01*
X15766235Y-9349075D02*
X15770044Y-9352885D01*
X15770044Y-9352885D02*
X15773854Y-9360504D01*
X15773854Y-9360504D02*
X15773854Y-9379551D01*
X15773854Y-9379551D02*
X15770044Y-9387170D01*
X15770044Y-9387170D02*
X15766235Y-9390980D01*
X15766235Y-9390980D02*
X15758616Y-9394790D01*
X15758616Y-9394790D02*
X15739568Y-9394790D01*
X15739568Y-9394790D02*
X15731949Y-9390980D01*
X15731949Y-9390980D02*
X15728140Y-9387170D01*
X15804330Y-9390980D02*
X15811949Y-9394790D01*
X15811949Y-9394790D02*
X15827187Y-9394790D01*
X15827187Y-9394790D02*
X15834806Y-9390980D01*
X15834806Y-9390980D02*
X15838616Y-9383361D01*
X15838616Y-9383361D02*
X15838616Y-9379551D01*
X15838616Y-9379551D02*
X15834806Y-9371932D01*
X15834806Y-9371932D02*
X15827187Y-9368123D01*
X15827187Y-9368123D02*
X15815759Y-9368123D01*
X15815759Y-9368123D02*
X15808140Y-9364313D01*
X15808140Y-9364313D02*
X15804330Y-9356694D01*
X15804330Y-9356694D02*
X15804330Y-9352885D01*
X15804330Y-9352885D02*
X15808140Y-9345266D01*
X15808140Y-9345266D02*
X15815759Y-9341456D01*
X15815759Y-9341456D02*
X15827187Y-9341456D01*
X15827187Y-9341456D02*
X15834806Y-9345266D01*
X12281350Y-7184999D02*
X12273731Y-7181189D01*
X12273731Y-7181189D02*
X12262302Y-7181189D01*
X12262302Y-7181189D02*
X12250874Y-7184999D01*
X12250874Y-7184999D02*
X12243255Y-7192618D01*
X12243255Y-7192618D02*
X12239445Y-7200237D01*
X12239445Y-7200237D02*
X12235636Y-7215475D01*
X12235636Y-7215475D02*
X12235636Y-7226904D01*
X12235636Y-7226904D02*
X12239445Y-7242142D01*
X12239445Y-7242142D02*
X12243255Y-7249761D01*
X12243255Y-7249761D02*
X12250874Y-7257380D01*
X12250874Y-7257380D02*
X12262302Y-7261189D01*
X12262302Y-7261189D02*
X12269922Y-7261189D01*
X12269922Y-7261189D02*
X12281350Y-7257380D01*
X12281350Y-7257380D02*
X12285160Y-7253570D01*
X12285160Y-7253570D02*
X12285160Y-7226904D01*
X12285160Y-7226904D02*
X12269922Y-7226904D01*
X12319445Y-7261189D02*
X12319445Y-7181189D01*
X12319445Y-7181189D02*
X12365160Y-7261189D01*
X12365160Y-7261189D02*
X12365160Y-7181189D01*
X12403255Y-7261189D02*
X12403255Y-7181189D01*
X12403255Y-7181189D02*
X12422302Y-7181189D01*
X12422302Y-7181189D02*
X12433731Y-7184999D01*
X12433731Y-7184999D02*
X12441350Y-7192618D01*
X12441350Y-7192618D02*
X12445160Y-7200237D01*
X12445160Y-7200237D02*
X12448969Y-7215475D01*
X12448969Y-7215475D02*
X12448969Y-7226904D01*
X12448969Y-7226904D02*
X12445160Y-7242142D01*
X12445160Y-7242142D02*
X12441350Y-7249761D01*
X12441350Y-7249761D02*
X12433731Y-7257380D01*
X12433731Y-7257380D02*
X12422302Y-7261189D01*
X12422302Y-7261189D02*
X12403255Y-7261189D01*
X14544649Y-13218450D02*
X14544649Y-13168926D01*
X14544649Y-13168926D02*
X14575126Y-13195593D01*
X14575126Y-13195593D02*
X14575126Y-13184164D01*
X14575126Y-13184164D02*
X14578935Y-13176545D01*
X14578935Y-13176545D02*
X14582745Y-13172735D01*
X14582745Y-13172735D02*
X14590364Y-13168926D01*
X14590364Y-13168926D02*
X14609411Y-13168926D01*
X14609411Y-13168926D02*
X14617030Y-13172735D01*
X14617030Y-13172735D02*
X14620840Y-13176545D01*
X14620840Y-13176545D02*
X14624649Y-13184164D01*
X14624649Y-13184164D02*
X14624649Y-13207021D01*
X14624649Y-13207021D02*
X14620840Y-13214640D01*
X14620840Y-13214640D02*
X14617030Y-13218450D01*
X14620840Y-13138450D02*
X14624649Y-13130831D01*
X14624649Y-13130831D02*
X14624649Y-13115593D01*
X14624649Y-13115593D02*
X14620840Y-13107974D01*
X14620840Y-13107974D02*
X14613221Y-13104164D01*
X14613221Y-13104164D02*
X14609411Y-13104164D01*
X14609411Y-13104164D02*
X14601792Y-13107974D01*
X14601792Y-13107974D02*
X14597983Y-13115593D01*
X14597983Y-13115593D02*
X14597983Y-13127021D01*
X14597983Y-13127021D02*
X14594173Y-13134640D01*
X14594173Y-13134640D02*
X14586554Y-13138450D01*
X14586554Y-13138450D02*
X14582745Y-13138450D01*
X14582745Y-13138450D02*
X14575126Y-13134640D01*
X14575126Y-13134640D02*
X14571316Y-13127021D01*
X14571316Y-13127021D02*
X14571316Y-13115593D01*
X14571316Y-13115593D02*
X14575126Y-13107974D01*
X15549170Y-13231469D02*
X15602503Y-13231469D01*
X15602503Y-13231469D02*
X15568218Y-13311469D01*
X15629170Y-13307660D02*
X15636789Y-13311469D01*
X15636789Y-13311469D02*
X15652027Y-13311469D01*
X15652027Y-13311469D02*
X15659646Y-13307660D01*
X15659646Y-13307660D02*
X15663456Y-13300041D01*
X15663456Y-13300041D02*
X15663456Y-13296231D01*
X15663456Y-13296231D02*
X15659646Y-13288612D01*
X15659646Y-13288612D02*
X15652027Y-13284803D01*
X15652027Y-13284803D02*
X15640599Y-13284803D01*
X15640599Y-13284803D02*
X15632980Y-13280993D01*
X15632980Y-13280993D02*
X15629170Y-13273374D01*
X15629170Y-13273374D02*
X15629170Y-13269565D01*
X15629170Y-13269565D02*
X15632980Y-13261946D01*
X15632980Y-13261946D02*
X15640599Y-13258136D01*
X15640599Y-13258136D02*
X15652027Y-13258136D01*
X15652027Y-13258136D02*
X15659646Y-13261946D01*
X15824425Y-7776809D02*
X15824425Y-7696809D01*
X15862521Y-7776809D02*
X15862521Y-7696809D01*
X15862521Y-7696809D02*
X15908235Y-7776809D01*
X15908235Y-7776809D02*
X15908235Y-7696809D01*
X15934901Y-7696809D02*
X15980616Y-7696809D01*
X15957759Y-7776809D02*
X15957759Y-7696809D01*
D11*
X11096540Y-11077343D02*
X11025111Y-11077343D01*
X11025111Y-11077343D02*
X11025111Y-10927343D01*
X11125111Y-10927343D02*
X11210825Y-10927343D01*
X11167968Y-11077343D02*
X11167968Y-10927343D01*
X11346540Y-11063057D02*
X11339397Y-11070200D01*
X11339397Y-11070200D02*
X11317968Y-11077343D01*
X11317968Y-11077343D02*
X11303682Y-11077343D01*
X11303682Y-11077343D02*
X11282254Y-11070200D01*
X11282254Y-11070200D02*
X11267968Y-11055914D01*
X11267968Y-11055914D02*
X11260825Y-11041629D01*
X11260825Y-11041629D02*
X11253682Y-11013057D01*
X11253682Y-11013057D02*
X11253682Y-10991629D01*
X11253682Y-10991629D02*
X11260825Y-10963057D01*
X11260825Y-10963057D02*
X11267968Y-10948771D01*
X11267968Y-10948771D02*
X11282254Y-10934486D01*
X11282254Y-10934486D02*
X11303682Y-10927343D01*
X11303682Y-10927343D02*
X11317968Y-10927343D01*
X11317968Y-10927343D02*
X11339397Y-10934486D01*
X11339397Y-10934486D02*
X11346540Y-10941629D01*
X11403682Y-10941629D02*
X11410825Y-10934486D01*
X11410825Y-10934486D02*
X11425111Y-10927343D01*
X11425111Y-10927343D02*
X11460825Y-10927343D01*
X11460825Y-10927343D02*
X11475111Y-10934486D01*
X11475111Y-10934486D02*
X11482254Y-10941629D01*
X11482254Y-10941629D02*
X11489397Y-10955914D01*
X11489397Y-10955914D02*
X11489397Y-10970200D01*
X11489397Y-10970200D02*
X11482254Y-10991629D01*
X11482254Y-10991629D02*
X11396540Y-11077343D01*
X11396540Y-11077343D02*
X11489397Y-11077343D01*
X11560825Y-11077343D02*
X11589397Y-11077343D01*
X11589397Y-11077343D02*
X11603682Y-11070200D01*
X11603682Y-11070200D02*
X11610825Y-11063057D01*
X11610825Y-11063057D02*
X11625111Y-11041629D01*
X11625111Y-11041629D02*
X11632254Y-11013057D01*
X11632254Y-11013057D02*
X11632254Y-10955914D01*
X11632254Y-10955914D02*
X11625111Y-10941629D01*
X11625111Y-10941629D02*
X11617968Y-10934486D01*
X11617968Y-10934486D02*
X11603682Y-10927343D01*
X11603682Y-10927343D02*
X11575111Y-10927343D01*
X11575111Y-10927343D02*
X11560825Y-10934486D01*
X11560825Y-10934486D02*
X11553682Y-10941629D01*
X11553682Y-10941629D02*
X11546540Y-10955914D01*
X11546540Y-10955914D02*
X11546540Y-10991629D01*
X11546540Y-10991629D02*
X11553682Y-11005914D01*
X11553682Y-11005914D02*
X11560825Y-11013057D01*
X11560825Y-11013057D02*
X11575111Y-11020200D01*
X11575111Y-11020200D02*
X11603682Y-11020200D01*
X11603682Y-11020200D02*
X11617968Y-11013057D01*
X11617968Y-11013057D02*
X11625111Y-11005914D01*
X11625111Y-11005914D02*
X11632254Y-10991629D01*
X11767968Y-10927343D02*
X11696539Y-10927343D01*
X11696539Y-10927343D02*
X11689397Y-10998771D01*
X11689397Y-10998771D02*
X11696539Y-10991629D01*
X11696539Y-10991629D02*
X11710825Y-10984486D01*
X11710825Y-10984486D02*
X11746539Y-10984486D01*
X11746539Y-10984486D02*
X11760825Y-10991629D01*
X11760825Y-10991629D02*
X11767968Y-10998771D01*
X11767968Y-10998771D02*
X11775111Y-11013057D01*
X11775111Y-11013057D02*
X11775111Y-11048771D01*
X11775111Y-11048771D02*
X11767968Y-11063057D01*
X11767968Y-11063057D02*
X11760825Y-11070200D01*
X11760825Y-11070200D02*
X11746539Y-11077343D01*
X11746539Y-11077343D02*
X11710825Y-11077343D01*
X11710825Y-11077343D02*
X11696539Y-11070200D01*
X11696539Y-11070200D02*
X11689397Y-11063057D01*
X11903682Y-10977343D02*
X11903682Y-11077343D01*
X11867968Y-10920200D02*
X11832254Y-11027343D01*
X11832254Y-11027343D02*
X11925111Y-11027343D01*
D10*
X15549170Y-12510109D02*
X15598694Y-12510109D01*
X15598694Y-12510109D02*
X15572027Y-12540586D01*
X15572027Y-12540586D02*
X15583456Y-12540586D01*
X15583456Y-12540586D02*
X15591075Y-12544395D01*
X15591075Y-12544395D02*
X15594884Y-12548205D01*
X15594884Y-12548205D02*
X15598694Y-12555824D01*
X15598694Y-12555824D02*
X15598694Y-12574871D01*
X15598694Y-12574871D02*
X15594884Y-12582490D01*
X15594884Y-12582490D02*
X15591075Y-12586300D01*
X15591075Y-12586300D02*
X15583456Y-12590109D01*
X15583456Y-12590109D02*
X15560599Y-12590109D01*
X15560599Y-12590109D02*
X15552980Y-12586300D01*
X15552980Y-12586300D02*
X15549170Y-12582490D01*
X15629170Y-12586300D02*
X15636789Y-12590109D01*
X15636789Y-12590109D02*
X15652027Y-12590109D01*
X15652027Y-12590109D02*
X15659646Y-12586300D01*
X15659646Y-12586300D02*
X15663456Y-12578681D01*
X15663456Y-12578681D02*
X15663456Y-12574871D01*
X15663456Y-12574871D02*
X15659646Y-12567252D01*
X15659646Y-12567252D02*
X15652027Y-12563443D01*
X15652027Y-12563443D02*
X15640599Y-12563443D01*
X15640599Y-12563443D02*
X15632980Y-12559633D01*
X15632980Y-12559633D02*
X15629170Y-12552014D01*
X15629170Y-12552014D02*
X15629170Y-12548205D01*
X15629170Y-12548205D02*
X15632980Y-12540586D01*
X15632980Y-12540586D02*
X15640599Y-12536776D01*
X15640599Y-12536776D02*
X15652027Y-12536776D01*
X15652027Y-12536776D02*
X15659646Y-12540586D01*
X14262550Y-10766229D02*
X14254931Y-10762420D01*
X14254931Y-10762420D02*
X14243502Y-10762420D01*
X14243502Y-10762420D02*
X14232074Y-10766229D01*
X14232074Y-10766229D02*
X14224455Y-10773848D01*
X14224455Y-10773848D02*
X14220645Y-10781467D01*
X14220645Y-10781467D02*
X14216836Y-10796705D01*
X14216836Y-10796705D02*
X14216836Y-10808134D01*
X14216836Y-10808134D02*
X14220645Y-10823372D01*
X14220645Y-10823372D02*
X14224455Y-10830991D01*
X14224455Y-10830991D02*
X14232074Y-10838610D01*
X14232074Y-10838610D02*
X14243502Y-10842420D01*
X14243502Y-10842420D02*
X14251122Y-10842420D01*
X14251122Y-10842420D02*
X14262550Y-10838610D01*
X14262550Y-10838610D02*
X14266360Y-10834800D01*
X14266360Y-10834800D02*
X14266360Y-10808134D01*
X14266360Y-10808134D02*
X14251122Y-10808134D01*
X14300645Y-10842420D02*
X14300645Y-10762420D01*
X14300645Y-10762420D02*
X14346360Y-10842420D01*
X14346360Y-10842420D02*
X14346360Y-10762420D01*
X14384455Y-10842420D02*
X14384455Y-10762420D01*
X14384455Y-10762420D02*
X14403502Y-10762420D01*
X14403502Y-10762420D02*
X14414931Y-10766229D01*
X14414931Y-10766229D02*
X14422550Y-10773848D01*
X14422550Y-10773848D02*
X14426360Y-10781467D01*
X14426360Y-10781467D02*
X14430169Y-10796705D01*
X14430169Y-10796705D02*
X14430169Y-10808134D01*
X14430169Y-10808134D02*
X14426360Y-10823372D01*
X14426360Y-10823372D02*
X14422550Y-10830991D01*
X14422550Y-10830991D02*
X14414931Y-10838610D01*
X14414931Y-10838610D02*
X14403502Y-10842420D01*
X14403502Y-10842420D02*
X14384455Y-10842420D01*
X14209217Y-11016420D02*
X14235883Y-11096420D01*
X14235883Y-11096420D02*
X14262550Y-11016420D01*
X14289217Y-11096420D02*
X14289217Y-11016420D01*
X14327312Y-11096420D02*
X14327312Y-11016420D01*
X14327312Y-11016420D02*
X14373026Y-11096420D01*
X14373026Y-11096420D02*
X14373026Y-11016420D01*
X12245160Y-8732805D02*
X12271826Y-8732805D01*
X12283255Y-8774710D02*
X12245160Y-8774710D01*
X12245160Y-8774710D02*
X12245160Y-8694710D01*
X12245160Y-8694710D02*
X12283255Y-8694710D01*
X12317541Y-8774710D02*
X12317541Y-8694710D01*
X12317541Y-8694710D02*
X12363255Y-8774710D01*
X12363255Y-8774710D02*
X12363255Y-8694710D01*
X15532027Y-13566749D02*
X15547265Y-13566749D01*
X15547265Y-13566749D02*
X15554884Y-13570559D01*
X15554884Y-13570559D02*
X15562504Y-13578178D01*
X15562504Y-13578178D02*
X15566313Y-13593416D01*
X15566313Y-13593416D02*
X15566313Y-13620083D01*
X15566313Y-13620083D02*
X15562504Y-13635321D01*
X15562504Y-13635321D02*
X15554884Y-13642940D01*
X15554884Y-13642940D02*
X15547265Y-13646749D01*
X15547265Y-13646749D02*
X15532027Y-13646749D01*
X15532027Y-13646749D02*
X15524408Y-13642940D01*
X15524408Y-13642940D02*
X15516789Y-13635321D01*
X15516789Y-13635321D02*
X15512980Y-13620083D01*
X15512980Y-13620083D02*
X15512980Y-13593416D01*
X15512980Y-13593416D02*
X15516789Y-13578178D01*
X15516789Y-13578178D02*
X15524408Y-13570559D01*
X15524408Y-13570559D02*
X15532027Y-13566749D01*
X15627265Y-13604845D02*
X15600599Y-13604845D01*
X15600599Y-13646749D02*
X15600599Y-13566749D01*
X15600599Y-13566749D02*
X15638694Y-13566749D01*
X15695837Y-13604845D02*
X15669170Y-13604845D01*
X15669170Y-13646749D02*
X15669170Y-13566749D01*
X15669170Y-13566749D02*
X15707265Y-13566749D01*
X15608757Y-11524419D02*
X15635423Y-11604419D01*
X15635423Y-11604419D02*
X15662090Y-11524419D01*
X15688757Y-11604419D02*
X15688757Y-11524419D01*
X15688757Y-11524419D02*
X15719233Y-11524419D01*
X15719233Y-11524419D02*
X15726852Y-11528229D01*
X15726852Y-11528229D02*
X15730661Y-11532038D01*
X15730661Y-11532038D02*
X15734471Y-11539658D01*
X15734471Y-11539658D02*
X15734471Y-11551086D01*
X15734471Y-11551086D02*
X15730661Y-11558705D01*
X15730661Y-11558705D02*
X15726852Y-11562515D01*
X15726852Y-11562515D02*
X15719233Y-11566324D01*
X15719233Y-11566324D02*
X15688757Y-11566324D01*
X15768757Y-11524419D02*
X15768757Y-11589181D01*
X15768757Y-11589181D02*
X15772566Y-11596800D01*
X15772566Y-11596800D02*
X15776376Y-11600610D01*
X15776376Y-11600610D02*
X15783995Y-11604419D01*
X15783995Y-11604419D02*
X15799233Y-11604419D01*
X15799233Y-11604419D02*
X15806852Y-11600610D01*
X15806852Y-11600610D02*
X15810661Y-11596800D01*
X15810661Y-11596800D02*
X15814471Y-11589181D01*
X15814471Y-11589181D02*
X15814471Y-11524419D01*
X15707187Y-10010750D02*
X15722425Y-10010750D01*
X15722425Y-10010750D02*
X15730044Y-10014559D01*
X15730044Y-10014559D02*
X15737664Y-10022178D01*
X15737664Y-10022178D02*
X15741473Y-10037416D01*
X15741473Y-10037416D02*
X15741473Y-10064083D01*
X15741473Y-10064083D02*
X15737664Y-10079321D01*
X15737664Y-10079321D02*
X15730044Y-10086940D01*
X15730044Y-10086940D02*
X15722425Y-10090750D01*
X15722425Y-10090750D02*
X15707187Y-10090750D01*
X15707187Y-10090750D02*
X15699568Y-10086940D01*
X15699568Y-10086940D02*
X15691949Y-10079321D01*
X15691949Y-10079321D02*
X15688140Y-10064083D01*
X15688140Y-10064083D02*
X15688140Y-10037416D01*
X15688140Y-10037416D02*
X15691949Y-10022178D01*
X15691949Y-10022178D02*
X15699568Y-10014559D01*
X15699568Y-10014559D02*
X15707187Y-10010750D01*
X15802425Y-10048845D02*
X15775759Y-10048845D01*
X15775759Y-10090750D02*
X15775759Y-10010750D01*
X15775759Y-10010750D02*
X15813854Y-10010750D01*
X15870997Y-10048845D02*
X15844330Y-10048845D01*
X15844330Y-10090750D02*
X15844330Y-10010750D01*
X15844330Y-10010750D02*
X15882425Y-10010750D01*
X11378385Y-9704350D02*
X11378385Y-9624350D01*
X11424100Y-9704350D02*
X11389814Y-9658635D01*
X11424100Y-9624350D02*
X11378385Y-9670064D01*
X11458385Y-9704350D02*
X11458385Y-9624350D01*
X11534576Y-9704350D02*
X11496481Y-9704350D01*
X11496481Y-9704350D02*
X11496481Y-9624350D01*
X11599338Y-9704350D02*
X11561242Y-9704350D01*
X11561242Y-9704350D02*
X11561242Y-9624350D01*
X13835989Y-13252735D02*
X13835989Y-13245116D01*
X13835989Y-13245116D02*
X13839799Y-13237497D01*
X13839799Y-13237497D02*
X13843608Y-13233688D01*
X13843608Y-13233688D02*
X13851228Y-13229878D01*
X13851228Y-13229878D02*
X13866466Y-13226069D01*
X13866466Y-13226069D02*
X13885513Y-13226069D01*
X13885513Y-13226069D02*
X13900751Y-13229878D01*
X13900751Y-13229878D02*
X13908370Y-13233688D01*
X13908370Y-13233688D02*
X13912180Y-13237497D01*
X13912180Y-13237497D02*
X13915989Y-13245116D01*
X13915989Y-13245116D02*
X13915989Y-13252735D01*
X13915989Y-13252735D02*
X13912180Y-13260355D01*
X13912180Y-13260355D02*
X13908370Y-13264164D01*
X13908370Y-13264164D02*
X13900751Y-13267974D01*
X13900751Y-13267974D02*
X13885513Y-13271783D01*
X13885513Y-13271783D02*
X13866466Y-13271783D01*
X13866466Y-13271783D02*
X13851228Y-13267974D01*
X13851228Y-13267974D02*
X13843608Y-13264164D01*
X13843608Y-13264164D02*
X13839799Y-13260355D01*
X13839799Y-13260355D02*
X13835989Y-13252735D01*
X13908370Y-13191783D02*
X13912180Y-13187974D01*
X13912180Y-13187974D02*
X13915989Y-13191783D01*
X13915989Y-13191783D02*
X13912180Y-13195593D01*
X13912180Y-13195593D02*
X13908370Y-13191783D01*
X13908370Y-13191783D02*
X13915989Y-13191783D01*
X13835989Y-13115593D02*
X13835989Y-13153688D01*
X13835989Y-13153688D02*
X13874085Y-13157497D01*
X13874085Y-13157497D02*
X13870275Y-13153688D01*
X13870275Y-13153688D02*
X13866466Y-13146069D01*
X13866466Y-13146069D02*
X13866466Y-13127021D01*
X13866466Y-13127021D02*
X13870275Y-13119402D01*
X13870275Y-13119402D02*
X13874085Y-13115593D01*
X13874085Y-13115593D02*
X13881704Y-13111783D01*
X13881704Y-13111783D02*
X13900751Y-13111783D01*
X13900751Y-13111783D02*
X13908370Y-13115593D01*
X13908370Y-13115593D02*
X13912180Y-13119402D01*
X13912180Y-13119402D02*
X13915989Y-13127021D01*
X13915989Y-13127021D02*
X13915989Y-13146069D01*
X13915989Y-13146069D02*
X13912180Y-13153688D01*
X13912180Y-13153688D02*
X13908370Y-13157497D01*
X13912180Y-13081307D02*
X13915989Y-13073688D01*
X13915989Y-13073688D02*
X13915989Y-13058450D01*
X13915989Y-13058450D02*
X13912180Y-13050831D01*
X13912180Y-13050831D02*
X13904561Y-13047021D01*
X13904561Y-13047021D02*
X13900751Y-13047021D01*
X13900751Y-13047021D02*
X13893132Y-13050831D01*
X13893132Y-13050831D02*
X13889323Y-13058450D01*
X13889323Y-13058450D02*
X13889323Y-13069878D01*
X13889323Y-13069878D02*
X13885513Y-13077497D01*
X13885513Y-13077497D02*
X13877894Y-13081307D01*
X13877894Y-13081307D02*
X13874085Y-13081307D01*
X13874085Y-13081307D02*
X13866466Y-13077497D01*
X13866466Y-13077497D02*
X13862656Y-13069878D01*
X13862656Y-13069878D02*
X13862656Y-13058450D01*
X13862656Y-13058450D02*
X13866466Y-13050831D01*
X12095937Y-11527309D02*
X12122603Y-11607309D01*
X12122603Y-11607309D02*
X12149270Y-11527309D01*
X12175937Y-11607309D02*
X12175937Y-11527309D01*
X12175937Y-11527309D02*
X12206413Y-11527309D01*
X12206413Y-11527309D02*
X12214032Y-11531119D01*
X12214032Y-11531119D02*
X12217841Y-11534928D01*
X12217841Y-11534928D02*
X12221651Y-11542548D01*
X12221651Y-11542548D02*
X12221651Y-11553976D01*
X12221651Y-11553976D02*
X12217841Y-11561595D01*
X12217841Y-11561595D02*
X12214032Y-11565405D01*
X12214032Y-11565405D02*
X12206413Y-11569214D01*
X12206413Y-11569214D02*
X12175937Y-11569214D01*
X12255937Y-11527309D02*
X12255937Y-11592071D01*
X12255937Y-11592071D02*
X12259746Y-11599690D01*
X12259746Y-11599690D02*
X12263556Y-11603500D01*
X12263556Y-11603500D02*
X12271175Y-11607309D01*
X12271175Y-11607309D02*
X12286413Y-11607309D01*
X12286413Y-11607309D02*
X12294032Y-11603500D01*
X12294032Y-11603500D02*
X12297841Y-11599690D01*
X12297841Y-11599690D02*
X12301651Y-11592071D01*
X12301651Y-11592071D02*
X12301651Y-11527309D01*
X10307930Y-9759256D02*
X10307930Y-9751637D01*
X10307930Y-9751637D02*
X10311739Y-9744017D01*
X10311739Y-9744017D02*
X10315549Y-9740208D01*
X10315549Y-9740208D02*
X10323168Y-9736398D01*
X10323168Y-9736398D02*
X10338406Y-9732589D01*
X10338406Y-9732589D02*
X10357453Y-9732589D01*
X10357453Y-9732589D02*
X10372691Y-9736398D01*
X10372691Y-9736398D02*
X10380310Y-9740208D01*
X10380310Y-9740208D02*
X10384120Y-9744017D01*
X10384120Y-9744017D02*
X10387930Y-9751637D01*
X10387930Y-9751637D02*
X10387930Y-9759256D01*
X10387930Y-9759256D02*
X10384120Y-9766875D01*
X10384120Y-9766875D02*
X10380310Y-9770684D01*
X10380310Y-9770684D02*
X10372691Y-9774494D01*
X10372691Y-9774494D02*
X10357453Y-9778303D01*
X10357453Y-9778303D02*
X10338406Y-9778303D01*
X10338406Y-9778303D02*
X10323168Y-9774494D01*
X10323168Y-9774494D02*
X10315549Y-9770684D01*
X10315549Y-9770684D02*
X10311739Y-9766875D01*
X10311739Y-9766875D02*
X10307930Y-9759256D01*
X10380310Y-9698303D02*
X10384120Y-9694494D01*
X10384120Y-9694494D02*
X10387930Y-9698303D01*
X10387930Y-9698303D02*
X10384120Y-9702113D01*
X10384120Y-9702113D02*
X10380310Y-9698303D01*
X10380310Y-9698303D02*
X10387930Y-9698303D01*
X10307930Y-9622113D02*
X10307930Y-9660208D01*
X10307930Y-9660208D02*
X10346025Y-9664018D01*
X10346025Y-9664018D02*
X10342215Y-9660208D01*
X10342215Y-9660208D02*
X10338406Y-9652589D01*
X10338406Y-9652589D02*
X10338406Y-9633541D01*
X10338406Y-9633541D02*
X10342215Y-9625922D01*
X10342215Y-9625922D02*
X10346025Y-9622113D01*
X10346025Y-9622113D02*
X10353644Y-9618303D01*
X10353644Y-9618303D02*
X10372691Y-9618303D01*
X10372691Y-9618303D02*
X10380310Y-9622113D01*
X10380310Y-9622113D02*
X10384120Y-9625922D01*
X10384120Y-9625922D02*
X10387930Y-9633541D01*
X10387930Y-9633541D02*
X10387930Y-9652589D01*
X10387930Y-9652589D02*
X10384120Y-9660208D01*
X10384120Y-9660208D02*
X10380310Y-9664018D01*
X10384120Y-9587827D02*
X10387930Y-9580208D01*
X10387930Y-9580208D02*
X10387930Y-9564970D01*
X10387930Y-9564970D02*
X10384120Y-9557351D01*
X10384120Y-9557351D02*
X10376501Y-9553541D01*
X10376501Y-9553541D02*
X10372691Y-9553541D01*
X10372691Y-9553541D02*
X10365072Y-9557351D01*
X10365072Y-9557351D02*
X10361263Y-9564970D01*
X10361263Y-9564970D02*
X10361263Y-9576398D01*
X10361263Y-9576398D02*
X10357453Y-9584017D01*
X10357453Y-9584017D02*
X10349834Y-9587827D01*
X10349834Y-9587827D02*
X10346025Y-9587827D01*
X10346025Y-9587827D02*
X10338406Y-9584017D01*
X10338406Y-9584017D02*
X10334596Y-9576398D01*
X10334596Y-9576398D02*
X10334596Y-9564970D01*
X10334596Y-9564970D02*
X10338406Y-9557351D01*
D11*
X11145400Y-7498483D02*
X11073971Y-7498483D01*
X11073971Y-7498483D02*
X11073971Y-7348483D01*
X11173971Y-7348483D02*
X11259685Y-7348483D01*
X11216828Y-7498483D02*
X11216828Y-7348483D01*
X11395400Y-7484197D02*
X11388257Y-7491340D01*
X11388257Y-7491340D02*
X11366828Y-7498483D01*
X11366828Y-7498483D02*
X11352542Y-7498483D01*
X11352542Y-7498483D02*
X11331114Y-7491340D01*
X11331114Y-7491340D02*
X11316828Y-7477054D01*
X11316828Y-7477054D02*
X11309685Y-7462768D01*
X11309685Y-7462768D02*
X11302542Y-7434197D01*
X11302542Y-7434197D02*
X11302542Y-7412768D01*
X11302542Y-7412768D02*
X11309685Y-7384197D01*
X11309685Y-7384197D02*
X11316828Y-7369911D01*
X11316828Y-7369911D02*
X11331114Y-7355626D01*
X11331114Y-7355626D02*
X11352542Y-7348483D01*
X11352542Y-7348483D02*
X11366828Y-7348483D01*
X11366828Y-7348483D02*
X11388257Y-7355626D01*
X11388257Y-7355626D02*
X11395400Y-7362768D01*
X11452542Y-7362768D02*
X11459685Y-7355626D01*
X11459685Y-7355626D02*
X11473971Y-7348483D01*
X11473971Y-7348483D02*
X11509685Y-7348483D01*
X11509685Y-7348483D02*
X11523971Y-7355626D01*
X11523971Y-7355626D02*
X11531114Y-7362768D01*
X11531114Y-7362768D02*
X11538257Y-7377054D01*
X11538257Y-7377054D02*
X11538257Y-7391340D01*
X11538257Y-7391340D02*
X11531114Y-7412768D01*
X11531114Y-7412768D02*
X11445400Y-7498483D01*
X11445400Y-7498483D02*
X11538257Y-7498483D01*
X11609685Y-7498483D02*
X11638257Y-7498483D01*
X11638257Y-7498483D02*
X11652542Y-7491340D01*
X11652542Y-7491340D02*
X11659685Y-7484197D01*
X11659685Y-7484197D02*
X11673971Y-7462768D01*
X11673971Y-7462768D02*
X11681114Y-7434197D01*
X11681114Y-7434197D02*
X11681114Y-7377054D01*
X11681114Y-7377054D02*
X11673971Y-7362768D01*
X11673971Y-7362768D02*
X11666828Y-7355626D01*
X11666828Y-7355626D02*
X11652542Y-7348483D01*
X11652542Y-7348483D02*
X11623971Y-7348483D01*
X11623971Y-7348483D02*
X11609685Y-7355626D01*
X11609685Y-7355626D02*
X11602542Y-7362768D01*
X11602542Y-7362768D02*
X11595400Y-7377054D01*
X11595400Y-7377054D02*
X11595400Y-7412768D01*
X11595400Y-7412768D02*
X11602542Y-7427054D01*
X11602542Y-7427054D02*
X11609685Y-7434197D01*
X11609685Y-7434197D02*
X11623971Y-7441340D01*
X11623971Y-7441340D02*
X11652542Y-7441340D01*
X11652542Y-7441340D02*
X11666828Y-7434197D01*
X11666828Y-7434197D02*
X11673971Y-7427054D01*
X11673971Y-7427054D02*
X11681114Y-7412768D01*
X11816828Y-7348483D02*
X11745399Y-7348483D01*
X11745399Y-7348483D02*
X11738257Y-7419911D01*
X11738257Y-7419911D02*
X11745399Y-7412768D01*
X11745399Y-7412768D02*
X11759685Y-7405626D01*
X11759685Y-7405626D02*
X11795399Y-7405626D01*
X11795399Y-7405626D02*
X11809685Y-7412768D01*
X11809685Y-7412768D02*
X11816828Y-7419911D01*
X11816828Y-7419911D02*
X11823971Y-7434197D01*
X11823971Y-7434197D02*
X11823971Y-7469911D01*
X11823971Y-7469911D02*
X11816828Y-7484197D01*
X11816828Y-7484197D02*
X11809685Y-7491340D01*
X11809685Y-7491340D02*
X11795399Y-7498483D01*
X11795399Y-7498483D02*
X11759685Y-7498483D01*
X11759685Y-7498483D02*
X11745399Y-7491340D01*
X11745399Y-7491340D02*
X11738257Y-7484197D01*
X11966828Y-7498483D02*
X11881114Y-7498483D01*
X11923971Y-7498483D02*
X11923971Y-7348483D01*
X11923971Y-7348483D02*
X11909685Y-7369911D01*
X11909685Y-7369911D02*
X11895399Y-7384197D01*
X11895399Y-7384197D02*
X11881114Y-7391340D01*
D10*
X12041524Y-12883489D02*
X12003429Y-12883489D01*
X12003429Y-12883489D02*
X11999620Y-12921585D01*
X11999620Y-12921585D02*
X12003429Y-12917775D01*
X12003429Y-12917775D02*
X12011048Y-12913966D01*
X12011048Y-12913966D02*
X12030096Y-12913966D01*
X12030096Y-12913966D02*
X12037715Y-12917775D01*
X12037715Y-12917775D02*
X12041524Y-12921585D01*
X12041524Y-12921585D02*
X12045334Y-12929204D01*
X12045334Y-12929204D02*
X12045334Y-12948251D01*
X12045334Y-12948251D02*
X12041524Y-12955870D01*
X12041524Y-12955870D02*
X12037715Y-12959680D01*
X12037715Y-12959680D02*
X12030096Y-12963489D01*
X12030096Y-12963489D02*
X12011048Y-12963489D01*
X12011048Y-12963489D02*
X12003429Y-12959680D01*
X12003429Y-12959680D02*
X11999620Y-12955870D01*
X12075810Y-12959680D02*
X12083429Y-12963489D01*
X12083429Y-12963489D02*
X12098667Y-12963489D01*
X12098667Y-12963489D02*
X12106286Y-12959680D01*
X12106286Y-12959680D02*
X12110096Y-12952061D01*
X12110096Y-12952061D02*
X12110096Y-12948251D01*
X12110096Y-12948251D02*
X12106286Y-12940632D01*
X12106286Y-12940632D02*
X12098667Y-12936823D01*
X12098667Y-12936823D02*
X12087239Y-12936823D01*
X12087239Y-12936823D02*
X12079620Y-12933013D01*
X12079620Y-12933013D02*
X12075810Y-12925394D01*
X12075810Y-12925394D02*
X12075810Y-12921585D01*
X12075810Y-12921585D02*
X12079620Y-12913966D01*
X12079620Y-12913966D02*
X12087239Y-12910156D01*
X12087239Y-12910156D02*
X12098667Y-12910156D01*
X12098667Y-12910156D02*
X12106286Y-12913966D01*
X12087687Y-10018370D02*
X12102925Y-10018370D01*
X12102925Y-10018370D02*
X12110544Y-10022179D01*
X12110544Y-10022179D02*
X12118164Y-10029798D01*
X12118164Y-10029798D02*
X12121973Y-10045036D01*
X12121973Y-10045036D02*
X12121973Y-10071703D01*
X12121973Y-10071703D02*
X12118164Y-10086941D01*
X12118164Y-10086941D02*
X12110544Y-10094560D01*
X12110544Y-10094560D02*
X12102925Y-10098370D01*
X12102925Y-10098370D02*
X12087687Y-10098370D01*
X12087687Y-10098370D02*
X12080068Y-10094560D01*
X12080068Y-10094560D02*
X12072449Y-10086941D01*
X12072449Y-10086941D02*
X12068640Y-10071703D01*
X12068640Y-10071703D02*
X12068640Y-10045036D01*
X12068640Y-10045036D02*
X12072449Y-10029798D01*
X12072449Y-10029798D02*
X12080068Y-10022179D01*
X12080068Y-10022179D02*
X12087687Y-10018370D01*
X12182925Y-10056465D02*
X12156259Y-10056465D01*
X12156259Y-10098370D02*
X12156259Y-10018370D01*
X12156259Y-10018370D02*
X12194354Y-10018370D01*
X12251497Y-10056465D02*
X12224830Y-10056465D01*
X12224830Y-10098370D02*
X12224830Y-10018370D01*
X12224830Y-10018370D02*
X12262925Y-10018370D01*
X10768930Y-13222916D02*
X10768930Y-13268630D01*
X10768930Y-13245773D02*
X10688930Y-13245773D01*
X10688930Y-13245773D02*
X10700358Y-13253392D01*
X10700358Y-13253392D02*
X10707977Y-13261011D01*
X10707977Y-13261011D02*
X10711787Y-13268630D01*
X10765120Y-13192440D02*
X10768930Y-13184821D01*
X10768930Y-13184821D02*
X10768930Y-13169583D01*
X10768930Y-13169583D02*
X10765120Y-13161964D01*
X10765120Y-13161964D02*
X10757501Y-13158154D01*
X10757501Y-13158154D02*
X10753691Y-13158154D01*
X10753691Y-13158154D02*
X10746072Y-13161964D01*
X10746072Y-13161964D02*
X10742263Y-13169583D01*
X10742263Y-13169583D02*
X10742263Y-13181011D01*
X10742263Y-13181011D02*
X10738453Y-13188630D01*
X10738453Y-13188630D02*
X10730834Y-13192440D01*
X10730834Y-13192440D02*
X10727025Y-13192440D01*
X10727025Y-13192440D02*
X10719406Y-13188630D01*
X10719406Y-13188630D02*
X10715596Y-13181011D01*
X10715596Y-13181011D02*
X10715596Y-13169583D01*
X10715596Y-13169583D02*
X10719406Y-13161964D01*
X10742110Y-7195159D02*
X10734491Y-7191349D01*
X10734491Y-7191349D02*
X10723063Y-7191349D01*
X10723063Y-7191349D02*
X10711634Y-7195159D01*
X10711634Y-7195159D02*
X10704015Y-7202778D01*
X10704015Y-7202778D02*
X10700205Y-7210397D01*
X10700205Y-7210397D02*
X10696396Y-7225635D01*
X10696396Y-7225635D02*
X10696396Y-7237064D01*
X10696396Y-7237064D02*
X10700205Y-7252302D01*
X10700205Y-7252302D02*
X10704015Y-7259921D01*
X10704015Y-7259921D02*
X10711634Y-7267540D01*
X10711634Y-7267540D02*
X10723063Y-7271349D01*
X10723063Y-7271349D02*
X10730682Y-7271349D01*
X10730682Y-7271349D02*
X10742110Y-7267540D01*
X10742110Y-7267540D02*
X10745920Y-7263730D01*
X10745920Y-7263730D02*
X10745920Y-7237064D01*
X10745920Y-7237064D02*
X10730682Y-7237064D01*
X10780205Y-7271349D02*
X10780205Y-7191349D01*
X10780205Y-7191349D02*
X10825920Y-7271349D01*
X10825920Y-7271349D02*
X10825920Y-7191349D01*
X10864015Y-7271349D02*
X10864015Y-7191349D01*
X10864015Y-7191349D02*
X10883063Y-7191349D01*
X10883063Y-7191349D02*
X10894491Y-7195159D01*
X10894491Y-7195159D02*
X10902110Y-7202778D01*
X10902110Y-7202778D02*
X10905920Y-7210397D01*
X10905920Y-7210397D02*
X10909729Y-7225635D01*
X10909729Y-7225635D02*
X10909729Y-7237064D01*
X10909729Y-7237064D02*
X10905920Y-7252302D01*
X10905920Y-7252302D02*
X10902110Y-7259921D01*
X10902110Y-7259921D02*
X10894491Y-7267540D01*
X10894491Y-7267540D02*
X10883063Y-7271349D01*
X10883063Y-7271349D02*
X10864015Y-7271349D01*
X12239445Y-7769189D02*
X12239445Y-7689189D01*
X12277541Y-7769189D02*
X12277541Y-7689189D01*
X12277541Y-7689189D02*
X12323255Y-7769189D01*
X12323255Y-7769189D02*
X12323255Y-7689189D01*
X12349921Y-7689189D02*
X12395636Y-7689189D01*
X12372779Y-7769189D02*
X12372779Y-7689189D01*
X15662090Y-10766229D02*
X15654471Y-10762420D01*
X15654471Y-10762420D02*
X15643042Y-10762420D01*
X15643042Y-10762420D02*
X15631614Y-10766229D01*
X15631614Y-10766229D02*
X15623995Y-10773848D01*
X15623995Y-10773848D02*
X15620185Y-10781467D01*
X15620185Y-10781467D02*
X15616376Y-10796705D01*
X15616376Y-10796705D02*
X15616376Y-10808134D01*
X15616376Y-10808134D02*
X15620185Y-10823372D01*
X15620185Y-10823372D02*
X15623995Y-10830991D01*
X15623995Y-10830991D02*
X15631614Y-10838610D01*
X15631614Y-10838610D02*
X15643042Y-10842420D01*
X15643042Y-10842420D02*
X15650662Y-10842420D01*
X15650662Y-10842420D02*
X15662090Y-10838610D01*
X15662090Y-10838610D02*
X15665900Y-10834800D01*
X15665900Y-10834800D02*
X15665900Y-10808134D01*
X15665900Y-10808134D02*
X15650662Y-10808134D01*
X15700185Y-10842420D02*
X15700185Y-10762420D01*
X15700185Y-10762420D02*
X15745900Y-10842420D01*
X15745900Y-10842420D02*
X15745900Y-10762420D01*
X15783995Y-10842420D02*
X15783995Y-10762420D01*
X15783995Y-10762420D02*
X15803042Y-10762420D01*
X15803042Y-10762420D02*
X15814471Y-10766229D01*
X15814471Y-10766229D02*
X15822090Y-10773848D01*
X15822090Y-10773848D02*
X15825900Y-10781467D01*
X15825900Y-10781467D02*
X15829709Y-10796705D01*
X15829709Y-10796705D02*
X15829709Y-10808134D01*
X15829709Y-10808134D02*
X15825900Y-10823372D01*
X15825900Y-10823372D02*
X15822090Y-10830991D01*
X15822090Y-10830991D02*
X15814471Y-10838610D01*
X15814471Y-10838610D02*
X15803042Y-10842420D01*
X15803042Y-10842420D02*
X15783995Y-10842420D01*
D12*
X10783503Y-12622157D02*
X10783503Y-12645966D01*
X10759693Y-12636443D02*
X10783503Y-12645966D01*
X10783503Y-12645966D02*
X10807312Y-12636443D01*
X10769217Y-12665014D02*
X10783503Y-12645966D01*
X10783503Y-12645966D02*
X10797788Y-12665014D01*
D10*
X15594884Y-12870789D02*
X15556789Y-12870789D01*
X15556789Y-12870789D02*
X15552980Y-12908885D01*
X15552980Y-12908885D02*
X15556789Y-12905075D01*
X15556789Y-12905075D02*
X15564408Y-12901266D01*
X15564408Y-12901266D02*
X15583456Y-12901266D01*
X15583456Y-12901266D02*
X15591075Y-12905075D01*
X15591075Y-12905075D02*
X15594884Y-12908885D01*
X15594884Y-12908885D02*
X15598694Y-12916504D01*
X15598694Y-12916504D02*
X15598694Y-12935551D01*
X15598694Y-12935551D02*
X15594884Y-12943170D01*
X15594884Y-12943170D02*
X15591075Y-12946980D01*
X15591075Y-12946980D02*
X15583456Y-12950789D01*
X15583456Y-12950789D02*
X15564408Y-12950789D01*
X15564408Y-12950789D02*
X15556789Y-12946980D01*
X15556789Y-12946980D02*
X15552980Y-12943170D01*
X15629170Y-12946980D02*
X15636789Y-12950789D01*
X15636789Y-12950789D02*
X15652027Y-12950789D01*
X15652027Y-12950789D02*
X15659646Y-12946980D01*
X15659646Y-12946980D02*
X15663456Y-12939361D01*
X15663456Y-12939361D02*
X15663456Y-12935551D01*
X15663456Y-12935551D02*
X15659646Y-12927932D01*
X15659646Y-12927932D02*
X15652027Y-12924123D01*
X15652027Y-12924123D02*
X15640599Y-12924123D01*
X15640599Y-12924123D02*
X15632980Y-12920313D01*
X15632980Y-12920313D02*
X15629170Y-12912694D01*
X15629170Y-12912694D02*
X15629170Y-12908885D01*
X15629170Y-12908885D02*
X15632980Y-12901266D01*
X15632980Y-12901266D02*
X15640599Y-12897456D01*
X15640599Y-12897456D02*
X15652027Y-12897456D01*
X15652027Y-12897456D02*
X15659646Y-12901266D01*
X12107365Y-11353309D02*
X12107365Y-11273309D01*
X12145461Y-11353309D02*
X12145461Y-11273309D01*
X12145461Y-11273309D02*
X12191175Y-11353309D01*
X12191175Y-11353309D02*
X12191175Y-11273309D01*
X12217841Y-11273309D02*
X12263556Y-11273309D01*
X12240699Y-11353309D02*
X12240699Y-11273309D01*
X11054690Y-13272440D02*
X11054690Y-13222916D01*
X11054690Y-13222916D02*
X11085166Y-13249583D01*
X11085166Y-13249583D02*
X11085166Y-13238154D01*
X11085166Y-13238154D02*
X11088975Y-13230535D01*
X11088975Y-13230535D02*
X11092785Y-13226725D01*
X11092785Y-13226725D02*
X11100404Y-13222916D01*
X11100404Y-13222916D02*
X11119451Y-13222916D01*
X11119451Y-13222916D02*
X11127070Y-13226725D01*
X11127070Y-13226725D02*
X11130880Y-13230535D01*
X11130880Y-13230535D02*
X11134690Y-13238154D01*
X11134690Y-13238154D02*
X11134690Y-13261011D01*
X11134690Y-13261011D02*
X11130880Y-13268630D01*
X11130880Y-13268630D02*
X11127070Y-13272440D01*
X11130880Y-13192440D02*
X11134690Y-13184821D01*
X11134690Y-13184821D02*
X11134690Y-13169583D01*
X11134690Y-13169583D02*
X11130880Y-13161964D01*
X11130880Y-13161964D02*
X11123261Y-13158154D01*
X11123261Y-13158154D02*
X11119451Y-13158154D01*
X11119451Y-13158154D02*
X11111832Y-13161964D01*
X11111832Y-13161964D02*
X11108023Y-13169583D01*
X11108023Y-13169583D02*
X11108023Y-13181011D01*
X11108023Y-13181011D02*
X11104213Y-13188630D01*
X11104213Y-13188630D02*
X11096594Y-13192440D01*
X11096594Y-13192440D02*
X11092785Y-13192440D01*
X11092785Y-13192440D02*
X11085166Y-13188630D01*
X11085166Y-13188630D02*
X11081356Y-13181011D01*
X11081356Y-13181011D02*
X11081356Y-13169583D01*
X11081356Y-13169583D02*
X11085166Y-13161964D01*
X15625900Y-12352225D02*
X15652566Y-12352225D01*
X15663995Y-12394129D02*
X15625900Y-12394129D01*
X15625900Y-12394129D02*
X15625900Y-12314129D01*
X15625900Y-12314129D02*
X15663995Y-12314129D01*
X15698281Y-12394129D02*
X15698281Y-12314129D01*
X15698281Y-12314129D02*
X15743995Y-12394129D01*
X15743995Y-12394129D02*
X15743995Y-12314129D01*
X15866330Y-8452139D02*
X15858711Y-8448330D01*
X15858711Y-8448330D02*
X15847282Y-8448330D01*
X15847282Y-8448330D02*
X15835854Y-8452139D01*
X15835854Y-8452139D02*
X15828235Y-8459758D01*
X15828235Y-8459758D02*
X15824425Y-8467377D01*
X15824425Y-8467377D02*
X15820616Y-8482615D01*
X15820616Y-8482615D02*
X15820616Y-8494044D01*
X15820616Y-8494044D02*
X15824425Y-8509282D01*
X15824425Y-8509282D02*
X15828235Y-8516901D01*
X15828235Y-8516901D02*
X15835854Y-8524520D01*
X15835854Y-8524520D02*
X15847282Y-8528330D01*
X15847282Y-8528330D02*
X15854902Y-8528330D01*
X15854902Y-8528330D02*
X15866330Y-8524520D01*
X15866330Y-8524520D02*
X15870140Y-8520710D01*
X15870140Y-8520710D02*
X15870140Y-8494044D01*
X15870140Y-8494044D02*
X15854902Y-8494044D01*
X15904425Y-8528330D02*
X15904425Y-8448330D01*
X15904425Y-8448330D02*
X15950140Y-8528330D01*
X15950140Y-8528330D02*
X15950140Y-8448330D01*
X15988235Y-8528330D02*
X15988235Y-8448330D01*
X15988235Y-8448330D02*
X16007282Y-8448330D01*
X16007282Y-8448330D02*
X16018711Y-8452139D01*
X16018711Y-8452139D02*
X16026330Y-8459758D01*
X16026330Y-8459758D02*
X16030140Y-8467377D01*
X16030140Y-8467377D02*
X16033949Y-8482615D01*
X16033949Y-8482615D02*
X16033949Y-8494044D01*
X16033949Y-8494044D02*
X16030140Y-8509282D01*
X16030140Y-8509282D02*
X16026330Y-8516901D01*
X16026330Y-8516901D02*
X16018711Y-8524520D01*
X16018711Y-8524520D02*
X16007282Y-8528330D01*
X16007282Y-8528330D02*
X15988235Y-8528330D01*
X10748610Y-9675446D02*
X10748610Y-9721160D01*
X10748610Y-9698303D02*
X10668610Y-9698303D01*
X10668610Y-9698303D02*
X10680038Y-9705922D01*
X10680038Y-9705922D02*
X10687657Y-9713541D01*
X10687657Y-9713541D02*
X10691467Y-9721160D01*
X10744800Y-9644970D02*
X10748610Y-9637351D01*
X10748610Y-9637351D02*
X10748610Y-9622113D01*
X10748610Y-9622113D02*
X10744800Y-9614494D01*
X10744800Y-9614494D02*
X10737181Y-9610684D01*
X10737181Y-9610684D02*
X10733371Y-9610684D01*
X10733371Y-9610684D02*
X10725752Y-9614494D01*
X10725752Y-9614494D02*
X10721943Y-9622113D01*
X10721943Y-9622113D02*
X10721943Y-9633541D01*
X10721943Y-9633541D02*
X10718133Y-9641160D01*
X10718133Y-9641160D02*
X10710514Y-9644970D01*
X10710514Y-9644970D02*
X10706705Y-9644970D01*
X10706705Y-9644970D02*
X10699086Y-9641160D01*
X10699086Y-9641160D02*
X10695276Y-9633541D01*
X10695276Y-9633541D02*
X10695276Y-9622113D01*
X10695276Y-9622113D02*
X10699086Y-9614494D01*
X10688777Y-7445349D02*
X10715444Y-7525349D01*
X10715444Y-7525349D02*
X10742110Y-7445349D01*
X10768777Y-7525349D02*
X10768777Y-7445349D01*
X10806872Y-7525349D02*
X10806872Y-7445349D01*
X10806872Y-7445349D02*
X10852586Y-7525349D01*
X10852586Y-7525349D02*
X10852586Y-7445349D01*
X15830140Y-8740425D02*
X15856806Y-8740425D01*
X15868235Y-8782330D02*
X15830140Y-8782330D01*
X15830140Y-8782330D02*
X15830140Y-8702330D01*
X15830140Y-8702330D02*
X15868235Y-8702330D01*
X15902521Y-8782330D02*
X15902521Y-8702330D01*
X15902521Y-8702330D02*
X15948235Y-8782330D01*
X15948235Y-8782330D02*
X15948235Y-8702330D01*
X11995810Y-13244169D02*
X12049143Y-13244169D01*
X12049143Y-13244169D02*
X12014858Y-13324169D01*
X12075810Y-13320360D02*
X12083429Y-13324169D01*
X12083429Y-13324169D02*
X12098667Y-13324169D01*
X12098667Y-13324169D02*
X12106286Y-13320360D01*
X12106286Y-13320360D02*
X12110096Y-13312741D01*
X12110096Y-13312741D02*
X12110096Y-13308931D01*
X12110096Y-13308931D02*
X12106286Y-13301312D01*
X12106286Y-13301312D02*
X12098667Y-13297503D01*
X12098667Y-13297503D02*
X12087239Y-13297503D01*
X12087239Y-13297503D02*
X12079620Y-13293693D01*
X12079620Y-13293693D02*
X12075810Y-13286074D01*
X12075810Y-13286074D02*
X12075810Y-13282265D01*
X12075810Y-13282265D02*
X12079620Y-13274646D01*
X12079620Y-13274646D02*
X12087239Y-13270836D01*
X12087239Y-13270836D02*
X12098667Y-13270836D01*
X12098667Y-13270836D02*
X12106286Y-13274646D01*
D11*
X14617580Y-7495943D02*
X14546151Y-7495943D01*
X14546151Y-7495943D02*
X14546151Y-7345943D01*
X14646151Y-7345943D02*
X14731865Y-7345943D01*
X14689008Y-7495943D02*
X14689008Y-7345943D01*
X14867580Y-7481657D02*
X14860437Y-7488800D01*
X14860437Y-7488800D02*
X14839008Y-7495943D01*
X14839008Y-7495943D02*
X14824722Y-7495943D01*
X14824722Y-7495943D02*
X14803294Y-7488800D01*
X14803294Y-7488800D02*
X14789008Y-7474514D01*
X14789008Y-7474514D02*
X14781865Y-7460228D01*
X14781865Y-7460228D02*
X14774722Y-7431657D01*
X14774722Y-7431657D02*
X14774722Y-7410228D01*
X14774722Y-7410228D02*
X14781865Y-7381657D01*
X14781865Y-7381657D02*
X14789008Y-7367371D01*
X14789008Y-7367371D02*
X14803294Y-7353086D01*
X14803294Y-7353086D02*
X14824722Y-7345943D01*
X14824722Y-7345943D02*
X14839008Y-7345943D01*
X14839008Y-7345943D02*
X14860437Y-7353086D01*
X14860437Y-7353086D02*
X14867580Y-7360228D01*
X14924722Y-7360228D02*
X14931865Y-7353086D01*
X14931865Y-7353086D02*
X14946151Y-7345943D01*
X14946151Y-7345943D02*
X14981865Y-7345943D01*
X14981865Y-7345943D02*
X14996151Y-7353086D01*
X14996151Y-7353086D02*
X15003294Y-7360228D01*
X15003294Y-7360228D02*
X15010437Y-7374514D01*
X15010437Y-7374514D02*
X15010437Y-7388800D01*
X15010437Y-7388800D02*
X15003294Y-7410228D01*
X15003294Y-7410228D02*
X14917580Y-7495943D01*
X14917580Y-7495943D02*
X15010437Y-7495943D01*
X15081865Y-7495943D02*
X15110437Y-7495943D01*
X15110437Y-7495943D02*
X15124722Y-7488800D01*
X15124722Y-7488800D02*
X15131865Y-7481657D01*
X15131865Y-7481657D02*
X15146151Y-7460228D01*
X15146151Y-7460228D02*
X15153294Y-7431657D01*
X15153294Y-7431657D02*
X15153294Y-7374514D01*
X15153294Y-7374514D02*
X15146151Y-7360228D01*
X15146151Y-7360228D02*
X15139008Y-7353086D01*
X15139008Y-7353086D02*
X15124722Y-7345943D01*
X15124722Y-7345943D02*
X15096151Y-7345943D01*
X15096151Y-7345943D02*
X15081865Y-7353086D01*
X15081865Y-7353086D02*
X15074722Y-7360228D01*
X15074722Y-7360228D02*
X15067580Y-7374514D01*
X15067580Y-7374514D02*
X15067580Y-7410228D01*
X15067580Y-7410228D02*
X15074722Y-7424514D01*
X15074722Y-7424514D02*
X15081865Y-7431657D01*
X15081865Y-7431657D02*
X15096151Y-7438800D01*
X15096151Y-7438800D02*
X15124722Y-7438800D01*
X15124722Y-7438800D02*
X15139008Y-7431657D01*
X15139008Y-7431657D02*
X15146151Y-7424514D01*
X15146151Y-7424514D02*
X15153294Y-7410228D01*
X15289008Y-7345943D02*
X15217579Y-7345943D01*
X15217579Y-7345943D02*
X15210437Y-7417371D01*
X15210437Y-7417371D02*
X15217579Y-7410228D01*
X15217579Y-7410228D02*
X15231865Y-7403086D01*
X15231865Y-7403086D02*
X15267579Y-7403086D01*
X15267579Y-7403086D02*
X15281865Y-7410228D01*
X15281865Y-7410228D02*
X15289008Y-7417371D01*
X15289008Y-7417371D02*
X15296151Y-7431657D01*
X15296151Y-7431657D02*
X15296151Y-7467371D01*
X15296151Y-7467371D02*
X15289008Y-7481657D01*
X15289008Y-7481657D02*
X15281865Y-7488800D01*
X15281865Y-7488800D02*
X15267579Y-7495943D01*
X15267579Y-7495943D02*
X15231865Y-7495943D01*
X15231865Y-7495943D02*
X15217579Y-7488800D01*
X15217579Y-7488800D02*
X15210437Y-7481657D01*
X15431865Y-7345943D02*
X15360437Y-7345943D01*
X15360437Y-7345943D02*
X15353294Y-7417371D01*
X15353294Y-7417371D02*
X15360437Y-7410228D01*
X15360437Y-7410228D02*
X15374722Y-7403086D01*
X15374722Y-7403086D02*
X15410437Y-7403086D01*
X15410437Y-7403086D02*
X15424722Y-7410228D01*
X15424722Y-7410228D02*
X15431865Y-7417371D01*
X15431865Y-7417371D02*
X15439008Y-7431657D01*
X15439008Y-7431657D02*
X15439008Y-7467371D01*
X15439008Y-7467371D02*
X15431865Y-7481657D01*
X15431865Y-7481657D02*
X15424722Y-7488800D01*
X15424722Y-7488800D02*
X15410437Y-7495943D01*
X15410437Y-7495943D02*
X15374722Y-7495943D01*
X15374722Y-7495943D02*
X15360437Y-7488800D01*
X15360437Y-7488800D02*
X15353294Y-7481657D01*
D10*
X11024210Y-9724970D02*
X11024210Y-9675446D01*
X11024210Y-9675446D02*
X11054686Y-9702113D01*
X11054686Y-9702113D02*
X11054686Y-9690684D01*
X11054686Y-9690684D02*
X11058495Y-9683065D01*
X11058495Y-9683065D02*
X11062305Y-9679256D01*
X11062305Y-9679256D02*
X11069924Y-9675446D01*
X11069924Y-9675446D02*
X11088971Y-9675446D01*
X11088971Y-9675446D02*
X11096590Y-9679256D01*
X11096590Y-9679256D02*
X11100400Y-9683065D01*
X11100400Y-9683065D02*
X11104210Y-9690684D01*
X11104210Y-9690684D02*
X11104210Y-9713541D01*
X11104210Y-9713541D02*
X11100400Y-9721160D01*
X11100400Y-9721160D02*
X11096590Y-9724970D01*
X11100400Y-9644970D02*
X11104210Y-9637351D01*
X11104210Y-9637351D02*
X11104210Y-9622113D01*
X11104210Y-9622113D02*
X11100400Y-9614494D01*
X11100400Y-9614494D02*
X11092781Y-9610684D01*
X11092781Y-9610684D02*
X11088971Y-9610684D01*
X11088971Y-9610684D02*
X11081352Y-9614494D01*
X11081352Y-9614494D02*
X11077543Y-9622113D01*
X11077543Y-9622113D02*
X11077543Y-9633541D01*
X11077543Y-9633541D02*
X11073733Y-9641160D01*
X11073733Y-9641160D02*
X11066114Y-9644970D01*
X11066114Y-9644970D02*
X11062305Y-9644970D01*
X11062305Y-9644970D02*
X11054686Y-9641160D01*
X11054686Y-9641160D02*
X11050876Y-9633541D01*
X11050876Y-9633541D02*
X11050876Y-9622113D01*
X11050876Y-9622113D02*
X11054686Y-9614494D01*
D11*
X14617580Y-11082423D02*
X14546151Y-11082423D01*
X14546151Y-11082423D02*
X14546151Y-10932423D01*
X14646151Y-10932423D02*
X14731865Y-10932423D01*
X14689008Y-11082423D02*
X14689008Y-10932423D01*
X14867580Y-11068137D02*
X14860437Y-11075280D01*
X14860437Y-11075280D02*
X14839008Y-11082423D01*
X14839008Y-11082423D02*
X14824722Y-11082423D01*
X14824722Y-11082423D02*
X14803294Y-11075280D01*
X14803294Y-11075280D02*
X14789008Y-11060994D01*
X14789008Y-11060994D02*
X14781865Y-11046709D01*
X14781865Y-11046709D02*
X14774722Y-11018137D01*
X14774722Y-11018137D02*
X14774722Y-10996709D01*
X14774722Y-10996709D02*
X14781865Y-10968137D01*
X14781865Y-10968137D02*
X14789008Y-10953851D01*
X14789008Y-10953851D02*
X14803294Y-10939566D01*
X14803294Y-10939566D02*
X14824722Y-10932423D01*
X14824722Y-10932423D02*
X14839008Y-10932423D01*
X14839008Y-10932423D02*
X14860437Y-10939566D01*
X14860437Y-10939566D02*
X14867580Y-10946709D01*
X14924722Y-10946709D02*
X14931865Y-10939566D01*
X14931865Y-10939566D02*
X14946151Y-10932423D01*
X14946151Y-10932423D02*
X14981865Y-10932423D01*
X14981865Y-10932423D02*
X14996151Y-10939566D01*
X14996151Y-10939566D02*
X15003294Y-10946709D01*
X15003294Y-10946709D02*
X15010437Y-10960994D01*
X15010437Y-10960994D02*
X15010437Y-10975280D01*
X15010437Y-10975280D02*
X15003294Y-10996709D01*
X15003294Y-10996709D02*
X14917580Y-11082423D01*
X14917580Y-11082423D02*
X15010437Y-11082423D01*
X15081865Y-11082423D02*
X15110437Y-11082423D01*
X15110437Y-11082423D02*
X15124722Y-11075280D01*
X15124722Y-11075280D02*
X15131865Y-11068137D01*
X15131865Y-11068137D02*
X15146151Y-11046709D01*
X15146151Y-11046709D02*
X15153294Y-11018137D01*
X15153294Y-11018137D02*
X15153294Y-10960994D01*
X15153294Y-10960994D02*
X15146151Y-10946709D01*
X15146151Y-10946709D02*
X15139008Y-10939566D01*
X15139008Y-10939566D02*
X15124722Y-10932423D01*
X15124722Y-10932423D02*
X15096151Y-10932423D01*
X15096151Y-10932423D02*
X15081865Y-10939566D01*
X15081865Y-10939566D02*
X15074722Y-10946709D01*
X15074722Y-10946709D02*
X15067580Y-10960994D01*
X15067580Y-10960994D02*
X15067580Y-10996709D01*
X15067580Y-10996709D02*
X15074722Y-11010994D01*
X15074722Y-11010994D02*
X15081865Y-11018137D01*
X15081865Y-11018137D02*
X15096151Y-11025280D01*
X15096151Y-11025280D02*
X15124722Y-11025280D01*
X15124722Y-11025280D02*
X15139008Y-11018137D01*
X15139008Y-11018137D02*
X15146151Y-11010994D01*
X15146151Y-11010994D02*
X15153294Y-10996709D01*
X15289008Y-10932423D02*
X15217579Y-10932423D01*
X15217579Y-10932423D02*
X15210437Y-11003851D01*
X15210437Y-11003851D02*
X15217579Y-10996709D01*
X15217579Y-10996709D02*
X15231865Y-10989566D01*
X15231865Y-10989566D02*
X15267579Y-10989566D01*
X15267579Y-10989566D02*
X15281865Y-10996709D01*
X15281865Y-10996709D02*
X15289008Y-11003851D01*
X15289008Y-11003851D02*
X15296151Y-11018137D01*
X15296151Y-11018137D02*
X15296151Y-11053851D01*
X15296151Y-11053851D02*
X15289008Y-11068137D01*
X15289008Y-11068137D02*
X15281865Y-11075280D01*
X15281865Y-11075280D02*
X15267579Y-11082423D01*
X15267579Y-11082423D02*
X15231865Y-11082423D01*
X15231865Y-11082423D02*
X15217579Y-11075280D01*
X15217579Y-11075280D02*
X15210437Y-11068137D01*
X15389008Y-10932423D02*
X15403294Y-10932423D01*
X15403294Y-10932423D02*
X15417579Y-10939566D01*
X15417579Y-10939566D02*
X15424722Y-10946709D01*
X15424722Y-10946709D02*
X15431865Y-10960994D01*
X15431865Y-10960994D02*
X15439008Y-10989566D01*
X15439008Y-10989566D02*
X15439008Y-11025280D01*
X15439008Y-11025280D02*
X15431865Y-11053851D01*
X15431865Y-11053851D02*
X15424722Y-11068137D01*
X15424722Y-11068137D02*
X15417579Y-11075280D01*
X15417579Y-11075280D02*
X15403294Y-11082423D01*
X15403294Y-11082423D02*
X15389008Y-11082423D01*
X15389008Y-11082423D02*
X15374722Y-11075280D01*
X15374722Y-11075280D02*
X15367579Y-11068137D01*
X15367579Y-11068137D02*
X15360437Y-11053851D01*
X15360437Y-11053851D02*
X15353294Y-11025280D01*
X15353294Y-11025280D02*
X15353294Y-10989566D01*
X15353294Y-10989566D02*
X15360437Y-10960994D01*
X15360437Y-10960994D02*
X15367579Y-10946709D01*
X15367579Y-10946709D02*
X15374722Y-10939566D01*
X15374722Y-10939566D02*
X15389008Y-10932423D01*
D10*
X10709097Y-11019130D02*
X10735764Y-11099130D01*
X10735764Y-11099130D02*
X10762430Y-11019130D01*
X10789097Y-11099130D02*
X10789097Y-11019130D01*
X10827192Y-11099130D02*
X10827192Y-11019130D01*
X10827192Y-11019130D02*
X10872906Y-11099130D01*
X10872906Y-11099130D02*
X10872906Y-11019130D01*
X10762430Y-10768939D02*
X10754811Y-10765130D01*
X10754811Y-10765130D02*
X10743383Y-10765130D01*
X10743383Y-10765130D02*
X10731954Y-10768939D01*
X10731954Y-10768939D02*
X10724335Y-10776558D01*
X10724335Y-10776558D02*
X10720525Y-10784177D01*
X10720525Y-10784177D02*
X10716716Y-10799415D01*
X10716716Y-10799415D02*
X10716716Y-10810844D01*
X10716716Y-10810844D02*
X10720525Y-10826082D01*
X10720525Y-10826082D02*
X10724335Y-10833701D01*
X10724335Y-10833701D02*
X10731954Y-10841320D01*
X10731954Y-10841320D02*
X10743383Y-10845130D01*
X10743383Y-10845130D02*
X10751002Y-10845130D01*
X10751002Y-10845130D02*
X10762430Y-10841320D01*
X10762430Y-10841320D02*
X10766240Y-10837510D01*
X10766240Y-10837510D02*
X10766240Y-10810844D01*
X10766240Y-10810844D02*
X10751002Y-10810844D01*
X10800525Y-10845130D02*
X10800525Y-10765130D01*
X10800525Y-10765130D02*
X10846240Y-10845130D01*
X10846240Y-10845130D02*
X10846240Y-10765130D01*
X10884335Y-10845130D02*
X10884335Y-10765130D01*
X10884335Y-10765130D02*
X10903383Y-10765130D01*
X10903383Y-10765130D02*
X10914811Y-10768939D01*
X10914811Y-10768939D02*
X10922430Y-10776558D01*
X10922430Y-10776558D02*
X10926240Y-10784177D01*
X10926240Y-10784177D02*
X10930049Y-10799415D01*
X10930049Y-10799415D02*
X10930049Y-10810844D01*
X10930049Y-10810844D02*
X10926240Y-10826082D01*
X10926240Y-10826082D02*
X10922430Y-10833701D01*
X10922430Y-10833701D02*
X10914811Y-10841320D01*
X10914811Y-10841320D02*
X10903383Y-10845130D01*
X10903383Y-10845130D02*
X10884335Y-10845130D01*
X15620185Y-11096420D02*
X15620185Y-11016420D01*
X15665900Y-11096420D02*
X15631614Y-11050705D01*
X15665900Y-11016420D02*
X15620185Y-11062134D01*
X15700185Y-11096420D02*
X15700185Y-11016420D01*
X15776376Y-11096420D02*
X15738281Y-11096420D01*
X15738281Y-11096420D02*
X15738281Y-11016420D01*
X15841138Y-11096420D02*
X15803042Y-11096420D01*
X15803042Y-11096420D02*
X15803042Y-11016420D01*
X15724330Y-9675470D02*
X15777663Y-9675470D01*
X15777663Y-9675470D02*
X15743378Y-9755470D01*
X15804330Y-9751660D02*
X15811949Y-9755470D01*
X15811949Y-9755470D02*
X15827187Y-9755470D01*
X15827187Y-9755470D02*
X15834806Y-9751660D01*
X15834806Y-9751660D02*
X15838616Y-9744041D01*
X15838616Y-9744041D02*
X15838616Y-9740231D01*
X15838616Y-9740231D02*
X15834806Y-9732612D01*
X15834806Y-9732612D02*
X15827187Y-9728803D01*
X15827187Y-9728803D02*
X15815759Y-9728803D01*
X15815759Y-9728803D02*
X15808140Y-9724993D01*
X15808140Y-9724993D02*
X15804330Y-9717374D01*
X15804330Y-9717374D02*
X15804330Y-9713565D01*
X15804330Y-9713565D02*
X15808140Y-9705946D01*
X15808140Y-9705946D02*
X15815759Y-9702136D01*
X15815759Y-9702136D02*
X15827187Y-9702136D01*
X15827187Y-9702136D02*
X15834806Y-9705946D01*
X12228017Y-7943189D02*
X12254683Y-8023189D01*
X12254683Y-8023189D02*
X12281350Y-7943189D01*
X12308017Y-8023189D02*
X12308017Y-7943189D01*
X12308017Y-7943189D02*
X12338493Y-7943189D01*
X12338493Y-7943189D02*
X12346112Y-7946999D01*
X12346112Y-7946999D02*
X12349921Y-7950808D01*
X12349921Y-7950808D02*
X12353731Y-7958428D01*
X12353731Y-7958428D02*
X12353731Y-7969856D01*
X12353731Y-7969856D02*
X12349921Y-7977475D01*
X12349921Y-7977475D02*
X12346112Y-7981285D01*
X12346112Y-7981285D02*
X12338493Y-7985094D01*
X12338493Y-7985094D02*
X12308017Y-7985094D01*
X12388017Y-7943189D02*
X12388017Y-8007951D01*
X12388017Y-8007951D02*
X12391826Y-8015570D01*
X12391826Y-8015570D02*
X12395636Y-8019380D01*
X12395636Y-8019380D02*
X12403255Y-8023189D01*
X12403255Y-8023189D02*
X12418493Y-8023189D01*
X12418493Y-8023189D02*
X12426112Y-8019380D01*
X12426112Y-8019380D02*
X12429921Y-8015570D01*
X12429921Y-8015570D02*
X12433731Y-8007951D01*
X12433731Y-8007951D02*
X12433731Y-7943189D01*
X14269049Y-13168926D02*
X14269049Y-13214640D01*
X14269049Y-13191783D02*
X14189049Y-13191783D01*
X14189049Y-13191783D02*
X14200478Y-13199402D01*
X14200478Y-13199402D02*
X14208097Y-13207021D01*
X14208097Y-13207021D02*
X14211907Y-13214640D01*
X14265240Y-13138450D02*
X14269049Y-13130831D01*
X14269049Y-13130831D02*
X14269049Y-13115593D01*
X14269049Y-13115593D02*
X14265240Y-13107974D01*
X14265240Y-13107974D02*
X14257621Y-13104164D01*
X14257621Y-13104164D02*
X14253811Y-13104164D01*
X14253811Y-13104164D02*
X14246192Y-13107974D01*
X14246192Y-13107974D02*
X14242383Y-13115593D01*
X14242383Y-13115593D02*
X14242383Y-13127021D01*
X14242383Y-13127021D02*
X14238573Y-13134640D01*
X14238573Y-13134640D02*
X14230954Y-13138450D01*
X14230954Y-13138450D02*
X14227145Y-13138450D01*
X14227145Y-13138450D02*
X14219526Y-13134640D01*
X14219526Y-13134640D02*
X14215716Y-13127021D01*
X14215716Y-13127021D02*
X14215716Y-13115593D01*
X14215716Y-13115593D02*
X14219526Y-13107974D01*
X15812997Y-7950809D02*
X15839663Y-8030809D01*
X15839663Y-8030809D02*
X15866330Y-7950809D01*
X15892997Y-8030809D02*
X15892997Y-7950809D01*
X15892997Y-7950809D02*
X15923473Y-7950809D01*
X15923473Y-7950809D02*
X15931092Y-7954619D01*
X15931092Y-7954619D02*
X15934901Y-7958428D01*
X15934901Y-7958428D02*
X15938711Y-7966048D01*
X15938711Y-7966048D02*
X15938711Y-7977476D01*
X15938711Y-7977476D02*
X15934901Y-7985095D01*
X15934901Y-7985095D02*
X15931092Y-7988905D01*
X15931092Y-7988905D02*
X15923473Y-7992714D01*
X15923473Y-7992714D02*
X15892997Y-7992714D01*
X15972997Y-7950809D02*
X15972997Y-8015571D01*
X15972997Y-8015571D02*
X15976806Y-8023190D01*
X15976806Y-8023190D02*
X15980616Y-8027000D01*
X15980616Y-8027000D02*
X15988235Y-8030809D01*
X15988235Y-8030809D02*
X16003473Y-8030809D01*
X16003473Y-8030809D02*
X16011092Y-8027000D01*
X16011092Y-8027000D02*
X16014901Y-8023190D01*
X16014901Y-8023190D02*
X16018711Y-8015571D01*
X16018711Y-8015571D02*
X16018711Y-7950809D01*
X11978667Y-13579449D02*
X11993905Y-13579449D01*
X11993905Y-13579449D02*
X12001524Y-13583259D01*
X12001524Y-13583259D02*
X12009144Y-13590878D01*
X12009144Y-13590878D02*
X12012953Y-13606116D01*
X12012953Y-13606116D02*
X12012953Y-13632783D01*
X12012953Y-13632783D02*
X12009144Y-13648021D01*
X12009144Y-13648021D02*
X12001524Y-13655640D01*
X12001524Y-13655640D02*
X11993905Y-13659449D01*
X11993905Y-13659449D02*
X11978667Y-13659449D01*
X11978667Y-13659449D02*
X11971048Y-13655640D01*
X11971048Y-13655640D02*
X11963429Y-13648021D01*
X11963429Y-13648021D02*
X11959620Y-13632783D01*
X11959620Y-13632783D02*
X11959620Y-13606116D01*
X11959620Y-13606116D02*
X11963429Y-13590878D01*
X11963429Y-13590878D02*
X11971048Y-13583259D01*
X11971048Y-13583259D02*
X11978667Y-13579449D01*
X12073905Y-13617545D02*
X12047239Y-13617545D01*
X12047239Y-13659449D02*
X12047239Y-13579449D01*
X12047239Y-13579449D02*
X12085334Y-13579449D01*
X12142477Y-13617545D02*
X12115810Y-13617545D01*
X12115810Y-13659449D02*
X12115810Y-13579449D01*
X12115810Y-13579449D02*
X12153905Y-13579449D01*
X15724330Y-8954110D02*
X15773854Y-8954110D01*
X15773854Y-8954110D02*
X15747187Y-8984586D01*
X15747187Y-8984586D02*
X15758616Y-8984586D01*
X15758616Y-8984586D02*
X15766235Y-8988395D01*
X15766235Y-8988395D02*
X15770044Y-8992205D01*
X15770044Y-8992205D02*
X15773854Y-8999824D01*
X15773854Y-8999824D02*
X15773854Y-9018871D01*
X15773854Y-9018871D02*
X15770044Y-9026490D01*
X15770044Y-9026490D02*
X15766235Y-9030300D01*
X15766235Y-9030300D02*
X15758616Y-9034110D01*
X15758616Y-9034110D02*
X15735759Y-9034110D01*
X15735759Y-9034110D02*
X15728140Y-9030300D01*
X15728140Y-9030300D02*
X15724330Y-9026490D01*
X15804330Y-9030300D02*
X15811949Y-9034110D01*
X15811949Y-9034110D02*
X15827187Y-9034110D01*
X15827187Y-9034110D02*
X15834806Y-9030300D01*
X15834806Y-9030300D02*
X15838616Y-9022681D01*
X15838616Y-9022681D02*
X15838616Y-9018871D01*
X15838616Y-9018871D02*
X15834806Y-9011252D01*
X15834806Y-9011252D02*
X15827187Y-9007443D01*
X15827187Y-9007443D02*
X15815759Y-9007443D01*
X15815759Y-9007443D02*
X15808140Y-9003633D01*
X15808140Y-9003633D02*
X15804330Y-8996014D01*
X15804330Y-8996014D02*
X15804330Y-8992205D01*
X15804330Y-8992205D02*
X15808140Y-8984586D01*
X15808140Y-8984586D02*
X15815759Y-8980776D01*
X15815759Y-8980776D02*
X15827187Y-8980776D01*
X15827187Y-8980776D02*
X15834806Y-8984586D01*
X12149270Y-10769119D02*
X12141651Y-10765310D01*
X12141651Y-10765310D02*
X12130222Y-10765310D01*
X12130222Y-10765310D02*
X12118794Y-10769119D01*
X12118794Y-10769119D02*
X12111175Y-10776738D01*
X12111175Y-10776738D02*
X12107365Y-10784357D01*
X12107365Y-10784357D02*
X12103556Y-10799595D01*
X12103556Y-10799595D02*
X12103556Y-10811024D01*
X12103556Y-10811024D02*
X12107365Y-10826262D01*
X12107365Y-10826262D02*
X12111175Y-10833881D01*
X12111175Y-10833881D02*
X12118794Y-10841500D01*
X12118794Y-10841500D02*
X12130222Y-10845310D01*
X12130222Y-10845310D02*
X12137842Y-10845310D01*
X12137842Y-10845310D02*
X12149270Y-10841500D01*
X12149270Y-10841500D02*
X12153080Y-10837690D01*
X12153080Y-10837690D02*
X12153080Y-10811024D01*
X12153080Y-10811024D02*
X12137842Y-10811024D01*
X12187365Y-10845310D02*
X12187365Y-10765310D01*
X12187365Y-10765310D02*
X12233080Y-10845310D01*
X12233080Y-10845310D02*
X12233080Y-10765310D01*
X12271175Y-10845310D02*
X12271175Y-10765310D01*
X12271175Y-10765310D02*
X12290222Y-10765310D01*
X12290222Y-10765310D02*
X12301651Y-10769119D01*
X12301651Y-10769119D02*
X12309270Y-10776738D01*
X12309270Y-10776738D02*
X12313080Y-10784357D01*
X12313080Y-10784357D02*
X12316889Y-10799595D01*
X12316889Y-10799595D02*
X12316889Y-10811024D01*
X12316889Y-10811024D02*
X12313080Y-10826262D01*
X12313080Y-10826262D02*
X12309270Y-10833881D01*
X12309270Y-10833881D02*
X12301651Y-10841500D01*
X12301651Y-10841500D02*
X12290222Y-10845310D01*
X12290222Y-10845310D02*
X12271175Y-10845310D01*
X15662090Y-12063939D02*
X15654471Y-12060129D01*
X15654471Y-12060129D02*
X15643042Y-12060129D01*
X15643042Y-12060129D02*
X15631614Y-12063939D01*
X15631614Y-12063939D02*
X15623995Y-12071558D01*
X15623995Y-12071558D02*
X15620185Y-12079177D01*
X15620185Y-12079177D02*
X15616376Y-12094415D01*
X15616376Y-12094415D02*
X15616376Y-12105844D01*
X15616376Y-12105844D02*
X15620185Y-12121082D01*
X15620185Y-12121082D02*
X15623995Y-12128701D01*
X15623995Y-12128701D02*
X15631614Y-12136320D01*
X15631614Y-12136320D02*
X15643042Y-12140129D01*
X15643042Y-12140129D02*
X15650662Y-12140129D01*
X15650662Y-12140129D02*
X15662090Y-12136320D01*
X15662090Y-12136320D02*
X15665900Y-12132510D01*
X15665900Y-12132510D02*
X15665900Y-12105844D01*
X15665900Y-12105844D02*
X15650662Y-12105844D01*
X15700185Y-12140129D02*
X15700185Y-12060129D01*
X15700185Y-12060129D02*
X15745900Y-12140129D01*
X15745900Y-12140129D02*
X15745900Y-12060129D01*
X15783995Y-12140129D02*
X15783995Y-12060129D01*
X15783995Y-12060129D02*
X15803042Y-12060129D01*
X15803042Y-12060129D02*
X15814471Y-12063939D01*
X15814471Y-12063939D02*
X15822090Y-12071558D01*
X15822090Y-12071558D02*
X15825900Y-12079177D01*
X15825900Y-12079177D02*
X15829709Y-12094415D01*
X15829709Y-12094415D02*
X15829709Y-12105844D01*
X15829709Y-12105844D02*
X15825900Y-12121082D01*
X15825900Y-12121082D02*
X15822090Y-12128701D01*
X15822090Y-12128701D02*
X15814471Y-12136320D01*
X15814471Y-12136320D02*
X15803042Y-12140129D01*
X15803042Y-12140129D02*
X15783995Y-12140129D01*
D12*
X10783503Y-9057367D02*
X10783503Y-9081176D01*
X10759693Y-9071653D02*
X10783503Y-9081176D01*
X10783503Y-9081176D02*
X10807312Y-9071653D01*
X10769217Y-9100224D02*
X10783503Y-9081176D01*
X10783503Y-9081176D02*
X10797788Y-9100224D01*
D10*
X14211757Y-7442809D02*
X14238423Y-7522809D01*
X14238423Y-7522809D02*
X14265090Y-7442809D01*
X14291757Y-7522809D02*
X14291757Y-7442809D01*
X14329852Y-7522809D02*
X14329852Y-7442809D01*
X14329852Y-7442809D02*
X14375566Y-7522809D01*
X14375566Y-7522809D02*
X14375566Y-7442809D01*
X11995810Y-12522809D02*
X12045334Y-12522809D01*
X12045334Y-12522809D02*
X12018667Y-12553286D01*
X12018667Y-12553286D02*
X12030096Y-12553286D01*
X12030096Y-12553286D02*
X12037715Y-12557095D01*
X12037715Y-12557095D02*
X12041524Y-12560905D01*
X12041524Y-12560905D02*
X12045334Y-12568524D01*
X12045334Y-12568524D02*
X12045334Y-12587571D01*
X12045334Y-12587571D02*
X12041524Y-12595190D01*
X12041524Y-12595190D02*
X12037715Y-12599000D01*
X12037715Y-12599000D02*
X12030096Y-12602809D01*
X12030096Y-12602809D02*
X12007239Y-12602809D01*
X12007239Y-12602809D02*
X11999620Y-12599000D01*
X11999620Y-12599000D02*
X11995810Y-12595190D01*
X12075810Y-12599000D02*
X12083429Y-12602809D01*
X12083429Y-12602809D02*
X12098667Y-12602809D01*
X12098667Y-12602809D02*
X12106286Y-12599000D01*
X12106286Y-12599000D02*
X12110096Y-12591381D01*
X12110096Y-12591381D02*
X12110096Y-12587571D01*
X12110096Y-12587571D02*
X12106286Y-12579952D01*
X12106286Y-12579952D02*
X12098667Y-12576143D01*
X12098667Y-12576143D02*
X12087239Y-12576143D01*
X12087239Y-12576143D02*
X12079620Y-12572333D01*
X12079620Y-12572333D02*
X12075810Y-12564714D01*
X12075810Y-12564714D02*
X12075810Y-12560905D01*
X12075810Y-12560905D02*
X12079620Y-12553286D01*
X12079620Y-12553286D02*
X12087239Y-12549476D01*
X12087239Y-12549476D02*
X12098667Y-12549476D01*
X12098667Y-12549476D02*
X12106286Y-12553286D01*
X10328250Y-13310765D02*
X10328250Y-13303146D01*
X10328250Y-13303146D02*
X10332059Y-13295527D01*
X10332059Y-13295527D02*
X10335869Y-13291718D01*
X10335869Y-13291718D02*
X10343488Y-13287908D01*
X10343488Y-13287908D02*
X10358726Y-13284099D01*
X10358726Y-13284099D02*
X10377773Y-13284099D01*
X10377773Y-13284099D02*
X10393011Y-13287908D01*
X10393011Y-13287908D02*
X10400630Y-13291718D01*
X10400630Y-13291718D02*
X10404440Y-13295527D01*
X10404440Y-13295527D02*
X10408250Y-13303146D01*
X10408250Y-13303146D02*
X10408250Y-13310765D01*
X10408250Y-13310765D02*
X10404440Y-13318385D01*
X10404440Y-13318385D02*
X10400630Y-13322194D01*
X10400630Y-13322194D02*
X10393011Y-13326004D01*
X10393011Y-13326004D02*
X10377773Y-13329813D01*
X10377773Y-13329813D02*
X10358726Y-13329813D01*
X10358726Y-13329813D02*
X10343488Y-13326004D01*
X10343488Y-13326004D02*
X10335869Y-13322194D01*
X10335869Y-13322194D02*
X10332059Y-13318385D01*
X10332059Y-13318385D02*
X10328250Y-13310765D01*
X10400630Y-13249813D02*
X10404440Y-13246004D01*
X10404440Y-13246004D02*
X10408250Y-13249813D01*
X10408250Y-13249813D02*
X10404440Y-13253623D01*
X10404440Y-13253623D02*
X10400630Y-13249813D01*
X10400630Y-13249813D02*
X10408250Y-13249813D01*
X10328250Y-13173623D02*
X10328250Y-13211718D01*
X10328250Y-13211718D02*
X10366345Y-13215527D01*
X10366345Y-13215527D02*
X10362535Y-13211718D01*
X10362535Y-13211718D02*
X10358726Y-13204099D01*
X10358726Y-13204099D02*
X10358726Y-13185051D01*
X10358726Y-13185051D02*
X10362535Y-13177432D01*
X10362535Y-13177432D02*
X10366345Y-13173623D01*
X10366345Y-13173623D02*
X10373964Y-13169813D01*
X10373964Y-13169813D02*
X10393011Y-13169813D01*
X10393011Y-13169813D02*
X10400630Y-13173623D01*
X10400630Y-13173623D02*
X10404440Y-13177432D01*
X10404440Y-13177432D02*
X10408250Y-13185051D01*
X10408250Y-13185051D02*
X10408250Y-13204099D01*
X10408250Y-13204099D02*
X10404440Y-13211718D01*
X10404440Y-13211718D02*
X10400630Y-13215527D01*
X10404440Y-13139337D02*
X10408250Y-13131718D01*
X10408250Y-13131718D02*
X10408250Y-13116480D01*
X10408250Y-13116480D02*
X10404440Y-13108861D01*
X10404440Y-13108861D02*
X10396821Y-13105051D01*
X10396821Y-13105051D02*
X10393011Y-13105051D01*
X10393011Y-13105051D02*
X10385392Y-13108861D01*
X10385392Y-13108861D02*
X10381583Y-13116480D01*
X10381583Y-13116480D02*
X10381583Y-13127908D01*
X10381583Y-13127908D02*
X10377773Y-13135527D01*
X10377773Y-13135527D02*
X10370154Y-13139337D01*
X10370154Y-13139337D02*
X10366345Y-13139337D01*
X10366345Y-13139337D02*
X10358726Y-13135527D01*
X10358726Y-13135527D02*
X10354916Y-13127908D01*
X10354916Y-13127908D02*
X10354916Y-13116480D01*
X10354916Y-13116480D02*
X10358726Y-13108861D01*
X15824425Y-7522809D02*
X15824425Y-7442809D01*
X15870140Y-7522809D02*
X15835854Y-7477095D01*
X15870140Y-7442809D02*
X15824425Y-7488524D01*
X15904425Y-7522809D02*
X15904425Y-7442809D01*
X15980616Y-7522809D02*
X15942521Y-7522809D01*
X15942521Y-7522809D02*
X15942521Y-7442809D01*
X16045378Y-7522809D02*
X16007282Y-7522809D01*
X16007282Y-7522809D02*
X16007282Y-7442809D01*
X12149270Y-12034549D02*
X12141651Y-12030739D01*
X12141651Y-12030739D02*
X12130222Y-12030739D01*
X12130222Y-12030739D02*
X12118794Y-12034549D01*
X12118794Y-12034549D02*
X12111175Y-12042168D01*
X12111175Y-12042168D02*
X12107365Y-12049787D01*
X12107365Y-12049787D02*
X12103556Y-12065025D01*
X12103556Y-12065025D02*
X12103556Y-12076454D01*
X12103556Y-12076454D02*
X12107365Y-12091692D01*
X12107365Y-12091692D02*
X12111175Y-12099311D01*
X12111175Y-12099311D02*
X12118794Y-12106930D01*
X12118794Y-12106930D02*
X12130222Y-12110739D01*
X12130222Y-12110739D02*
X12137842Y-12110739D01*
X12137842Y-12110739D02*
X12149270Y-12106930D01*
X12149270Y-12106930D02*
X12153080Y-12103120D01*
X12153080Y-12103120D02*
X12153080Y-12076454D01*
X12153080Y-12076454D02*
X12137842Y-12076454D01*
X12187365Y-12110739D02*
X12187365Y-12030739D01*
X12187365Y-12030739D02*
X12233080Y-12110739D01*
X12233080Y-12110739D02*
X12233080Y-12030739D01*
X12271175Y-12110739D02*
X12271175Y-12030739D01*
X12271175Y-12030739D02*
X12290222Y-12030739D01*
X12290222Y-12030739D02*
X12301651Y-12034549D01*
X12301651Y-12034549D02*
X12309270Y-12042168D01*
X12309270Y-12042168D02*
X12313080Y-12049787D01*
X12313080Y-12049787D02*
X12316889Y-12065025D01*
X12316889Y-12065025D02*
X12316889Y-12076454D01*
X12316889Y-12076454D02*
X12313080Y-12091692D01*
X12313080Y-12091692D02*
X12309270Y-12099311D01*
X12309270Y-12099311D02*
X12301651Y-12106930D01*
X12301651Y-12106930D02*
X12290222Y-12110739D01*
X12290222Y-12110739D02*
X12271175Y-12110739D01*
X12150544Y-9322410D02*
X12112449Y-9322410D01*
X12112449Y-9322410D02*
X12108640Y-9360505D01*
X12108640Y-9360505D02*
X12112449Y-9356695D01*
X12112449Y-9356695D02*
X12120068Y-9352886D01*
X12120068Y-9352886D02*
X12139116Y-9352886D01*
X12139116Y-9352886D02*
X12146735Y-9356695D01*
X12146735Y-9356695D02*
X12150544Y-9360505D01*
X12150544Y-9360505D02*
X12154354Y-9368124D01*
X12154354Y-9368124D02*
X12154354Y-9387171D01*
X12154354Y-9387171D02*
X12150544Y-9394790D01*
X12150544Y-9394790D02*
X12146735Y-9398600D01*
X12146735Y-9398600D02*
X12139116Y-9402410D01*
X12139116Y-9402410D02*
X12120068Y-9402410D01*
X12120068Y-9402410D02*
X12112449Y-9398600D01*
X12112449Y-9398600D02*
X12108640Y-9394790D01*
X12184830Y-9398600D02*
X12192449Y-9402410D01*
X12192449Y-9402410D02*
X12207687Y-9402410D01*
X12207687Y-9402410D02*
X12215306Y-9398600D01*
X12215306Y-9398600D02*
X12219116Y-9390981D01*
X12219116Y-9390981D02*
X12219116Y-9387171D01*
X12219116Y-9387171D02*
X12215306Y-9379552D01*
X12215306Y-9379552D02*
X12207687Y-9375743D01*
X12207687Y-9375743D02*
X12196259Y-9375743D01*
X12196259Y-9375743D02*
X12188640Y-9371933D01*
X12188640Y-9371933D02*
X12184830Y-9364314D01*
X12184830Y-9364314D02*
X12184830Y-9360505D01*
X12184830Y-9360505D02*
X12188640Y-9352886D01*
X12188640Y-9352886D02*
X12196259Y-9349076D01*
X12196259Y-9349076D02*
X12207687Y-9349076D01*
X12207687Y-9349076D02*
X12215306Y-9352886D01*
X12104830Y-9683090D02*
X12158163Y-9683090D01*
X12158163Y-9683090D02*
X12123878Y-9763090D01*
X12184830Y-9759280D02*
X12192449Y-9763090D01*
X12192449Y-9763090D02*
X12207687Y-9763090D01*
X12207687Y-9763090D02*
X12215306Y-9759280D01*
X12215306Y-9759280D02*
X12219116Y-9751661D01*
X12219116Y-9751661D02*
X12219116Y-9747851D01*
X12219116Y-9747851D02*
X12215306Y-9740232D01*
X12215306Y-9740232D02*
X12207687Y-9736423D01*
X12207687Y-9736423D02*
X12196259Y-9736423D01*
X12196259Y-9736423D02*
X12188640Y-9732613D01*
X12188640Y-9732613D02*
X12184830Y-9724994D01*
X12184830Y-9724994D02*
X12184830Y-9721185D01*
X12184830Y-9721185D02*
X12188640Y-9713566D01*
X12188640Y-9713566D02*
X12196259Y-9709756D01*
X12196259Y-9709756D02*
X12207687Y-9709756D01*
X12207687Y-9709756D02*
X12215306Y-9713566D01*
X12104830Y-8961730D02*
X12154354Y-8961730D01*
X12154354Y-8961730D02*
X12127687Y-8992206D01*
X12127687Y-8992206D02*
X12139116Y-8992206D01*
X12139116Y-8992206D02*
X12146735Y-8996015D01*
X12146735Y-8996015D02*
X12150544Y-8999825D01*
X12150544Y-8999825D02*
X12154354Y-9007444D01*
X12154354Y-9007444D02*
X12154354Y-9026491D01*
X12154354Y-9026491D02*
X12150544Y-9034110D01*
X12150544Y-9034110D02*
X12146735Y-9037920D01*
X12146735Y-9037920D02*
X12139116Y-9041730D01*
X12139116Y-9041730D02*
X12116259Y-9041730D01*
X12116259Y-9041730D02*
X12108640Y-9037920D01*
X12108640Y-9037920D02*
X12104830Y-9034110D01*
X12184830Y-9037920D02*
X12192449Y-9041730D01*
X12192449Y-9041730D02*
X12207687Y-9041730D01*
X12207687Y-9041730D02*
X12215306Y-9037920D01*
X12215306Y-9037920D02*
X12219116Y-9030301D01*
X12219116Y-9030301D02*
X12219116Y-9026491D01*
X12219116Y-9026491D02*
X12215306Y-9018872D01*
X12215306Y-9018872D02*
X12207687Y-9015063D01*
X12207687Y-9015063D02*
X12196259Y-9015063D01*
X12196259Y-9015063D02*
X12188640Y-9011253D01*
X12188640Y-9011253D02*
X12184830Y-9003634D01*
X12184830Y-9003634D02*
X12184830Y-8999825D01*
X12184830Y-8999825D02*
X12188640Y-8992206D01*
X12188640Y-8992206D02*
X12196259Y-8988396D01*
X12196259Y-8988396D02*
X12207687Y-8988396D01*
X12207687Y-8988396D02*
X12215306Y-8992206D01*
X12281350Y-8444519D02*
X12273731Y-8440710D01*
X12273731Y-8440710D02*
X12262302Y-8440710D01*
X12262302Y-8440710D02*
X12250874Y-8444519D01*
X12250874Y-8444519D02*
X12243255Y-8452138D01*
X12243255Y-8452138D02*
X12239445Y-8459757D01*
X12239445Y-8459757D02*
X12235636Y-8474995D01*
X12235636Y-8474995D02*
X12235636Y-8486424D01*
X12235636Y-8486424D02*
X12239445Y-8501662D01*
X12239445Y-8501662D02*
X12243255Y-8509281D01*
X12243255Y-8509281D02*
X12250874Y-8516900D01*
X12250874Y-8516900D02*
X12262302Y-8520710D01*
X12262302Y-8520710D02*
X12269922Y-8520710D01*
X12269922Y-8520710D02*
X12281350Y-8516900D01*
X12281350Y-8516900D02*
X12285160Y-8513090D01*
X12285160Y-8513090D02*
X12285160Y-8486424D01*
X12285160Y-8486424D02*
X12269922Y-8486424D01*
X12319445Y-8520710D02*
X12319445Y-8440710D01*
X12319445Y-8440710D02*
X12365160Y-8520710D01*
X12365160Y-8520710D02*
X12365160Y-8440710D01*
X12403255Y-8520710D02*
X12403255Y-8440710D01*
X12403255Y-8440710D02*
X12422302Y-8440710D01*
X12422302Y-8440710D02*
X12433731Y-8444519D01*
X12433731Y-8444519D02*
X12441350Y-8452138D01*
X12441350Y-8452138D02*
X12445160Y-8459757D01*
X12445160Y-8459757D02*
X12448969Y-8474995D01*
X12448969Y-8474995D02*
X12448969Y-8486424D01*
X12448969Y-8486424D02*
X12445160Y-8501662D01*
X12445160Y-8501662D02*
X12441350Y-8509281D01*
X12441350Y-8509281D02*
X12433731Y-8516900D01*
X12433731Y-8516900D02*
X12422302Y-8520710D01*
X12422302Y-8520710D02*
X12403255Y-8520710D01*
X14265090Y-7192619D02*
X14257471Y-7188809D01*
X14257471Y-7188809D02*
X14246042Y-7188809D01*
X14246042Y-7188809D02*
X14234614Y-7192619D01*
X14234614Y-7192619D02*
X14226995Y-7200238D01*
X14226995Y-7200238D02*
X14223185Y-7207857D01*
X14223185Y-7207857D02*
X14219376Y-7223095D01*
X14219376Y-7223095D02*
X14219376Y-7234524D01*
X14219376Y-7234524D02*
X14223185Y-7249762D01*
X14223185Y-7249762D02*
X14226995Y-7257381D01*
X14226995Y-7257381D02*
X14234614Y-7265000D01*
X14234614Y-7265000D02*
X14246042Y-7268809D01*
X14246042Y-7268809D02*
X14253662Y-7268809D01*
X14253662Y-7268809D02*
X14265090Y-7265000D01*
X14265090Y-7265000D02*
X14268900Y-7261190D01*
X14268900Y-7261190D02*
X14268900Y-7234524D01*
X14268900Y-7234524D02*
X14253662Y-7234524D01*
X14303185Y-7268809D02*
X14303185Y-7188809D01*
X14303185Y-7188809D02*
X14348900Y-7268809D01*
X14348900Y-7268809D02*
X14348900Y-7188809D01*
X14386995Y-7268809D02*
X14386995Y-7188809D01*
X14386995Y-7188809D02*
X14406042Y-7188809D01*
X14406042Y-7188809D02*
X14417471Y-7192619D01*
X14417471Y-7192619D02*
X14425090Y-7200238D01*
X14425090Y-7200238D02*
X14428900Y-7207857D01*
X14428900Y-7207857D02*
X14432709Y-7223095D01*
X14432709Y-7223095D02*
X14432709Y-7234524D01*
X14432709Y-7234524D02*
X14428900Y-7249762D01*
X14428900Y-7249762D02*
X14425090Y-7257381D01*
X14425090Y-7257381D02*
X14417471Y-7265000D01*
X14417471Y-7265000D02*
X14406042Y-7268809D01*
X14406042Y-7268809D02*
X14386995Y-7268809D01*
X12113080Y-12322835D02*
X12139746Y-12322835D01*
X12151175Y-12364739D02*
X12113080Y-12364739D01*
X12113080Y-12364739D02*
X12113080Y-12284739D01*
X12113080Y-12284739D02*
X12151175Y-12284739D01*
X12185461Y-12364739D02*
X12185461Y-12284739D01*
X12185461Y-12284739D02*
X12231175Y-12364739D01*
X12231175Y-12364739D02*
X12231175Y-12284739D01*
X15866330Y-7192619D02*
X15858711Y-7188809D01*
X15858711Y-7188809D02*
X15847282Y-7188809D01*
X15847282Y-7188809D02*
X15835854Y-7192619D01*
X15835854Y-7192619D02*
X15828235Y-7200238D01*
X15828235Y-7200238D02*
X15824425Y-7207857D01*
X15824425Y-7207857D02*
X15820616Y-7223095D01*
X15820616Y-7223095D02*
X15820616Y-7234524D01*
X15820616Y-7234524D02*
X15824425Y-7249762D01*
X15824425Y-7249762D02*
X15828235Y-7257381D01*
X15828235Y-7257381D02*
X15835854Y-7265000D01*
X15835854Y-7265000D02*
X15847282Y-7268809D01*
X15847282Y-7268809D02*
X15854902Y-7268809D01*
X15854902Y-7268809D02*
X15866330Y-7265000D01*
X15866330Y-7265000D02*
X15870140Y-7261190D01*
X15870140Y-7261190D02*
X15870140Y-7234524D01*
X15870140Y-7234524D02*
X15854902Y-7234524D01*
X15904425Y-7268809D02*
X15904425Y-7188809D01*
X15904425Y-7188809D02*
X15950140Y-7268809D01*
X15950140Y-7268809D02*
X15950140Y-7188809D01*
X15988235Y-7268809D02*
X15988235Y-7188809D01*
X15988235Y-7188809D02*
X16007282Y-7188809D01*
X16007282Y-7188809D02*
X16018711Y-7192619D01*
X16018711Y-7192619D02*
X16026330Y-7200238D01*
X16026330Y-7200238D02*
X16030140Y-7207857D01*
X16030140Y-7207857D02*
X16033949Y-7223095D01*
X16033949Y-7223095D02*
X16033949Y-7234524D01*
X16033949Y-7234524D02*
X16030140Y-7249762D01*
X16030140Y-7249762D02*
X16026330Y-7257381D01*
X16026330Y-7257381D02*
X16018711Y-7265000D01*
X16018711Y-7265000D02*
X16007282Y-7268809D01*
X16007282Y-7268809D02*
X15988235Y-7268809D01*
X15620185Y-11350419D02*
X15620185Y-11270419D01*
X15658281Y-11350419D02*
X15658281Y-11270419D01*
X15658281Y-11270419D02*
X15703995Y-11350419D01*
X15703995Y-11350419D02*
X15703995Y-11270419D01*
X15730661Y-11270419D02*
X15776376Y-11270419D01*
X15753519Y-11350419D02*
X15753519Y-11270419D01*
X12107365Y-11099310D02*
X12107365Y-11019310D01*
X12153080Y-11099310D02*
X12118794Y-11053595D01*
X12153080Y-11019310D02*
X12107365Y-11065024D01*
X12187365Y-11099310D02*
X12187365Y-11019310D01*
X12263556Y-11099310D02*
X12225461Y-11099310D01*
X12225461Y-11099310D02*
X12225461Y-11019310D01*
X12328318Y-11099310D02*
X12290222Y-11099310D01*
X12290222Y-11099310D02*
X12290222Y-11019310D01*
X11413943Y-13171819D02*
X11429182Y-13171819D01*
X11429182Y-13171819D02*
X11436801Y-13175629D01*
X11436801Y-13175629D02*
X11444420Y-13183248D01*
X11444420Y-13183248D02*
X11448229Y-13198486D01*
X11448229Y-13198486D02*
X11448229Y-13225153D01*
X11448229Y-13225153D02*
X11444420Y-13240391D01*
X11444420Y-13240391D02*
X11436801Y-13248010D01*
X11436801Y-13248010D02*
X11429182Y-13251819D01*
X11429182Y-13251819D02*
X11413943Y-13251819D01*
X11413943Y-13251819D02*
X11406324Y-13248010D01*
X11406324Y-13248010D02*
X11398705Y-13240391D01*
X11398705Y-13240391D02*
X11394896Y-13225153D01*
X11394896Y-13225153D02*
X11394896Y-13198486D01*
X11394896Y-13198486D02*
X11398705Y-13183248D01*
X11398705Y-13183248D02*
X11406324Y-13175629D01*
X11406324Y-13175629D02*
X11413943Y-13171819D01*
X11482515Y-13251819D02*
X11482515Y-13171819D01*
X11482515Y-13171819D02*
X11528229Y-13251819D01*
X11528229Y-13251819D02*
X11528229Y-13171819D01*
X12239445Y-7515189D02*
X12239445Y-7435189D01*
X12285160Y-7515189D02*
X12250874Y-7469475D01*
X12285160Y-7435189D02*
X12239445Y-7480904D01*
X12319445Y-7515189D02*
X12319445Y-7435189D01*
X12395636Y-7515189D02*
X12357541Y-7515189D01*
X12357541Y-7515189D02*
X12357541Y-7435189D01*
X12460398Y-7515189D02*
X12422302Y-7515189D01*
X12422302Y-7515189D02*
X12422302Y-7435189D01*
X14908983Y-13117829D02*
X14924222Y-13117829D01*
X14924222Y-13117829D02*
X14931841Y-13121639D01*
X14931841Y-13121639D02*
X14939460Y-13129258D01*
X14939460Y-13129258D02*
X14943269Y-13144496D01*
X14943269Y-13144496D02*
X14943269Y-13171163D01*
X14943269Y-13171163D02*
X14939460Y-13186401D01*
X14939460Y-13186401D02*
X14931841Y-13194020D01*
X14931841Y-13194020D02*
X14924222Y-13197829D01*
X14924222Y-13197829D02*
X14908983Y-13197829D01*
X14908983Y-13197829D02*
X14901364Y-13194020D01*
X14901364Y-13194020D02*
X14893745Y-13186401D01*
X14893745Y-13186401D02*
X14889936Y-13171163D01*
X14889936Y-13171163D02*
X14889936Y-13144496D01*
X14889936Y-13144496D02*
X14893745Y-13129258D01*
X14893745Y-13129258D02*
X14901364Y-13121639D01*
X14901364Y-13121639D02*
X14908983Y-13117829D01*
X14977555Y-13197829D02*
X14977555Y-13117829D01*
X14977555Y-13117829D02*
X15023269Y-13197829D01*
X15023269Y-13197829D02*
X15023269Y-13117829D01*
D13*
X16149648Y-8192962D02*
X16149648Y-8264390D01*
X16149648Y-8264390D02*
X16144886Y-8278676D01*
X16144886Y-8278676D02*
X16135362Y-8288200D01*
X16135362Y-8288200D02*
X16121076Y-8292962D01*
X16121076Y-8292962D02*
X16111552Y-8292962D01*
X16249648Y-8292962D02*
X16192505Y-8292962D01*
X16221076Y-8292962D02*
X16221076Y-8192962D01*
X16221076Y-8192962D02*
X16211552Y-8207248D01*
X16211552Y-8207248D02*
X16202029Y-8216771D01*
X16202029Y-8216771D02*
X16192505Y-8221533D01*
X16311552Y-8192962D02*
X16321076Y-8192962D01*
X16321076Y-8192962D02*
X16330600Y-8197724D01*
X16330600Y-8197724D02*
X16335362Y-8202486D01*
X16335362Y-8202486D02*
X16340124Y-8212009D01*
X16340124Y-8212009D02*
X16344886Y-8231057D01*
X16344886Y-8231057D02*
X16344886Y-8254867D01*
X16344886Y-8254867D02*
X16340124Y-8273914D01*
X16340124Y-8273914D02*
X16335362Y-8283438D01*
X16335362Y-8283438D02*
X16330600Y-8288200D01*
X16330600Y-8288200D02*
X16321076Y-8292962D01*
X16321076Y-8292962D02*
X16311552Y-8292962D01*
X16311552Y-8292962D02*
X16302029Y-8288200D01*
X16302029Y-8288200D02*
X16297267Y-8283438D01*
X16297267Y-8283438D02*
X16292505Y-8273914D01*
X16292505Y-8273914D02*
X16287743Y-8254867D01*
X16287743Y-8254867D02*
X16287743Y-8231057D01*
X16287743Y-8231057D02*
X16292505Y-8212009D01*
X16292505Y-8212009D02*
X16297267Y-8202486D01*
X16297267Y-8202486D02*
X16302029Y-8197724D01*
X16302029Y-8197724D02*
X16311552Y-8192962D01*
X13712674Y-9173318D02*
X13707912Y-9178080D01*
X13707912Y-9178080D02*
X13693627Y-9182842D01*
X13693627Y-9182842D02*
X13684103Y-9182842D01*
X13684103Y-9182842D02*
X13669817Y-9178080D01*
X13669817Y-9178080D02*
X13660293Y-9168556D01*
X13660293Y-9168556D02*
X13655531Y-9159032D01*
X13655531Y-9159032D02*
X13650769Y-9139985D01*
X13650769Y-9139985D02*
X13650769Y-9125699D01*
X13650769Y-9125699D02*
X13655531Y-9106651D01*
X13655531Y-9106651D02*
X13660293Y-9097128D01*
X13660293Y-9097128D02*
X13669817Y-9087604D01*
X13669817Y-9087604D02*
X13684103Y-9082842D01*
X13684103Y-9082842D02*
X13693627Y-9082842D01*
X13693627Y-9082842D02*
X13707912Y-9087604D01*
X13707912Y-9087604D02*
X13712674Y-9092366D01*
X13750769Y-9092366D02*
X13755531Y-9087604D01*
X13755531Y-9087604D02*
X13765055Y-9082842D01*
X13765055Y-9082842D02*
X13788865Y-9082842D01*
X13788865Y-9082842D02*
X13798388Y-9087604D01*
X13798388Y-9087604D02*
X13803150Y-9092366D01*
X13803150Y-9092366D02*
X13807912Y-9101890D01*
X13807912Y-9101890D02*
X13807912Y-9111413D01*
X13807912Y-9111413D02*
X13803150Y-9125699D01*
X13803150Y-9125699D02*
X13746008Y-9182842D01*
X13746008Y-9182842D02*
X13807912Y-9182842D01*
X13898388Y-9082842D02*
X13850769Y-9082842D01*
X13850769Y-9082842D02*
X13846008Y-9130461D01*
X13846008Y-9130461D02*
X13850769Y-9125699D01*
X13850769Y-9125699D02*
X13860293Y-9120937D01*
X13860293Y-9120937D02*
X13884103Y-9120937D01*
X13884103Y-9120937D02*
X13893627Y-9125699D01*
X13893627Y-9125699D02*
X13898388Y-9130461D01*
X13898388Y-9130461D02*
X13903150Y-9139985D01*
X13903150Y-9139985D02*
X13903150Y-9163794D01*
X13903150Y-9163794D02*
X13898388Y-9173318D01*
X13898388Y-9173318D02*
X13893627Y-9178080D01*
X13893627Y-9178080D02*
X13884103Y-9182842D01*
X13884103Y-9182842D02*
X13860293Y-9182842D01*
X13860293Y-9182842D02*
X13850769Y-9178080D01*
X13850769Y-9178080D02*
X13846008Y-9173318D01*
X11730833Y-9410462D02*
X11697500Y-9362843D01*
X11673690Y-9410462D02*
X11673690Y-9310462D01*
X11673690Y-9310462D02*
X11711786Y-9310462D01*
X11711786Y-9310462D02*
X11721309Y-9315224D01*
X11721309Y-9315224D02*
X11726071Y-9319986D01*
X11726071Y-9319986D02*
X11730833Y-9329510D01*
X11730833Y-9329510D02*
X11730833Y-9343795D01*
X11730833Y-9343795D02*
X11726071Y-9353319D01*
X11726071Y-9353319D02*
X11721309Y-9358081D01*
X11721309Y-9358081D02*
X11711786Y-9362843D01*
X11711786Y-9362843D02*
X11673690Y-9362843D01*
X11778452Y-9410462D02*
X11797500Y-9410462D01*
X11797500Y-9410462D02*
X11807024Y-9405700D01*
X11807024Y-9405700D02*
X11811786Y-9400938D01*
X11811786Y-9400938D02*
X11821309Y-9386652D01*
X11821309Y-9386652D02*
X11826071Y-9367605D01*
X11826071Y-9367605D02*
X11826071Y-9329510D01*
X11826071Y-9329510D02*
X11821309Y-9319986D01*
X11821309Y-9319986D02*
X11816548Y-9315224D01*
X11816548Y-9315224D02*
X11807024Y-9310462D01*
X11807024Y-9310462D02*
X11787976Y-9310462D01*
X11787976Y-9310462D02*
X11778452Y-9315224D01*
X11778452Y-9315224D02*
X11773690Y-9319986D01*
X11773690Y-9319986D02*
X11768929Y-9329510D01*
X11768929Y-9329510D02*
X11768929Y-9353319D01*
X11768929Y-9353319D02*
X11773690Y-9362843D01*
X11773690Y-9362843D02*
X11778452Y-9367605D01*
X11778452Y-9367605D02*
X11787976Y-9372367D01*
X11787976Y-9372367D02*
X11807024Y-9372367D01*
X11807024Y-9372367D02*
X11816548Y-9367605D01*
X11816548Y-9367605D02*
X11821309Y-9362843D01*
X11821309Y-9362843D02*
X11826071Y-9353319D01*
X15983907Y-10527122D02*
X15983907Y-10598550D01*
X15983907Y-10598550D02*
X15979145Y-10612836D01*
X15979145Y-10612836D02*
X15969621Y-10622360D01*
X15969621Y-10622360D02*
X15955335Y-10627122D01*
X15955335Y-10627122D02*
X15945811Y-10627122D01*
X16022002Y-10527122D02*
X16088668Y-10527122D01*
X16088668Y-10527122D02*
X16045811Y-10627122D01*
X12342314Y-12621028D02*
X12337552Y-12625790D01*
X12337552Y-12625790D02*
X12323267Y-12630552D01*
X12323267Y-12630552D02*
X12313743Y-12630552D01*
X12313743Y-12630552D02*
X12299457Y-12625790D01*
X12299457Y-12625790D02*
X12289933Y-12616266D01*
X12289933Y-12616266D02*
X12285171Y-12606742D01*
X12285171Y-12606742D02*
X12280409Y-12587695D01*
X12280409Y-12587695D02*
X12280409Y-12573409D01*
X12280409Y-12573409D02*
X12285171Y-12554361D01*
X12285171Y-12554361D02*
X12289933Y-12544838D01*
X12289933Y-12544838D02*
X12299457Y-12535314D01*
X12299457Y-12535314D02*
X12313743Y-12530552D01*
X12313743Y-12530552D02*
X12323267Y-12530552D01*
X12323267Y-12530552D02*
X12337552Y-12535314D01*
X12337552Y-12535314D02*
X12342314Y-12540076D01*
X12437552Y-12630552D02*
X12380409Y-12630552D01*
X12408981Y-12630552D02*
X12408981Y-12530552D01*
X12408981Y-12530552D02*
X12399457Y-12544838D01*
X12399457Y-12544838D02*
X12389933Y-12554361D01*
X12389933Y-12554361D02*
X12380409Y-12559123D01*
X12470886Y-12530552D02*
X12532790Y-12530552D01*
X12532790Y-12530552D02*
X12499457Y-12568647D01*
X12499457Y-12568647D02*
X12513743Y-12568647D01*
X12513743Y-12568647D02*
X12523267Y-12573409D01*
X12523267Y-12573409D02*
X12528028Y-12578171D01*
X12528028Y-12578171D02*
X12532790Y-12587695D01*
X12532790Y-12587695D02*
X12532790Y-12611504D01*
X12532790Y-12611504D02*
X12528028Y-12621028D01*
X12528028Y-12621028D02*
X12523267Y-12625790D01*
X12523267Y-12625790D02*
X12513743Y-12630552D01*
X12513743Y-12630552D02*
X12485171Y-12630552D01*
X12485171Y-12630552D02*
X12475648Y-12625790D01*
X12475648Y-12625790D02*
X12470886Y-12621028D01*
X11160970Y-12475892D02*
X11160970Y-12556844D01*
X11160970Y-12556844D02*
X11165731Y-12566368D01*
X11165731Y-12566368D02*
X11170493Y-12571130D01*
X11170493Y-12571130D02*
X11180017Y-12575892D01*
X11180017Y-12575892D02*
X11199065Y-12575892D01*
X11199065Y-12575892D02*
X11208588Y-12571130D01*
X11208588Y-12571130D02*
X11213350Y-12566368D01*
X11213350Y-12566368D02*
X11218112Y-12556844D01*
X11218112Y-12556844D02*
X11218112Y-12475892D01*
X11318112Y-12575892D02*
X11260969Y-12575892D01*
X11289541Y-12575892D02*
X11289541Y-12475892D01*
X11289541Y-12475892D02*
X11280017Y-12490178D01*
X11280017Y-12490178D02*
X11270493Y-12499701D01*
X11270493Y-12499701D02*
X11260969Y-12504463D01*
X14715020Y-11962233D02*
X14719782Y-11947947D01*
X14719782Y-11947947D02*
X14719782Y-11924138D01*
X14719782Y-11924138D02*
X14715020Y-11914614D01*
X14715020Y-11914614D02*
X14710258Y-11909852D01*
X14710258Y-11909852D02*
X14700734Y-11905090D01*
X14700734Y-11905090D02*
X14691210Y-11905090D01*
X14691210Y-11905090D02*
X14681687Y-11909852D01*
X14681687Y-11909852D02*
X14676925Y-11914614D01*
X14676925Y-11914614D02*
X14672163Y-11924138D01*
X14672163Y-11924138D02*
X14667401Y-11943186D01*
X14667401Y-11943186D02*
X14662639Y-11952709D01*
X14662639Y-11952709D02*
X14657877Y-11957471D01*
X14657877Y-11957471D02*
X14648353Y-11962233D01*
X14648353Y-11962233D02*
X14638829Y-11962233D01*
X14638829Y-11962233D02*
X14629306Y-11957471D01*
X14629306Y-11957471D02*
X14624544Y-11952709D01*
X14624544Y-11952709D02*
X14619782Y-11943186D01*
X14619782Y-11943186D02*
X14619782Y-11919376D01*
X14619782Y-11919376D02*
X14624544Y-11905090D01*
X14619782Y-11871757D02*
X14719782Y-11847947D01*
X14719782Y-11847947D02*
X14648353Y-11828900D01*
X14648353Y-11828900D02*
X14719782Y-11809852D01*
X14719782Y-11809852D02*
X14619782Y-11786043D01*
X14719782Y-11695567D02*
X14719782Y-11752709D01*
X14719782Y-11724138D02*
X14619782Y-11724138D01*
X14619782Y-11724138D02*
X14634068Y-11733662D01*
X14634068Y-11733662D02*
X14643591Y-11743186D01*
X14643591Y-11743186D02*
X14648353Y-11752709D01*
X16087574Y-9419978D02*
X16082812Y-9424740D01*
X16082812Y-9424740D02*
X16068527Y-9429502D01*
X16068527Y-9429502D02*
X16059003Y-9429502D01*
X16059003Y-9429502D02*
X16044717Y-9424740D01*
X16044717Y-9424740D02*
X16035193Y-9415216D01*
X16035193Y-9415216D02*
X16030431Y-9405692D01*
X16030431Y-9405692D02*
X16025669Y-9386645D01*
X16025669Y-9386645D02*
X16025669Y-9372359D01*
X16025669Y-9372359D02*
X16030431Y-9353311D01*
X16030431Y-9353311D02*
X16035193Y-9343788D01*
X16035193Y-9343788D02*
X16044717Y-9334264D01*
X16044717Y-9334264D02*
X16059003Y-9329502D01*
X16059003Y-9329502D02*
X16068527Y-9329502D01*
X16068527Y-9329502D02*
X16082812Y-9334264D01*
X16082812Y-9334264D02*
X16087574Y-9339026D01*
X16120908Y-9329502D02*
X16182812Y-9329502D01*
X16182812Y-9329502D02*
X16149479Y-9367597D01*
X16149479Y-9367597D02*
X16163765Y-9367597D01*
X16163765Y-9367597D02*
X16173288Y-9372359D01*
X16173288Y-9372359D02*
X16178050Y-9377121D01*
X16178050Y-9377121D02*
X16182812Y-9386645D01*
X16182812Y-9386645D02*
X16182812Y-9410454D01*
X16182812Y-9410454D02*
X16178050Y-9419978D01*
X16178050Y-9419978D02*
X16173288Y-9424740D01*
X16173288Y-9424740D02*
X16163765Y-9429502D01*
X16163765Y-9429502D02*
X16135193Y-9429502D01*
X16135193Y-9429502D02*
X16125669Y-9424740D01*
X16125669Y-9424740D02*
X16120908Y-9419978D01*
X16278050Y-9429502D02*
X16220908Y-9429502D01*
X16249479Y-9429502D02*
X16249479Y-9329502D01*
X16249479Y-9329502D02*
X16239955Y-9343788D01*
X16239955Y-9343788D02*
X16230431Y-9353311D01*
X16230431Y-9353311D02*
X16220908Y-9358073D01*
X14771854Y-8929018D02*
X14767092Y-8933780D01*
X14767092Y-8933780D02*
X14752807Y-8938542D01*
X14752807Y-8938542D02*
X14743283Y-8938542D01*
X14743283Y-8938542D02*
X14728997Y-8933780D01*
X14728997Y-8933780D02*
X14719473Y-8924256D01*
X14719473Y-8924256D02*
X14714711Y-8914732D01*
X14714711Y-8914732D02*
X14709949Y-8895685D01*
X14709949Y-8895685D02*
X14709949Y-8881399D01*
X14709949Y-8881399D02*
X14714711Y-8862351D01*
X14714711Y-8862351D02*
X14719473Y-8852828D01*
X14719473Y-8852828D02*
X14728997Y-8843304D01*
X14728997Y-8843304D02*
X14743283Y-8838542D01*
X14743283Y-8838542D02*
X14752807Y-8838542D01*
X14752807Y-8838542D02*
X14767092Y-8843304D01*
X14767092Y-8843304D02*
X14771854Y-8848066D01*
X14809949Y-8848066D02*
X14814711Y-8843304D01*
X14814711Y-8843304D02*
X14824235Y-8838542D01*
X14824235Y-8838542D02*
X14848045Y-8838542D01*
X14848045Y-8838542D02*
X14857568Y-8843304D01*
X14857568Y-8843304D02*
X14862330Y-8848066D01*
X14862330Y-8848066D02*
X14867092Y-8857590D01*
X14867092Y-8857590D02*
X14867092Y-8867113D01*
X14867092Y-8867113D02*
X14862330Y-8881399D01*
X14862330Y-8881399D02*
X14805188Y-8938542D01*
X14805188Y-8938542D02*
X14867092Y-8938542D01*
X14914711Y-8938542D02*
X14933759Y-8938542D01*
X14933759Y-8938542D02*
X14943283Y-8933780D01*
X14943283Y-8933780D02*
X14948045Y-8929018D01*
X14948045Y-8929018D02*
X14957568Y-8914732D01*
X14957568Y-8914732D02*
X14962330Y-8895685D01*
X14962330Y-8895685D02*
X14962330Y-8857590D01*
X14962330Y-8857590D02*
X14957568Y-8848066D01*
X14957568Y-8848066D02*
X14952807Y-8843304D01*
X14952807Y-8843304D02*
X14943283Y-8838542D01*
X14943283Y-8838542D02*
X14924235Y-8838542D01*
X14924235Y-8838542D02*
X14914711Y-8843304D01*
X14914711Y-8843304D02*
X14909949Y-8848066D01*
X14909949Y-8848066D02*
X14905188Y-8857590D01*
X14905188Y-8857590D02*
X14905188Y-8881399D01*
X14905188Y-8881399D02*
X14909949Y-8890923D01*
X14909949Y-8890923D02*
X14914711Y-8895685D01*
X14914711Y-8895685D02*
X14924235Y-8900447D01*
X14924235Y-8900447D02*
X14943283Y-8900447D01*
X14943283Y-8900447D02*
X14952807Y-8895685D01*
X14952807Y-8895685D02*
X14957568Y-8890923D01*
X14957568Y-8890923D02*
X14962330Y-8881399D01*
X12475094Y-9781178D02*
X12470332Y-9785940D01*
X12470332Y-9785940D02*
X12456047Y-9790702D01*
X12456047Y-9790702D02*
X12446523Y-9790702D01*
X12446523Y-9790702D02*
X12432237Y-9785940D01*
X12432237Y-9785940D02*
X12422713Y-9776416D01*
X12422713Y-9776416D02*
X12417951Y-9766892D01*
X12417951Y-9766892D02*
X12413189Y-9747845D01*
X12413189Y-9747845D02*
X12413189Y-9733559D01*
X12413189Y-9733559D02*
X12417951Y-9714511D01*
X12417951Y-9714511D02*
X12422713Y-9704988D01*
X12422713Y-9704988D02*
X12432237Y-9695464D01*
X12432237Y-9695464D02*
X12446523Y-9690702D01*
X12446523Y-9690702D02*
X12456047Y-9690702D01*
X12456047Y-9690702D02*
X12470332Y-9695464D01*
X12470332Y-9695464D02*
X12475094Y-9700226D01*
X12513189Y-9700226D02*
X12517951Y-9695464D01*
X12517951Y-9695464D02*
X12527475Y-9690702D01*
X12527475Y-9690702D02*
X12551285Y-9690702D01*
X12551285Y-9690702D02*
X12560808Y-9695464D01*
X12560808Y-9695464D02*
X12565570Y-9700226D01*
X12565570Y-9700226D02*
X12570332Y-9709750D01*
X12570332Y-9709750D02*
X12570332Y-9719273D01*
X12570332Y-9719273D02*
X12565570Y-9733559D01*
X12565570Y-9733559D02*
X12508428Y-9790702D01*
X12508428Y-9790702D02*
X12570332Y-9790702D01*
X12665570Y-9790702D02*
X12608428Y-9790702D01*
X12636999Y-9790702D02*
X12636999Y-9690702D01*
X12636999Y-9690702D02*
X12627475Y-9704988D01*
X12627475Y-9704988D02*
X12617951Y-9714511D01*
X12617951Y-9714511D02*
X12608428Y-9719273D01*
X14220758Y-13491047D02*
X14225520Y-13495808D01*
X14225520Y-13495808D02*
X14230282Y-13510094D01*
X14230282Y-13510094D02*
X14230282Y-13519618D01*
X14230282Y-13519618D02*
X14225520Y-13533904D01*
X14225520Y-13533904D02*
X14215996Y-13543427D01*
X14215996Y-13543427D02*
X14206472Y-13548189D01*
X14206472Y-13548189D02*
X14187425Y-13552951D01*
X14187425Y-13552951D02*
X14173139Y-13552951D01*
X14173139Y-13552951D02*
X14154091Y-13548189D01*
X14154091Y-13548189D02*
X14144568Y-13543427D01*
X14144568Y-13543427D02*
X14135044Y-13533904D01*
X14135044Y-13533904D02*
X14130282Y-13519618D01*
X14130282Y-13519618D02*
X14130282Y-13510094D01*
X14130282Y-13510094D02*
X14135044Y-13495808D01*
X14135044Y-13495808D02*
X14139806Y-13491047D01*
X14173139Y-13433904D02*
X14168377Y-13443427D01*
X14168377Y-13443427D02*
X14163615Y-13448189D01*
X14163615Y-13448189D02*
X14154091Y-13452951D01*
X14154091Y-13452951D02*
X14149329Y-13452951D01*
X14149329Y-13452951D02*
X14139806Y-13448189D01*
X14139806Y-13448189D02*
X14135044Y-13443427D01*
X14135044Y-13443427D02*
X14130282Y-13433904D01*
X14130282Y-13433904D02*
X14130282Y-13414856D01*
X14130282Y-13414856D02*
X14135044Y-13405332D01*
X14135044Y-13405332D02*
X14139806Y-13400570D01*
X14139806Y-13400570D02*
X14149329Y-13395808D01*
X14149329Y-13395808D02*
X14154091Y-13395808D01*
X14154091Y-13395808D02*
X14163615Y-13400570D01*
X14163615Y-13400570D02*
X14168377Y-13405332D01*
X14168377Y-13405332D02*
X14173139Y-13414856D01*
X14173139Y-13414856D02*
X14173139Y-13433904D01*
X14173139Y-13433904D02*
X14177901Y-13443427D01*
X14177901Y-13443427D02*
X14182663Y-13448189D01*
X14182663Y-13448189D02*
X14192187Y-13452951D01*
X14192187Y-13452951D02*
X14211234Y-13452951D01*
X14211234Y-13452951D02*
X14220758Y-13448189D01*
X14220758Y-13448189D02*
X14225520Y-13443427D01*
X14225520Y-13443427D02*
X14230282Y-13433904D01*
X14230282Y-13433904D02*
X14230282Y-13414856D01*
X14230282Y-13414856D02*
X14225520Y-13405332D01*
X14225520Y-13405332D02*
X14220758Y-13400570D01*
X14220758Y-13400570D02*
X14211234Y-13395808D01*
X14211234Y-13395808D02*
X14192187Y-13395808D01*
X14192187Y-13395808D02*
X14182663Y-13400570D01*
X14182663Y-13400570D02*
X14177901Y-13405332D01*
X14177901Y-13405332D02*
X14173139Y-13414856D01*
X13990967Y-11232982D02*
X13990967Y-11304410D01*
X13990967Y-11304410D02*
X13986205Y-11318696D01*
X13986205Y-11318696D02*
X13976681Y-11328220D01*
X13976681Y-11328220D02*
X13962395Y-11332982D01*
X13962395Y-11332982D02*
X13952871Y-11332982D01*
X14052871Y-11275839D02*
X14043348Y-11271077D01*
X14043348Y-11271077D02*
X14038586Y-11266315D01*
X14038586Y-11266315D02*
X14033824Y-11256791D01*
X14033824Y-11256791D02*
X14033824Y-11252029D01*
X14033824Y-11252029D02*
X14038586Y-11242506D01*
X14038586Y-11242506D02*
X14043348Y-11237744D01*
X14043348Y-11237744D02*
X14052871Y-11232982D01*
X14052871Y-11232982D02*
X14071919Y-11232982D01*
X14071919Y-11232982D02*
X14081443Y-11237744D01*
X14081443Y-11237744D02*
X14086205Y-11242506D01*
X14086205Y-11242506D02*
X14090967Y-11252029D01*
X14090967Y-11252029D02*
X14090967Y-11256791D01*
X14090967Y-11256791D02*
X14086205Y-11266315D01*
X14086205Y-11266315D02*
X14081443Y-11271077D01*
X14081443Y-11271077D02*
X14071919Y-11275839D01*
X14071919Y-11275839D02*
X14052871Y-11275839D01*
X14052871Y-11275839D02*
X14043348Y-11280601D01*
X14043348Y-11280601D02*
X14038586Y-11285363D01*
X14038586Y-11285363D02*
X14033824Y-11294887D01*
X14033824Y-11294887D02*
X14033824Y-11313934D01*
X14033824Y-11313934D02*
X14038586Y-11323458D01*
X14038586Y-11323458D02*
X14043348Y-11328220D01*
X14043348Y-11328220D02*
X14052871Y-11332982D01*
X14052871Y-11332982D02*
X14071919Y-11332982D01*
X14071919Y-11332982D02*
X14081443Y-11328220D01*
X14081443Y-11328220D02*
X14086205Y-11323458D01*
X14086205Y-11323458D02*
X14090967Y-11313934D01*
X14090967Y-11313934D02*
X14090967Y-11294887D01*
X14090967Y-11294887D02*
X14086205Y-11285363D01*
X14086205Y-11285363D02*
X14081443Y-11280601D01*
X14081443Y-11280601D02*
X14071919Y-11275839D01*
X12453307Y-11794582D02*
X12453307Y-11866010D01*
X12453307Y-11866010D02*
X12448545Y-11880296D01*
X12448545Y-11880296D02*
X12439021Y-11889820D01*
X12439021Y-11889820D02*
X12424735Y-11894582D01*
X12424735Y-11894582D02*
X12415211Y-11894582D01*
X12543783Y-11794582D02*
X12524735Y-11794582D01*
X12524735Y-11794582D02*
X12515211Y-11799344D01*
X12515211Y-11799344D02*
X12510449Y-11804106D01*
X12510449Y-11804106D02*
X12500926Y-11818391D01*
X12500926Y-11818391D02*
X12496164Y-11837439D01*
X12496164Y-11837439D02*
X12496164Y-11875534D01*
X12496164Y-11875534D02*
X12500926Y-11885058D01*
X12500926Y-11885058D02*
X12505688Y-11889820D01*
X12505688Y-11889820D02*
X12515211Y-11894582D01*
X12515211Y-11894582D02*
X12534259Y-11894582D01*
X12534259Y-11894582D02*
X12543783Y-11889820D01*
X12543783Y-11889820D02*
X12548545Y-11885058D01*
X12548545Y-11885058D02*
X12553307Y-11875534D01*
X12553307Y-11875534D02*
X12553307Y-11851725D01*
X12553307Y-11851725D02*
X12548545Y-11842201D01*
X12548545Y-11842201D02*
X12543783Y-11837439D01*
X12543783Y-11837439D02*
X12534259Y-11832677D01*
X12534259Y-11832677D02*
X12515211Y-11832677D01*
X12515211Y-11832677D02*
X12505688Y-11837439D01*
X12505688Y-11837439D02*
X12500926Y-11842201D01*
X12500926Y-11842201D02*
X12496164Y-11851725D01*
X16087574Y-9064978D02*
X16082812Y-9069740D01*
X16082812Y-9069740D02*
X16068527Y-9074502D01*
X16068527Y-9074502D02*
X16059003Y-9074502D01*
X16059003Y-9074502D02*
X16044717Y-9069740D01*
X16044717Y-9069740D02*
X16035193Y-9060216D01*
X16035193Y-9060216D02*
X16030431Y-9050692D01*
X16030431Y-9050692D02*
X16025669Y-9031645D01*
X16025669Y-9031645D02*
X16025669Y-9017359D01*
X16025669Y-9017359D02*
X16030431Y-8998311D01*
X16030431Y-8998311D02*
X16035193Y-8988788D01*
X16035193Y-8988788D02*
X16044717Y-8979264D01*
X16044717Y-8979264D02*
X16059003Y-8974502D01*
X16059003Y-8974502D02*
X16068527Y-8974502D01*
X16068527Y-8974502D02*
X16082812Y-8979264D01*
X16082812Y-8979264D02*
X16087574Y-8984026D01*
X16120908Y-8974502D02*
X16182812Y-8974502D01*
X16182812Y-8974502D02*
X16149479Y-9012597D01*
X16149479Y-9012597D02*
X16163765Y-9012597D01*
X16163765Y-9012597D02*
X16173288Y-9017359D01*
X16173288Y-9017359D02*
X16178050Y-9022121D01*
X16178050Y-9022121D02*
X16182812Y-9031645D01*
X16182812Y-9031645D02*
X16182812Y-9055454D01*
X16182812Y-9055454D02*
X16178050Y-9064978D01*
X16178050Y-9064978D02*
X16173288Y-9069740D01*
X16173288Y-9069740D02*
X16163765Y-9074502D01*
X16163765Y-9074502D02*
X16135193Y-9074502D01*
X16135193Y-9074502D02*
X16125669Y-9069740D01*
X16125669Y-9069740D02*
X16120908Y-9064978D01*
X16244717Y-8974502D02*
X16254241Y-8974502D01*
X16254241Y-8974502D02*
X16263765Y-8979264D01*
X16263765Y-8979264D02*
X16268527Y-8984026D01*
X16268527Y-8984026D02*
X16273288Y-8993550D01*
X16273288Y-8993550D02*
X16278050Y-9012597D01*
X16278050Y-9012597D02*
X16278050Y-9036407D01*
X16278050Y-9036407D02*
X16273288Y-9055454D01*
X16273288Y-9055454D02*
X16268527Y-9064978D01*
X16268527Y-9064978D02*
X16263765Y-9069740D01*
X16263765Y-9069740D02*
X16254241Y-9074502D01*
X16254241Y-9074502D02*
X16244717Y-9074502D01*
X16244717Y-9074502D02*
X16235193Y-9069740D01*
X16235193Y-9069740D02*
X16230431Y-9064978D01*
X16230431Y-9064978D02*
X16225669Y-9055454D01*
X16225669Y-9055454D02*
X16220908Y-9036407D01*
X16220908Y-9036407D02*
X16220908Y-9012597D01*
X16220908Y-9012597D02*
X16225669Y-8993550D01*
X16225669Y-8993550D02*
X16230431Y-8984026D01*
X16230431Y-8984026D02*
X16235193Y-8979264D01*
X16235193Y-8979264D02*
X16244717Y-8974502D01*
X11051648Y-10057886D02*
X11056410Y-10062648D01*
X11056410Y-10062648D02*
X11061172Y-10076933D01*
X11061172Y-10076933D02*
X11061172Y-10086457D01*
X11061172Y-10086457D02*
X11056410Y-10100743D01*
X11056410Y-10100743D02*
X11046886Y-10110267D01*
X11046886Y-10110267D02*
X11037362Y-10115029D01*
X11037362Y-10115029D02*
X11018315Y-10119790D01*
X11018315Y-10119790D02*
X11004029Y-10119790D01*
X11004029Y-10119790D02*
X10984981Y-10115029D01*
X10984981Y-10115029D02*
X10975458Y-10110267D01*
X10975458Y-10110267D02*
X10965934Y-10100743D01*
X10965934Y-10100743D02*
X10961172Y-10086457D01*
X10961172Y-10086457D02*
X10961172Y-10076933D01*
X10961172Y-10076933D02*
X10965934Y-10062648D01*
X10965934Y-10062648D02*
X10970696Y-10057886D01*
X10970696Y-10019790D02*
X10965934Y-10015029D01*
X10965934Y-10015029D02*
X10961172Y-10005505D01*
X10961172Y-10005505D02*
X10961172Y-9981695D01*
X10961172Y-9981695D02*
X10965934Y-9972171D01*
X10965934Y-9972171D02*
X10970696Y-9967410D01*
X10970696Y-9967410D02*
X10980220Y-9962648D01*
X10980220Y-9962648D02*
X10989743Y-9962648D01*
X10989743Y-9962648D02*
X11004029Y-9967410D01*
X11004029Y-9967410D02*
X11061172Y-10024552D01*
X11061172Y-10024552D02*
X11061172Y-9962648D01*
X10961172Y-9929314D02*
X10961172Y-9867410D01*
X10961172Y-9867410D02*
X10999267Y-9900743D01*
X10999267Y-9900743D02*
X10999267Y-9886457D01*
X10999267Y-9886457D02*
X11004029Y-9876933D01*
X11004029Y-9876933D02*
X11008791Y-9872171D01*
X11008791Y-9872171D02*
X11018315Y-9867410D01*
X11018315Y-9867410D02*
X11042124Y-9867410D01*
X11042124Y-9867410D02*
X11051648Y-9872171D01*
X11051648Y-9872171D02*
X11056410Y-9876933D01*
X11056410Y-9876933D02*
X11061172Y-9886457D01*
X11061172Y-9886457D02*
X11061172Y-9915029D01*
X11061172Y-9915029D02*
X11056410Y-9924552D01*
X11056410Y-9924552D02*
X11051648Y-9929314D01*
X12342314Y-13344188D02*
X12337552Y-13348950D01*
X12337552Y-13348950D02*
X12323267Y-13353712D01*
X12323267Y-13353712D02*
X12313743Y-13353712D01*
X12313743Y-13353712D02*
X12299457Y-13348950D01*
X12299457Y-13348950D02*
X12289933Y-13339426D01*
X12289933Y-13339426D02*
X12285171Y-13329902D01*
X12285171Y-13329902D02*
X12280409Y-13310855D01*
X12280409Y-13310855D02*
X12280409Y-13296569D01*
X12280409Y-13296569D02*
X12285171Y-13277521D01*
X12285171Y-13277521D02*
X12289933Y-13267998D01*
X12289933Y-13267998D02*
X12299457Y-13258474D01*
X12299457Y-13258474D02*
X12313743Y-13253712D01*
X12313743Y-13253712D02*
X12323267Y-13253712D01*
X12323267Y-13253712D02*
X12337552Y-13258474D01*
X12337552Y-13258474D02*
X12342314Y-13263236D01*
X12437552Y-13353712D02*
X12380409Y-13353712D01*
X12408981Y-13353712D02*
X12408981Y-13253712D01*
X12408981Y-13253712D02*
X12399457Y-13267998D01*
X12399457Y-13267998D02*
X12389933Y-13277521D01*
X12389933Y-13277521D02*
X12380409Y-13282283D01*
X12532790Y-13353712D02*
X12475648Y-13353712D01*
X12504219Y-13353712D02*
X12504219Y-13253712D01*
X12504219Y-13253712D02*
X12494695Y-13267998D01*
X12494695Y-13267998D02*
X12485171Y-13277521D01*
X12485171Y-13277521D02*
X12475648Y-13282283D01*
X10918674Y-8803278D02*
X10913912Y-8808040D01*
X10913912Y-8808040D02*
X10899627Y-8812802D01*
X10899627Y-8812802D02*
X10890103Y-8812802D01*
X10890103Y-8812802D02*
X10875817Y-8808040D01*
X10875817Y-8808040D02*
X10866293Y-8798516D01*
X10866293Y-8798516D02*
X10861531Y-8788992D01*
X10861531Y-8788992D02*
X10856770Y-8769945D01*
X10856770Y-8769945D02*
X10856770Y-8755659D01*
X10856770Y-8755659D02*
X10861531Y-8736611D01*
X10861531Y-8736611D02*
X10866293Y-8727088D01*
X10866293Y-8727088D02*
X10875817Y-8717564D01*
X10875817Y-8717564D02*
X10890103Y-8712802D01*
X10890103Y-8712802D02*
X10899627Y-8712802D01*
X10899627Y-8712802D02*
X10913912Y-8717564D01*
X10913912Y-8717564D02*
X10918674Y-8722326D01*
X11013912Y-8812802D02*
X10956770Y-8812802D01*
X10985341Y-8812802D02*
X10985341Y-8712802D01*
X10985341Y-8712802D02*
X10975817Y-8727088D01*
X10975817Y-8727088D02*
X10966293Y-8736611D01*
X10966293Y-8736611D02*
X10956770Y-8741373D01*
X11071055Y-8755659D02*
X11061531Y-8750897D01*
X11061531Y-8750897D02*
X11056770Y-8746135D01*
X11056770Y-8746135D02*
X11052008Y-8736611D01*
X11052008Y-8736611D02*
X11052008Y-8731850D01*
X11052008Y-8731850D02*
X11056770Y-8722326D01*
X11056770Y-8722326D02*
X11061531Y-8717564D01*
X11061531Y-8717564D02*
X11071055Y-8712802D01*
X11071055Y-8712802D02*
X11090103Y-8712802D01*
X11090103Y-8712802D02*
X11099627Y-8717564D01*
X11099627Y-8717564D02*
X11104389Y-8722326D01*
X11104389Y-8722326D02*
X11109150Y-8731850D01*
X11109150Y-8731850D02*
X11109150Y-8736611D01*
X11109150Y-8736611D02*
X11104389Y-8746135D01*
X11104389Y-8746135D02*
X11099627Y-8750897D01*
X11099627Y-8750897D02*
X11090103Y-8755659D01*
X11090103Y-8755659D02*
X11071055Y-8755659D01*
X11071055Y-8755659D02*
X11061531Y-8760421D01*
X11061531Y-8760421D02*
X11056770Y-8765183D01*
X11056770Y-8765183D02*
X11052008Y-8774707D01*
X11052008Y-8774707D02*
X11052008Y-8793754D01*
X11052008Y-8793754D02*
X11056770Y-8803278D01*
X11056770Y-8803278D02*
X11061531Y-8808040D01*
X11061531Y-8808040D02*
X11071055Y-8812802D01*
X11071055Y-8812802D02*
X11090103Y-8812802D01*
X11090103Y-8812802D02*
X11099627Y-8808040D01*
X11099627Y-8808040D02*
X11104389Y-8803278D01*
X11104389Y-8803278D02*
X11109150Y-8793754D01*
X11109150Y-8793754D02*
X11109150Y-8774707D01*
X11109150Y-8774707D02*
X11104389Y-8765183D01*
X11104389Y-8765183D02*
X11099627Y-8760421D01*
X11099627Y-8760421D02*
X11090103Y-8755659D01*
X14449222Y-9821052D02*
X14520650Y-9821052D01*
X14520650Y-9821052D02*
X14534936Y-9825814D01*
X14534936Y-9825814D02*
X14544460Y-9835338D01*
X14544460Y-9835338D02*
X14549222Y-9849624D01*
X14549222Y-9849624D02*
X14549222Y-9859148D01*
X14549222Y-9773433D02*
X14449222Y-9773433D01*
X14449222Y-9773433D02*
X14449222Y-9735338D01*
X14449222Y-9735338D02*
X14453984Y-9725814D01*
X14453984Y-9725814D02*
X14458746Y-9721052D01*
X14458746Y-9721052D02*
X14468269Y-9716290D01*
X14468269Y-9716290D02*
X14482555Y-9716290D01*
X14482555Y-9716290D02*
X14492079Y-9721052D01*
X14492079Y-9721052D02*
X14496841Y-9725814D01*
X14496841Y-9725814D02*
X14501603Y-9735338D01*
X14501603Y-9735338D02*
X14501603Y-9773433D01*
X14458746Y-9678195D02*
X14453984Y-9673433D01*
X14453984Y-9673433D02*
X14449222Y-9663909D01*
X14449222Y-9663909D02*
X14449222Y-9640100D01*
X14449222Y-9640100D02*
X14453984Y-9630576D01*
X14453984Y-9630576D02*
X14458746Y-9625814D01*
X14458746Y-9625814D02*
X14468269Y-9621052D01*
X14468269Y-9621052D02*
X14477793Y-9621052D01*
X14477793Y-9621052D02*
X14492079Y-9625814D01*
X14492079Y-9625814D02*
X14549222Y-9682957D01*
X14549222Y-9682957D02*
X14549222Y-9621052D01*
X14492079Y-9563909D02*
X14487317Y-9573433D01*
X14487317Y-9573433D02*
X14482555Y-9578195D01*
X14482555Y-9578195D02*
X14473031Y-9582957D01*
X14473031Y-9582957D02*
X14468269Y-9582957D01*
X14468269Y-9582957D02*
X14458746Y-9578195D01*
X14458746Y-9578195D02*
X14453984Y-9573433D01*
X14453984Y-9573433D02*
X14449222Y-9563909D01*
X14449222Y-9563909D02*
X14449222Y-9544862D01*
X14449222Y-9544862D02*
X14453984Y-9535338D01*
X14453984Y-9535338D02*
X14458746Y-9530576D01*
X14458746Y-9530576D02*
X14468269Y-9525814D01*
X14468269Y-9525814D02*
X14473031Y-9525814D01*
X14473031Y-9525814D02*
X14482555Y-9530576D01*
X14482555Y-9530576D02*
X14487317Y-9535338D01*
X14487317Y-9535338D02*
X14492079Y-9544862D01*
X14492079Y-9544862D02*
X14492079Y-9563909D01*
X14492079Y-9563909D02*
X14496841Y-9573433D01*
X14496841Y-9573433D02*
X14501603Y-9578195D01*
X14501603Y-9578195D02*
X14511127Y-9582957D01*
X14511127Y-9582957D02*
X14530174Y-9582957D01*
X14530174Y-9582957D02*
X14539698Y-9578195D01*
X14539698Y-9578195D02*
X14544460Y-9573433D01*
X14544460Y-9573433D02*
X14549222Y-9563909D01*
X14549222Y-9563909D02*
X14549222Y-9544862D01*
X14549222Y-9544862D02*
X14544460Y-9535338D01*
X14544460Y-9535338D02*
X14539698Y-9530576D01*
X14539698Y-9530576D02*
X14530174Y-9525814D01*
X14530174Y-9525814D02*
X14511127Y-9525814D01*
X14511127Y-9525814D02*
X14501603Y-9530576D01*
X14501603Y-9530576D02*
X14496841Y-9535338D01*
X14496841Y-9535338D02*
X14492079Y-9544862D01*
X11155690Y-8926922D02*
X11155690Y-9007874D01*
X11155690Y-9007874D02*
X11160451Y-9017398D01*
X11160451Y-9017398D02*
X11165213Y-9022160D01*
X11165213Y-9022160D02*
X11174737Y-9026922D01*
X11174737Y-9026922D02*
X11193785Y-9026922D01*
X11193785Y-9026922D02*
X11203308Y-9022160D01*
X11203308Y-9022160D02*
X11208070Y-9017398D01*
X11208070Y-9017398D02*
X11212832Y-9007874D01*
X11212832Y-9007874D02*
X11212832Y-8926922D01*
X11250928Y-8926922D02*
X11312832Y-8926922D01*
X11312832Y-8926922D02*
X11279499Y-8965017D01*
X11279499Y-8965017D02*
X11293785Y-8965017D01*
X11293785Y-8965017D02*
X11303308Y-8969779D01*
X11303308Y-8969779D02*
X11308070Y-8974541D01*
X11308070Y-8974541D02*
X11312832Y-8984065D01*
X11312832Y-8984065D02*
X11312832Y-9007874D01*
X11312832Y-9007874D02*
X11308070Y-9017398D01*
X11308070Y-9017398D02*
X11303308Y-9022160D01*
X11303308Y-9022160D02*
X11293785Y-9026922D01*
X11293785Y-9026922D02*
X11265213Y-9026922D01*
X11265213Y-9026922D02*
X11255689Y-9022160D01*
X11255689Y-9022160D02*
X11250928Y-9017398D01*
X11410238Y-10057886D02*
X11415000Y-10062648D01*
X11415000Y-10062648D02*
X11419762Y-10076933D01*
X11419762Y-10076933D02*
X11419762Y-10086457D01*
X11419762Y-10086457D02*
X11415000Y-10100743D01*
X11415000Y-10100743D02*
X11405476Y-10110267D01*
X11405476Y-10110267D02*
X11395952Y-10115029D01*
X11395952Y-10115029D02*
X11376905Y-10119790D01*
X11376905Y-10119790D02*
X11362619Y-10119790D01*
X11362619Y-10119790D02*
X11343571Y-10115029D01*
X11343571Y-10115029D02*
X11334048Y-10110267D01*
X11334048Y-10110267D02*
X11324524Y-10100743D01*
X11324524Y-10100743D02*
X11319762Y-10086457D01*
X11319762Y-10086457D02*
X11319762Y-10076933D01*
X11319762Y-10076933D02*
X11324524Y-10062648D01*
X11324524Y-10062648D02*
X11329286Y-10057886D01*
X11329286Y-10019790D02*
X11324524Y-10015029D01*
X11324524Y-10015029D02*
X11319762Y-10005505D01*
X11319762Y-10005505D02*
X11319762Y-9981695D01*
X11319762Y-9981695D02*
X11324524Y-9972171D01*
X11324524Y-9972171D02*
X11329286Y-9967410D01*
X11329286Y-9967410D02*
X11338809Y-9962648D01*
X11338809Y-9962648D02*
X11348333Y-9962648D01*
X11348333Y-9962648D02*
X11362619Y-9967410D01*
X11362619Y-9967410D02*
X11419762Y-10024552D01*
X11419762Y-10024552D02*
X11419762Y-9962648D01*
X11353095Y-9876933D02*
X11419762Y-9876933D01*
X11315000Y-9900743D02*
X11386428Y-9924552D01*
X11386428Y-9924552D02*
X11386428Y-9862648D01*
X16148408Y-6950802D02*
X16148408Y-7022230D01*
X16148408Y-7022230D02*
X16143646Y-7036516D01*
X16143646Y-7036516D02*
X16134122Y-7046040D01*
X16134122Y-7046040D02*
X16119836Y-7050802D01*
X16119836Y-7050802D02*
X16110312Y-7050802D01*
X16248408Y-7050802D02*
X16191265Y-7050802D01*
X16219836Y-7050802D02*
X16219836Y-6950802D01*
X16219836Y-6950802D02*
X16210312Y-6965088D01*
X16210312Y-6965088D02*
X16200789Y-6974611D01*
X16200789Y-6974611D02*
X16191265Y-6979373D01*
X16343646Y-7050802D02*
X16286503Y-7050802D01*
X16315074Y-7050802D02*
X16315074Y-6950802D01*
X16315074Y-6950802D02*
X16305550Y-6965088D01*
X16305550Y-6965088D02*
X16296027Y-6974611D01*
X16296027Y-6974611D02*
X16286503Y-6979373D01*
X13735407Y-12733862D02*
X13735407Y-12805290D01*
X13735407Y-12805290D02*
X13730645Y-12819576D01*
X13730645Y-12819576D02*
X13721121Y-12829100D01*
X13721121Y-12829100D02*
X13706835Y-12833862D01*
X13706835Y-12833862D02*
X13697311Y-12833862D01*
X13783026Y-12833862D02*
X13783026Y-12733862D01*
X13783026Y-12733862D02*
X13821121Y-12733862D01*
X13821121Y-12733862D02*
X13830645Y-12738624D01*
X13830645Y-12738624D02*
X13835407Y-12743386D01*
X13835407Y-12743386D02*
X13840168Y-12752909D01*
X13840168Y-12752909D02*
X13840168Y-12767195D01*
X13840168Y-12767195D02*
X13835407Y-12776719D01*
X13835407Y-12776719D02*
X13830645Y-12781481D01*
X13830645Y-12781481D02*
X13821121Y-12786243D01*
X13821121Y-12786243D02*
X13783026Y-12786243D01*
X13878264Y-12743386D02*
X13883026Y-12738624D01*
X13883026Y-12738624D02*
X13892549Y-12733862D01*
X13892549Y-12733862D02*
X13916359Y-12733862D01*
X13916359Y-12733862D02*
X13925883Y-12738624D01*
X13925883Y-12738624D02*
X13930645Y-12743386D01*
X13930645Y-12743386D02*
X13935407Y-12752909D01*
X13935407Y-12752909D02*
X13935407Y-12762433D01*
X13935407Y-12762433D02*
X13930645Y-12776719D01*
X13930645Y-12776719D02*
X13873502Y-12833862D01*
X13873502Y-12833862D02*
X13935407Y-12833862D01*
X10226727Y-12738552D02*
X10226727Y-12809980D01*
X10226727Y-12809980D02*
X10221965Y-12824266D01*
X10221965Y-12824266D02*
X10212441Y-12833790D01*
X10212441Y-12833790D02*
X10198155Y-12838552D01*
X10198155Y-12838552D02*
X10188631Y-12838552D01*
X10274346Y-12838552D02*
X10274346Y-12738552D01*
X10274346Y-12738552D02*
X10312441Y-12738552D01*
X10312441Y-12738552D02*
X10321965Y-12743314D01*
X10321965Y-12743314D02*
X10326727Y-12748076D01*
X10326727Y-12748076D02*
X10331489Y-12757599D01*
X10331489Y-12757599D02*
X10331489Y-12771885D01*
X10331489Y-12771885D02*
X10326727Y-12781409D01*
X10326727Y-12781409D02*
X10321965Y-12786171D01*
X10321965Y-12786171D02*
X10312441Y-12790933D01*
X10312441Y-12790933D02*
X10274346Y-12790933D01*
X10417203Y-12771885D02*
X10417203Y-12838552D01*
X10393393Y-12733790D02*
X10369584Y-12805218D01*
X10369584Y-12805218D02*
X10431489Y-12805218D01*
X15310334Y-9422642D02*
X15277001Y-9375023D01*
X15253191Y-9422642D02*
X15253191Y-9322642D01*
X15253191Y-9322642D02*
X15291287Y-9322642D01*
X15291287Y-9322642D02*
X15300810Y-9327404D01*
X15300810Y-9327404D02*
X15305572Y-9332166D01*
X15305572Y-9332166D02*
X15310334Y-9341690D01*
X15310334Y-9341690D02*
X15310334Y-9355975D01*
X15310334Y-9355975D02*
X15305572Y-9365499D01*
X15305572Y-9365499D02*
X15300810Y-9370261D01*
X15300810Y-9370261D02*
X15291287Y-9375023D01*
X15291287Y-9375023D02*
X15253191Y-9375023D01*
X15405572Y-9422642D02*
X15348429Y-9422642D01*
X15377001Y-9422642D02*
X15377001Y-9322642D01*
X15377001Y-9322642D02*
X15367477Y-9336928D01*
X15367477Y-9336928D02*
X15357953Y-9346451D01*
X15357953Y-9346451D02*
X15348429Y-9351213D01*
X15443668Y-9332166D02*
X15448429Y-9327404D01*
X15448429Y-9327404D02*
X15457953Y-9322642D01*
X15457953Y-9322642D02*
X15481763Y-9322642D01*
X15481763Y-9322642D02*
X15491287Y-9327404D01*
X15491287Y-9327404D02*
X15496048Y-9332166D01*
X15496048Y-9332166D02*
X15500810Y-9341690D01*
X15500810Y-9341690D02*
X15500810Y-9351213D01*
X15500810Y-9351213D02*
X15496048Y-9365499D01*
X15496048Y-9365499D02*
X15438906Y-9422642D01*
X15438906Y-9422642D02*
X15500810Y-9422642D01*
X11728293Y-8996442D02*
X11694960Y-8948823D01*
X11671150Y-8996442D02*
X11671150Y-8896442D01*
X11671150Y-8896442D02*
X11709246Y-8896442D01*
X11709246Y-8896442D02*
X11718769Y-8901204D01*
X11718769Y-8901204D02*
X11723531Y-8905966D01*
X11723531Y-8905966D02*
X11728293Y-8915490D01*
X11728293Y-8915490D02*
X11728293Y-8929775D01*
X11728293Y-8929775D02*
X11723531Y-8939299D01*
X11723531Y-8939299D02*
X11718769Y-8944061D01*
X11718769Y-8944061D02*
X11709246Y-8948823D01*
X11709246Y-8948823D02*
X11671150Y-8948823D01*
X11785436Y-8939299D02*
X11775912Y-8934537D01*
X11775912Y-8934537D02*
X11771150Y-8929775D01*
X11771150Y-8929775D02*
X11766389Y-8920251D01*
X11766389Y-8920251D02*
X11766389Y-8915490D01*
X11766389Y-8915490D02*
X11771150Y-8905966D01*
X11771150Y-8905966D02*
X11775912Y-8901204D01*
X11775912Y-8901204D02*
X11785436Y-8896442D01*
X11785436Y-8896442D02*
X11804484Y-8896442D01*
X11804484Y-8896442D02*
X11814008Y-8901204D01*
X11814008Y-8901204D02*
X11818769Y-8905966D01*
X11818769Y-8905966D02*
X11823531Y-8915490D01*
X11823531Y-8915490D02*
X11823531Y-8920251D01*
X11823531Y-8920251D02*
X11818769Y-8929775D01*
X11818769Y-8929775D02*
X11814008Y-8934537D01*
X11814008Y-8934537D02*
X11804484Y-8939299D01*
X11804484Y-8939299D02*
X11785436Y-8939299D01*
X11785436Y-8939299D02*
X11775912Y-8944061D01*
X11775912Y-8944061D02*
X11771150Y-8948823D01*
X11771150Y-8948823D02*
X11766389Y-8958347D01*
X11766389Y-8958347D02*
X11766389Y-8977394D01*
X11766389Y-8977394D02*
X11771150Y-8986918D01*
X11771150Y-8986918D02*
X11775912Y-8991680D01*
X11775912Y-8991680D02*
X11785436Y-8996442D01*
X11785436Y-8996442D02*
X11804484Y-8996442D01*
X11804484Y-8996442D02*
X11814008Y-8991680D01*
X11814008Y-8991680D02*
X11818769Y-8986918D01*
X11818769Y-8986918D02*
X11823531Y-8977394D01*
X11823531Y-8977394D02*
X11823531Y-8958347D01*
X11823531Y-8958347D02*
X11818769Y-8948823D01*
X11818769Y-8948823D02*
X11814008Y-8944061D01*
X11814008Y-8944061D02*
X11804484Y-8939299D01*
X12342314Y-12982608D02*
X12337552Y-12987370D01*
X12337552Y-12987370D02*
X12323267Y-12992132D01*
X12323267Y-12992132D02*
X12313743Y-12992132D01*
X12313743Y-12992132D02*
X12299457Y-12987370D01*
X12299457Y-12987370D02*
X12289933Y-12977846D01*
X12289933Y-12977846D02*
X12285171Y-12968322D01*
X12285171Y-12968322D02*
X12280409Y-12949275D01*
X12280409Y-12949275D02*
X12280409Y-12934989D01*
X12280409Y-12934989D02*
X12285171Y-12915941D01*
X12285171Y-12915941D02*
X12289933Y-12906418D01*
X12289933Y-12906418D02*
X12299457Y-12896894D01*
X12299457Y-12896894D02*
X12313743Y-12892132D01*
X12313743Y-12892132D02*
X12323267Y-12892132D01*
X12323267Y-12892132D02*
X12337552Y-12896894D01*
X12337552Y-12896894D02*
X12342314Y-12901656D01*
X12437552Y-12992132D02*
X12380409Y-12992132D01*
X12408981Y-12992132D02*
X12408981Y-12892132D01*
X12408981Y-12892132D02*
X12399457Y-12906418D01*
X12399457Y-12906418D02*
X12389933Y-12915941D01*
X12389933Y-12915941D02*
X12380409Y-12920703D01*
X12523267Y-12925465D02*
X12523267Y-12992132D01*
X12499457Y-12887370D02*
X12475648Y-12958798D01*
X12475648Y-12958798D02*
X12537552Y-12958798D01*
X11443238Y-13608156D02*
X11448000Y-13612918D01*
X11448000Y-13612918D02*
X11452762Y-13627203D01*
X11452762Y-13627203D02*
X11452762Y-13636727D01*
X11452762Y-13636727D02*
X11448000Y-13651013D01*
X11448000Y-13651013D02*
X11438476Y-13660537D01*
X11438476Y-13660537D02*
X11428952Y-13665298D01*
X11428952Y-13665298D02*
X11409905Y-13670060D01*
X11409905Y-13670060D02*
X11395619Y-13670060D01*
X11395619Y-13670060D02*
X11376571Y-13665298D01*
X11376571Y-13665298D02*
X11367048Y-13660537D01*
X11367048Y-13660537D02*
X11357524Y-13651013D01*
X11357524Y-13651013D02*
X11352762Y-13636727D01*
X11352762Y-13636727D02*
X11352762Y-13627203D01*
X11352762Y-13627203D02*
X11357524Y-13612918D01*
X11357524Y-13612918D02*
X11362286Y-13608156D01*
X11452762Y-13512918D02*
X11452762Y-13570060D01*
X11452762Y-13541489D02*
X11352762Y-13541489D01*
X11352762Y-13541489D02*
X11367048Y-13551013D01*
X11367048Y-13551013D02*
X11376571Y-13560537D01*
X11376571Y-13560537D02*
X11381333Y-13570060D01*
X11362286Y-13474822D02*
X11357524Y-13470060D01*
X11357524Y-13470060D02*
X11352762Y-13460537D01*
X11352762Y-13460537D02*
X11352762Y-13436727D01*
X11352762Y-13436727D02*
X11357524Y-13427203D01*
X11357524Y-13427203D02*
X11362286Y-13422441D01*
X11362286Y-13422441D02*
X11371809Y-13417679D01*
X11371809Y-13417679D02*
X11381333Y-13417679D01*
X11381333Y-13417679D02*
X11395619Y-13422441D01*
X11395619Y-13422441D02*
X11452762Y-13479584D01*
X11452762Y-13479584D02*
X11452762Y-13417679D01*
X10925254Y-12362408D02*
X10920492Y-12367170D01*
X10920492Y-12367170D02*
X10906207Y-12371932D01*
X10906207Y-12371932D02*
X10896683Y-12371932D01*
X10896683Y-12371932D02*
X10882397Y-12367170D01*
X10882397Y-12367170D02*
X10872873Y-12357646D01*
X10872873Y-12357646D02*
X10868111Y-12348122D01*
X10868111Y-12348122D02*
X10863350Y-12329075D01*
X10863350Y-12329075D02*
X10863350Y-12314789D01*
X10863350Y-12314789D02*
X10868111Y-12295741D01*
X10868111Y-12295741D02*
X10872873Y-12286218D01*
X10872873Y-12286218D02*
X10882397Y-12276694D01*
X10882397Y-12276694D02*
X10896683Y-12271932D01*
X10896683Y-12271932D02*
X10906207Y-12271932D01*
X10906207Y-12271932D02*
X10920492Y-12276694D01*
X10920492Y-12276694D02*
X10925254Y-12281456D01*
X11020492Y-12371932D02*
X10963350Y-12371932D01*
X10991921Y-12371932D02*
X10991921Y-12271932D01*
X10991921Y-12271932D02*
X10982397Y-12286218D01*
X10982397Y-12286218D02*
X10972873Y-12295741D01*
X10972873Y-12295741D02*
X10963350Y-12300503D01*
X11082397Y-12271932D02*
X11091921Y-12271932D01*
X11091921Y-12271932D02*
X11101445Y-12276694D01*
X11101445Y-12276694D02*
X11106207Y-12281456D01*
X11106207Y-12281456D02*
X11110969Y-12290979D01*
X11110969Y-12290979D02*
X11115730Y-12310027D01*
X11115730Y-12310027D02*
X11115730Y-12333837D01*
X11115730Y-12333837D02*
X11110969Y-12352884D01*
X11110969Y-12352884D02*
X11106207Y-12362408D01*
X11106207Y-12362408D02*
X11101445Y-12367170D01*
X11101445Y-12367170D02*
X11091921Y-12371932D01*
X11091921Y-12371932D02*
X11082397Y-12371932D01*
X11082397Y-12371932D02*
X11072873Y-12367170D01*
X11072873Y-12367170D02*
X11068111Y-12362408D01*
X11068111Y-12362408D02*
X11063350Y-12352884D01*
X11063350Y-12352884D02*
X11058588Y-12333837D01*
X11058588Y-12333837D02*
X11058588Y-12310027D01*
X11058588Y-12310027D02*
X11063350Y-12290979D01*
X11063350Y-12290979D02*
X11068111Y-12281456D01*
X11068111Y-12281456D02*
X11072873Y-12276694D01*
X11072873Y-12276694D02*
X11082397Y-12271932D01*
X15250913Y-12972522D02*
X15217580Y-12924903D01*
X15193770Y-12972522D02*
X15193770Y-12872522D01*
X15193770Y-12872522D02*
X15231866Y-12872522D01*
X15231866Y-12872522D02*
X15241389Y-12877284D01*
X15241389Y-12877284D02*
X15246151Y-12882046D01*
X15246151Y-12882046D02*
X15250913Y-12891569D01*
X15250913Y-12891569D02*
X15250913Y-12905855D01*
X15250913Y-12905855D02*
X15246151Y-12915379D01*
X15246151Y-12915379D02*
X15241389Y-12920141D01*
X15241389Y-12920141D02*
X15231866Y-12924903D01*
X15231866Y-12924903D02*
X15193770Y-12924903D01*
X15289009Y-12882046D02*
X15293770Y-12877284D01*
X15293770Y-12877284D02*
X15303294Y-12872522D01*
X15303294Y-12872522D02*
X15327104Y-12872522D01*
X15327104Y-12872522D02*
X15336628Y-12877284D01*
X15336628Y-12877284D02*
X15341389Y-12882046D01*
X15341389Y-12882046D02*
X15346151Y-12891569D01*
X15346151Y-12891569D02*
X15346151Y-12901093D01*
X15346151Y-12901093D02*
X15341389Y-12915379D01*
X15341389Y-12915379D02*
X15284247Y-12972522D01*
X15284247Y-12972522D02*
X15346151Y-12972522D01*
X13712674Y-9023862D02*
X13679341Y-8976243D01*
X13655531Y-9023862D02*
X13655531Y-8923862D01*
X13655531Y-8923862D02*
X13693627Y-8923862D01*
X13693627Y-8923862D02*
X13703150Y-8928624D01*
X13703150Y-8928624D02*
X13707912Y-8933386D01*
X13707912Y-8933386D02*
X13712674Y-8942910D01*
X13712674Y-8942910D02*
X13712674Y-8957195D01*
X13712674Y-8957195D02*
X13707912Y-8966719D01*
X13707912Y-8966719D02*
X13703150Y-8971481D01*
X13703150Y-8971481D02*
X13693627Y-8976243D01*
X13693627Y-8976243D02*
X13655531Y-8976243D01*
X13807912Y-9023862D02*
X13750769Y-9023862D01*
X13779341Y-9023862D02*
X13779341Y-8923862D01*
X13779341Y-8923862D02*
X13769817Y-8938148D01*
X13769817Y-8938148D02*
X13760293Y-8947671D01*
X13760293Y-8947671D02*
X13750769Y-8952433D01*
X13869817Y-8923862D02*
X13879341Y-8923862D01*
X13879341Y-8923862D02*
X13888865Y-8928624D01*
X13888865Y-8928624D02*
X13893627Y-8933386D01*
X13893627Y-8933386D02*
X13898388Y-8942910D01*
X13898388Y-8942910D02*
X13903150Y-8961957D01*
X13903150Y-8961957D02*
X13903150Y-8985767D01*
X13903150Y-8985767D02*
X13898388Y-9004814D01*
X13898388Y-9004814D02*
X13893627Y-9014338D01*
X13893627Y-9014338D02*
X13888865Y-9019100D01*
X13888865Y-9019100D02*
X13879341Y-9023862D01*
X13879341Y-9023862D02*
X13869817Y-9023862D01*
X13869817Y-9023862D02*
X13860293Y-9019100D01*
X13860293Y-9019100D02*
X13855531Y-9014338D01*
X13855531Y-9014338D02*
X13850769Y-9004814D01*
X13850769Y-9004814D02*
X13846008Y-8985767D01*
X13846008Y-8985767D02*
X13846008Y-8961957D01*
X13846008Y-8961957D02*
X13850769Y-8942910D01*
X13850769Y-8942910D02*
X13855531Y-8933386D01*
X13855531Y-8933386D02*
X13860293Y-8928624D01*
X13860293Y-8928624D02*
X13869817Y-8923862D01*
X12453307Y-10532202D02*
X12453307Y-10603630D01*
X12453307Y-10603630D02*
X12448545Y-10617916D01*
X12448545Y-10617916D02*
X12439021Y-10627440D01*
X12439021Y-10627440D02*
X12424735Y-10632202D01*
X12424735Y-10632202D02*
X12415211Y-10632202D01*
X12543783Y-10565535D02*
X12543783Y-10632202D01*
X12519973Y-10527440D02*
X12496164Y-10598869D01*
X12496164Y-10598869D02*
X12558068Y-10598869D01*
X14932258Y-13491047D02*
X14937020Y-13495808D01*
X14937020Y-13495808D02*
X14941782Y-13510094D01*
X14941782Y-13510094D02*
X14941782Y-13519618D01*
X14941782Y-13519618D02*
X14937020Y-13533904D01*
X14937020Y-13533904D02*
X14927496Y-13543427D01*
X14927496Y-13543427D02*
X14917972Y-13548189D01*
X14917972Y-13548189D02*
X14898925Y-13552951D01*
X14898925Y-13552951D02*
X14884639Y-13552951D01*
X14884639Y-13552951D02*
X14865591Y-13548189D01*
X14865591Y-13548189D02*
X14856068Y-13543427D01*
X14856068Y-13543427D02*
X14846544Y-13533904D01*
X14846544Y-13533904D02*
X14841782Y-13519618D01*
X14841782Y-13519618D02*
X14841782Y-13510094D01*
X14841782Y-13510094D02*
X14846544Y-13495808D01*
X14846544Y-13495808D02*
X14851306Y-13491047D01*
X14841782Y-13457713D02*
X14841782Y-13391047D01*
X14841782Y-13391047D02*
X14941782Y-13433904D01*
X12475094Y-9054738D02*
X12470332Y-9059500D01*
X12470332Y-9059500D02*
X12456047Y-9064262D01*
X12456047Y-9064262D02*
X12446523Y-9064262D01*
X12446523Y-9064262D02*
X12432237Y-9059500D01*
X12432237Y-9059500D02*
X12422713Y-9049976D01*
X12422713Y-9049976D02*
X12417951Y-9040452D01*
X12417951Y-9040452D02*
X12413189Y-9021405D01*
X12413189Y-9021405D02*
X12413189Y-9007119D01*
X12413189Y-9007119D02*
X12417951Y-8988071D01*
X12417951Y-8988071D02*
X12422713Y-8978548D01*
X12422713Y-8978548D02*
X12432237Y-8969024D01*
X12432237Y-8969024D02*
X12446523Y-8964262D01*
X12446523Y-8964262D02*
X12456047Y-8964262D01*
X12456047Y-8964262D02*
X12470332Y-8969024D01*
X12470332Y-8969024D02*
X12475094Y-8973786D01*
X12570332Y-9064262D02*
X12513189Y-9064262D01*
X12541761Y-9064262D02*
X12541761Y-8964262D01*
X12541761Y-8964262D02*
X12532237Y-8978548D01*
X12532237Y-8978548D02*
X12522713Y-8988071D01*
X12522713Y-8988071D02*
X12513189Y-8992833D01*
X12617951Y-9064262D02*
X12636999Y-9064262D01*
X12636999Y-9064262D02*
X12646523Y-9059500D01*
X12646523Y-9059500D02*
X12651285Y-9054738D01*
X12651285Y-9054738D02*
X12660808Y-9040452D01*
X12660808Y-9040452D02*
X12665570Y-9021405D01*
X12665570Y-9021405D02*
X12665570Y-8983310D01*
X12665570Y-8983310D02*
X12660808Y-8973786D01*
X12660808Y-8973786D02*
X12656047Y-8969024D01*
X12656047Y-8969024D02*
X12646523Y-8964262D01*
X12646523Y-8964262D02*
X12627475Y-8964262D01*
X12627475Y-8964262D02*
X12617951Y-8969024D01*
X12617951Y-8969024D02*
X12613189Y-8973786D01*
X12613189Y-8973786D02*
X12608428Y-8983310D01*
X12608428Y-8983310D02*
X12608428Y-9007119D01*
X12608428Y-9007119D02*
X12613189Y-9016643D01*
X12613189Y-9016643D02*
X12617951Y-9021405D01*
X12617951Y-9021405D02*
X12627475Y-9026167D01*
X12627475Y-9026167D02*
X12646523Y-9026167D01*
X12646523Y-9026167D02*
X12656047Y-9021405D01*
X12656047Y-9021405D02*
X12660808Y-9016643D01*
X12660808Y-9016643D02*
X12665570Y-9007119D01*
X10232874Y-9063118D02*
X10228112Y-9067880D01*
X10228112Y-9067880D02*
X10213827Y-9072642D01*
X10213827Y-9072642D02*
X10204303Y-9072642D01*
X10204303Y-9072642D02*
X10190017Y-9067880D01*
X10190017Y-9067880D02*
X10180493Y-9058356D01*
X10180493Y-9058356D02*
X10175731Y-9048832D01*
X10175731Y-9048832D02*
X10170970Y-9029785D01*
X10170970Y-9029785D02*
X10170970Y-9015499D01*
X10170970Y-9015499D02*
X10175731Y-8996451D01*
X10175731Y-8996451D02*
X10180493Y-8986928D01*
X10180493Y-8986928D02*
X10190017Y-8977404D01*
X10190017Y-8977404D02*
X10204303Y-8972642D01*
X10204303Y-8972642D02*
X10213827Y-8972642D01*
X10213827Y-8972642D02*
X10228112Y-8977404D01*
X10228112Y-8977404D02*
X10232874Y-8982166D01*
X10328112Y-9072642D02*
X10270970Y-9072642D01*
X10299541Y-9072642D02*
X10299541Y-8972642D01*
X10299541Y-8972642D02*
X10290017Y-8986928D01*
X10290017Y-8986928D02*
X10280493Y-8996451D01*
X10280493Y-8996451D02*
X10270970Y-9001213D01*
X10361446Y-8972642D02*
X10428112Y-8972642D01*
X10428112Y-8972642D02*
X10385255Y-9072642D01*
X11079678Y-13608156D02*
X11084440Y-13612918D01*
X11084440Y-13612918D02*
X11089202Y-13627203D01*
X11089202Y-13627203D02*
X11089202Y-13636727D01*
X11089202Y-13636727D02*
X11084440Y-13651013D01*
X11084440Y-13651013D02*
X11074916Y-13660537D01*
X11074916Y-13660537D02*
X11065392Y-13665298D01*
X11065392Y-13665298D02*
X11046345Y-13670060D01*
X11046345Y-13670060D02*
X11032059Y-13670060D01*
X11032059Y-13670060D02*
X11013011Y-13665298D01*
X11013011Y-13665298D02*
X11003488Y-13660537D01*
X11003488Y-13660537D02*
X10993964Y-13651013D01*
X10993964Y-13651013D02*
X10989202Y-13636727D01*
X10989202Y-13636727D02*
X10989202Y-13627203D01*
X10989202Y-13627203D02*
X10993964Y-13612918D01*
X10993964Y-13612918D02*
X10998726Y-13608156D01*
X11089202Y-13512918D02*
X11089202Y-13570060D01*
X11089202Y-13541489D02*
X10989202Y-13541489D01*
X10989202Y-13541489D02*
X11003488Y-13551013D01*
X11003488Y-13551013D02*
X11013011Y-13560537D01*
X11013011Y-13560537D02*
X11017773Y-13570060D01*
X10989202Y-13427203D02*
X10989202Y-13446251D01*
X10989202Y-13446251D02*
X10993964Y-13455775D01*
X10993964Y-13455775D02*
X10998726Y-13460537D01*
X10998726Y-13460537D02*
X11013011Y-13470060D01*
X11013011Y-13470060D02*
X11032059Y-13474822D01*
X11032059Y-13474822D02*
X11070154Y-13474822D01*
X11070154Y-13474822D02*
X11079678Y-13470060D01*
X11079678Y-13470060D02*
X11084440Y-13465298D01*
X11084440Y-13465298D02*
X11089202Y-13455775D01*
X11089202Y-13455775D02*
X11089202Y-13436727D01*
X11089202Y-13436727D02*
X11084440Y-13427203D01*
X11084440Y-13427203D02*
X11079678Y-13422441D01*
X11079678Y-13422441D02*
X11070154Y-13417679D01*
X11070154Y-13417679D02*
X11046345Y-13417679D01*
X11046345Y-13417679D02*
X11036821Y-13422441D01*
X11036821Y-13422441D02*
X11032059Y-13427203D01*
X11032059Y-13427203D02*
X11027297Y-13436727D01*
X11027297Y-13436727D02*
X11027297Y-13455775D01*
X11027297Y-13455775D02*
X11032059Y-13465298D01*
X11032059Y-13465298D02*
X11036821Y-13470060D01*
X11036821Y-13470060D02*
X11046345Y-13474822D01*
X10716118Y-13608156D02*
X10720880Y-13612918D01*
X10720880Y-13612918D02*
X10725642Y-13627203D01*
X10725642Y-13627203D02*
X10725642Y-13636727D01*
X10725642Y-13636727D02*
X10720880Y-13651013D01*
X10720880Y-13651013D02*
X10711356Y-13660537D01*
X10711356Y-13660537D02*
X10701832Y-13665298D01*
X10701832Y-13665298D02*
X10682785Y-13670060D01*
X10682785Y-13670060D02*
X10668499Y-13670060D01*
X10668499Y-13670060D02*
X10649451Y-13665298D01*
X10649451Y-13665298D02*
X10639928Y-13660537D01*
X10639928Y-13660537D02*
X10630404Y-13651013D01*
X10630404Y-13651013D02*
X10625642Y-13636727D01*
X10625642Y-13636727D02*
X10625642Y-13627203D01*
X10625642Y-13627203D02*
X10630404Y-13612918D01*
X10630404Y-13612918D02*
X10635166Y-13608156D01*
X10725642Y-13512918D02*
X10725642Y-13570060D01*
X10725642Y-13541489D02*
X10625642Y-13541489D01*
X10625642Y-13541489D02*
X10639928Y-13551013D01*
X10639928Y-13551013D02*
X10649451Y-13560537D01*
X10649451Y-13560537D02*
X10654213Y-13570060D01*
X10625642Y-13422441D02*
X10625642Y-13470060D01*
X10625642Y-13470060D02*
X10673261Y-13474822D01*
X10673261Y-13474822D02*
X10668499Y-13470060D01*
X10668499Y-13470060D02*
X10663737Y-13460537D01*
X10663737Y-13460537D02*
X10663737Y-13436727D01*
X10663737Y-13436727D02*
X10668499Y-13427203D01*
X10668499Y-13427203D02*
X10673261Y-13422441D01*
X10673261Y-13422441D02*
X10682785Y-13417679D01*
X10682785Y-13417679D02*
X10706594Y-13417679D01*
X10706594Y-13417679D02*
X10716118Y-13422441D01*
X10716118Y-13422441D02*
X10720880Y-13427203D01*
X10720880Y-13427203D02*
X10725642Y-13436727D01*
X10725642Y-13436727D02*
X10725642Y-13460537D01*
X10725642Y-13460537D02*
X10720880Y-13470060D01*
X10720880Y-13470060D02*
X10716118Y-13474822D01*
X11674527Y-12673552D02*
X11674527Y-12744980D01*
X11674527Y-12744980D02*
X11669765Y-12759266D01*
X11669765Y-12759266D02*
X11660241Y-12768790D01*
X11660241Y-12768790D02*
X11645955Y-12773552D01*
X11645955Y-12773552D02*
X11636431Y-12773552D01*
X11722146Y-12773552D02*
X11722146Y-12673552D01*
X11722146Y-12673552D02*
X11760241Y-12673552D01*
X11760241Y-12673552D02*
X11769765Y-12678314D01*
X11769765Y-12678314D02*
X11774527Y-12683076D01*
X11774527Y-12683076D02*
X11779288Y-12692599D01*
X11779288Y-12692599D02*
X11779288Y-12706885D01*
X11779288Y-12706885D02*
X11774527Y-12716409D01*
X11774527Y-12716409D02*
X11769765Y-12721171D01*
X11769765Y-12721171D02*
X11760241Y-12725933D01*
X11760241Y-12725933D02*
X11722146Y-12725933D01*
X11812622Y-12673552D02*
X11874527Y-12673552D01*
X11874527Y-12673552D02*
X11841193Y-12711647D01*
X11841193Y-12711647D02*
X11855479Y-12711647D01*
X11855479Y-12711647D02*
X11865003Y-12716409D01*
X11865003Y-12716409D02*
X11869765Y-12721171D01*
X11869765Y-12721171D02*
X11874527Y-12730695D01*
X11874527Y-12730695D02*
X11874527Y-12754504D01*
X11874527Y-12754504D02*
X11869765Y-12764028D01*
X11869765Y-12764028D02*
X11865003Y-12768790D01*
X11865003Y-12768790D02*
X11855479Y-12773552D01*
X11855479Y-12773552D02*
X11826908Y-12773552D01*
X11826908Y-12773552D02*
X11817384Y-12768790D01*
X11817384Y-12768790D02*
X11812622Y-12764028D01*
X14509447Y-9400107D02*
X14509447Y-9463849D01*
X14509447Y-9463849D02*
X14513197Y-9471348D01*
X14513197Y-9471348D02*
X14516946Y-9475097D01*
X14516946Y-9475097D02*
X14524446Y-9478847D01*
X14524446Y-9478847D02*
X14539444Y-9478847D01*
X14539444Y-9478847D02*
X14546943Y-9475097D01*
X14546943Y-9475097D02*
X14550692Y-9471348D01*
X14550692Y-9471348D02*
X14554442Y-9463849D01*
X14554442Y-9463849D02*
X14554442Y-9400107D01*
X14625683Y-9426353D02*
X14625683Y-9478847D01*
X14606935Y-9396357D02*
X14588188Y-9452600D01*
X14588188Y-9452600D02*
X14636931Y-9452600D01*
X14767560Y-9272362D02*
X14767560Y-9296171D01*
X14743750Y-9286648D02*
X14767560Y-9296171D01*
X14767560Y-9296171D02*
X14791369Y-9286648D01*
X14753274Y-9315219D02*
X14767560Y-9296171D01*
X14767560Y-9296171D02*
X14781846Y-9315219D01*
X14747273Y-12484498D02*
X14742511Y-12489260D01*
X14742511Y-12489260D02*
X14728226Y-12494022D01*
X14728226Y-12494022D02*
X14718702Y-12494022D01*
X14718702Y-12494022D02*
X14704416Y-12489260D01*
X14704416Y-12489260D02*
X14694892Y-12479736D01*
X14694892Y-12479736D02*
X14690130Y-12470212D01*
X14690130Y-12470212D02*
X14685369Y-12451165D01*
X14685369Y-12451165D02*
X14685369Y-12436879D01*
X14685369Y-12436879D02*
X14690130Y-12417831D01*
X14690130Y-12417831D02*
X14694892Y-12408308D01*
X14694892Y-12408308D02*
X14704416Y-12398784D01*
X14704416Y-12398784D02*
X14718702Y-12394022D01*
X14718702Y-12394022D02*
X14728226Y-12394022D01*
X14728226Y-12394022D02*
X14742511Y-12398784D01*
X14742511Y-12398784D02*
X14747273Y-12403546D01*
X14832988Y-12427355D02*
X14832988Y-12494022D01*
X14809178Y-12389260D02*
X14785369Y-12460688D01*
X14785369Y-12460688D02*
X14847273Y-12460688D01*
X15237587Y-12671402D02*
X15237587Y-12742830D01*
X15237587Y-12742830D02*
X15232825Y-12757116D01*
X15232825Y-12757116D02*
X15223301Y-12766640D01*
X15223301Y-12766640D02*
X15209015Y-12771402D01*
X15209015Y-12771402D02*
X15199491Y-12771402D01*
X15285206Y-12771402D02*
X15285206Y-12671402D01*
X15285206Y-12671402D02*
X15323301Y-12671402D01*
X15323301Y-12671402D02*
X15332825Y-12676164D01*
X15332825Y-12676164D02*
X15337587Y-12680926D01*
X15337587Y-12680926D02*
X15342348Y-12690449D01*
X15342348Y-12690449D02*
X15342348Y-12704735D01*
X15342348Y-12704735D02*
X15337587Y-12714259D01*
X15337587Y-12714259D02*
X15332825Y-12719021D01*
X15332825Y-12719021D02*
X15323301Y-12723783D01*
X15323301Y-12723783D02*
X15285206Y-12723783D01*
X15437587Y-12771402D02*
X15380444Y-12771402D01*
X15409015Y-12771402D02*
X15409015Y-12671402D01*
X15409015Y-12671402D02*
X15399491Y-12685688D01*
X15399491Y-12685688D02*
X15389968Y-12695211D01*
X15389968Y-12695211D02*
X15380444Y-12699973D01*
X10339113Y-12479372D02*
X10305780Y-12431753D01*
X10281971Y-12479372D02*
X10281971Y-12379372D01*
X10281971Y-12379372D02*
X10320066Y-12379372D01*
X10320066Y-12379372D02*
X10329590Y-12384134D01*
X10329590Y-12384134D02*
X10334351Y-12388896D01*
X10334351Y-12388896D02*
X10339113Y-12398419D01*
X10339113Y-12398419D02*
X10339113Y-12412705D01*
X10339113Y-12412705D02*
X10334351Y-12422229D01*
X10334351Y-12422229D02*
X10329590Y-12426991D01*
X10329590Y-12426991D02*
X10320066Y-12431753D01*
X10320066Y-12431753D02*
X10281971Y-12431753D01*
X10424828Y-12412705D02*
X10424828Y-12479372D01*
X10401018Y-12374610D02*
X10377209Y-12446038D01*
X10377209Y-12446038D02*
X10439113Y-12446038D01*
X15289388Y-9119442D02*
X15289388Y-9190870D01*
X15289388Y-9190870D02*
X15284626Y-9205156D01*
X15284626Y-9205156D02*
X15275102Y-9214680D01*
X15275102Y-9214680D02*
X15260816Y-9219442D01*
X15260816Y-9219442D02*
X15251292Y-9219442D01*
X15337007Y-9219442D02*
X15337007Y-9119442D01*
X15337007Y-9119442D02*
X15375102Y-9119442D01*
X15375102Y-9119442D02*
X15384626Y-9124204D01*
X15384626Y-9124204D02*
X15389388Y-9128966D01*
X15389388Y-9128966D02*
X15394149Y-9138490D01*
X15394149Y-9138490D02*
X15394149Y-9152775D01*
X15394149Y-9152775D02*
X15389388Y-9162299D01*
X15389388Y-9162299D02*
X15384626Y-9167061D01*
X15384626Y-9167061D02*
X15375102Y-9171823D01*
X15375102Y-9171823D02*
X15337007Y-9171823D01*
X15427483Y-9119442D02*
X15489388Y-9119442D01*
X15489388Y-9119442D02*
X15456054Y-9157537D01*
X15456054Y-9157537D02*
X15470340Y-9157537D01*
X15470340Y-9157537D02*
X15479864Y-9162299D01*
X15479864Y-9162299D02*
X15484626Y-9167061D01*
X15484626Y-9167061D02*
X15489388Y-9176585D01*
X15489388Y-9176585D02*
X15489388Y-9200394D01*
X15489388Y-9200394D02*
X15484626Y-9209918D01*
X15484626Y-9209918D02*
X15479864Y-9214680D01*
X15479864Y-9214680D02*
X15470340Y-9219442D01*
X15470340Y-9219442D02*
X15441769Y-9219442D01*
X15441769Y-9219442D02*
X15432245Y-9214680D01*
X15432245Y-9214680D02*
X15427483Y-9209918D01*
X15527483Y-9128966D02*
X15532245Y-9124204D01*
X15532245Y-9124204D02*
X15541769Y-9119442D01*
X15541769Y-9119442D02*
X15565578Y-9119442D01*
X15565578Y-9119442D02*
X15575102Y-9124204D01*
X15575102Y-9124204D02*
X15579864Y-9128966D01*
X15579864Y-9128966D02*
X15584626Y-9138490D01*
X15584626Y-9138490D02*
X15584626Y-9148013D01*
X15584626Y-9148013D02*
X15579864Y-9162299D01*
X15579864Y-9162299D02*
X15522721Y-9219442D01*
X15522721Y-9219442D02*
X15584626Y-9219442D01*
X14682360Y-8368133D02*
X14687122Y-8353847D01*
X14687122Y-8353847D02*
X14687122Y-8330038D01*
X14687122Y-8330038D02*
X14682360Y-8320514D01*
X14682360Y-8320514D02*
X14677598Y-8315752D01*
X14677598Y-8315752D02*
X14668074Y-8310990D01*
X14668074Y-8310990D02*
X14658550Y-8310990D01*
X14658550Y-8310990D02*
X14649027Y-8315752D01*
X14649027Y-8315752D02*
X14644265Y-8320514D01*
X14644265Y-8320514D02*
X14639503Y-8330038D01*
X14639503Y-8330038D02*
X14634741Y-8349086D01*
X14634741Y-8349086D02*
X14629979Y-8358609D01*
X14629979Y-8358609D02*
X14625217Y-8363371D01*
X14625217Y-8363371D02*
X14615693Y-8368133D01*
X14615693Y-8368133D02*
X14606169Y-8368133D01*
X14606169Y-8368133D02*
X14596646Y-8363371D01*
X14596646Y-8363371D02*
X14591884Y-8358609D01*
X14591884Y-8358609D02*
X14587122Y-8349086D01*
X14587122Y-8349086D02*
X14587122Y-8325276D01*
X14587122Y-8325276D02*
X14591884Y-8310990D01*
X14587122Y-8277657D02*
X14687122Y-8253847D01*
X14687122Y-8253847D02*
X14615693Y-8234800D01*
X14615693Y-8234800D02*
X14687122Y-8215752D01*
X14687122Y-8215752D02*
X14587122Y-8191943D01*
X14620455Y-8110990D02*
X14687122Y-8110990D01*
X14582360Y-8134800D02*
X14653788Y-8158609D01*
X14653788Y-8158609D02*
X14653788Y-8096705D01*
X14493249Y-12917262D02*
X14493249Y-12998214D01*
X14493249Y-12998214D02*
X14498011Y-13007738D01*
X14498011Y-13007738D02*
X14502773Y-13012500D01*
X14502773Y-13012500D02*
X14512297Y-13017262D01*
X14512297Y-13017262D02*
X14531345Y-13017262D01*
X14531345Y-13017262D02*
X14540868Y-13012500D01*
X14540868Y-13012500D02*
X14545630Y-13007738D01*
X14545630Y-13007738D02*
X14550392Y-12998214D01*
X14550392Y-12998214D02*
X14550392Y-12917262D01*
X14593249Y-12926786D02*
X14598011Y-12922024D01*
X14598011Y-12922024D02*
X14607535Y-12917262D01*
X14607535Y-12917262D02*
X14631345Y-12917262D01*
X14631345Y-12917262D02*
X14640868Y-12922024D01*
X14640868Y-12922024D02*
X14645630Y-12926786D01*
X14645630Y-12926786D02*
X14650392Y-12936309D01*
X14650392Y-12936309D02*
X14650392Y-12945833D01*
X14650392Y-12945833D02*
X14645630Y-12960119D01*
X14645630Y-12960119D02*
X14588488Y-13017262D01*
X14588488Y-13017262D02*
X14650392Y-13017262D01*
X13910688Y-6955532D02*
X13910688Y-7026960D01*
X13910688Y-7026960D02*
X13905926Y-7041246D01*
X13905926Y-7041246D02*
X13896402Y-7050770D01*
X13896402Y-7050770D02*
X13882116Y-7055532D01*
X13882116Y-7055532D02*
X13872592Y-7055532D01*
X14010688Y-7055532D02*
X13953545Y-7055532D01*
X13982116Y-7055532D02*
X13982116Y-6955532D01*
X13982116Y-6955532D02*
X13972592Y-6969818D01*
X13972592Y-6969818D02*
X13963069Y-6979341D01*
X13963069Y-6979341D02*
X13953545Y-6984103D01*
X14048783Y-6965056D02*
X14053545Y-6960294D01*
X14053545Y-6960294D02*
X14063069Y-6955532D01*
X14063069Y-6955532D02*
X14086878Y-6955532D01*
X14086878Y-6955532D02*
X14096402Y-6960294D01*
X14096402Y-6960294D02*
X14101164Y-6965056D01*
X14101164Y-6965056D02*
X14105926Y-6974579D01*
X14105926Y-6974579D02*
X14105926Y-6984103D01*
X14105926Y-6984103D02*
X14101164Y-6998389D01*
X14101164Y-6998389D02*
X14044021Y-7055532D01*
X14044021Y-7055532D02*
X14105926Y-7055532D01*
X15924013Y-12971568D02*
X15919251Y-12976330D01*
X15919251Y-12976330D02*
X15904966Y-12981092D01*
X15904966Y-12981092D02*
X15895442Y-12981092D01*
X15895442Y-12981092D02*
X15881156Y-12976330D01*
X15881156Y-12976330D02*
X15871632Y-12966806D01*
X15871632Y-12966806D02*
X15866870Y-12957282D01*
X15866870Y-12957282D02*
X15862109Y-12938235D01*
X15862109Y-12938235D02*
X15862109Y-12923949D01*
X15862109Y-12923949D02*
X15866870Y-12904901D01*
X15866870Y-12904901D02*
X15871632Y-12895378D01*
X15871632Y-12895378D02*
X15881156Y-12885854D01*
X15881156Y-12885854D02*
X15895442Y-12881092D01*
X15895442Y-12881092D02*
X15904966Y-12881092D01*
X15904966Y-12881092D02*
X15919251Y-12885854D01*
X15919251Y-12885854D02*
X15924013Y-12890616D01*
X16014489Y-12881092D02*
X15966870Y-12881092D01*
X15966870Y-12881092D02*
X15962109Y-12928711D01*
X15962109Y-12928711D02*
X15966870Y-12923949D01*
X15966870Y-12923949D02*
X15976394Y-12919187D01*
X15976394Y-12919187D02*
X16000204Y-12919187D01*
X16000204Y-12919187D02*
X16009728Y-12923949D01*
X16009728Y-12923949D02*
X16014489Y-12928711D01*
X16014489Y-12928711D02*
X16019251Y-12938235D01*
X16019251Y-12938235D02*
X16019251Y-12962044D01*
X16019251Y-12962044D02*
X16014489Y-12971568D01*
X16014489Y-12971568D02*
X16009728Y-12976330D01*
X16009728Y-12976330D02*
X16000204Y-12981092D01*
X16000204Y-12981092D02*
X15976394Y-12981092D01*
X15976394Y-12981092D02*
X15966870Y-12976330D01*
X15966870Y-12976330D02*
X15962109Y-12971568D01*
X14576508Y-13491047D02*
X14581270Y-13495808D01*
X14581270Y-13495808D02*
X14586032Y-13510094D01*
X14586032Y-13510094D02*
X14586032Y-13519618D01*
X14586032Y-13519618D02*
X14581270Y-13533904D01*
X14581270Y-13533904D02*
X14571746Y-13543427D01*
X14571746Y-13543427D02*
X14562222Y-13548189D01*
X14562222Y-13548189D02*
X14543175Y-13552951D01*
X14543175Y-13552951D02*
X14528889Y-13552951D01*
X14528889Y-13552951D02*
X14509841Y-13548189D01*
X14509841Y-13548189D02*
X14500318Y-13543427D01*
X14500318Y-13543427D02*
X14490794Y-13533904D01*
X14490794Y-13533904D02*
X14486032Y-13519618D01*
X14486032Y-13519618D02*
X14486032Y-13510094D01*
X14486032Y-13510094D02*
X14490794Y-13495808D01*
X14490794Y-13495808D02*
X14495556Y-13491047D01*
X14586032Y-13443427D02*
X14586032Y-13424380D01*
X14586032Y-13424380D02*
X14581270Y-13414856D01*
X14581270Y-13414856D02*
X14576508Y-13410094D01*
X14576508Y-13410094D02*
X14562222Y-13400570D01*
X14562222Y-13400570D02*
X14543175Y-13395808D01*
X14543175Y-13395808D02*
X14505079Y-13395808D01*
X14505079Y-13395808D02*
X14495556Y-13400570D01*
X14495556Y-13400570D02*
X14490794Y-13405332D01*
X14490794Y-13405332D02*
X14486032Y-13414856D01*
X14486032Y-13414856D02*
X14486032Y-13433904D01*
X14486032Y-13433904D02*
X14490794Y-13443427D01*
X14490794Y-13443427D02*
X14495556Y-13448189D01*
X14495556Y-13448189D02*
X14505079Y-13452951D01*
X14505079Y-13452951D02*
X14528889Y-13452951D01*
X14528889Y-13452951D02*
X14538413Y-13448189D01*
X14538413Y-13448189D02*
X14543175Y-13443427D01*
X14543175Y-13443427D02*
X14547937Y-13433904D01*
X14547937Y-13433904D02*
X14547937Y-13414856D01*
X14547937Y-13414856D02*
X14543175Y-13405332D01*
X14543175Y-13405332D02*
X14538413Y-13400570D01*
X14538413Y-13400570D02*
X14528889Y-13395808D01*
X10693058Y-10057886D02*
X10697820Y-10062648D01*
X10697820Y-10062648D02*
X10702582Y-10076933D01*
X10702582Y-10076933D02*
X10702582Y-10086457D01*
X10702582Y-10086457D02*
X10697820Y-10100743D01*
X10697820Y-10100743D02*
X10688296Y-10110267D01*
X10688296Y-10110267D02*
X10678772Y-10115029D01*
X10678772Y-10115029D02*
X10659725Y-10119790D01*
X10659725Y-10119790D02*
X10645439Y-10119790D01*
X10645439Y-10119790D02*
X10626391Y-10115029D01*
X10626391Y-10115029D02*
X10616868Y-10110267D01*
X10616868Y-10110267D02*
X10607344Y-10100743D01*
X10607344Y-10100743D02*
X10602582Y-10086457D01*
X10602582Y-10086457D02*
X10602582Y-10076933D01*
X10602582Y-10076933D02*
X10607344Y-10062648D01*
X10607344Y-10062648D02*
X10612106Y-10057886D01*
X10612106Y-10019790D02*
X10607344Y-10015029D01*
X10607344Y-10015029D02*
X10602582Y-10005505D01*
X10602582Y-10005505D02*
X10602582Y-9981695D01*
X10602582Y-9981695D02*
X10607344Y-9972171D01*
X10607344Y-9972171D02*
X10612106Y-9967410D01*
X10612106Y-9967410D02*
X10621630Y-9962648D01*
X10621630Y-9962648D02*
X10631153Y-9962648D01*
X10631153Y-9962648D02*
X10645439Y-9967410D01*
X10645439Y-9967410D02*
X10702582Y-10024552D01*
X10702582Y-10024552D02*
X10702582Y-9962648D01*
X10612106Y-9924552D02*
X10607344Y-9919790D01*
X10607344Y-9919790D02*
X10602582Y-9910267D01*
X10602582Y-9910267D02*
X10602582Y-9886457D01*
X10602582Y-9886457D02*
X10607344Y-9876933D01*
X10607344Y-9876933D02*
X10612106Y-9872171D01*
X10612106Y-9872171D02*
X10621630Y-9867410D01*
X10621630Y-9867410D02*
X10631153Y-9867410D01*
X10631153Y-9867410D02*
X10645439Y-9872171D01*
X10645439Y-9872171D02*
X10702582Y-9929314D01*
X10702582Y-9929314D02*
X10702582Y-9867410D01*
X13712674Y-9350482D02*
X13679341Y-9302863D01*
X13655531Y-9350482D02*
X13655531Y-9250482D01*
X13655531Y-9250482D02*
X13693627Y-9250482D01*
X13693627Y-9250482D02*
X13703150Y-9255244D01*
X13703150Y-9255244D02*
X13707912Y-9260006D01*
X13707912Y-9260006D02*
X13712674Y-9269530D01*
X13712674Y-9269530D02*
X13712674Y-9283815D01*
X13712674Y-9283815D02*
X13707912Y-9293339D01*
X13707912Y-9293339D02*
X13703150Y-9298101D01*
X13703150Y-9298101D02*
X13693627Y-9302863D01*
X13693627Y-9302863D02*
X13655531Y-9302863D01*
X13807912Y-9350482D02*
X13750769Y-9350482D01*
X13779341Y-9350482D02*
X13779341Y-9250482D01*
X13779341Y-9250482D02*
X13769817Y-9264768D01*
X13769817Y-9264768D02*
X13760293Y-9274291D01*
X13760293Y-9274291D02*
X13750769Y-9279053D01*
X13903150Y-9350482D02*
X13846008Y-9350482D01*
X13874579Y-9350482D02*
X13874579Y-9250482D01*
X13874579Y-9250482D02*
X13865055Y-9264768D01*
X13865055Y-9264768D02*
X13855531Y-9274291D01*
X13855531Y-9274291D02*
X13846008Y-9279053D01*
X16087574Y-9774978D02*
X16082812Y-9779740D01*
X16082812Y-9779740D02*
X16068527Y-9784502D01*
X16068527Y-9784502D02*
X16059003Y-9784502D01*
X16059003Y-9784502D02*
X16044717Y-9779740D01*
X16044717Y-9779740D02*
X16035193Y-9770216D01*
X16035193Y-9770216D02*
X16030431Y-9760692D01*
X16030431Y-9760692D02*
X16025669Y-9741645D01*
X16025669Y-9741645D02*
X16025669Y-9727359D01*
X16025669Y-9727359D02*
X16030431Y-9708311D01*
X16030431Y-9708311D02*
X16035193Y-9698788D01*
X16035193Y-9698788D02*
X16044717Y-9689264D01*
X16044717Y-9689264D02*
X16059003Y-9684502D01*
X16059003Y-9684502D02*
X16068527Y-9684502D01*
X16068527Y-9684502D02*
X16082812Y-9689264D01*
X16082812Y-9689264D02*
X16087574Y-9694026D01*
X16120908Y-9684502D02*
X16182812Y-9684502D01*
X16182812Y-9684502D02*
X16149479Y-9722597D01*
X16149479Y-9722597D02*
X16163765Y-9722597D01*
X16163765Y-9722597D02*
X16173288Y-9727359D01*
X16173288Y-9727359D02*
X16178050Y-9732121D01*
X16178050Y-9732121D02*
X16182812Y-9741645D01*
X16182812Y-9741645D02*
X16182812Y-9765454D01*
X16182812Y-9765454D02*
X16178050Y-9774978D01*
X16178050Y-9774978D02*
X16173288Y-9779740D01*
X16173288Y-9779740D02*
X16163765Y-9784502D01*
X16163765Y-9784502D02*
X16135193Y-9784502D01*
X16135193Y-9784502D02*
X16125669Y-9779740D01*
X16125669Y-9779740D02*
X16120908Y-9774978D01*
X16220908Y-9694026D02*
X16225669Y-9689264D01*
X16225669Y-9689264D02*
X16235193Y-9684502D01*
X16235193Y-9684502D02*
X16259003Y-9684502D01*
X16259003Y-9684502D02*
X16268527Y-9689264D01*
X16268527Y-9689264D02*
X16273288Y-9694026D01*
X16273288Y-9694026D02*
X16278050Y-9703550D01*
X16278050Y-9703550D02*
X16278050Y-9713073D01*
X16278050Y-9713073D02*
X16273288Y-9727359D01*
X16273288Y-9727359D02*
X16216146Y-9784502D01*
X16216146Y-9784502D02*
X16278050Y-9784502D01*
X15924013Y-13326798D02*
X15919251Y-13331560D01*
X15919251Y-13331560D02*
X15904966Y-13336322D01*
X15904966Y-13336322D02*
X15895442Y-13336322D01*
X15895442Y-13336322D02*
X15881156Y-13331560D01*
X15881156Y-13331560D02*
X15871632Y-13322036D01*
X15871632Y-13322036D02*
X15866870Y-13312512D01*
X15866870Y-13312512D02*
X15862109Y-13293465D01*
X15862109Y-13293465D02*
X15862109Y-13279179D01*
X15862109Y-13279179D02*
X15866870Y-13260131D01*
X15866870Y-13260131D02*
X15871632Y-13250608D01*
X15871632Y-13250608D02*
X15881156Y-13241084D01*
X15881156Y-13241084D02*
X15895442Y-13236322D01*
X15895442Y-13236322D02*
X15904966Y-13236322D01*
X15904966Y-13236322D02*
X15919251Y-13241084D01*
X15919251Y-13241084D02*
X15924013Y-13245846D01*
X16009728Y-13236322D02*
X15990680Y-13236322D01*
X15990680Y-13236322D02*
X15981156Y-13241084D01*
X15981156Y-13241084D02*
X15976394Y-13245846D01*
X15976394Y-13245846D02*
X15966870Y-13260131D01*
X15966870Y-13260131D02*
X15962109Y-13279179D01*
X15962109Y-13279179D02*
X15962109Y-13317274D01*
X15962109Y-13317274D02*
X15966870Y-13326798D01*
X15966870Y-13326798D02*
X15971632Y-13331560D01*
X15971632Y-13331560D02*
X15981156Y-13336322D01*
X15981156Y-13336322D02*
X16000204Y-13336322D01*
X16000204Y-13336322D02*
X16009728Y-13331560D01*
X16009728Y-13331560D02*
X16014489Y-13326798D01*
X16014489Y-13326798D02*
X16019251Y-13317274D01*
X16019251Y-13317274D02*
X16019251Y-13293465D01*
X16019251Y-13293465D02*
X16014489Y-13283941D01*
X16014489Y-13283941D02*
X16009728Y-13279179D01*
X16009728Y-13279179D02*
X16000204Y-13274417D01*
X16000204Y-13274417D02*
X15981156Y-13274417D01*
X15981156Y-13274417D02*
X15971632Y-13279179D01*
X15971632Y-13279179D02*
X15966870Y-13283941D01*
X15966870Y-13283941D02*
X15962109Y-13293465D01*
X11687853Y-12997532D02*
X11654520Y-12949913D01*
X11630710Y-12997532D02*
X11630710Y-12897532D01*
X11630710Y-12897532D02*
X11668806Y-12897532D01*
X11668806Y-12897532D02*
X11678329Y-12902294D01*
X11678329Y-12902294D02*
X11683091Y-12907056D01*
X11683091Y-12907056D02*
X11687853Y-12916579D01*
X11687853Y-12916579D02*
X11687853Y-12930865D01*
X11687853Y-12930865D02*
X11683091Y-12940389D01*
X11683091Y-12940389D02*
X11678329Y-12945151D01*
X11678329Y-12945151D02*
X11668806Y-12949913D01*
X11668806Y-12949913D02*
X11630710Y-12949913D01*
X11773568Y-12897532D02*
X11754520Y-12897532D01*
X11754520Y-12897532D02*
X11744996Y-12902294D01*
X11744996Y-12902294D02*
X11740234Y-12907056D01*
X11740234Y-12907056D02*
X11730710Y-12921341D01*
X11730710Y-12921341D02*
X11725949Y-12940389D01*
X11725949Y-12940389D02*
X11725949Y-12978484D01*
X11725949Y-12978484D02*
X11730710Y-12988008D01*
X11730710Y-12988008D02*
X11735472Y-12992770D01*
X11735472Y-12992770D02*
X11744996Y-12997532D01*
X11744996Y-12997532D02*
X11764044Y-12997532D01*
X11764044Y-12997532D02*
X11773568Y-12992770D01*
X11773568Y-12992770D02*
X11778329Y-12988008D01*
X11778329Y-12988008D02*
X11783091Y-12978484D01*
X11783091Y-12978484D02*
X11783091Y-12954675D01*
X11783091Y-12954675D02*
X11778329Y-12945151D01*
X11778329Y-12945151D02*
X11773568Y-12940389D01*
X11773568Y-12940389D02*
X11764044Y-12935627D01*
X11764044Y-12935627D02*
X11744996Y-12935627D01*
X11744996Y-12935627D02*
X11735472Y-12940389D01*
X11735472Y-12940389D02*
X11730710Y-12945151D01*
X11730710Y-12945151D02*
X11725949Y-12954675D01*
X11187320Y-8368133D02*
X11192082Y-8353847D01*
X11192082Y-8353847D02*
X11192082Y-8330038D01*
X11192082Y-8330038D02*
X11187320Y-8320514D01*
X11187320Y-8320514D02*
X11182558Y-8315752D01*
X11182558Y-8315752D02*
X11173034Y-8310990D01*
X11173034Y-8310990D02*
X11163510Y-8310990D01*
X11163510Y-8310990D02*
X11153987Y-8315752D01*
X11153987Y-8315752D02*
X11149225Y-8320514D01*
X11149225Y-8320514D02*
X11144463Y-8330038D01*
X11144463Y-8330038D02*
X11139701Y-8349086D01*
X11139701Y-8349086D02*
X11134939Y-8358609D01*
X11134939Y-8358609D02*
X11130177Y-8363371D01*
X11130177Y-8363371D02*
X11120653Y-8368133D01*
X11120653Y-8368133D02*
X11111130Y-8368133D01*
X11111130Y-8368133D02*
X11101606Y-8363371D01*
X11101606Y-8363371D02*
X11096844Y-8358609D01*
X11096844Y-8358609D02*
X11092082Y-8349086D01*
X11092082Y-8349086D02*
X11092082Y-8325276D01*
X11092082Y-8325276D02*
X11096844Y-8310990D01*
X11092082Y-8277657D02*
X11192082Y-8253847D01*
X11192082Y-8253847D02*
X11120653Y-8234800D01*
X11120653Y-8234800D02*
X11192082Y-8215752D01*
X11192082Y-8215752D02*
X11092082Y-8191943D01*
X11092082Y-8163371D02*
X11092082Y-8101467D01*
X11092082Y-8101467D02*
X11130177Y-8134800D01*
X11130177Y-8134800D02*
X11130177Y-8120514D01*
X11130177Y-8120514D02*
X11134939Y-8110990D01*
X11134939Y-8110990D02*
X11139701Y-8106228D01*
X11139701Y-8106228D02*
X11149225Y-8101467D01*
X11149225Y-8101467D02*
X11173034Y-8101467D01*
X11173034Y-8101467D02*
X11182558Y-8106228D01*
X11182558Y-8106228D02*
X11187320Y-8110990D01*
X11187320Y-8110990D02*
X11192082Y-8120514D01*
X11192082Y-8120514D02*
X11192082Y-8149086D01*
X11192082Y-8149086D02*
X11187320Y-8158609D01*
X11187320Y-8158609D02*
X11182558Y-8163371D01*
X12475094Y-9417958D02*
X12470332Y-9422720D01*
X12470332Y-9422720D02*
X12456047Y-9427482D01*
X12456047Y-9427482D02*
X12446523Y-9427482D01*
X12446523Y-9427482D02*
X12432237Y-9422720D01*
X12432237Y-9422720D02*
X12422713Y-9413196D01*
X12422713Y-9413196D02*
X12417951Y-9403672D01*
X12417951Y-9403672D02*
X12413189Y-9384625D01*
X12413189Y-9384625D02*
X12413189Y-9370339D01*
X12413189Y-9370339D02*
X12417951Y-9351291D01*
X12417951Y-9351291D02*
X12422713Y-9341768D01*
X12422713Y-9341768D02*
X12432237Y-9332244D01*
X12432237Y-9332244D02*
X12446523Y-9327482D01*
X12446523Y-9327482D02*
X12456047Y-9327482D01*
X12456047Y-9327482D02*
X12470332Y-9332244D01*
X12470332Y-9332244D02*
X12475094Y-9337006D01*
X12513189Y-9337006D02*
X12517951Y-9332244D01*
X12517951Y-9332244D02*
X12527475Y-9327482D01*
X12527475Y-9327482D02*
X12551285Y-9327482D01*
X12551285Y-9327482D02*
X12560808Y-9332244D01*
X12560808Y-9332244D02*
X12565570Y-9337006D01*
X12565570Y-9337006D02*
X12570332Y-9346530D01*
X12570332Y-9346530D02*
X12570332Y-9356053D01*
X12570332Y-9356053D02*
X12565570Y-9370339D01*
X12565570Y-9370339D02*
X12508428Y-9427482D01*
X12508428Y-9427482D02*
X12570332Y-9427482D01*
X12632237Y-9327482D02*
X12641761Y-9327482D01*
X12641761Y-9327482D02*
X12651285Y-9332244D01*
X12651285Y-9332244D02*
X12656047Y-9337006D01*
X12656047Y-9337006D02*
X12660808Y-9346530D01*
X12660808Y-9346530D02*
X12665570Y-9365577D01*
X12665570Y-9365577D02*
X12665570Y-9389387D01*
X12665570Y-9389387D02*
X12660808Y-9408434D01*
X12660808Y-9408434D02*
X12656047Y-9417958D01*
X12656047Y-9417958D02*
X12651285Y-9422720D01*
X12651285Y-9422720D02*
X12641761Y-9427482D01*
X12641761Y-9427482D02*
X12632237Y-9427482D01*
X12632237Y-9427482D02*
X12622713Y-9422720D01*
X12622713Y-9422720D02*
X12617951Y-9417958D01*
X12617951Y-9417958D02*
X12613189Y-9408434D01*
X12613189Y-9408434D02*
X12608428Y-9389387D01*
X12608428Y-9389387D02*
X12608428Y-9365577D01*
X12608428Y-9365577D02*
X12613189Y-9346530D01*
X12613189Y-9346530D02*
X12617951Y-9337006D01*
X12617951Y-9337006D02*
X12622713Y-9332244D01*
X12622713Y-9332244D02*
X12632237Y-9327482D01*
X10341653Y-12624788D02*
X10336891Y-12629550D01*
X10336891Y-12629550D02*
X10322606Y-12634312D01*
X10322606Y-12634312D02*
X10313082Y-12634312D01*
X10313082Y-12634312D02*
X10298796Y-12629550D01*
X10298796Y-12629550D02*
X10289272Y-12620026D01*
X10289272Y-12620026D02*
X10284511Y-12610502D01*
X10284511Y-12610502D02*
X10279749Y-12591455D01*
X10279749Y-12591455D02*
X10279749Y-12577169D01*
X10279749Y-12577169D02*
X10284511Y-12558121D01*
X10284511Y-12558121D02*
X10289272Y-12548598D01*
X10289272Y-12548598D02*
X10298796Y-12539074D01*
X10298796Y-12539074D02*
X10313082Y-12534312D01*
X10313082Y-12534312D02*
X10322606Y-12534312D01*
X10322606Y-12534312D02*
X10336891Y-12539074D01*
X10336891Y-12539074D02*
X10341653Y-12543836D01*
X10379749Y-12543836D02*
X10384511Y-12539074D01*
X10384511Y-12539074D02*
X10394034Y-12534312D01*
X10394034Y-12534312D02*
X10417844Y-12534312D01*
X10417844Y-12534312D02*
X10427368Y-12539074D01*
X10427368Y-12539074D02*
X10432130Y-12543836D01*
X10432130Y-12543836D02*
X10436891Y-12553359D01*
X10436891Y-12553359D02*
X10436891Y-12562883D01*
X10436891Y-12562883D02*
X10432130Y-12577169D01*
X10432130Y-12577169D02*
X10374987Y-12634312D01*
X10374987Y-12634312D02*
X10436891Y-12634312D01*
X11697828Y-9107262D02*
X11697828Y-9178690D01*
X11697828Y-9178690D02*
X11693066Y-9192976D01*
X11693066Y-9192976D02*
X11683542Y-9202500D01*
X11683542Y-9202500D02*
X11669256Y-9207262D01*
X11669256Y-9207262D02*
X11659732Y-9207262D01*
X11745447Y-9207262D02*
X11745447Y-9107262D01*
X11745447Y-9107262D02*
X11783542Y-9107262D01*
X11783542Y-9107262D02*
X11793066Y-9112024D01*
X11793066Y-9112024D02*
X11797828Y-9116786D01*
X11797828Y-9116786D02*
X11802589Y-9126310D01*
X11802589Y-9126310D02*
X11802589Y-9140595D01*
X11802589Y-9140595D02*
X11797828Y-9150119D01*
X11797828Y-9150119D02*
X11793066Y-9154881D01*
X11793066Y-9154881D02*
X11783542Y-9159643D01*
X11783542Y-9159643D02*
X11745447Y-9159643D01*
X11897828Y-9207262D02*
X11840685Y-9207262D01*
X11869256Y-9207262D02*
X11869256Y-9107262D01*
X11869256Y-9107262D02*
X11859732Y-9121548D01*
X11859732Y-9121548D02*
X11850209Y-9131071D01*
X11850209Y-9131071D02*
X11840685Y-9135833D01*
X11954970Y-9150119D02*
X11945447Y-9145357D01*
X11945447Y-9145357D02*
X11940685Y-9140595D01*
X11940685Y-9140595D02*
X11935923Y-9131071D01*
X11935923Y-9131071D02*
X11935923Y-9126310D01*
X11935923Y-9126310D02*
X11940685Y-9116786D01*
X11940685Y-9116786D02*
X11945447Y-9112024D01*
X11945447Y-9112024D02*
X11954970Y-9107262D01*
X11954970Y-9107262D02*
X11974018Y-9107262D01*
X11974018Y-9107262D02*
X11983542Y-9112024D01*
X11983542Y-9112024D02*
X11988304Y-9116786D01*
X11988304Y-9116786D02*
X11993066Y-9126310D01*
X11993066Y-9126310D02*
X11993066Y-9131071D01*
X11993066Y-9131071D02*
X11988304Y-9140595D01*
X11988304Y-9140595D02*
X11983542Y-9145357D01*
X11983542Y-9145357D02*
X11974018Y-9150119D01*
X11974018Y-9150119D02*
X11954970Y-9150119D01*
X11954970Y-9150119D02*
X11945447Y-9154881D01*
X11945447Y-9154881D02*
X11940685Y-9159643D01*
X11940685Y-9159643D02*
X11935923Y-9169167D01*
X11935923Y-9169167D02*
X11935923Y-9188214D01*
X11935923Y-9188214D02*
X11940685Y-9197738D01*
X11940685Y-9197738D02*
X11945447Y-9202500D01*
X11945447Y-9202500D02*
X11954970Y-9207262D01*
X11954970Y-9207262D02*
X11974018Y-9207262D01*
X11974018Y-9207262D02*
X11983542Y-9202500D01*
X11983542Y-9202500D02*
X11988304Y-9197738D01*
X11988304Y-9197738D02*
X11993066Y-9188214D01*
X11993066Y-9188214D02*
X11993066Y-9169167D01*
X11993066Y-9169167D02*
X11988304Y-9159643D01*
X11988304Y-9159643D02*
X11983542Y-9154881D01*
X11983542Y-9154881D02*
X11974018Y-9150119D01*
X13871693Y-12625178D02*
X13866931Y-12629940D01*
X13866931Y-12629940D02*
X13852646Y-12634702D01*
X13852646Y-12634702D02*
X13843122Y-12634702D01*
X13843122Y-12634702D02*
X13828836Y-12629940D01*
X13828836Y-12629940D02*
X13819312Y-12620416D01*
X13819312Y-12620416D02*
X13814550Y-12610892D01*
X13814550Y-12610892D02*
X13809789Y-12591845D01*
X13809789Y-12591845D02*
X13809789Y-12577559D01*
X13809789Y-12577559D02*
X13814550Y-12558511D01*
X13814550Y-12558511D02*
X13819312Y-12548988D01*
X13819312Y-12548988D02*
X13828836Y-12539464D01*
X13828836Y-12539464D02*
X13843122Y-12534702D01*
X13843122Y-12534702D02*
X13852646Y-12534702D01*
X13852646Y-12534702D02*
X13866931Y-12539464D01*
X13866931Y-12539464D02*
X13871693Y-12544226D01*
X13966931Y-12634702D02*
X13909789Y-12634702D01*
X13938360Y-12634702D02*
X13938360Y-12534702D01*
X13938360Y-12534702D02*
X13928836Y-12548988D01*
X13928836Y-12548988D02*
X13919312Y-12558511D01*
X13919312Y-12558511D02*
X13909789Y-12563273D01*
X11687853Y-12573352D02*
X11654520Y-12525733D01*
X11630710Y-12573352D02*
X11630710Y-12473352D01*
X11630710Y-12473352D02*
X11668806Y-12473352D01*
X11668806Y-12473352D02*
X11678329Y-12478114D01*
X11678329Y-12478114D02*
X11683091Y-12482876D01*
X11683091Y-12482876D02*
X11687853Y-12492399D01*
X11687853Y-12492399D02*
X11687853Y-12506685D01*
X11687853Y-12506685D02*
X11683091Y-12516209D01*
X11683091Y-12516209D02*
X11678329Y-12520971D01*
X11678329Y-12520971D02*
X11668806Y-12525733D01*
X11668806Y-12525733D02*
X11630710Y-12525733D01*
X11778329Y-12473352D02*
X11730710Y-12473352D01*
X11730710Y-12473352D02*
X11725949Y-12520971D01*
X11725949Y-12520971D02*
X11730710Y-12516209D01*
X11730710Y-12516209D02*
X11740234Y-12511447D01*
X11740234Y-12511447D02*
X11764044Y-12511447D01*
X11764044Y-12511447D02*
X11773568Y-12516209D01*
X11773568Y-12516209D02*
X11778329Y-12520971D01*
X11778329Y-12520971D02*
X11783091Y-12530495D01*
X11783091Y-12530495D02*
X11783091Y-12554304D01*
X11783091Y-12554304D02*
X11778329Y-12563828D01*
X11778329Y-12563828D02*
X11773568Y-12568590D01*
X11773568Y-12568590D02*
X11764044Y-12573352D01*
X11764044Y-12573352D02*
X11740234Y-12573352D01*
X11740234Y-12573352D02*
X11730710Y-12568590D01*
X11730710Y-12568590D02*
X11725949Y-12563828D01*
X10316053Y-8897382D02*
X10282720Y-8849763D01*
X10258911Y-8897382D02*
X10258911Y-8797382D01*
X10258911Y-8797382D02*
X10297006Y-8797382D01*
X10297006Y-8797382D02*
X10306530Y-8802144D01*
X10306530Y-8802144D02*
X10311291Y-8806906D01*
X10311291Y-8806906D02*
X10316053Y-8816430D01*
X10316053Y-8816430D02*
X10316053Y-8830715D01*
X10316053Y-8830715D02*
X10311291Y-8840239D01*
X10311291Y-8840239D02*
X10306530Y-8845001D01*
X10306530Y-8845001D02*
X10297006Y-8849763D01*
X10297006Y-8849763D02*
X10258911Y-8849763D01*
X10349387Y-8797382D02*
X10416053Y-8797382D01*
X10416053Y-8797382D02*
X10373196Y-8897382D01*
X12582847Y-6960962D02*
X12582847Y-7032390D01*
X12582847Y-7032390D02*
X12578085Y-7046676D01*
X12578085Y-7046676D02*
X12568561Y-7056200D01*
X12568561Y-7056200D02*
X12554275Y-7060962D01*
X12554275Y-7060962D02*
X12544751Y-7060962D01*
X12682847Y-7060962D02*
X12625704Y-7060962D01*
X12654275Y-7060962D02*
X12654275Y-6960962D01*
X12654275Y-6960962D02*
X12644751Y-6975248D01*
X12644751Y-6975248D02*
X12635228Y-6984771D01*
X12635228Y-6984771D02*
X12625704Y-6989533D01*
X15988987Y-11822522D02*
X15988987Y-11893950D01*
X15988987Y-11893950D02*
X15984225Y-11908236D01*
X15984225Y-11908236D02*
X15974701Y-11917760D01*
X15974701Y-11917760D02*
X15960415Y-11922522D01*
X15960415Y-11922522D02*
X15950891Y-11922522D01*
X16041368Y-11922522D02*
X16060415Y-11922522D01*
X16060415Y-11922522D02*
X16069939Y-11917760D01*
X16069939Y-11917760D02*
X16074701Y-11912998D01*
X16074701Y-11912998D02*
X16084225Y-11898712D01*
X16084225Y-11898712D02*
X16088987Y-11879665D01*
X16088987Y-11879665D02*
X16088987Y-11841569D01*
X16088987Y-11841569D02*
X16084225Y-11832046D01*
X16084225Y-11832046D02*
X16079463Y-11827284D01*
X16079463Y-11827284D02*
X16069939Y-11822522D01*
X16069939Y-11822522D02*
X16050891Y-11822522D01*
X16050891Y-11822522D02*
X16041368Y-11827284D01*
X16041368Y-11827284D02*
X16036606Y-11832046D01*
X16036606Y-11832046D02*
X16031844Y-11841569D01*
X16031844Y-11841569D02*
X16031844Y-11865379D01*
X16031844Y-11865379D02*
X16036606Y-11874903D01*
X16036606Y-11874903D02*
X16041368Y-11879665D01*
X16041368Y-11879665D02*
X16050891Y-11884427D01*
X16050891Y-11884427D02*
X16069939Y-11884427D01*
X16069939Y-11884427D02*
X16079463Y-11879665D01*
X16079463Y-11879665D02*
X16084225Y-11874903D01*
X16084225Y-11874903D02*
X16088987Y-11865379D01*
X11210380Y-11893653D02*
X11215142Y-11879367D01*
X11215142Y-11879367D02*
X11215142Y-11855558D01*
X11215142Y-11855558D02*
X11210380Y-11846034D01*
X11210380Y-11846034D02*
X11205618Y-11841272D01*
X11205618Y-11841272D02*
X11196094Y-11836510D01*
X11196094Y-11836510D02*
X11186570Y-11836510D01*
X11186570Y-11836510D02*
X11177047Y-11841272D01*
X11177047Y-11841272D02*
X11172285Y-11846034D01*
X11172285Y-11846034D02*
X11167523Y-11855558D01*
X11167523Y-11855558D02*
X11162761Y-11874606D01*
X11162761Y-11874606D02*
X11157999Y-11884129D01*
X11157999Y-11884129D02*
X11153237Y-11888891D01*
X11153237Y-11888891D02*
X11143713Y-11893653D01*
X11143713Y-11893653D02*
X11134190Y-11893653D01*
X11134190Y-11893653D02*
X11124666Y-11888891D01*
X11124666Y-11888891D02*
X11119904Y-11884129D01*
X11119904Y-11884129D02*
X11115142Y-11874606D01*
X11115142Y-11874606D02*
X11115142Y-11850796D01*
X11115142Y-11850796D02*
X11119904Y-11836510D01*
X11115142Y-11803177D02*
X11215142Y-11779367D01*
X11215142Y-11779367D02*
X11143713Y-11760320D01*
X11143713Y-11760320D02*
X11215142Y-11741272D01*
X11215142Y-11741272D02*
X11115142Y-11717463D01*
X11124666Y-11684129D02*
X11119904Y-11679367D01*
X11119904Y-11679367D02*
X11115142Y-11669844D01*
X11115142Y-11669844D02*
X11115142Y-11646034D01*
X11115142Y-11646034D02*
X11119904Y-11636510D01*
X11119904Y-11636510D02*
X11124666Y-11631748D01*
X11124666Y-11631748D02*
X11134190Y-11626987D01*
X11134190Y-11626987D02*
X11143713Y-11626987D01*
X11143713Y-11626987D02*
X11157999Y-11631748D01*
X11157999Y-11631748D02*
X11215142Y-11688891D01*
X11215142Y-11688891D02*
X11215142Y-11626987D01*
X10463267Y-7663932D02*
X10463267Y-7735360D01*
X10463267Y-7735360D02*
X10458505Y-7749646D01*
X10458505Y-7749646D02*
X10448981Y-7759170D01*
X10448981Y-7759170D02*
X10434695Y-7763932D01*
X10434695Y-7763932D02*
X10425171Y-7763932D01*
X10506124Y-7673456D02*
X10510886Y-7668694D01*
X10510886Y-7668694D02*
X10520410Y-7663932D01*
X10520410Y-7663932D02*
X10544219Y-7663932D01*
X10544219Y-7663932D02*
X10553743Y-7668694D01*
X10553743Y-7668694D02*
X10558505Y-7673456D01*
X10558505Y-7673456D02*
X10563267Y-7682979D01*
X10563267Y-7682979D02*
X10563267Y-7692503D01*
X10563267Y-7692503D02*
X10558505Y-7706789D01*
X10558505Y-7706789D02*
X10501362Y-7763932D01*
X10501362Y-7763932D02*
X10563267Y-7763932D01*
X10486327Y-11235522D02*
X10486327Y-11306950D01*
X10486327Y-11306950D02*
X10481565Y-11321236D01*
X10481565Y-11321236D02*
X10472041Y-11330760D01*
X10472041Y-11330760D02*
X10457755Y-11335522D01*
X10457755Y-11335522D02*
X10448231Y-11335522D01*
X10581565Y-11235522D02*
X10533946Y-11235522D01*
X10533946Y-11235522D02*
X10529184Y-11283141D01*
X10529184Y-11283141D02*
X10533946Y-11278379D01*
X10533946Y-11278379D02*
X10543470Y-11273617D01*
X10543470Y-11273617D02*
X10567279Y-11273617D01*
X10567279Y-11273617D02*
X10576803Y-11278379D01*
X10576803Y-11278379D02*
X10581565Y-11283141D01*
X10581565Y-11283141D02*
X10586327Y-11292665D01*
X10586327Y-11292665D02*
X10586327Y-11316474D01*
X10586327Y-11316474D02*
X10581565Y-11325998D01*
X10581565Y-11325998D02*
X10576803Y-11330760D01*
X10576803Y-11330760D02*
X10567279Y-11335522D01*
X10567279Y-11335522D02*
X10543470Y-11335522D01*
X10543470Y-11335522D02*
X10533946Y-11330760D01*
X10533946Y-11330760D02*
X10529184Y-11325998D01*
X10105248Y-9175842D02*
X10105248Y-9247270D01*
X10105248Y-9247270D02*
X10100486Y-9261556D01*
X10100486Y-9261556D02*
X10090962Y-9271080D01*
X10090962Y-9271080D02*
X10076676Y-9275842D01*
X10076676Y-9275842D02*
X10067152Y-9275842D01*
X10152867Y-9275842D02*
X10152867Y-9175842D01*
X10152867Y-9175842D02*
X10190962Y-9175842D01*
X10190962Y-9175842D02*
X10200486Y-9180604D01*
X10200486Y-9180604D02*
X10205248Y-9185366D01*
X10205248Y-9185366D02*
X10210010Y-9194890D01*
X10210010Y-9194890D02*
X10210010Y-9209175D01*
X10210010Y-9209175D02*
X10205248Y-9218699D01*
X10205248Y-9218699D02*
X10200486Y-9223461D01*
X10200486Y-9223461D02*
X10190962Y-9228223D01*
X10190962Y-9228223D02*
X10152867Y-9228223D01*
X10305248Y-9275842D02*
X10248105Y-9275842D01*
X10276676Y-9275842D02*
X10276676Y-9175842D01*
X10276676Y-9175842D02*
X10267152Y-9190128D01*
X10267152Y-9190128D02*
X10257629Y-9199651D01*
X10257629Y-9199651D02*
X10248105Y-9204413D01*
X10338581Y-9175842D02*
X10405248Y-9175842D01*
X10405248Y-9175842D02*
X10362391Y-9275842D01*
X13879313Y-12478782D02*
X13845980Y-12431163D01*
X13822170Y-12478782D02*
X13822170Y-12378782D01*
X13822170Y-12378782D02*
X13860266Y-12378782D01*
X13860266Y-12378782D02*
X13869789Y-12383544D01*
X13869789Y-12383544D02*
X13874551Y-12388306D01*
X13874551Y-12388306D02*
X13879313Y-12397829D01*
X13879313Y-12397829D02*
X13879313Y-12412115D01*
X13879313Y-12412115D02*
X13874551Y-12421639D01*
X13874551Y-12421639D02*
X13869789Y-12426401D01*
X13869789Y-12426401D02*
X13860266Y-12431163D01*
X13860266Y-12431163D02*
X13822170Y-12431163D01*
X13974551Y-12478782D02*
X13917409Y-12478782D01*
X13945980Y-12478782D02*
X13945980Y-12378782D01*
X13945980Y-12378782D02*
X13936456Y-12393068D01*
X13936456Y-12393068D02*
X13926932Y-12402591D01*
X13926932Y-12402591D02*
X13917409Y-12407353D01*
X12587927Y-8211142D02*
X12587927Y-8282570D01*
X12587927Y-8282570D02*
X12583165Y-8296856D01*
X12583165Y-8296856D02*
X12573641Y-8306380D01*
X12573641Y-8306380D02*
X12559355Y-8311142D01*
X12559355Y-8311142D02*
X12549831Y-8311142D01*
X12626022Y-8211142D02*
X12687927Y-8211142D01*
X12687927Y-8211142D02*
X12654593Y-8249237D01*
X12654593Y-8249237D02*
X12668879Y-8249237D01*
X12668879Y-8249237D02*
X12678403Y-8253999D01*
X12678403Y-8253999D02*
X12683165Y-8258761D01*
X12683165Y-8258761D02*
X12687927Y-8268285D01*
X12687927Y-8268285D02*
X12687927Y-8292094D01*
X12687927Y-8292094D02*
X12683165Y-8301618D01*
X12683165Y-8301618D02*
X12678403Y-8306380D01*
X12678403Y-8306380D02*
X12668879Y-8311142D01*
X12668879Y-8311142D02*
X12640308Y-8311142D01*
X12640308Y-8311142D02*
X12630784Y-8306380D01*
X12630784Y-8306380D02*
X12626022Y-8301618D01*
X15924013Y-12616338D02*
X15919251Y-12621100D01*
X15919251Y-12621100D02*
X15904966Y-12625862D01*
X15904966Y-12625862D02*
X15895442Y-12625862D01*
X15895442Y-12625862D02*
X15881156Y-12621100D01*
X15881156Y-12621100D02*
X15871632Y-12611576D01*
X15871632Y-12611576D02*
X15866870Y-12602052D01*
X15866870Y-12602052D02*
X15862109Y-12583005D01*
X15862109Y-12583005D02*
X15862109Y-12568719D01*
X15862109Y-12568719D02*
X15866870Y-12549671D01*
X15866870Y-12549671D02*
X15871632Y-12540148D01*
X15871632Y-12540148D02*
X15881156Y-12530624D01*
X15881156Y-12530624D02*
X15895442Y-12525862D01*
X15895442Y-12525862D02*
X15904966Y-12525862D01*
X15904966Y-12525862D02*
X15919251Y-12530624D01*
X15919251Y-12530624D02*
X15924013Y-12535386D01*
X15957347Y-12525862D02*
X16019251Y-12525862D01*
X16019251Y-12525862D02*
X15985918Y-12563957D01*
X15985918Y-12563957D02*
X16000204Y-12563957D01*
X16000204Y-12563957D02*
X16009728Y-12568719D01*
X16009728Y-12568719D02*
X16014489Y-12573481D01*
X16014489Y-12573481D02*
X16019251Y-12583005D01*
X16019251Y-12583005D02*
X16019251Y-12606814D01*
X16019251Y-12606814D02*
X16014489Y-12616338D01*
X16014489Y-12616338D02*
X16009728Y-12621100D01*
X16009728Y-12621100D02*
X16000204Y-12625862D01*
X16000204Y-12625862D02*
X15971632Y-12625862D01*
X15971632Y-12625862D02*
X15962109Y-12621100D01*
X15962109Y-12621100D02*
X15957347Y-12616338D01*
X15250913Y-12566122D02*
X15217580Y-12518503D01*
X15193770Y-12566122D02*
X15193770Y-12466122D01*
X15193770Y-12466122D02*
X15231866Y-12466122D01*
X15231866Y-12466122D02*
X15241389Y-12470884D01*
X15241389Y-12470884D02*
X15246151Y-12475646D01*
X15246151Y-12475646D02*
X15250913Y-12485169D01*
X15250913Y-12485169D02*
X15250913Y-12499455D01*
X15250913Y-12499455D02*
X15246151Y-12508979D01*
X15246151Y-12508979D02*
X15241389Y-12513741D01*
X15241389Y-12513741D02*
X15231866Y-12518503D01*
X15231866Y-12518503D02*
X15193770Y-12518503D01*
X15284247Y-12466122D02*
X15346151Y-12466122D01*
X15346151Y-12466122D02*
X15312818Y-12504217D01*
X15312818Y-12504217D02*
X15327104Y-12504217D01*
X15327104Y-12504217D02*
X15336628Y-12508979D01*
X15336628Y-12508979D02*
X15341389Y-12513741D01*
X15341389Y-12513741D02*
X15346151Y-12523265D01*
X15346151Y-12523265D02*
X15346151Y-12547074D01*
X15346151Y-12547074D02*
X15341389Y-12556598D01*
X15341389Y-12556598D02*
X15336628Y-12561360D01*
X15336628Y-12561360D02*
X15327104Y-12566122D01*
X15327104Y-12566122D02*
X15298532Y-12566122D01*
X15298532Y-12566122D02*
X15289009Y-12561360D01*
X15289009Y-12561360D02*
X15284247Y-12556598D01*
D14*
%TO.C,J10*%
X16091360Y-8608060D02*
X16091360Y-8343060D01*
X16367360Y-8343060D02*
X16091360Y-8343060D01*
X16367360Y-8608060D02*
X16091360Y-8608060D01*
X16367360Y-8608060D02*
X16367360Y-8343060D01*
X16367360Y-8735060D02*
X16367360Y-8873060D01*
X16367360Y-8873060D02*
X16229360Y-8873060D01*
%TO.C,JP23*%
X10772690Y-9727080D02*
X10772690Y-9587080D01*
X10842690Y-9517080D02*
X10902690Y-9517080D01*
X10902690Y-9797080D02*
X10842690Y-9797080D01*
X10972690Y-9587080D02*
X10972690Y-9727080D01*
X10772690Y-9587080D02*
G75*
G02*
X10842690Y-9517080I70000J0D01*
G01*
X10842690Y-9797080D02*
G75*
G02*
X10772690Y-9727080I0J70000D01*
G01*
X10902690Y-9517080D02*
G75*
G02*
X10972690Y-9587080I0J-70000D01*
G01*
X10972690Y-9727080D02*
G75*
G02*
X10902690Y-9797080I-70000J0D01*
G01*
%TO.C,C25*%
X14088198Y-9084860D02*
X14060082Y-9084860D01*
X14088198Y-9186860D02*
X14060082Y-9186860D01*
%TO.C,R9*%
X11472314Y-9315270D02*
X11519766Y-9315270D01*
X11472314Y-9419770D02*
X11519766Y-9419770D01*
%TO.C,J7*%
X15880180Y-11430150D02*
X15880180Y-10657150D01*
X16156180Y-10657150D02*
X15880180Y-10657150D01*
X16156180Y-11430150D02*
X15880180Y-11430150D01*
X16156180Y-11430150D02*
X16156180Y-10657150D01*
X16156180Y-11557150D02*
X16156180Y-11695150D01*
X16156180Y-11695150D02*
X16018180Y-11695150D01*
%TO.C,JP12*%
X14297550Y-13220560D02*
X14297550Y-13080560D01*
X14367550Y-13010560D02*
X14427550Y-13010560D01*
X14427550Y-13290560D02*
X14367550Y-13290560D01*
X14497550Y-13080560D02*
X14497550Y-13220560D01*
X14297550Y-13080560D02*
G75*
G02*
X14367550Y-13010560I70000J0D01*
G01*
X14367550Y-13290560D02*
G75*
G02*
X14297550Y-13220560I0J70000D01*
G01*
X14427550Y-13010560D02*
G75*
G02*
X14497550Y-13080560I0J-70000D01*
G01*
X14497550Y-13220560D02*
G75*
G02*
X14427550Y-13290560I-70000J0D01*
G01*
%TO.C,C13*%
X12392542Y-12677070D02*
X12420658Y-12677070D01*
X12392542Y-12779070D02*
X12420658Y-12779070D01*
D15*
%TO.C,U1*%
X10924740Y-12918050D02*
X11127940Y-12918050D01*
X11127940Y-12603090D02*
X10924740Y-12603090D01*
D14*
%TO.C,SW1*%
X13924300Y-11603900D02*
X13924300Y-12053900D01*
X14174300Y-12178900D02*
X14324300Y-12178900D01*
X14324300Y-11478900D02*
X14174300Y-11478900D01*
X14574300Y-12053900D02*
X14574300Y-11603900D01*
%TO.C,C31*%
X16137802Y-9476020D02*
X16165918Y-9476020D01*
X16137802Y-9578020D02*
X16165918Y-9578020D01*
%TO.C,C29*%
X14524902Y-8843560D02*
X14553018Y-8843560D01*
X14524902Y-8945560D02*
X14553018Y-8945560D01*
%TO.C,JP5*%
X10437160Y-13278590D02*
X10437160Y-13138590D01*
X10507160Y-13068590D02*
X10567160Y-13068590D01*
X10567160Y-13348590D02*
X10507160Y-13348590D01*
X10637160Y-13138590D02*
X10637160Y-13278590D01*
X10437160Y-13138590D02*
G75*
G02*
X10507160Y-13068590I70000J0D01*
G01*
X10507160Y-13348590D02*
G75*
G02*
X10437160Y-13278590I0J70000D01*
G01*
X10567160Y-13068590D02*
G75*
G02*
X10637160Y-13138590I0J-70000D01*
G01*
X10637160Y-13278590D02*
G75*
G02*
X10567160Y-13348590I-70000J0D01*
G01*
%TO.C,C21*%
X12525322Y-9837220D02*
X12553438Y-9837220D01*
X12525322Y-9939220D02*
X12553438Y-9939220D01*
%TO.C,C8*%
X13990800Y-13460322D02*
X13990800Y-13488438D01*
X14092800Y-13460322D02*
X14092800Y-13488438D01*
%TO.C,J8*%
X13886300Y-10922500D02*
X13886300Y-10657500D01*
X14162300Y-10657500D02*
X13886300Y-10657500D01*
X14162300Y-10922500D02*
X13886300Y-10922500D01*
X14162300Y-10922500D02*
X14162300Y-10657500D01*
X14162300Y-11049500D02*
X14162300Y-11187500D01*
X14162300Y-11187500D02*
X14024300Y-11187500D01*
%TO.C,J6*%
X12346100Y-12190470D02*
X12346100Y-11925470D01*
X12622100Y-11925470D02*
X12346100Y-11925470D01*
X12622100Y-12190470D02*
X12346100Y-12190470D01*
X12622100Y-12190470D02*
X12622100Y-11925470D01*
X12622100Y-12317470D02*
X12622100Y-12455470D01*
X12622100Y-12455470D02*
X12484100Y-12455470D01*
%TO.C,C30*%
X16137802Y-9121020D02*
X16165918Y-9121020D01*
X16137802Y-9223020D02*
X16165918Y-9223020D01*
%TO.C,JP11*%
X13941800Y-13220560D02*
X13941800Y-13080560D01*
X14011800Y-13010560D02*
X14071800Y-13010560D01*
X14071800Y-13290560D02*
X14011800Y-13290560D01*
X14141800Y-13080560D02*
X14141800Y-13220560D01*
X13941800Y-13080560D02*
G75*
G02*
X14011800Y-13010560I70000J0D01*
G01*
X14011800Y-13290560D02*
G75*
G02*
X13941800Y-13220560I0J70000D01*
G01*
X14071800Y-13010560D02*
G75*
G02*
X14141800Y-13080560I0J-70000D01*
G01*
X14141800Y-13220560D02*
G75*
G02*
X14071800Y-13290560I-70000J0D01*
G01*
%TO.C,C23*%
X10821690Y-9979542D02*
X10821690Y-10007658D01*
X10923690Y-9979542D02*
X10923690Y-10007658D01*
%TO.C,C11*%
X12392542Y-13400230D02*
X12420658Y-13400230D01*
X12392542Y-13502230D02*
X12420658Y-13502230D01*
%TO.C,C18*%
X10968902Y-8859320D02*
X10997018Y-8859320D01*
X10968902Y-8961320D02*
X10997018Y-8961320D01*
%TO.C,JP28*%
X14583740Y-9760100D02*
X14583740Y-9620100D01*
X14653740Y-9550100D02*
X14713740Y-9550100D01*
X14713740Y-9830100D02*
X14653740Y-9830100D01*
X14783740Y-9620100D02*
X14783740Y-9760100D01*
X14583740Y-9620100D02*
G75*
G02*
X14653740Y-9550100I70000J0D01*
G01*
X14653740Y-9830100D02*
G75*
G02*
X14583740Y-9760100I0J70000D01*
G01*
X14713740Y-9550100D02*
G75*
G02*
X14783740Y-9620100I0J-70000D01*
G01*
X14783740Y-9760100D02*
G75*
G02*
X14713740Y-9830100I-70000J0D01*
G01*
D15*
%TO.C,U3*%
X10985500Y-9339580D02*
X11071860Y-9339580D01*
X10998200Y-9050020D02*
X10985500Y-9050020D01*
X11059160Y-9050020D02*
X10998200Y-9050020D01*
X11071860Y-9050020D02*
X11059160Y-9050020D01*
X11059160Y-9050020D02*
G75*
G02*
X10998200Y-9050020I-30480J0D01*
G01*
D14*
%TO.C,C24*%
X11180280Y-9979542D02*
X11180280Y-10007658D01*
X11282280Y-9979542D02*
X11282280Y-10007658D01*
%TO.C,JP16*%
X15477060Y-13463840D02*
X15477060Y-13403840D01*
X15547060Y-13333840D02*
X15687060Y-13333840D01*
X15687060Y-13533840D02*
X15547060Y-13533840D01*
X15757060Y-13403840D02*
X15757060Y-13463840D01*
X15477060Y-13403840D02*
G75*
G02*
X15547060Y-13333840I70000J0D01*
G01*
X15547060Y-13533840D02*
G75*
G02*
X15477060Y-13463840I0J70000D01*
G01*
X15687060Y-13333840D02*
G75*
G02*
X15757060Y-13403840I0J-70000D01*
G01*
X15757060Y-13463840D02*
G75*
G02*
X15687060Y-13533840I-70000J0D01*
G01*
%TO.C,J11*%
X16091360Y-7861450D02*
X16091360Y-7088450D01*
X16367360Y-7088450D02*
X16091360Y-7088450D01*
X16367360Y-7861450D02*
X16091360Y-7861450D01*
X16367360Y-7861450D02*
X16367360Y-7088450D01*
X16367360Y-7988450D02*
X16367360Y-8126450D01*
X16367360Y-8126450D02*
X16229360Y-8126450D01*
%TO.C,JP2*%
X13966800Y-12818380D02*
X13966800Y-12758380D01*
X14036800Y-12688380D02*
X14176800Y-12688380D01*
X14176800Y-12888380D02*
X14036800Y-12888380D01*
X14246800Y-12758380D02*
X14246800Y-12818380D01*
X13966800Y-12758380D02*
G75*
G02*
X14036800Y-12688380I70000J0D01*
G01*
X14036800Y-12888380D02*
G75*
G02*
X13966800Y-12818380I0J70000D01*
G01*
X14176800Y-12688380D02*
G75*
G02*
X14246800Y-12758380I0J-70000D01*
G01*
X14246800Y-12818380D02*
G75*
G02*
X14176800Y-12888380I-70000J0D01*
G01*
%TO.C,JP4*%
X10462160Y-12823070D02*
X10462160Y-12763070D01*
X10532160Y-12693070D02*
X10672160Y-12693070D01*
X10672160Y-12893070D02*
X10532160Y-12893070D01*
X10742160Y-12763070D02*
X10742160Y-12823070D01*
X10462160Y-12763070D02*
G75*
G02*
X10532160Y-12693070I70000J0D01*
G01*
X10532160Y-12893070D02*
G75*
G02*
X10462160Y-12823070I0J70000D01*
G01*
X10672160Y-12693070D02*
G75*
G02*
X10742160Y-12763070I0J-70000D01*
G01*
X10742160Y-12823070D02*
G75*
G02*
X10672160Y-12893070I-70000J0D01*
G01*
%TO.C,R12*%
X15063874Y-9322370D02*
X15111326Y-9322370D01*
X15063874Y-9426870D02*
X15111326Y-9426870D01*
%TO.C,R8*%
X11472314Y-8896170D02*
X11519766Y-8896170D01*
X11472314Y-9000670D02*
X11519766Y-9000670D01*
%TO.C,C14*%
X12392542Y-13038650D02*
X12420658Y-13038650D01*
X12392542Y-13140650D02*
X12420658Y-13140650D01*
%TO.C,C12*%
X11213280Y-13529812D02*
X11213280Y-13557928D01*
X11315280Y-13529812D02*
X11315280Y-13557928D01*
%TO.C,C10*%
X10975482Y-12418450D02*
X11003598Y-12418450D01*
X10975482Y-12520450D02*
X11003598Y-12520450D01*
%TO.C,R2*%
X15007634Y-12874790D02*
X15055086Y-12874790D01*
X15007634Y-12979290D02*
X15055086Y-12979290D01*
%TO.C,JP7*%
X11164280Y-13274550D02*
X11164280Y-13134550D01*
X11234280Y-13064550D02*
X11294280Y-13064550D01*
X11294280Y-13344550D02*
X11234280Y-13344550D01*
X11364280Y-13134550D02*
X11364280Y-13274550D01*
X11164280Y-13134550D02*
G75*
G02*
X11234280Y-13064550I70000J0D01*
G01*
X11234280Y-13344550D02*
G75*
G02*
X11164280Y-13274550I0J70000D01*
G01*
X11294280Y-13064550D02*
G75*
G02*
X11364280Y-13134550I0J-70000D01*
G01*
X11364280Y-13274550D02*
G75*
G02*
X11294280Y-13344550I-70000J0D01*
G01*
%TO.C,JP15*%
X15477060Y-13108610D02*
X15477060Y-13048610D01*
X15547060Y-12978610D02*
X15687060Y-12978610D01*
X15687060Y-13178610D02*
X15547060Y-13178610D01*
X15757060Y-13048610D02*
X15757060Y-13108610D01*
X15477060Y-13048610D02*
G75*
G02*
X15547060Y-12978610I70000J0D01*
G01*
X15547060Y-13178610D02*
G75*
G02*
X15477060Y-13108610I0J70000D01*
G01*
X15687060Y-12978610D02*
G75*
G02*
X15757060Y-13048610I0J-70000D01*
G01*
X15757060Y-13108610D02*
G75*
G02*
X15687060Y-13178610I-70000J0D01*
G01*
%TO.C,JP21*%
X12032720Y-9918220D02*
X12032720Y-9858220D01*
X12102720Y-9788220D02*
X12242720Y-9788220D01*
X12242720Y-9988220D02*
X12102720Y-9988220D01*
X12312720Y-9858220D02*
X12312720Y-9918220D01*
X12032720Y-9858220D02*
G75*
G02*
X12102720Y-9788220I70000J0D01*
G01*
X12102720Y-9988220D02*
G75*
G02*
X12032720Y-9918220I0J70000D01*
G01*
X12242720Y-9788220D02*
G75*
G02*
X12312720Y-9858220I0J-70000D01*
G01*
X12312720Y-9918220D02*
G75*
G02*
X12242720Y-9988220I-70000J0D01*
G01*
%TO.C,R10*%
X14050414Y-8926130D02*
X14097866Y-8926130D01*
X14050414Y-9030630D02*
X14097866Y-9030630D01*
%TO.C,JP22*%
X10414100Y-9727080D02*
X10414100Y-9587080D01*
X10484100Y-9517080D02*
X10544100Y-9517080D01*
X10544100Y-9797080D02*
X10484100Y-9797080D01*
X10614100Y-9587080D02*
X10614100Y-9727080D01*
X10414100Y-9587080D02*
G75*
G02*
X10484100Y-9517080I70000J0D01*
G01*
X10484100Y-9797080D02*
G75*
G02*
X10414100Y-9727080I0J70000D01*
G01*
X10544100Y-9517080D02*
G75*
G02*
X10614100Y-9587080I0J-70000D01*
G01*
X10614100Y-9727080D02*
G75*
G02*
X10544100Y-9797080I-70000J0D01*
G01*
%TO.C,J4*%
X12346100Y-11433040D02*
X12346100Y-10660040D01*
X12622100Y-10660040D02*
X12346100Y-10660040D01*
X12622100Y-11433040D02*
X12346100Y-11433040D01*
X12622100Y-11433040D02*
X12622100Y-10660040D01*
X12622100Y-11560040D02*
X12622100Y-11698040D01*
X12622100Y-11698040D02*
X12484100Y-11698040D01*
%TO.C,C7*%
X14702300Y-13460322D02*
X14702300Y-13488438D01*
X14804300Y-13460322D02*
X14804300Y-13488438D01*
%TO.C,JP19*%
X12032720Y-9191780D02*
X12032720Y-9131780D01*
X12102720Y-9061780D02*
X12242720Y-9061780D01*
X12242720Y-9261780D02*
X12102720Y-9261780D01*
X12312720Y-9131780D02*
X12312720Y-9191780D01*
X12032720Y-9131780D02*
G75*
G02*
X12102720Y-9061780I70000J0D01*
G01*
X12102720Y-9261780D02*
G75*
G02*
X12032720Y-9191780I0J70000D01*
G01*
X12242720Y-9061780D02*
G75*
G02*
X12312720Y-9131780I0J-70000D01*
G01*
X12312720Y-9191780D02*
G75*
G02*
X12242720Y-9261780I-70000J0D01*
G01*
%TO.C,C19*%
X12525322Y-9110780D02*
X12553438Y-9110780D01*
X12525322Y-9212780D02*
X12553438Y-9212780D01*
%TO.C,C17*%
X10593158Y-8976160D02*
X10565042Y-8976160D01*
X10593158Y-9078160D02*
X10565042Y-9078160D01*
%TO.C,C16*%
X10849720Y-13529812D02*
X10849720Y-13557928D01*
X10951720Y-13529812D02*
X10951720Y-13557928D01*
%TO.C,C15*%
X10486160Y-13529812D02*
X10486160Y-13557928D01*
X10588160Y-13529812D02*
X10588160Y-13557928D01*
%TO.C,JP3*%
X11323220Y-12758070D02*
X11323220Y-12698070D01*
X11393220Y-12628070D02*
X11533220Y-12628070D01*
X11533220Y-12828070D02*
X11393220Y-12828070D01*
X11603220Y-12698070D02*
X11603220Y-12758070D01*
X11323220Y-12698070D02*
G75*
G02*
X11393220Y-12628070I70000J0D01*
G01*
X11393220Y-12828070D02*
G75*
G02*
X11323220Y-12758070I0J70000D01*
G01*
X11533220Y-12628070D02*
G75*
G02*
X11603220Y-12698070I0J-70000D01*
G01*
X11603220Y-12758070D02*
G75*
G02*
X11533220Y-12828070I-70000J0D01*
G01*
D15*
%TO.C,U4*%
X14467840Y-9359900D02*
X14671040Y-9359900D01*
X14671040Y-9044940D02*
X14467840Y-9044940D01*
D14*
%TO.C,C4*%
X14514902Y-12397540D02*
X14543018Y-12397540D01*
X14514902Y-12499540D02*
X14543018Y-12499540D01*
%TO.C,JP1*%
X14891360Y-12753380D02*
X14891360Y-12693380D01*
X14961360Y-12623380D02*
X15101360Y-12623380D01*
X15101360Y-12823380D02*
X14961360Y-12823380D01*
X15171360Y-12693380D02*
X15171360Y-12753380D01*
X14891360Y-12693380D02*
G75*
G02*
X14961360Y-12623380I70000J0D01*
G01*
X14961360Y-12823380D02*
G75*
G02*
X14891360Y-12753380I0J70000D01*
G01*
X15101360Y-12623380D02*
G75*
G02*
X15171360Y-12693380I0J-70000D01*
G01*
X15171360Y-12753380D02*
G75*
G02*
X15101360Y-12823380I-70000J0D01*
G01*
%TO.C,R4*%
X10578434Y-12381640D02*
X10625886Y-12381640D01*
X10578434Y-12486140D02*
X10625886Y-12486140D01*
%TO.C,JP32*%
X14947600Y-9201420D02*
X14947600Y-9141420D01*
X15017600Y-9071420D02*
X15157600Y-9071420D01*
X15157600Y-9271420D02*
X15017600Y-9271420D01*
X15227600Y-9141420D02*
X15227600Y-9201420D01*
X14947600Y-9141420D02*
G75*
G02*
X15017600Y-9071420I70000J0D01*
G01*
X15017600Y-9271420D02*
G75*
G02*
X14947600Y-9201420I0J70000D01*
G01*
X15157600Y-9071420D02*
G75*
G02*
X15227600Y-9141420I0J-70000D01*
G01*
X15227600Y-9201420D02*
G75*
G02*
X15157600Y-9271420I-70000J0D01*
G01*
%TO.C,JP31*%
X15652220Y-9912020D02*
X15652220Y-9852020D01*
X15722220Y-9782020D02*
X15862220Y-9782020D01*
X15862220Y-9982020D02*
X15722220Y-9982020D01*
X15932220Y-9852020D02*
X15932220Y-9912020D01*
X15652220Y-9852020D02*
G75*
G02*
X15722220Y-9782020I70000J0D01*
G01*
X15722220Y-9982020D02*
G75*
G02*
X15652220Y-9912020I0J70000D01*
G01*
X15862220Y-9782020D02*
G75*
G02*
X15932220Y-9852020I0J-70000D01*
G01*
X15932220Y-9912020D02*
G75*
G02*
X15862220Y-9982020I-70000J0D01*
G01*
%TO.C,SW4*%
X13891640Y-8009800D02*
X13891640Y-8459800D01*
X14141640Y-8584800D02*
X14291640Y-8584800D01*
X14291640Y-7884800D02*
X14141640Y-7884800D01*
X14541640Y-8459800D02*
X14541640Y-8009800D01*
D16*
%TO.C,U2*%
X14545460Y-12610880D02*
X14594460Y-12610880D01*
X14594460Y-12900880D02*
X14545460Y-12900880D01*
D10*
X14329960Y-12658380D02*
G75*
G02*
X14309960Y-12658380I-10000J0D01*
G01*
X14309960Y-12658380D02*
G75*
G02*
X14329960Y-12658380I10000J0D01*
G01*
D14*
%TO.C,JP20*%
X12032720Y-9555000D02*
X12032720Y-9495000D01*
X12102720Y-9425000D02*
X12242720Y-9425000D01*
X12242720Y-9625000D02*
X12102720Y-9625000D01*
X12312720Y-9495000D02*
X12312720Y-9555000D01*
X12032720Y-9495000D02*
G75*
G02*
X12102720Y-9425000I70000J0D01*
G01*
X12102720Y-9625000D02*
G75*
G02*
X12032720Y-9555000I0J70000D01*
G01*
X12242720Y-9425000D02*
G75*
G02*
X12312720Y-9495000I0J-70000D01*
G01*
X12312720Y-9555000D02*
G75*
G02*
X12242720Y-9625000I-70000J0D01*
G01*
%TO.C,J12*%
X13853640Y-7353450D02*
X13853640Y-7088450D01*
X14129640Y-7088450D02*
X13853640Y-7088450D01*
X14129640Y-7353450D02*
X13853640Y-7353450D01*
X14129640Y-7353450D02*
X14129640Y-7088450D01*
X14129640Y-7480450D02*
X14129640Y-7618450D01*
X14129640Y-7618450D02*
X13991640Y-7618450D01*
%TO.C,JP29*%
X15652220Y-9202020D02*
X15652220Y-9142020D01*
X15722220Y-9072020D02*
X15862220Y-9072020D01*
X15862220Y-9272020D02*
X15722220Y-9272020D01*
X15932220Y-9142020D02*
X15932220Y-9202020D01*
X15652220Y-9142020D02*
G75*
G02*
X15722220Y-9072020I70000J0D01*
G01*
X15722220Y-9272020D02*
G75*
G02*
X15652220Y-9202020I0J70000D01*
G01*
X15862220Y-9072020D02*
G75*
G02*
X15932220Y-9142020I0J-70000D01*
G01*
X15932220Y-9202020D02*
G75*
G02*
X15862220Y-9272020I-70000J0D01*
G01*
%TO.C,C5*%
X15926622Y-13027610D02*
X15954738Y-13027610D01*
X15926622Y-13129610D02*
X15954738Y-13129610D01*
%TO.C,C9*%
X14346550Y-13460322D02*
X14346550Y-13488438D01*
X14448550Y-13460322D02*
X14448550Y-13488438D01*
%TO.C,C22*%
X10463100Y-9979542D02*
X10463100Y-10007658D01*
X10565100Y-9979542D02*
X10565100Y-10007658D01*
%TO.C,R11*%
X14097866Y-9251250D02*
X14050414Y-9251250D01*
X14097866Y-9355750D02*
X14050414Y-9355750D01*
%TO.C,C32*%
X16137802Y-9831020D02*
X16165918Y-9831020D01*
X16137802Y-9933020D02*
X16165918Y-9933020D01*
%TO.C,C6*%
X15926622Y-13382840D02*
X15954738Y-13382840D01*
X15926622Y-13484840D02*
X15954738Y-13484840D01*
%TO.C,R6*%
X11439494Y-12897260D02*
X11486946Y-12897260D01*
X11439494Y-13001760D02*
X11486946Y-13001760D01*
%TO.C,SW3*%
X10396600Y-8009800D02*
X10396600Y-8459800D01*
X10646600Y-8584800D02*
X10796600Y-8584800D01*
X10796600Y-7884800D02*
X10646600Y-7884800D01*
X11046600Y-8459800D02*
X11046600Y-8009800D01*
%TO.C,C20*%
X12525322Y-9474000D02*
X12553438Y-9474000D01*
X12525322Y-9576000D02*
X12553438Y-9576000D01*
%TO.C,C2*%
X10616218Y-12537830D02*
X10588102Y-12537830D01*
X10616218Y-12639830D02*
X10588102Y-12639830D01*
%TO.C,JP18*%
X11356040Y-9191780D02*
X11356040Y-9131780D01*
X11426040Y-9061780D02*
X11566040Y-9061780D01*
X11566040Y-9261780D02*
X11426040Y-9261780D01*
X11636040Y-9131780D02*
X11636040Y-9191780D01*
X11356040Y-9131780D02*
G75*
G02*
X11426040Y-9061780I70000J0D01*
G01*
X11426040Y-9261780D02*
G75*
G02*
X11356040Y-9191780I0J70000D01*
G01*
X11566040Y-9061780D02*
G75*
G02*
X11636040Y-9131780I0J-70000D01*
G01*
X11636040Y-9191780D02*
G75*
G02*
X11566040Y-9261780I-70000J0D01*
G01*
%TO.C,JP10*%
X11923700Y-13481230D02*
X11923700Y-13421230D01*
X11993700Y-13351230D02*
X12133700Y-13351230D01*
X12133700Y-13551230D02*
X11993700Y-13551230D01*
X12203700Y-13421230D02*
X12203700Y-13481230D01*
X11923700Y-13421230D02*
G75*
G02*
X11993700Y-13351230I70000J0D01*
G01*
X11993700Y-13551230D02*
G75*
G02*
X11923700Y-13481230I0J70000D01*
G01*
X12133700Y-13351230D02*
G75*
G02*
X12203700Y-13421230I0J-70000D01*
G01*
X12203700Y-13481230D02*
G75*
G02*
X12133700Y-13551230I-70000J0D01*
G01*
%TO.C,C1*%
X14120858Y-12538220D02*
X14092742Y-12538220D01*
X14120858Y-12640220D02*
X14092742Y-12640220D01*
%TO.C,JP6*%
X10800720Y-13274550D02*
X10800720Y-13134550D01*
X10870720Y-13064550D02*
X10930720Y-13064550D01*
X10930720Y-13344550D02*
X10870720Y-13344550D01*
X11000720Y-13134550D02*
X11000720Y-13274550D01*
X10800720Y-13134550D02*
G75*
G02*
X10870720Y-13064550I70000J0D01*
G01*
X10870720Y-13344550D02*
G75*
G02*
X10800720Y-13274550I0J70000D01*
G01*
X10930720Y-13064550D02*
G75*
G02*
X11000720Y-13134550I0J-70000D01*
G01*
X11000720Y-13274550D02*
G75*
G02*
X10930720Y-13344550I-70000J0D01*
G01*
%TO.C,JP9*%
X11923700Y-13119650D02*
X11923700Y-13059650D01*
X11993700Y-12989650D02*
X12133700Y-12989650D01*
X12133700Y-13189650D02*
X11993700Y-13189650D01*
X12203700Y-13059650D02*
X12203700Y-13119650D01*
X11923700Y-13059650D02*
G75*
G02*
X11993700Y-12989650I70000J0D01*
G01*
X11993700Y-13189650D02*
G75*
G02*
X11923700Y-13119650I0J70000D01*
G01*
X12133700Y-12989650D02*
G75*
G02*
X12203700Y-13059650I0J-70000D01*
G01*
X12203700Y-13119650D02*
G75*
G02*
X12133700Y-13189650I-70000J0D01*
G01*
%TO.C,R5*%
X11439494Y-12475620D02*
X11486946Y-12475620D01*
X11439494Y-12580120D02*
X11486946Y-12580120D01*
%TO.C,R7*%
X10555374Y-8799650D02*
X10602826Y-8799650D01*
X10555374Y-8904150D02*
X10602826Y-8904150D01*
%TO.C,JP14*%
X15477060Y-12753380D02*
X15477060Y-12693380D01*
X15547060Y-12623380D02*
X15687060Y-12623380D01*
X15687060Y-12823380D02*
X15547060Y-12823380D01*
X15757060Y-12693380D02*
X15757060Y-12753380D01*
X15477060Y-12693380D02*
G75*
G02*
X15547060Y-12623380I70000J0D01*
G01*
X15547060Y-12823380D02*
G75*
G02*
X15477060Y-12753380I0J70000D01*
G01*
X15687060Y-12623380D02*
G75*
G02*
X15757060Y-12693380I0J-70000D01*
G01*
X15757060Y-12753380D02*
G75*
G02*
X15687060Y-12823380I-70000J0D01*
G01*
%TO.C,J1*%
X12478880Y-7861450D02*
X12478880Y-7088450D01*
X12754880Y-7088450D02*
X12478880Y-7088450D01*
X12754880Y-7861450D02*
X12478880Y-7861450D01*
X12754880Y-7861450D02*
X12754880Y-7088450D01*
X12754880Y-7988450D02*
X12754880Y-8126450D01*
X12754880Y-8126450D02*
X12616880Y-8126450D01*
%TO.C,J9*%
X15880180Y-12219860D02*
X15880180Y-11954860D01*
X16156180Y-11954860D02*
X15880180Y-11954860D01*
X16156180Y-12219860D02*
X15880180Y-12219860D01*
X16156180Y-12219860D02*
X16156180Y-11954860D01*
X16156180Y-12346860D02*
X16156180Y-12484860D01*
X16156180Y-12484860D02*
X16018180Y-12484860D01*
%TO.C,SW2*%
X10419660Y-11535320D02*
X10419660Y-11985320D01*
X10669660Y-12110320D02*
X10819660Y-12110320D01*
X10819660Y-11410320D02*
X10669660Y-11410320D01*
X11069660Y-11985320D02*
X11069660Y-11535320D01*
%TO.C,J2*%
X10358600Y-7353450D02*
X10358600Y-7088450D01*
X10634600Y-7088450D02*
X10358600Y-7088450D01*
X10634600Y-7353450D02*
X10358600Y-7353450D01*
X10634600Y-7353450D02*
X10634600Y-7088450D01*
X10634600Y-7480450D02*
X10634600Y-7618450D01*
X10634600Y-7618450D02*
X10496600Y-7618450D01*
%TO.C,J5*%
X10381660Y-10925040D02*
X10381660Y-10660040D01*
X10657660Y-10660040D02*
X10381660Y-10660040D01*
X10657660Y-10925040D02*
X10381660Y-10925040D01*
X10657660Y-10925040D02*
X10657660Y-10660040D01*
X10657660Y-11052040D02*
X10657660Y-11190040D01*
X10657660Y-11190040D02*
X10519660Y-11190040D01*
%TO.C,JP8*%
X11923700Y-12758070D02*
X11923700Y-12698070D01*
X11993700Y-12628070D02*
X12133700Y-12628070D01*
X12133700Y-12828070D02*
X11993700Y-12828070D01*
X12203700Y-12698070D02*
X12203700Y-12758070D01*
X11923700Y-12698070D02*
G75*
G02*
X11993700Y-12628070I70000J0D01*
G01*
X11993700Y-12828070D02*
G75*
G02*
X11923700Y-12758070I0J70000D01*
G01*
X12133700Y-12628070D02*
G75*
G02*
X12203700Y-12698070I0J-70000D01*
G01*
X12203700Y-12758070D02*
G75*
G02*
X12133700Y-12828070I-70000J0D01*
G01*
%TO.C,JP17*%
X10439100Y-9260360D02*
X10439100Y-9200360D01*
X10509100Y-9130360D02*
X10649100Y-9130360D01*
X10649100Y-9330360D02*
X10509100Y-9330360D01*
X10719100Y-9200360D02*
X10719100Y-9260360D01*
X10439100Y-9200360D02*
G75*
G02*
X10509100Y-9130360I70000J0D01*
G01*
X10509100Y-9330360D02*
G75*
G02*
X10439100Y-9260360I0J70000D01*
G01*
X10649100Y-9130360D02*
G75*
G02*
X10719100Y-9200360I0J-70000D01*
G01*
X10719100Y-9260360D02*
G75*
G02*
X10649100Y-9330360I-70000J0D01*
G01*
%TO.C,R1*%
X14083074Y-12381050D02*
X14130526Y-12381050D01*
X14083074Y-12485550D02*
X14130526Y-12485550D01*
%TO.C,J3*%
X12478880Y-8600940D02*
X12478880Y-8335940D01*
X12754880Y-8335940D02*
X12478880Y-8335940D01*
X12754880Y-8600940D02*
X12478880Y-8600940D01*
X12754880Y-8600940D02*
X12754880Y-8335940D01*
X12754880Y-8727940D02*
X12754880Y-8865940D01*
X12754880Y-8865940D02*
X12616880Y-8865940D01*
%TO.C,JP24*%
X11131280Y-9727080D02*
X11131280Y-9587080D01*
X11201280Y-9517080D02*
X11261280Y-9517080D01*
X11261280Y-9797080D02*
X11201280Y-9797080D01*
X11331280Y-9587080D02*
X11331280Y-9727080D01*
X11131280Y-9587080D02*
G75*
G02*
X11201280Y-9517080I70000J0D01*
G01*
X11201280Y-9797080D02*
G75*
G02*
X11131280Y-9727080I0J70000D01*
G01*
X11261280Y-9517080D02*
G75*
G02*
X11331280Y-9587080I0J-70000D01*
G01*
X11331280Y-9727080D02*
G75*
G02*
X11261280Y-9797080I-70000J0D01*
G01*
%TO.C,C3*%
X15926622Y-12672380D02*
X15954738Y-12672380D01*
X15926622Y-12774380D02*
X15954738Y-12774380D01*
%TO.C,R3*%
X15007634Y-12468390D02*
X15055086Y-12468390D01*
X15007634Y-12572890D02*
X15055086Y-12572890D01*
%TO.C,JP13*%
X14653300Y-13220560D02*
X14653300Y-13080560D01*
X14723300Y-13010560D02*
X14783300Y-13010560D01*
X14783300Y-13290560D02*
X14723300Y-13290560D01*
X14853300Y-13080560D02*
X14853300Y-13220560D01*
X14653300Y-13080560D02*
G75*
G02*
X14723300Y-13010560I70000J0D01*
G01*
X14723300Y-13290560D02*
G75*
G02*
X14653300Y-13220560I0J70000D01*
G01*
X14783300Y-13010560D02*
G75*
G02*
X14853300Y-13080560I0J-70000D01*
G01*
X14853300Y-13220560D02*
G75*
G02*
X14783300Y-13290560I-70000J0D01*
G01*
%TO.C,JP30*%
X15652220Y-9557020D02*
X15652220Y-9497020D01*
X15722220Y-9427020D02*
X15862220Y-9427020D01*
X15862220Y-9627020D02*
X15722220Y-9627020D01*
X15932220Y-9497020D02*
X15932220Y-9557020D01*
X15652220Y-9497020D02*
G75*
G02*
X15722220Y-9427020I70000J0D01*
G01*
X15722220Y-9627020D02*
G75*
G02*
X15652220Y-9557020I0J70000D01*
G01*
X15862220Y-9427020D02*
G75*
G02*
X15932220Y-9497020I0J-70000D01*
G01*
X15932220Y-9557020D02*
G75*
G02*
X15862220Y-9627020I-70000J0D01*
G01*
%TD*%
M02*
