%TF.GenerationSoftware,KiCad,Pcbnew,9.0.1*%
%TF.CreationDate,2025-05-02T17:03:06+07:00*%
%TF.ProjectId,push-button-controller,70757368-2d62-4757-9474-6f6e2d636f6e,rev?*%
%TF.SameCoordinates,Original*%
%TF.FileFunction,Paste,Top*%
%TF.FilePolarity,Positive*%
%FSLAX45Y45*%
G04 Gerber Fmt 4.5, Leading zero omitted, Abs format (unit mm)*
G04 Created by KiCad (PCBNEW 9.0.1) date 2025-05-02 17:03:06*
%MOMM*%
%LPD*%
G01*
G04 APERTURE LIST*
G04 Aperture macros list*
%AMRoundRect*
0 Rectangle with rounded corners*
0 $1 Rounding radius*
0 $2 $3 $4 $5 $6 $7 $8 $9 X,Y pos of 4 corners*
0 Add a 4 corners polygon primitive as box body*
4,1,4,$2,$3,$4,$5,$6,$7,$8,$9,$2,$3,0*
0 Add four circle primitives for the rounded corners*
1,1,$1+$1,$2,$3*
1,1,$1+$1,$4,$5*
1,1,$1+$1,$6,$7*
1,1,$1+$1,$8,$9*
0 Add four rect primitives between the rounded corners*
20,1,$1+$1,$2,$3,$4,$5,0*
20,1,$1+$1,$4,$5,$6,$7,0*
20,1,$1+$1,$6,$7,$8,$9,0*
20,1,$1+$1,$8,$9,$2,$3,0*%
G04 Aperture macros list end*
%ADD10RoundRect,0.225000X0.225000X0.250000X-0.225000X0.250000X-0.225000X-0.250000X0.225000X-0.250000X0*%
%ADD11RoundRect,0.200000X-0.200000X-0.275000X0.200000X-0.275000X0.200000X0.275000X-0.200000X0.275000X0*%
%ADD12RoundRect,0.225000X-0.225000X-0.250000X0.225000X-0.250000X0.225000X0.250000X-0.225000X0.250000X0*%
%ADD13R,1.219200X0.406400*%
%ADD14RoundRect,0.225000X-0.250000X0.225000X-0.250000X-0.225000X0.250000X-0.225000X0.250000X0.225000X0*%
%ADD15RoundRect,0.057500X-0.562500X-0.172500X0.562500X-0.172500X0.562500X0.172500X-0.562500X0.172500X0*%
%ADD16RoundRect,0.200000X0.200000X0.275000X-0.200000X0.275000X-0.200000X-0.275000X0.200000X-0.275000X0*%
G04 APERTURE END LIST*
D10*
%TO.C,C25*%
X14151640Y-9135860D03*
X13996640Y-9135860D03*
%TD*%
D11*
%TO.C,R9*%
X11413540Y-9367520D03*
X11578540Y-9367520D03*
%TD*%
D12*
%TO.C,C13*%
X12329100Y-12728070D03*
X12484100Y-12728070D03*
%TD*%
D13*
%TO.C,U1*%
X10912040Y-12663070D03*
X10912040Y-12728070D03*
X10912040Y-12793070D03*
X10912040Y-12858070D03*
X11140640Y-12858070D03*
X11140640Y-12793070D03*
X11140640Y-12728070D03*
X11140640Y-12663070D03*
%TD*%
D12*
%TO.C,C31*%
X16074360Y-9527020D03*
X16229360Y-9527020D03*
%TD*%
%TO.C,C29*%
X14461460Y-8894560D03*
X14616460Y-8894560D03*
%TD*%
%TO.C,C21*%
X12461880Y-9888220D03*
X12616880Y-9888220D03*
%TD*%
D14*
%TO.C,C8*%
X14041800Y-13396880D03*
X14041800Y-13551880D03*
%TD*%
D12*
%TO.C,C30*%
X16074360Y-9172020D03*
X16229360Y-9172020D03*
%TD*%
D14*
%TO.C,C23*%
X10872690Y-9916100D03*
X10872690Y-10071100D03*
%TD*%
D12*
%TO.C,C11*%
X12329100Y-13451230D03*
X12484100Y-13451230D03*
%TD*%
%TO.C,C18*%
X10905460Y-8910320D03*
X11060460Y-8910320D03*
%TD*%
D13*
%TO.C,U3*%
X10906760Y-9098280D03*
X10906760Y-9161780D03*
X10906760Y-9227820D03*
X10906760Y-9291320D03*
X11150600Y-9291320D03*
X11150600Y-9227820D03*
X11150600Y-9161780D03*
X11150600Y-9098280D03*
%TD*%
D14*
%TO.C,C24*%
X11231280Y-9916100D03*
X11231280Y-10071100D03*
%TD*%
D11*
%TO.C,R12*%
X15005100Y-9374620D03*
X15170100Y-9374620D03*
%TD*%
%TO.C,R8*%
X11413540Y-8948420D03*
X11578540Y-8948420D03*
%TD*%
D12*
%TO.C,C14*%
X12329100Y-13089650D03*
X12484100Y-13089650D03*
%TD*%
D14*
%TO.C,C12*%
X11264280Y-13466370D03*
X11264280Y-13621370D03*
%TD*%
D12*
%TO.C,C10*%
X10912040Y-12469450D03*
X11067040Y-12469450D03*
%TD*%
D11*
%TO.C,R2*%
X14948860Y-12927040D03*
X15113860Y-12927040D03*
%TD*%
%TO.C,R10*%
X13991640Y-8978380D03*
X14156640Y-8978380D03*
%TD*%
D14*
%TO.C,C7*%
X14753300Y-13396880D03*
X14753300Y-13551880D03*
%TD*%
D12*
%TO.C,C19*%
X12461880Y-9161780D03*
X12616880Y-9161780D03*
%TD*%
D10*
%TO.C,C17*%
X10656600Y-9027160D03*
X10501600Y-9027160D03*
%TD*%
D14*
%TO.C,C16*%
X10900720Y-13466370D03*
X10900720Y-13621370D03*
%TD*%
%TO.C,C15*%
X10537160Y-13466370D03*
X10537160Y-13621370D03*
%TD*%
D13*
%TO.C,U4*%
X14683740Y-9299920D03*
X14683740Y-9234920D03*
X14683740Y-9169920D03*
X14683740Y-9104920D03*
X14455140Y-9104920D03*
X14455140Y-9169920D03*
X14455140Y-9234920D03*
X14455140Y-9299920D03*
%TD*%
D12*
%TO.C,C4*%
X14451460Y-12448540D03*
X14606460Y-12448540D03*
%TD*%
D11*
%TO.C,R4*%
X10519660Y-12433890D03*
X10684660Y-12433890D03*
%TD*%
D15*
%TO.C,U2*%
X14451460Y-12658380D03*
X14451460Y-12723380D03*
X14451460Y-12788380D03*
X14451460Y-12853380D03*
X14688460Y-12853380D03*
X14688460Y-12788380D03*
X14688460Y-12723380D03*
X14688460Y-12658380D03*
%TD*%
D12*
%TO.C,C5*%
X15863180Y-13078610D03*
X16018180Y-13078610D03*
%TD*%
D14*
%TO.C,C9*%
X14397550Y-13396880D03*
X14397550Y-13551880D03*
%TD*%
%TO.C,C22*%
X10514100Y-9916100D03*
X10514100Y-10071100D03*
%TD*%
D16*
%TO.C,R11*%
X14156640Y-9303500D03*
X13991640Y-9303500D03*
%TD*%
D12*
%TO.C,C32*%
X16074360Y-9882020D03*
X16229360Y-9882020D03*
%TD*%
%TO.C,C6*%
X15863180Y-13433840D03*
X16018180Y-13433840D03*
%TD*%
D11*
%TO.C,R6*%
X11380720Y-12949510D03*
X11545720Y-12949510D03*
%TD*%
D12*
%TO.C,C20*%
X12461880Y-9525000D03*
X12616880Y-9525000D03*
%TD*%
D10*
%TO.C,C2*%
X10679660Y-12588830D03*
X10524660Y-12588830D03*
%TD*%
%TO.C,C1*%
X14184300Y-12589220D03*
X14029300Y-12589220D03*
%TD*%
D11*
%TO.C,R5*%
X11380720Y-12527870D03*
X11545720Y-12527870D03*
%TD*%
%TO.C,R7*%
X10496600Y-8851900D03*
X10661600Y-8851900D03*
%TD*%
%TO.C,R1*%
X14024300Y-12433300D03*
X14189300Y-12433300D03*
%TD*%
D12*
%TO.C,C3*%
X15863180Y-12723380D03*
X16018180Y-12723380D03*
%TD*%
D11*
%TO.C,R3*%
X14948860Y-12520640D03*
X15113860Y-12520640D03*
%TD*%
M02*
